  0
SECTION
  2
HEADER
  9
$ANGBASE
  50
0.0
  9
$ANGDIR
  70
1
  9
$MEASUREMENT
  70
0
  0
ENDSEC
  0
SECTION
  2
TABLES
  0
TABLE
  2
LTYPE
  70
4
  0
LTYPE
  5
40F
  2
CONTINUOUS
  70
0
  3
Solid line
  72
65
  73
0
  40
0.0
  0
LTYPE
  5
410
  2
DASHDOT
 70
0
  3
Dash Dot ____ _ ____ _
 72
65
 73
4
 40
2.0
 49
1.25
 49
-0.25
 49
0.25
 49
-0.25
  0
LTYPE
  5
411
  2
DASHED
 70
0
  3
Dashed __ __ __ __ __
 72
65
 73
2
 40
0.75
 49
0.5
 49
-0.25
  0
LTYPE
  5
43B
  2
DOTTED
 70
0
  3
Dotted .  .  .  .
 72
65
 73
2
 40
0.2
 49
0.0
 49
-0.2
  0
ENDTAB
  0
TABLE
  2
STYLE
  70
4
  0
STYLE
  2
KICAD
  70
0
  40
0
  41
1
  42
1
  50
0
  71
0
  3
isocp.shx
  0
STYLE
  2
KICADB
  70
0
  40
0
  41
1
  42
1
  50
0
  71
0
  3
isocp.shx
  0
STYLE
  2
KICADI
  70
0
  40
0
  41
1
  42
1
  50
15
  71
0
  3
isocp.shx
  0
STYLE
  2
KICADBI
  70
0
  40
0
  41
1
  42
1
  50
15
  71
0
  3
isocp.shx
  0
ENDTAB
  0
TABLE
  2
LAYER
  70
1
  0
LAYER
  2
BLACK
  70
0
  62
7
  6
CONTINUOUS
  0
ENDTAB
  0
ENDSEC
  0
SECTION
  2
ENTITIES
0
LINE
8
BLACK
6
CONTINUOUS
10
1.9907533070866141
20
1.5918186614173229
11
1.9918186614173228
21
1.5907533070866142
0
LINE
8
BLACK
6
CONTINUOUS
10
1.9918186614173228
20
1.5907533070866142
11
1.9919685039370079
21
1.5899999999999999
0
LINE
8
BLACK
6
CONTINUOUS
10
1.9919685039370079
20
1.5899999999999999
11
1.9919685039370079
21
0.01
0
LINE
8
BLACK
6
CONTINUOUS
10
1.9919685039370079
20
0.01
11
1.9918186614173228
21
0.0092466929133858
0
LINE
8
BLACK
6
CONTINUOUS
10
1.9918186614173228
20
0.0092466929133858
11
1.9907533070866141
21
0.0081813385826772
0
LINE
8
BLACK
6
CONTINUOUS
10
1.9907533070866141
20
0.0081813385826772
11
1.99
21
0.0080314960629921
0
LINE
8
BLACK
6
CONTINUOUS
10
1.99
20
0.0080314960629921
11
0.01
21
0.0080314960629921
0
LINE
8
BLACK
6
CONTINUOUS
10
0.01
20
0.0080314960629921
11
0.0092466929133858
21
0.0081813385826772
0
LINE
8
BLACK
6
CONTINUOUS
10
0.0092466929133858
20
0.0081813385826772
11
0.0081813385826772
21
0.0092466929133858
0
LINE
8
BLACK
6
CONTINUOUS
10
0.0081813385826772
20
0.0092466929133858
11
0.0080314960629921
21
0.01
0
LINE
8
BLACK
6
CONTINUOUS
10
0.0080314960629921
20
0.01
11
0.0080314960629921
21
1.5899999999999999
0
LINE
8
BLACK
6
CONTINUOUS
10
0.0080314960629921
20
1.5899999999999999
11
0.0081813385826772
21
1.5907533070866142
0
LINE
8
BLACK
6
CONTINUOUS
10
0.0081813385826772
20
1.5907533070866142
11
0.0092466929133858
21
1.5918186614173229
0
LINE
8
BLACK
6
CONTINUOUS
10
0.0092466929133858
20
1.5918186614173229
11
0.01
21
1.5919685039370077
0
LINE
8
BLACK
6
CONTINUOUS
10
0.01
20
1.5919685039370077
11
1.99
21
1.5919685039370077
0
LINE
8
BLACK
6
CONTINUOUS
10
1.99
20
1.5919685039370077
11
1.9907533070866141
21
1.5918186614173229
0
LINE
8
BLACK
6
CONTINUOUS
10
0.0119685039370079
20
1.588031496062992
11
0.0119685039370079
21
0.0119685039370079
0
LINE
8
BLACK
6
CONTINUOUS
10
0.0119685039370079
20
0.0119685039370079
11
1.9880314960629921
21
0.0119685039370079
0
LINE
8
BLACK
6
CONTINUOUS
10
1.9880314960629921
20
0.0119685039370079
11
1.9880314960629921
21
1.588031496062992
0
LINE
8
BLACK
6
CONTINUOUS
10
1.9880314960629921
20
1.588031496062992
11
0.0119685039370079
21
1.588031496062992
0
CIRCLE
8
BLACK
10
0.1
20
0.98
40
0.0068897637795276
0
CIRCLE
8
BLACK
10
0.2
20
0.98
40
0.0068897637795276
0
CIRCLE
8
BLACK
10
0.1
20
1.0800000000000001
40
0.0068897637795276
0
CIRCLE
8
BLACK
10
0.2
20
1.0800000000000001
40
0.0068897637795276
0
CIRCLE
8
BLACK
10
0.1
20
1.1799999999999999
40
0.0068897637795276
0
CIRCLE
8
BLACK
10
0.2
20
1.1799999999999999
40
0.0068897637795276
0
CIRCLE
8
BLACK
10
1.3499999999999999
20
1.03
40
0.0068897637795276
0
CIRCLE
8
BLACK
10
1.45
20
1.03
40
0.0068897637795276
0
CIRCLE
8
BLACK
10
1.75
20
1.1699999999999999
40
0.0068897637795276
0
CIRCLE
8
BLACK
10
1.8499999999999999
20
1.1699999999999999
40
0.0068897637795276
0
CIRCLE
8
BLACK
10
1.75
20
1.0700000000000001
40
0.0068897637795276
0
CIRCLE
8
BLACK
10
1.8499999999999999
20
1.0700000000000001
40
0.0068897637795276
0
CIRCLE
8
BLACK
10
1.1899999999999999
20
0.21
40
0.0068897637795276
0
CIRCLE
8
BLACK
10
1.1899999999999999
20
0.31
40
0.0068897637795276
0
CIRCLE
8
BLACK
10
1.3499999999999999
20
1.1299999999999999
40
0.0068897637795276
0
CIRCLE
8
BLACK
10
1.45
20
1.1299999999999999
40
0.0068897637795276
0
CIRCLE
8
BLACK
10
1.3499999999999999
20
1.3300000000000001
40
0.0068897637795276
0
CIRCLE
8
BLACK
10
1.45
20
1.3300000000000001
40
0.0068897637795276
0
CIRCLE
8
BLACK
10
1.3499999999999999
20
1.4299999999999999
40
0.0068897637795276
0
CIRCLE
8
BLACK
10
1.45
20
1.4299999999999999
40
0.0068897637795276
0
CIRCLE
8
BLACK
10
0.99
20
0.21
40
0.0068897637795276
0
CIRCLE
8
BLACK
10
0.99
20
0.31
40
0.0068897637795276
0
CIRCLE
8
BLACK
10
1.0900000000000001
20
0.31
40
0.0068897637795276
0
CIRCLE
8
BLACK
10
1.0900000000000001
20
0.21
40
0.0068897637795276
0
CIRCLE
8
BLACK
10
0.2
20
0.2
40
0.0068897637795276
0
CIRCLE
8
BLACK
10
0.2
20
1.3999999999999999
40
0.0068897637795276
0
CIRCLE
8
BLACK
10
1.8
20
0.2
40
0.0068897637795276
0
CIRCLE
8
BLACK
10
1.8
20
1.3999999999999999
40
0.0068897637795276
0
CIRCLE
8
BLACK
10
0.47
20
0.15
40
0.0068897637795276
0
CIRCLE
8
BLACK
10
0.47
20
0.25
40
0.0068897637795276
0
CIRCLE
8
BLACK
10
0.57
20
0.15
40
0.0068897637795276
0
CIRCLE
8
BLACK
10
0.57
20
0.25
40
0.0068897637795276
0
CIRCLE
8
BLACK
10
1.3499999999999999
20
1.23
40
0.0068897637795276
0
CIRCLE
8
BLACK
10
1.45
20
1.23
40
0.0068897637795276
0
CIRCLE
8
BLACK
10
0.54
20
1.3868503937007874
40
0.0068897637795276
0
CIRCLE
8
BLACK
10
0.54
20
1.1899999999999999
40
0.0068897637795276
0
CIRCLE
8
BLACK
10
0.74
20
1.3868503937007874
40
0.0068897637795276
0
CIRCLE
8
BLACK
10
0.74
20
1.1899999999999999
40
0.0068897637795276
0
CIRCLE
8
BLACK
10
1.05
20
1.2356
40
0.0068897637795276
0
CIRCLE
8
BLACK
10
1.05
20
1.3144
40
0.0068897637795276
0
CIRCLE
8
BLACK
10
0.4068503937007874
20
0.72
40
0.0068897637795276
0
CIRCLE
8
BLACK
10
0.21
20
0.72
40
0.0068897637795276
0
CIRCLE
8
BLACK
10
0.4068503937007874
20
0.5231496062992126
40
0.0068897637795276
0
CIRCLE
8
BLACK
10
0.21
20
0.5231496062992126
40
0.0068897637795276
0
CIRCLE
8
BLACK
10
1.5931496062992125
20
0.79
40
0.0068897637795276
0
CIRCLE
8
BLACK
10
1.79
20
0.79
40
0.0068897637795276
0
CIRCLE
8
BLACK
10
1.5931496062992125
20
0.5931496062992125
40
0.0068897637795276
0
CIRCLE
8
BLACK
10
1.79
20
0.5931496062992125
40
0.0068897637795276
0
CIRCLE
8
BLACK
10
1.29
20
0.31
40
0.0068897637795276
0
CIRCLE
8
BLACK
10
1.29
20
0.21
40
0.0068897637795276
  0
ENDSEC
  0
EOF
