  0
SECTION
  2
HEADER
  9
$ANGBASE
  50
0.0
  9
$ANGDIR
  70
1
  9
$MEASUREMENT
  70
0
  0
ENDSEC
  0
SECTION
  2
TABLES
  0
TABLE
  2
LTYPE
  70
4
  0
LTYPE
  5
40F
  2
CONTINUOUS
  70
0
  3
Solid line
  72
65
  73
0
  40
0.0
  0
LTYPE
  5
410
  2
DASHDOT
 70
0
  3
Dash Dot ____ _ ____ _
 72
65
 73
4
 40
2.0
 49
1.25
 49
-0.25
 49
0.25
 49
-0.25
  0
LTYPE
  5
411
  2
DASHED
 70
0
  3
Dashed __ __ __ __ __
 72
65
 73
2
 40
0.75
 49
0.5
 49
-0.25
  0
LTYPE
  5
43B
  2
DOTTED
 70
0
  3
Dotted .  .  .  .
 72
65
 73
2
 40
0.2
 49
0.0
 49
-0.2
  0
ENDTAB
  0
TABLE
  2
STYLE
  70
4
  0
STYLE
  2
KICAD
  70
0
  40
0
  41
1
  42
1
  50
0
  71
0
  3
isocp.shx
  0
STYLE
  2
KICADB
  70
0
  40
0
  41
1
  42
1
  50
0
  71
0
  3
isocp.shx
  0
STYLE
  2
KICADI
  70
0
  40
0
  41
1
  42
1
  50
15
  71
0
  3
isocp.shx
  0
STYLE
  2
KICADBI
  70
0
  40
0
  41
1
  42
1
  50
15
  71
0
  3
isocp.shx
  0
ENDTAB
  0
TABLE
  2
LAYER
  70
1
  0
LAYER
  2
BLACK
  70
0
  62
7
  6
CONTINUOUS
  0
ENDTAB
  0
ENDSEC
  0
SECTION
  2
ENTITIES
0
LINE
8
BLACK
6
CONTINUOUS
10
0.221038779527559
20
0.3238253937007874
11
0.2347705511811023
21
0.3206912204724409
0
LINE
8
BLACK
6
CONTINUOUS
10
0.2347705511811023
20
0.3206912204724409
11
0.2480650393700787
21
0.3160392519685039
0
LINE
8
BLACK
6
CONTINUOUS
10
0.2480650393700787
20
0.3160392519685039
11
0.2607550787401575
21
0.3099280708661417
0
LINE
8
BLACK
6
CONTINUOUS
10
0.2607550787401575
20
0.3099280708661417
11
0.2726811023622047
21
0.3024344488188976
0
LINE
8
BLACK
6
CONTINUOUS
10
0.2726811023622047
20
0.3024344488188976
11
0.2836931496062992
21
0.2936526377952756
0
LINE
8
BLACK
6
CONTINUOUS
10
0.2836931496062992
20
0.2936526377952756
11
0.2936526377952756
21
0.2836931496062992
0
LINE
8
BLACK
6
CONTINUOUS
10
0.2936526377952756
20
0.2836931496062992
11
0.3024344488188976
21
0.2726811023622047
0
LINE
8
BLACK
6
CONTINUOUS
10
0.3024344488188976
20
0.2726811023622047
11
0.3099280708661417
21
0.2607550787401575
0
LINE
8
BLACK
6
CONTINUOUS
10
0.3099280708661417
20
0.2607550787401575
11
0.3160392519685039
21
0.2480650393700787
0
LINE
8
BLACK
6
CONTINUOUS
10
0.3160392519685039
20
0.2480650393700787
11
0.3206912204724409
21
0.2347705511811023
0
LINE
8
BLACK
6
CONTINUOUS
10
0.3206912204724409
20
0.2347705511811023
11
0.3238253937007874
21
0.221038779527559
0
LINE
8
BLACK
6
CONTINUOUS
10
0.3238253937007874
20
0.221038779527559
11
0.3254024015748032
21
0.2070424409448819
0
LINE
8
BLACK
6
CONTINUOUS
10
0.3254024015748032
20
0.2070424409448819
11
0.3254024015748032
21
0.1929575590551181
0
LINE
8
BLACK
6
CONTINUOUS
10
0.3254024015748032
20
0.1929575590551181
11
0.3238253937007874
21
0.178961220472441
0
LINE
8
BLACK
6
CONTINUOUS
10
0.3238253937007874
20
0.178961220472441
11
0.3206912204724409
21
0.1652294488188976
0
LINE
8
BLACK
6
CONTINUOUS
10
0.3206912204724409
20
0.1652294488188976
11
0.3160392519685039
21
0.1519349606299213
0
LINE
8
BLACK
6
CONTINUOUS
10
0.3160392519685039
20
0.1519349606299213
11
0.3099280708661417
21
0.1392449212598425
0
LINE
8
BLACK
6
CONTINUOUS
10
0.3099280708661417
20
0.1392449212598425
11
0.3024344488188976
21
0.1273188976377953
0
LINE
8
BLACK
6
CONTINUOUS
10
0.3024344488188976
20
0.1273188976377953
11
0.2936526377952756
21
0.1163068503937008
0
LINE
8
BLACK
6
CONTINUOUS
10
0.2936526377952756
20
0.1163068503937008
11
0.2836931496062992
21
0.1063473622047244
0
LINE
8
BLACK
6
CONTINUOUS
10
0.2836931496062992
20
0.1063473622047244
11
0.2726811023622047
21
0.0975655511811024
0
LINE
8
BLACK
6
CONTINUOUS
10
0.2726811023622047
20
0.0975655511811024
11
0.2607550787401575
21
0.0900719291338583
0
LINE
8
BLACK
6
CONTINUOUS
10
0.2607550787401575
20
0.0900719291338583
11
0.2480650393700787
21
0.0839607480314961
0
LINE
8
BLACK
6
CONTINUOUS
10
0.2480650393700787
20
0.0839607480314961
11
0.2347705511811023
21
0.079308779527559
0
LINE
8
BLACK
6
CONTINUOUS
10
0.2347705511811023
20
0.079308779527559
11
0.221038779527559
21
0.0761746062992126
0
LINE
8
BLACK
6
CONTINUOUS
10
0.221038779527559
20
0.0761746062992126
11
0.2070424409448819
21
0.0745975984251969
0
LINE
8
BLACK
6
CONTINUOUS
10
0.2070424409448819
20
0.0745975984251969
11
0.1929575590551181
21
0.0745975984251969
0
LINE
8
BLACK
6
CONTINUOUS
10
0.1929575590551181
20
0.0745975984251969
11
0.178961220472441
21
0.0761746062992126
0
LINE
8
BLACK
6
CONTINUOUS
10
0.178961220472441
20
0.0761746062992126
11
0.1652294488188976
21
0.079308779527559
0
LINE
8
BLACK
6
CONTINUOUS
10
0.1652294488188976
20
0.079308779527559
11
0.1519349606299213
21
0.0839607480314961
0
LINE
8
BLACK
6
CONTINUOUS
10
0.1519349606299213
20
0.0839607480314961
11
0.1392449212598425
21
0.0900719291338583
0
LINE
8
BLACK
6
CONTINUOUS
10
0.1392449212598425
20
0.0900719291338583
11
0.1273188976377953
21
0.0975655511811024
0
LINE
8
BLACK
6
CONTINUOUS
10
0.1273188976377953
20
0.0975655511811024
11
0.1163068503937008
21
0.1063473622047244
0
LINE
8
BLACK
6
CONTINUOUS
10
0.1163068503937008
20
0.1063473622047244
11
0.1063473622047244
21
0.1163068503937008
0
LINE
8
BLACK
6
CONTINUOUS
10
0.1063473622047244
20
0.1163068503937008
11
0.0975655511811024
21
0.1273188976377953
0
LINE
8
BLACK
6
CONTINUOUS
10
0.0975655511811024
20
0.1273188976377953
11
0.0900719291338583
21
0.1392449212598425
0
LINE
8
BLACK
6
CONTINUOUS
10
0.0900719291338583
20
0.1392449212598425
11
0.0839607480314961
21
0.1519349606299213
0
LINE
8
BLACK
6
CONTINUOUS
10
0.0839607480314961
20
0.1519349606299213
11
0.079308779527559
21
0.1652294488188976
0
LINE
8
BLACK
6
CONTINUOUS
10
0.079308779527559
20
0.1652294488188976
11
0.0761746062992126
21
0.178961220472441
0
LINE
8
BLACK
6
CONTINUOUS
10
0.0761746062992126
20
0.178961220472441
11
0.0745975984251969
21
0.1929575590551181
0
LINE
8
BLACK
6
CONTINUOUS
10
0.0745975984251969
20
0.1929575590551181
11
0.0745975984251969
21
0.2062111811023622
0
LINE
8
BLACK
6
CONTINUOUS
10
0.0745975984251969
20
0.2062111811023622
11
0.0745975984251969
21
0.2070424409448819
0
LINE
8
BLACK
6
CONTINUOUS
10
0.0745975984251969
20
0.2070424409448819
11
0.0761746062992126
21
0.221038779527559
0
LINE
8
BLACK
6
CONTINUOUS
10
0.0761746062992126
20
0.221038779527559
11
0.079308779527559
21
0.2347705511811023
0
LINE
8
BLACK
6
CONTINUOUS
10
0.079308779527559
20
0.2347705511811023
11
0.0839607480314961
21
0.2480650393700787
0
LINE
8
BLACK
6
CONTINUOUS
10
0.0839607480314961
20
0.2480650393700787
11
0.0900719291338583
21
0.2607550787401575
0
LINE
8
BLACK
6
CONTINUOUS
10
0.0900719291338583
20
0.2607550787401575
11
0.0975655511811024
21
0.2726811023622047
0
LINE
8
BLACK
6
CONTINUOUS
10
0.0975655511811024
20
0.2726811023622047
11
0.1063473622047244
21
0.2836931496062992
0
LINE
8
BLACK
6
CONTINUOUS
10
0.1063473622047244
20
0.2836931496062992
11
0.1163068503937008
21
0.2936526377952756
0
LINE
8
BLACK
6
CONTINUOUS
10
0.1163068503937008
20
0.2936526377952756
11
0.1273188976377953
21
0.3024344488188976
0
LINE
8
BLACK
6
CONTINUOUS
10
0.1273188976377953
20
0.3024344488188976
11
0.1392449212598425
21
0.3099280708661417
0
LINE
8
BLACK
6
CONTINUOUS
10
0.1392449212598425
20
0.3099280708661417
11
0.1519349606299213
21
0.3160392519685039
0
LINE
8
BLACK
6
CONTINUOUS
10
0.1519349606299213
20
0.3160392519685039
11
0.1652294488188976
21
0.3206912204724409
0
LINE
8
BLACK
6
CONTINUOUS
10
0.1652294488188976
20
0.3206912204724409
11
0.178961220472441
21
0.3238253937007874
0
LINE
8
BLACK
6
CONTINUOUS
10
0.178961220472441
20
0.3238253937007874
11
0.1929575590551181
21
0.3254024015748032
0
LINE
8
BLACK
6
CONTINUOUS
10
0.1929575590551181
20
0.3254024015748032
11
0.2070424409448819
21
0.3254024015748032
0
LINE
8
BLACK
6
CONTINUOUS
10
0.2070424409448819
20
0.3254024015748032
11
0.221038779527559
21
0.3238253937007874
0
LINE
8
BLACK
6
CONTINUOUS
10
0.0894
20
0.1937888188976378
11
0.0907908661417323
21
0.1814446062992126
0
LINE
8
BLACK
6
CONTINUOUS
10
0.0907908661417323
20
0.1814446062992126
11
0.0935551181102362
21
0.1693337401574803
0
LINE
8
BLACK
6
CONTINUOUS
10
0.0935551181102362
20
0.1693337401574803
11
0.0976579527559055
21
0.1576085433070866
0
LINE
8
BLACK
6
CONTINUOUS
10
0.0976579527559055
20
0.1576085433070866
11
0.1030477952755905
21
0.1464164173228346
0
LINE
8
BLACK
6
CONTINUOUS
10
0.1030477952755905
20
0.1464164173228346
11
0.1096568503937008
21
0.1358981102362205
0
LINE
8
BLACK
6
CONTINUOUS
10
0.1096568503937008
20
0.1358981102362205
11
0.1174020472440945
21
0.1261859448818898
0
LINE
8
BLACK
6
CONTINUOUS
10
0.1174020472440945
20
0.1261859448818898
11
0.1261859448818898
21
0.1174020472440945
0
LINE
8
BLACK
6
CONTINUOUS
10
0.1261859448818898
20
0.1174020472440945
11
0.1358981102362205
21
0.1096568503937008
0
LINE
8
BLACK
6
CONTINUOUS
10
0.1358981102362205
20
0.1096568503937008
11
0.1464164173228346
21
0.1030477952755905
0
LINE
8
BLACK
6
CONTINUOUS
10
0.1464164173228346
20
0.1030477952755905
11
0.1576085433070866
21
0.0976579527559055
0
LINE
8
BLACK
6
CONTINUOUS
10
0.1576085433070866
20
0.0976579527559055
11
0.1693337401574803
21
0.0935551181102362
0
LINE
8
BLACK
6
CONTINUOUS
10
0.1693337401574803
20
0.0935551181102362
11
0.1814446062992126
21
0.0907908661417323
0
LINE
8
BLACK
6
CONTINUOUS
10
0.1814446062992126
20
0.0907908661417323
11
0.1937888188976378
21
0.0894
0
LINE
8
BLACK
6
CONTINUOUS
10
0.1937888188976378
20
0.0894
11
0.2062111811023622
21
0.0894
0
LINE
8
BLACK
6
CONTINUOUS
10
0.2062111811023622
20
0.0894
11
0.2185553937007874
21
0.0907908661417323
0
LINE
8
BLACK
6
CONTINUOUS
10
0.2185553937007874
20
0.0907908661417323
11
0.2306662598425197
21
0.0935551181102362
0
LINE
8
BLACK
6
CONTINUOUS
10
0.2306662598425197
20
0.0935551181102362
11
0.2423914566929134
21
0.0976579527559055
0
LINE
8
BLACK
6
CONTINUOUS
10
0.2423914566929134
20
0.0976579527559055
11
0.2535835826771654
21
0.1030477952755905
0
LINE
8
BLACK
6
CONTINUOUS
10
0.2535835826771654
20
0.1030477952755905
11
0.2641018897637795
21
0.1096568503937008
0
LINE
8
BLACK
6
CONTINUOUS
10
0.2641018897637795
20
0.1096568503937008
11
0.2738140551181102
21
0.1174020472440945
0
LINE
8
BLACK
6
CONTINUOUS
10
0.2738140551181102
20
0.1174020472440945
11
0.2825979527559055
21
0.1261859448818898
0
LINE
8
BLACK
6
CONTINUOUS
10
0.2825979527559055
20
0.1261859448818898
11
0.2903431496062992
21
0.1358981102362205
0
LINE
8
BLACK
6
CONTINUOUS
10
0.2903431496062992
20
0.1358981102362205
11
0.2969522047244094
21
0.1464164173228346
0
LINE
8
BLACK
6
CONTINUOUS
10
0.2969522047244094
20
0.1464164173228346
11
0.3023420472440945
21
0.1576085433070866
0
LINE
8
BLACK
6
CONTINUOUS
10
0.3023420472440945
20
0.1576085433070866
11
0.3064448818897638
21
0.1693337401574803
0
LINE
8
BLACK
6
CONTINUOUS
10
0.3064448818897638
20
0.1693337401574803
11
0.3092091338582677
21
0.1814446062992126
0
LINE
8
BLACK
6
CONTINUOUS
10
0.3092091338582677
20
0.1814446062992126
11
0.3106
21
0.1937888188976378
0
LINE
8
BLACK
6
CONTINUOUS
10
0.3106
20
0.1937888188976378
11
0.3106
21
0.2062111811023622
0
LINE
8
BLACK
6
CONTINUOUS
10
0.3106
20
0.2062111811023622
11
0.3092091338582677
21
0.2185553937007874
0
LINE
8
BLACK
6
CONTINUOUS
10
0.3092091338582677
20
0.2185553937007874
11
0.3064448818897638
21
0.2306662598425197
0
LINE
8
BLACK
6
CONTINUOUS
10
0.3064448818897638
20
0.2306662598425197
11
0.3023420472440945
21
0.2423914566929134
0
LINE
8
BLACK
6
CONTINUOUS
10
0.3023420472440945
20
0.2423914566929134
11
0.2969522047244094
21
0.2535835826771654
0
LINE
8
BLACK
6
CONTINUOUS
10
0.2969522047244094
20
0.2535835826771654
11
0.2903431496062992
21
0.2641018897637795
0
LINE
8
BLACK
6
CONTINUOUS
10
0.2903431496062992
20
0.2641018897637795
11
0.2825979527559055
21
0.2738140551181102
0
LINE
8
BLACK
6
CONTINUOUS
10
0.2825979527559055
20
0.2738140551181102
11
0.2738140551181102
21
0.2825979527559055
0
LINE
8
BLACK
6
CONTINUOUS
10
0.2738140551181102
20
0.2825979527559055
11
0.2641018897637795
21
0.2903431496062992
0
LINE
8
BLACK
6
CONTINUOUS
10
0.2641018897637795
20
0.2903431496062992
11
0.2535835826771654
21
0.2969522047244094
0
LINE
8
BLACK
6
CONTINUOUS
10
0.2535835826771654
20
0.2969522047244094
11
0.2423914566929134
21
0.3023420472440945
0
LINE
8
BLACK
6
CONTINUOUS
10
0.2423914566929134
20
0.3023420472440945
11
0.2306662598425197
21
0.3064448818897638
0
LINE
8
BLACK
6
CONTINUOUS
10
0.2306662598425197
20
0.3064448818897638
11
0.2185553937007874
21
0.3092091338582677
0
LINE
8
BLACK
6
CONTINUOUS
10
0.2185553937007874
20
0.3092091338582677
11
0.2062111811023622
21
0.3106
0
LINE
8
BLACK
6
CONTINUOUS
10
0.2062111811023622
20
0.3106
11
0.1937888188976378
21
0.3106
0
LINE
8
BLACK
6
CONTINUOUS
10
0.1937888188976378
20
0.3106
11
0.1814446062992126
21
0.3092091338582677
0
LINE
8
BLACK
6
CONTINUOUS
10
0.1814446062992126
20
0.3092091338582677
11
0.1693337401574803
21
0.3064448818897638
0
LINE
8
BLACK
6
CONTINUOUS
10
0.1693337401574803
20
0.3064448818897638
11
0.1576085433070866
21
0.3023420472440945
0
LINE
8
BLACK
6
CONTINUOUS
10
0.1576085433070866
20
0.3023420472440945
11
0.1464164173228346
21
0.2969522047244094
0
LINE
8
BLACK
6
CONTINUOUS
10
0.1464164173228346
20
0.2969522047244094
11
0.1358981102362205
21
0.2903431496062992
0
LINE
8
BLACK
6
CONTINUOUS
10
0.1358981102362205
20
0.2903431496062992
11
0.1261859448818898
21
0.2825979527559055
0
LINE
8
BLACK
6
CONTINUOUS
10
0.1261859448818898
20
0.2825979527559055
11
0.1174020472440945
21
0.2738140551181102
0
LINE
8
BLACK
6
CONTINUOUS
10
0.1174020472440945
20
0.2738140551181102
11
0.1096568503937008
21
0.2641018897637795
0
LINE
8
BLACK
6
CONTINUOUS
10
0.1096568503937008
20
0.2641018897637795
11
0.1030477952755905
21
0.2535835826771654
0
LINE
8
BLACK
6
CONTINUOUS
10
0.1030477952755905
20
0.2535835826771654
11
0.0976579527559055
21
0.2423914566929134
0
LINE
8
BLACK
6
CONTINUOUS
10
0.0976579527559055
20
0.2423914566929134
11
0.0935551181102362
21
0.2306662598425197
0
LINE
8
BLACK
6
CONTINUOUS
10
0.0935551181102362
20
0.2306662598425197
11
0.0907908661417323
21
0.2185553937007874
0
LINE
8
BLACK
6
CONTINUOUS
10
0.0907908661417323
20
0.2185553937007874
11
0.0894
21
0.2062111811023622
0
LINE
8
BLACK
6
CONTINUOUS
10
0.0894
20
0.2062111811023622
11
0.0894
21
0.1937888188976378
0
LINE
8
BLACK
6
CONTINUOUS
10
1.8210387795275591
20
0.3238253937007874
11
1.8347705511811023
21
0.3206912204724409
0
LINE
8
BLACK
6
CONTINUOUS
10
1.8347705511811023
20
0.3206912204724409
11
1.8480650393700786
21
0.3160392519685039
0
LINE
8
BLACK
6
CONTINUOUS
10
1.8480650393700786
20
0.3160392519685039
11
1.8607550787401574
21
0.3099280708661417
0
LINE
8
BLACK
6
CONTINUOUS
10
1.8607550787401574
20
0.3099280708661417
11
1.8726811023622048
21
0.3024344488188976
0
LINE
8
BLACK
6
CONTINUOUS
10
1.8726811023622048
20
0.3024344488188976
11
1.8836931496062992
21
0.2936526377952756
0
LINE
8
BLACK
6
CONTINUOUS
10
1.8836931496062992
20
0.2936526377952756
11
1.8936526377952756
21
0.2836931496062992
0
LINE
8
BLACK
6
CONTINUOUS
10
1.8936526377952756
20
0.2836931496062992
11
1.9024344488188976
21
0.2726811023622047
0
LINE
8
BLACK
6
CONTINUOUS
10
1.9024344488188976
20
0.2726811023622047
11
1.9099280708661417
21
0.2607550787401575
0
LINE
8
BLACK
6
CONTINUOUS
10
1.9099280708661417
20
0.2607550787401575
11
1.9160392519685039
21
0.2480650393700787
0
LINE
8
BLACK
6
CONTINUOUS
10
1.9160392519685039
20
0.2480650393700787
11
1.9206912204724409
21
0.2347705511811023
0
LINE
8
BLACK
6
CONTINUOUS
10
1.9206912204724409
20
0.2347705511811023
11
1.9238253937007874
21
0.221038779527559
0
LINE
8
BLACK
6
CONTINUOUS
10
1.9238253937007874
20
0.221038779527559
11
1.925402401574803
21
0.2070424409448819
0
LINE
8
BLACK
6
CONTINUOUS
10
1.925402401574803
20
0.2070424409448819
11
1.925402401574803
21
0.1929575590551181
0
LINE
8
BLACK
6
CONTINUOUS
10
1.925402401574803
20
0.1929575590551181
11
1.9238253937007874
21
0.178961220472441
0
LINE
8
BLACK
6
CONTINUOUS
10
1.9238253937007874
20
0.178961220472441
11
1.9206912204724409
21
0.1652294488188976
0
LINE
8
BLACK
6
CONTINUOUS
10
1.9206912204724409
20
0.1652294488188976
11
1.9160392519685039
21
0.1519349606299213
0
LINE
8
BLACK
6
CONTINUOUS
10
1.9160392519685039
20
0.1519349606299213
11
1.9099280708661417
21
0.1392449212598425
0
LINE
8
BLACK
6
CONTINUOUS
10
1.9099280708661417
20
0.1392449212598425
11
1.9024344488188976
21
0.1273188976377953
0
LINE
8
BLACK
6
CONTINUOUS
10
1.9024344488188976
20
0.1273188976377953
11
1.8936526377952756
21
0.1163068503937008
0
LINE
8
BLACK
6
CONTINUOUS
10
1.8936526377952756
20
0.1163068503937008
11
1.8836931496062992
21
0.1063473622047244
0
LINE
8
BLACK
6
CONTINUOUS
10
1.8836931496062992
20
0.1063473622047244
11
1.8726811023622048
21
0.0975655511811024
0
LINE
8
BLACK
6
CONTINUOUS
10
1.8726811023622048
20
0.0975655511811024
11
1.8607550787401574
21
0.0900719291338583
0
LINE
8
BLACK
6
CONTINUOUS
10
1.8607550787401574
20
0.0900719291338583
11
1.8480650393700786
21
0.0839607480314961
0
LINE
8
BLACK
6
CONTINUOUS
10
1.8480650393700786
20
0.0839607480314961
11
1.8347705511811023
21
0.079308779527559
0
LINE
8
BLACK
6
CONTINUOUS
10
1.8347705511811023
20
0.079308779527559
11
1.8210387795275591
21
0.0761746062992126
0
LINE
8
BLACK
6
CONTINUOUS
10
1.8210387795275591
20
0.0761746062992126
11
1.8070424409448818
21
0.0745975984251969
0
LINE
8
BLACK
6
CONTINUOUS
10
1.8070424409448818
20
0.0745975984251969
11
1.7929575590551181
21
0.0745975984251969
0
LINE
8
BLACK
6
CONTINUOUS
10
1.7929575590551181
20
0.0745975984251969
11
1.778961220472441
21
0.0761746062992126
0
LINE
8
BLACK
6
CONTINUOUS
10
1.778961220472441
20
0.0761746062992126
11
1.7652294488188975
21
0.079308779527559
0
LINE
8
BLACK
6
CONTINUOUS
10
1.7652294488188975
20
0.079308779527559
11
1.7519349606299213
21
0.0839607480314961
0
LINE
8
BLACK
6
CONTINUOUS
10
1.7519349606299213
20
0.0839607480314961
11
1.7392449212598424
21
0.0900719291338583
0
LINE
8
BLACK
6
CONTINUOUS
10
1.7392449212598424
20
0.0900719291338583
11
1.7273188976377953
21
0.0975655511811024
0
LINE
8
BLACK
6
CONTINUOUS
10
1.7273188976377953
20
0.0975655511811024
11
1.7163068503937007
21
0.1063473622047244
0
LINE
8
BLACK
6
CONTINUOUS
10
1.7163068503937007
20
0.1063473622047244
11
1.7063473622047243
21
0.1163068503937008
0
LINE
8
BLACK
6
CONTINUOUS
10
1.7063473622047243
20
0.1163068503937008
11
1.6975655511811023
21
0.1273188976377953
0
LINE
8
BLACK
6
CONTINUOUS
10
1.6975655511811023
20
0.1273188976377953
11
1.6900719291338582
21
0.1392449212598425
0
LINE
8
BLACK
6
CONTINUOUS
10
1.6900719291338582
20
0.1392449212598425
11
1.683960748031496
21
0.1519349606299213
0
LINE
8
BLACK
6
CONTINUOUS
10
1.683960748031496
20
0.1519349606299213
11
1.679308779527559
21
0.1652294488188976
0
LINE
8
BLACK
6
CONTINUOUS
10
1.679308779527559
20
0.1652294488188976
11
1.6761746062992127
21
0.178961220472441
0
LINE
8
BLACK
6
CONTINUOUS
10
1.6761746062992127
20
0.178961220472441
11
1.6745975984251968
21
0.1929575590551181
0
LINE
8
BLACK
6
CONTINUOUS
10
1.6745975984251968
20
0.1929575590551181
11
1.6745975984251968
21
0.2062111811023622
0
LINE
8
BLACK
6
CONTINUOUS
10
1.6745975984251968
20
0.2062111811023622
11
1.6745975984251968
21
0.2070424409448819
0
LINE
8
BLACK
6
CONTINUOUS
10
1.6745975984251968
20
0.2070424409448819
11
1.6761746062992127
21
0.221038779527559
0
LINE
8
BLACK
6
CONTINUOUS
10
1.6761746062992127
20
0.221038779527559
11
1.679308779527559
21
0.2347705511811023
0
LINE
8
BLACK
6
CONTINUOUS
10
1.679308779527559
20
0.2347705511811023
11
1.683960748031496
21
0.2480650393700787
0
LINE
8
BLACK
6
CONTINUOUS
10
1.683960748031496
20
0.2480650393700787
11
1.6900719291338582
21
0.2607550787401575
0
LINE
8
BLACK
6
CONTINUOUS
10
1.6900719291338582
20
0.2607550787401575
11
1.6975655511811023
21
0.2726811023622047
0
LINE
8
BLACK
6
CONTINUOUS
10
1.6975655511811023
20
0.2726811023622047
11
1.7063473622047243
21
0.2836931496062992
0
LINE
8
BLACK
6
CONTINUOUS
10
1.7063473622047243
20
0.2836931496062992
11
1.7163068503937007
21
0.2936526377952756
0
LINE
8
BLACK
6
CONTINUOUS
10
1.7163068503937007
20
0.2936526377952756
11
1.7273188976377953
21
0.3024344488188976
0
LINE
8
BLACK
6
CONTINUOUS
10
1.7273188976377953
20
0.3024344488188976
11
1.7392449212598424
21
0.3099280708661417
0
LINE
8
BLACK
6
CONTINUOUS
10
1.7392449212598424
20
0.3099280708661417
11
1.7519349606299213
21
0.3160392519685039
0
LINE
8
BLACK
6
CONTINUOUS
10
1.7519349606299213
20
0.3160392519685039
11
1.7652294488188975
21
0.3206912204724409
0
LINE
8
BLACK
6
CONTINUOUS
10
1.7652294488188975
20
0.3206912204724409
11
1.778961220472441
21
0.3238253937007874
0
LINE
8
BLACK
6
CONTINUOUS
10
1.778961220472441
20
0.3238253937007874
11
1.7929575590551181
21
0.3254024015748032
0
LINE
8
BLACK
6
CONTINUOUS
10
1.7929575590551181
20
0.3254024015748032
11
1.8070424409448818
21
0.3254024015748032
0
LINE
8
BLACK
6
CONTINUOUS
10
1.8070424409448818
20
0.3254024015748032
11
1.8210387795275591
21
0.3238253937007874
0
LINE
8
BLACK
6
CONTINUOUS
10
1.6894
20
0.1937888188976378
11
1.6907908661417324
21
0.1814446062992126
0
LINE
8
BLACK
6
CONTINUOUS
10
1.6907908661417324
20
0.1814446062992126
11
1.6935551181102362
21
0.1693337401574803
0
LINE
8
BLACK
6
CONTINUOUS
10
1.6935551181102362
20
0.1693337401574803
11
1.6976579527559055
21
0.1576085433070866
0
LINE
8
BLACK
6
CONTINUOUS
10
1.6976579527559055
20
0.1576085433070866
11
1.7030477952755905
21
0.1464164173228346
0
LINE
8
BLACK
6
CONTINUOUS
10
1.7030477952755905
20
0.1464164173228346
11
1.7096568503937009
21
0.1358981102362205
0
LINE
8
BLACK
6
CONTINUOUS
10
1.7096568503937009
20
0.1358981102362205
11
1.7174020472440945
21
0.1261859448818898
0
LINE
8
BLACK
6
CONTINUOUS
10
1.7174020472440945
20
0.1261859448818898
11
1.7261859448818897
21
0.1174020472440945
0
LINE
8
BLACK
6
CONTINUOUS
10
1.7261859448818897
20
0.1174020472440945
11
1.7358981102362205
21
0.1096568503937008
0
LINE
8
BLACK
6
CONTINUOUS
10
1.7358981102362205
20
0.1096568503937008
11
1.7464164173228347
21
0.1030477952755905
0
LINE
8
BLACK
6
CONTINUOUS
10
1.7464164173228347
20
0.1030477952755905
11
1.7576085433070865
21
0.0976579527559055
0
LINE
8
BLACK
6
CONTINUOUS
10
1.7576085433070865
20
0.0976579527559055
11
1.7693337401574802
21
0.0935551181102362
0
LINE
8
BLACK
6
CONTINUOUS
10
1.7693337401574802
20
0.0935551181102362
11
1.7814446062992126
21
0.0907908661417323
0
LINE
8
BLACK
6
CONTINUOUS
10
1.7814446062992126
20
0.0907908661417323
11
1.7937888188976379
21
0.0894
0
LINE
8
BLACK
6
CONTINUOUS
10
1.7937888188976379
20
0.0894
11
1.8062111811023622
21
0.0894
0
LINE
8
BLACK
6
CONTINUOUS
10
1.8062111811023622
20
0.0894
11
1.8185553937007874
21
0.0907908661417323
0
LINE
8
BLACK
6
CONTINUOUS
10
1.8185553937007874
20
0.0907908661417323
11
1.8306662598425196
21
0.0935551181102362
0
LINE
8
BLACK
6
CONTINUOUS
10
1.8306662598425196
20
0.0935551181102362
11
1.8423914566929134
21
0.0976579527559055
0
LINE
8
BLACK
6
CONTINUOUS
10
1.8423914566929134
20
0.0976579527559055
11
1.8535835826771654
21
0.1030477952755905
0
LINE
8
BLACK
6
CONTINUOUS
10
1.8535835826771654
20
0.1030477952755905
11
1.8641018897637796
21
0.1096568503937008
0
LINE
8
BLACK
6
CONTINUOUS
10
1.8641018897637796
20
0.1096568503937008
11
1.8738140551181102
21
0.1174020472440945
0
LINE
8
BLACK
6
CONTINUOUS
10
1.8738140551181102
20
0.1174020472440945
11
1.8825979527559056
21
0.1261859448818898
0
LINE
8
BLACK
6
CONTINUOUS
10
1.8825979527559056
20
0.1261859448818898
11
1.8903431496062992
21
0.1358981102362205
0
LINE
8
BLACK
6
CONTINUOUS
10
1.8903431496062992
20
0.1358981102362205
11
1.8969522047244094
21
0.1464164173228346
0
LINE
8
BLACK
6
CONTINUOUS
10
1.8969522047244094
20
0.1464164173228346
11
1.9023420472440944
21
0.1576085433070866
0
LINE
8
BLACK
6
CONTINUOUS
10
1.9023420472440944
20
0.1576085433070866
11
1.9064448818897637
21
0.1693337401574803
0
LINE
8
BLACK
6
CONTINUOUS
10
1.9064448818897637
20
0.1693337401574803
11
1.9092091338582677
21
0.1814446062992126
0
LINE
8
BLACK
6
CONTINUOUS
10
1.9092091338582677
20
0.1814446062992126
11
1.9105999999999999
21
0.1937888188976378
0
LINE
8
BLACK
6
CONTINUOUS
10
1.9105999999999999
20
0.1937888188976378
11
1.9105999999999999
21
0.2062111811023622
0
LINE
8
BLACK
6
CONTINUOUS
10
1.9105999999999999
20
0.2062111811023622
11
1.9092091338582677
21
0.2185553937007874
0
LINE
8
BLACK
6
CONTINUOUS
10
1.9092091338582677
20
0.2185553937007874
11
1.9064448818897637
21
0.2306662598425197
0
LINE
8
BLACK
6
CONTINUOUS
10
1.9064448818897637
20
0.2306662598425197
11
1.9023420472440944
21
0.2423914566929134
0
LINE
8
BLACK
6
CONTINUOUS
10
1.9023420472440944
20
0.2423914566929134
11
1.8969522047244094
21
0.2535835826771654
0
LINE
8
BLACK
6
CONTINUOUS
10
1.8969522047244094
20
0.2535835826771654
11
1.8903431496062992
21
0.2641018897637795
0
LINE
8
BLACK
6
CONTINUOUS
10
1.8903431496062992
20
0.2641018897637795
11
1.8825979527559056
21
0.2738140551181102
0
LINE
8
BLACK
6
CONTINUOUS
10
1.8825979527559056
20
0.2738140551181102
11
1.8738140551181102
21
0.2825979527559055
0
LINE
8
BLACK
6
CONTINUOUS
10
1.8738140551181102
20
0.2825979527559055
11
1.8641018897637796
21
0.2903431496062992
0
LINE
8
BLACK
6
CONTINUOUS
10
1.8641018897637796
20
0.2903431496062992
11
1.8535835826771654
21
0.2969522047244094
0
LINE
8
BLACK
6
CONTINUOUS
10
1.8535835826771654
20
0.2969522047244094
11
1.8423914566929134
21
0.3023420472440945
0
LINE
8
BLACK
6
CONTINUOUS
10
1.8423914566929134
20
0.3023420472440945
11
1.8306662598425196
21
0.3064448818897638
0
LINE
8
BLACK
6
CONTINUOUS
10
1.8306662598425196
20
0.3064448818897638
11
1.8185553937007874
21
0.3092091338582677
0
LINE
8
BLACK
6
CONTINUOUS
10
1.8185553937007874
20
0.3092091338582677
11
1.8062111811023622
21
0.3106
0
LINE
8
BLACK
6
CONTINUOUS
10
1.8062111811023622
20
0.3106
11
1.7937888188976379
21
0.3106
0
LINE
8
BLACK
6
CONTINUOUS
10
1.7937888188976379
20
0.3106
11
1.7814446062992126
21
0.3092091338582677
0
LINE
8
BLACK
6
CONTINUOUS
10
1.7814446062992126
20
0.3092091338582677
11
1.7693337401574802
21
0.3064448818897638
0
LINE
8
BLACK
6
CONTINUOUS
10
1.7693337401574802
20
0.3064448818897638
11
1.7576085433070865
21
0.3023420472440945
0
LINE
8
BLACK
6
CONTINUOUS
10
1.7576085433070865
20
0.3023420472440945
11
1.7464164173228347
21
0.2969522047244094
0
LINE
8
BLACK
6
CONTINUOUS
10
1.7464164173228347
20
0.2969522047244094
11
1.7358981102362205
21
0.2903431496062992
0
LINE
8
BLACK
6
CONTINUOUS
10
1.7358981102362205
20
0.2903431496062992
11
1.7261859448818897
21
0.2825979527559055
0
LINE
8
BLACK
6
CONTINUOUS
10
1.7261859448818897
20
0.2825979527559055
11
1.7174020472440945
21
0.2738140551181102
0
LINE
8
BLACK
6
CONTINUOUS
10
1.7174020472440945
20
0.2738140551181102
11
1.7096568503937009
21
0.2641018897637795
0
LINE
8
BLACK
6
CONTINUOUS
10
1.7096568503937009
20
0.2641018897637795
11
1.7030477952755905
21
0.2535835826771654
0
LINE
8
BLACK
6
CONTINUOUS
10
1.7030477952755905
20
0.2535835826771654
11
1.6976579527559055
21
0.2423914566929134
0
LINE
8
BLACK
6
CONTINUOUS
10
1.6976579527559055
20
0.2423914566929134
11
1.6935551181102362
21
0.2306662598425197
0
LINE
8
BLACK
6
CONTINUOUS
10
1.6935551181102362
20
0.2306662598425197
11
1.6907908661417324
21
0.2185553937007874
0
LINE
8
BLACK
6
CONTINUOUS
10
1.6907908661417324
20
0.2185553937007874
11
1.6894
21
0.2062111811023622
0
LINE
8
BLACK
6
CONTINUOUS
10
1.6894
20
0.2062111811023622
11
1.6894
21
0.1937888188976378
0
LINE
8
BLACK
6
CONTINUOUS
10
0.221038779527559
20
1.5238253937007873
11
0.2347705511811023
21
1.520691220472441
0
LINE
8
BLACK
6
CONTINUOUS
10
0.2347705511811023
20
1.520691220472441
11
0.2480650393700787
21
1.516039251968504
0
LINE
8
BLACK
6
CONTINUOUS
10
0.2480650393700787
20
1.516039251968504
11
0.2607550787401575
21
1.5099280708661418
0
LINE
8
BLACK
6
CONTINUOUS
10
0.2607550787401575
20
1.5099280708661418
11
0.2726811023622047
21
1.5024344488188976
0
LINE
8
BLACK
6
CONTINUOUS
10
0.2726811023622047
20
1.5024344488188976
11
0.2836931496062992
21
1.4936526377952755
0
LINE
8
BLACK
6
CONTINUOUS
10
0.2836931496062992
20
1.4936526377952755
11
0.2936526377952756
21
1.4836931496062993
0
LINE
8
BLACK
6
CONTINUOUS
10
0.2936526377952756
20
1.4836931496062993
11
0.3024344488188976
21
1.4726811023622046
0
LINE
8
BLACK
6
CONTINUOUS
10
0.3024344488188976
20
1.4726811023622046
11
0.3099280708661417
21
1.4607550787401575
0
LINE
8
BLACK
6
CONTINUOUS
10
0.3099280708661417
20
1.4607550787401575
11
0.3160392519685039
21
1.4480650393700787
0
LINE
8
BLACK
6
CONTINUOUS
10
0.3160392519685039
20
1.4480650393700787
11
0.3206912204724409
21
1.4347705511811024
0
LINE
8
BLACK
6
CONTINUOUS
10
0.3206912204724409
20
1.4347705511811024
11
0.3238253937007874
21
1.421038779527559
0
LINE
8
BLACK
6
CONTINUOUS
10
0.3238253937007874
20
1.421038779527559
11
0.3254024015748032
21
1.4070424409448818
0
LINE
8
BLACK
6
CONTINUOUS
10
0.3254024015748032
20
1.4070424409448818
11
0.3254024015748032
21
1.392957559055118
0
LINE
8
BLACK
6
CONTINUOUS
10
0.3254024015748032
20
1.392957559055118
11
0.3238253937007874
21
1.3789612204724409
0
LINE
8
BLACK
6
CONTINUOUS
10
0.3238253937007874
20
1.3789612204724409
11
0.3206912204724409
21
1.3652294488188976
0
LINE
8
BLACK
6
CONTINUOUS
10
0.3206912204724409
20
1.3652294488188976
11
0.3160392519685039
21
1.3519349606299211
0
LINE
8
BLACK
6
CONTINUOUS
10
0.3160392519685039
20
1.3519349606299211
11
0.3099280708661417
21
1.3392449212598425
0
LINE
8
BLACK
6
CONTINUOUS
10
0.3099280708661417
20
1.3392449212598425
11
0.3024344488188976
21
1.3273188976377952
0
LINE
8
BLACK
6
CONTINUOUS
10
0.3024344488188976
20
1.3273188976377952
11
0.2936526377952756
21
1.3163068503937008
0
LINE
8
BLACK
6
CONTINUOUS
10
0.2936526377952756
20
1.3163068503937008
11
0.2836931496062992
21
1.3063473622047244
0
LINE
8
BLACK
6
CONTINUOUS
10
0.2836931496062992
20
1.3063473622047244
11
0.2726811023622047
21
1.2975655511811024
0
LINE
8
BLACK
6
CONTINUOUS
10
0.2726811023622047
20
1.2975655511811024
11
0.2607550787401575
21
1.2900719291338583
0
LINE
8
BLACK
6
CONTINUOUS
10
0.2607550787401575
20
1.2900719291338583
11
0.2480650393700787
21
1.2839607480314961
0
LINE
8
BLACK
6
CONTINUOUS
10
0.2480650393700787
20
1.2839607480314961
11
0.2347705511811023
21
1.2793087795275591
0
LINE
8
BLACK
6
CONTINUOUS
10
0.2347705511811023
20
1.2793087795275591
11
0.221038779527559
21
1.2761746062992125
0
LINE
8
BLACK
6
CONTINUOUS
10
0.221038779527559
20
1.2761746062992125
11
0.2070424409448819
21
1.2745975984251969
0
LINE
8
BLACK
6
CONTINUOUS
10
0.2070424409448819
20
1.2745975984251969
11
0.1929575590551181
21
1.2745975984251969
0
LINE
8
BLACK
6
CONTINUOUS
10
0.1929575590551181
20
1.2745975984251969
11
0.178961220472441
21
1.2761746062992125
0
LINE
8
BLACK
6
CONTINUOUS
10
0.178961220472441
20
1.2761746062992125
11
0.1652294488188976
21
1.2793087795275591
0
LINE
8
BLACK
6
CONTINUOUS
10
0.1652294488188976
20
1.2793087795275591
11
0.1519349606299213
21
1.2839607480314961
0
LINE
8
BLACK
6
CONTINUOUS
10
0.1519349606299213
20
1.2839607480314961
11
0.1392449212598425
21
1.2900719291338583
0
LINE
8
BLACK
6
CONTINUOUS
10
0.1392449212598425
20
1.2900719291338583
11
0.1273188976377953
21
1.2975655511811024
0
LINE
8
BLACK
6
CONTINUOUS
10
0.1273188976377953
20
1.2975655511811024
11
0.1163068503937008
21
1.3063473622047244
0
LINE
8
BLACK
6
CONTINUOUS
10
0.1163068503937008
20
1.3063473622047244
11
0.1063473622047244
21
1.3163068503937008
0
LINE
8
BLACK
6
CONTINUOUS
10
0.1063473622047244
20
1.3163068503937008
11
0.0975655511811024
21
1.3273188976377952
0
LINE
8
BLACK
6
CONTINUOUS
10
0.0975655511811024
20
1.3273188976377952
11
0.0900719291338583
21
1.3392449212598425
0
LINE
8
BLACK
6
CONTINUOUS
10
0.0900719291338583
20
1.3392449212598425
11
0.0839607480314961
21
1.3519349606299211
0
LINE
8
BLACK
6
CONTINUOUS
10
0.0839607480314961
20
1.3519349606299211
11
0.079308779527559
21
1.3652294488188976
0
LINE
8
BLACK
6
CONTINUOUS
10
0.079308779527559
20
1.3652294488188976
11
0.0761746062992126
21
1.3789612204724409
0
LINE
8
BLACK
6
CONTINUOUS
10
0.0761746062992126
20
1.3789612204724409
11
0.0745975984251969
21
1.392957559055118
0
LINE
8
BLACK
6
CONTINUOUS
10
0.0745975984251969
20
1.392957559055118
11
0.0745975984251969
21
1.4062111811023621
0
LINE
8
BLACK
6
CONTINUOUS
10
0.0745975984251969
20
1.4062111811023621
11
0.0745975984251969
21
1.4070424409448818
0
LINE
8
BLACK
6
CONTINUOUS
10
0.0745975984251969
20
1.4070424409448818
11
0.0761746062992126
21
1.421038779527559
0
LINE
8
BLACK
6
CONTINUOUS
10
0.0761746062992126
20
1.421038779527559
11
0.079308779527559
21
1.4347705511811024
0
LINE
8
BLACK
6
CONTINUOUS
10
0.079308779527559
20
1.4347705511811024
11
0.0839607480314961
21
1.4480650393700787
0
LINE
8
BLACK
6
CONTINUOUS
10
0.0839607480314961
20
1.4480650393700787
11
0.0900719291338583
21
1.4607550787401575
0
LINE
8
BLACK
6
CONTINUOUS
10
0.0900719291338583
20
1.4607550787401575
11
0.0975655511811024
21
1.4726811023622046
0
LINE
8
BLACK
6
CONTINUOUS
10
0.0975655511811024
20
1.4726811023622046
11
0.1063473622047244
21
1.4836931496062993
0
LINE
8
BLACK
6
CONTINUOUS
10
0.1063473622047244
20
1.4836931496062993
11
0.1163068503937008
21
1.4936526377952755
0
LINE
8
BLACK
6
CONTINUOUS
10
0.1163068503937008
20
1.4936526377952755
11
0.1273188976377953
21
1.5024344488188976
0
LINE
8
BLACK
6
CONTINUOUS
10
0.1273188976377953
20
1.5024344488188976
11
0.1392449212598425
21
1.5099280708661418
0
LINE
8
BLACK
6
CONTINUOUS
10
0.1392449212598425
20
1.5099280708661418
11
0.1519349606299213
21
1.516039251968504
0
LINE
8
BLACK
6
CONTINUOUS
10
0.1519349606299213
20
1.516039251968504
11
0.1652294488188976
21
1.520691220472441
0
LINE
8
BLACK
6
CONTINUOUS
10
0.1652294488188976
20
1.520691220472441
11
0.178961220472441
21
1.5238253937007873
0
LINE
8
BLACK
6
CONTINUOUS
10
0.178961220472441
20
1.5238253937007873
11
0.1929575590551181
21
1.5254024015748031
0
LINE
8
BLACK
6
CONTINUOUS
10
0.1929575590551181
20
1.5254024015748031
11
0.2070424409448819
21
1.5254024015748031
0
LINE
8
BLACK
6
CONTINUOUS
10
0.2070424409448819
20
1.5254024015748031
11
0.221038779527559
21
1.5238253937007873
0
LINE
8
BLACK
6
CONTINUOUS
10
0.0894
20
1.3937888188976377
11
0.0907908661417323
21
1.3814446062992125
0
LINE
8
BLACK
6
CONTINUOUS
10
0.0907908661417323
20
1.3814446062992125
11
0.0935551181102362
21
1.3693337401574803
0
LINE
8
BLACK
6
CONTINUOUS
10
0.0935551181102362
20
1.3693337401574803
11
0.0976579527559055
21
1.3576085433070866
0
LINE
8
BLACK
6
CONTINUOUS
10
0.0976579527559055
20
1.3576085433070866
11
0.1030477952755905
21
1.3464164173228346
0
LINE
8
BLACK
6
CONTINUOUS
10
0.1030477952755905
20
1.3464164173228346
11
0.1096568503937008
21
1.3358981102362204
0
LINE
8
BLACK
6
CONTINUOUS
10
0.1096568503937008
20
1.3358981102362204
11
0.1174020472440945
21
1.3261859448818898
0
LINE
8
BLACK
6
CONTINUOUS
10
0.1174020472440945
20
1.3261859448818898
11
0.1261859448818898
21
1.3174020472440944
0
LINE
8
BLACK
6
CONTINUOUS
10
0.1261859448818898
20
1.3174020472440944
11
0.1358981102362205
21
1.3096568503937007
0
LINE
8
BLACK
6
CONTINUOUS
10
0.1358981102362205
20
1.3096568503937007
11
0.1464164173228346
21
1.3030477952755906
0
LINE
8
BLACK
6
CONTINUOUS
10
0.1464164173228346
20
1.3030477952755906
11
0.1576085433070866
21
1.2976579527559056
0
LINE
8
BLACK
6
CONTINUOUS
10
0.1576085433070866
20
1.2976579527559056
11
0.1693337401574803
21
1.2935551181102363
0
LINE
8
BLACK
6
CONTINUOUS
10
0.1693337401574803
20
1.2935551181102363
11
0.1814446062992126
21
1.2907908661417322
0
LINE
8
BLACK
6
CONTINUOUS
10
0.1814446062992126
20
1.2907908661417322
11
0.1937888188976378
21
1.2893999999999999
0
LINE
8
BLACK
6
CONTINUOUS
10
0.1937888188976378
20
1.2893999999999999
11
0.2062111811023622
21
1.2893999999999999
0
LINE
8
BLACK
6
CONTINUOUS
10
0.2062111811023622
20
1.2893999999999999
11
0.2185553937007874
21
1.2907908661417322
0
LINE
8
BLACK
6
CONTINUOUS
10
0.2185553937007874
20
1.2907908661417322
11
0.2306662598425197
21
1.2935551181102363
0
LINE
8
BLACK
6
CONTINUOUS
10
0.2306662598425197
20
1.2935551181102363
11
0.2423914566929134
21
1.2976579527559056
0
LINE
8
BLACK
6
CONTINUOUS
10
0.2423914566929134
20
1.2976579527559056
11
0.2535835826771654
21
1.3030477952755906
0
LINE
8
BLACK
6
CONTINUOUS
10
0.2535835826771654
20
1.3030477952755906
11
0.2641018897637795
21
1.3096568503937007
0
LINE
8
BLACK
6
CONTINUOUS
10
0.2641018897637795
20
1.3096568503937007
11
0.2738140551181102
21
1.3174020472440944
0
LINE
8
BLACK
6
CONTINUOUS
10
0.2738140551181102
20
1.3174020472440944
11
0.2825979527559055
21
1.3261859448818898
0
LINE
8
BLACK
6
CONTINUOUS
10
0.2825979527559055
20
1.3261859448818898
11
0.2903431496062992
21
1.3358981102362204
0
LINE
8
BLACK
6
CONTINUOUS
10
0.2903431496062992
20
1.3358981102362204
11
0.2969522047244094
21
1.3464164173228346
0
LINE
8
BLACK
6
CONTINUOUS
10
0.2969522047244094
20
1.3464164173228346
11
0.3023420472440945
21
1.3576085433070866
0
LINE
8
BLACK
6
CONTINUOUS
10
0.3023420472440945
20
1.3576085433070866
11
0.3064448818897638
21
1.3693337401574803
0
LINE
8
BLACK
6
CONTINUOUS
10
0.3064448818897638
20
1.3693337401574803
11
0.3092091338582677
21
1.3814446062992125
0
LINE
8
BLACK
6
CONTINUOUS
10
0.3092091338582677
20
1.3814446062992125
11
0.3106
21
1.3937888188976377
0
LINE
8
BLACK
6
CONTINUOUS
10
0.3106
20
1.3937888188976377
11
0.3106
21
1.4062111811023621
0
LINE
8
BLACK
6
CONTINUOUS
10
0.3106
20
1.4062111811023621
11
0.3092091338582677
21
1.4185553937007873
0
LINE
8
BLACK
6
CONTINUOUS
10
0.3092091338582677
20
1.4185553937007873
11
0.3064448818897638
21
1.4306662598425197
0
LINE
8
BLACK
6
CONTINUOUS
10
0.3064448818897638
20
1.4306662598425197
11
0.3023420472440945
21
1.4423914566929132
0
LINE
8
BLACK
6
CONTINUOUS
10
0.3023420472440945
20
1.4423914566929132
11
0.2969522047244094
21
1.4535835826771653
0
LINE
8
BLACK
6
CONTINUOUS
10
0.2969522047244094
20
1.4535835826771653
11
0.2903431496062992
21
1.4641018897637794
0
LINE
8
BLACK
6
CONTINUOUS
10
0.2903431496062992
20
1.4641018897637794
11
0.2825979527559055
21
1.4738140551181103
0
LINE
8
BLACK
6
CONTINUOUS
10
0.2825979527559055
20
1.4738140551181103
11
0.2738140551181102
21
1.4825979527559054
0
LINE
8
BLACK
6
CONTINUOUS
10
0.2738140551181102
20
1.4825979527559054
11
0.2641018897637795
21
1.4903431496062991
0
LINE
8
BLACK
6
CONTINUOUS
10
0.2641018897637795
20
1.4903431496062991
11
0.2535835826771654
21
1.4969522047244095
0
LINE
8
BLACK
6
CONTINUOUS
10
0.2535835826771654
20
1.4969522047244095
11
0.2423914566929134
21
1.5023420472440945
0
LINE
8
BLACK
6
CONTINUOUS
10
0.2423914566929134
20
1.5023420472440945
11
0.2306662598425197
21
1.5064448818897638
0
LINE
8
BLACK
6
CONTINUOUS
10
0.2306662598425197
20
1.5064448818897638
11
0.2185553937007874
21
1.5092091338582676
0
LINE
8
BLACK
6
CONTINUOUS
10
0.2185553937007874
20
1.5092091338582676
11
0.2062111811023622
21
1.5105999999999999
0
LINE
8
BLACK
6
CONTINUOUS
10
0.2062111811023622
20
1.5105999999999999
11
0.1937888188976378
21
1.5105999999999999
0
LINE
8
BLACK
6
CONTINUOUS
10
0.1937888188976378
20
1.5105999999999999
11
0.1814446062992126
21
1.5092091338582676
0
LINE
8
BLACK
6
CONTINUOUS
10
0.1814446062992126
20
1.5092091338582676
11
0.1693337401574803
21
1.5064448818897638
0
LINE
8
BLACK
6
CONTINUOUS
10
0.1693337401574803
20
1.5064448818897638
11
0.1576085433070866
21
1.5023420472440945
0
LINE
8
BLACK
6
CONTINUOUS
10
0.1576085433070866
20
1.5023420472440945
11
0.1464164173228346
21
1.4969522047244095
0
LINE
8
BLACK
6
CONTINUOUS
10
0.1464164173228346
20
1.4969522047244095
11
0.1358981102362205
21
1.4903431496062991
0
LINE
8
BLACK
6
CONTINUOUS
10
0.1358981102362205
20
1.4903431496062991
11
0.1261859448818898
21
1.4825979527559054
0
LINE
8
BLACK
6
CONTINUOUS
10
0.1261859448818898
20
1.4825979527559054
11
0.1174020472440945
21
1.4738140551181103
0
LINE
8
BLACK
6
CONTINUOUS
10
0.1174020472440945
20
1.4738140551181103
11
0.1096568503937008
21
1.4641018897637794
0
LINE
8
BLACK
6
CONTINUOUS
10
0.1096568503937008
20
1.4641018897637794
11
0.1030477952755905
21
1.4535835826771653
0
LINE
8
BLACK
6
CONTINUOUS
10
0.1030477952755905
20
1.4535835826771653
11
0.0976579527559055
21
1.4423914566929132
0
LINE
8
BLACK
6
CONTINUOUS
10
0.0976579527559055
20
1.4423914566929132
11
0.0935551181102362
21
1.4306662598425197
0
LINE
8
BLACK
6
CONTINUOUS
10
0.0935551181102362
20
1.4306662598425197
11
0.0907908661417323
21
1.4185553937007873
0
LINE
8
BLACK
6
CONTINUOUS
10
0.0907908661417323
20
1.4185553937007873
11
0.0894
21
1.4062111811023621
0
LINE
8
BLACK
6
CONTINUOUS
10
0.0894
20
1.4062111811023621
11
0.0894
21
1.3937888188976377
0
LINE
8
BLACK
6
CONTINUOUS
10
1.8210387795275591
20
1.5238253937007873
11
1.8347705511811023
21
1.520691220472441
0
LINE
8
BLACK
6
CONTINUOUS
10
1.8347705511811023
20
1.520691220472441
11
1.8480650393700786
21
1.516039251968504
0
LINE
8
BLACK
6
CONTINUOUS
10
1.8480650393700786
20
1.516039251968504
11
1.8607550787401574
21
1.5099280708661418
0
LINE
8
BLACK
6
CONTINUOUS
10
1.8607550787401574
20
1.5099280708661418
11
1.8726811023622048
21
1.5024344488188976
0
LINE
8
BLACK
6
CONTINUOUS
10
1.8726811023622048
20
1.5024344488188976
11
1.8836931496062992
21
1.4936526377952755
0
LINE
8
BLACK
6
CONTINUOUS
10
1.8836931496062992
20
1.4936526377952755
11
1.8936526377952756
21
1.4836931496062993
0
LINE
8
BLACK
6
CONTINUOUS
10
1.8936526377952756
20
1.4836931496062993
11
1.9024344488188976
21
1.4726811023622046
0
LINE
8
BLACK
6
CONTINUOUS
10
1.9024344488188976
20
1.4726811023622046
11
1.9099280708661417
21
1.4607550787401575
0
LINE
8
BLACK
6
CONTINUOUS
10
1.9099280708661417
20
1.4607550787401575
11
1.9160392519685039
21
1.4480650393700787
0
LINE
8
BLACK
6
CONTINUOUS
10
1.9160392519685039
20
1.4480650393700787
11
1.9206912204724409
21
1.4347705511811024
0
LINE
8
BLACK
6
CONTINUOUS
10
1.9206912204724409
20
1.4347705511811024
11
1.9238253937007874
21
1.421038779527559
0
LINE
8
BLACK
6
CONTINUOUS
10
1.9238253937007874
20
1.421038779527559
11
1.925402401574803
21
1.4070424409448818
0
LINE
8
BLACK
6
CONTINUOUS
10
1.925402401574803
20
1.4070424409448818
11
1.925402401574803
21
1.392957559055118
0
LINE
8
BLACK
6
CONTINUOUS
10
1.925402401574803
20
1.392957559055118
11
1.9238253937007874
21
1.3789612204724409
0
LINE
8
BLACK
6
CONTINUOUS
10
1.9238253937007874
20
1.3789612204724409
11
1.9206912204724409
21
1.3652294488188976
0
LINE
8
BLACK
6
CONTINUOUS
10
1.9206912204724409
20
1.3652294488188976
11
1.9160392519685039
21
1.3519349606299211
0
LINE
8
BLACK
6
CONTINUOUS
10
1.9160392519685039
20
1.3519349606299211
11
1.9099280708661417
21
1.3392449212598425
0
LINE
8
BLACK
6
CONTINUOUS
10
1.9099280708661417
20
1.3392449212598425
11
1.9024344488188976
21
1.3273188976377952
0
LINE
8
BLACK
6
CONTINUOUS
10
1.9024344488188976
20
1.3273188976377952
11
1.8936526377952756
21
1.3163068503937008
0
LINE
8
BLACK
6
CONTINUOUS
10
1.8936526377952756
20
1.3163068503937008
11
1.8836931496062992
21
1.3063473622047244
0
LINE
8
BLACK
6
CONTINUOUS
10
1.8836931496062992
20
1.3063473622047244
11
1.8726811023622048
21
1.2975655511811024
0
LINE
8
BLACK
6
CONTINUOUS
10
1.8726811023622048
20
1.2975655511811024
11
1.8607550787401574
21
1.2900719291338583
0
LINE
8
BLACK
6
CONTINUOUS
10
1.8607550787401574
20
1.2900719291338583
11
1.8480650393700786
21
1.2839607480314961
0
LINE
8
BLACK
6
CONTINUOUS
10
1.8480650393700786
20
1.2839607480314961
11
1.8347705511811023
21
1.2793087795275591
0
LINE
8
BLACK
6
CONTINUOUS
10
1.8347705511811023
20
1.2793087795275591
11
1.8210387795275591
21
1.2761746062992125
0
LINE
8
BLACK
6
CONTINUOUS
10
1.8210387795275591
20
1.2761746062992125
11
1.8070424409448818
21
1.2745975984251969
0
LINE
8
BLACK
6
CONTINUOUS
10
1.8070424409448818
20
1.2745975984251969
11
1.7929575590551181
21
1.2745975984251969
0
LINE
8
BLACK
6
CONTINUOUS
10
1.7929575590551181
20
1.2745975984251969
11
1.778961220472441
21
1.2761746062992125
0
LINE
8
BLACK
6
CONTINUOUS
10
1.778961220472441
20
1.2761746062992125
11
1.7652294488188975
21
1.2793087795275591
0
LINE
8
BLACK
6
CONTINUOUS
10
1.7652294488188975
20
1.2793087795275591
11
1.7519349606299213
21
1.2839607480314961
0
LINE
8
BLACK
6
CONTINUOUS
10
1.7519349606299213
20
1.2839607480314961
11
1.7392449212598424
21
1.2900719291338583
0
LINE
8
BLACK
6
CONTINUOUS
10
1.7392449212598424
20
1.2900719291338583
11
1.7273188976377953
21
1.2975655511811024
0
LINE
8
BLACK
6
CONTINUOUS
10
1.7273188976377953
20
1.2975655511811024
11
1.7163068503937007
21
1.3063473622047244
0
LINE
8
BLACK
6
CONTINUOUS
10
1.7163068503937007
20
1.3063473622047244
11
1.7063473622047243
21
1.3163068503937008
0
LINE
8
BLACK
6
CONTINUOUS
10
1.7063473622047243
20
1.3163068503937008
11
1.6975655511811023
21
1.3273188976377952
0
LINE
8
BLACK
6
CONTINUOUS
10
1.6975655511811023
20
1.3273188976377952
11
1.6900719291338582
21
1.3392449212598425
0
LINE
8
BLACK
6
CONTINUOUS
10
1.6900719291338582
20
1.3392449212598425
11
1.683960748031496
21
1.3519349606299211
0
LINE
8
BLACK
6
CONTINUOUS
10
1.683960748031496
20
1.3519349606299211
11
1.679308779527559
21
1.3652294488188976
0
LINE
8
BLACK
6
CONTINUOUS
10
1.679308779527559
20
1.3652294488188976
11
1.6761746062992127
21
1.3789612204724409
0
LINE
8
BLACK
6
CONTINUOUS
10
1.6761746062992127
20
1.3789612204724409
11
1.6745975984251968
21
1.392957559055118
0
LINE
8
BLACK
6
CONTINUOUS
10
1.6745975984251968
20
1.392957559055118
11
1.6745975984251968
21
1.4062111811023621
0
LINE
8
BLACK
6
CONTINUOUS
10
1.6745975984251968
20
1.4062111811023621
11
1.6745975984251968
21
1.4070424409448818
0
LINE
8
BLACK
6
CONTINUOUS
10
1.6745975984251968
20
1.4070424409448818
11
1.6761746062992127
21
1.421038779527559
0
LINE
8
BLACK
6
CONTINUOUS
10
1.6761746062992127
20
1.421038779527559
11
1.679308779527559
21
1.4347705511811024
0
LINE
8
BLACK
6
CONTINUOUS
10
1.679308779527559
20
1.4347705511811024
11
1.683960748031496
21
1.4480650393700787
0
LINE
8
BLACK
6
CONTINUOUS
10
1.683960748031496
20
1.4480650393700787
11
1.6900719291338582
21
1.4607550787401575
0
LINE
8
BLACK
6
CONTINUOUS
10
1.6900719291338582
20
1.4607550787401575
11
1.6975655511811023
21
1.4726811023622046
0
LINE
8
BLACK
6
CONTINUOUS
10
1.6975655511811023
20
1.4726811023622046
11
1.7063473622047243
21
1.4836931496062993
0
LINE
8
BLACK
6
CONTINUOUS
10
1.7063473622047243
20
1.4836931496062993
11
1.7163068503937007
21
1.4936526377952755
0
LINE
8
BLACK
6
CONTINUOUS
10
1.7163068503937007
20
1.4936526377952755
11
1.7273188976377953
21
1.5024344488188976
0
LINE
8
BLACK
6
CONTINUOUS
10
1.7273188976377953
20
1.5024344488188976
11
1.7392449212598424
21
1.5099280708661418
0
LINE
8
BLACK
6
CONTINUOUS
10
1.7392449212598424
20
1.5099280708661418
11
1.7519349606299213
21
1.516039251968504
0
LINE
8
BLACK
6
CONTINUOUS
10
1.7519349606299213
20
1.516039251968504
11
1.7652294488188975
21
1.520691220472441
0
LINE
8
BLACK
6
CONTINUOUS
10
1.7652294488188975
20
1.520691220472441
11
1.778961220472441
21
1.5238253937007873
0
LINE
8
BLACK
6
CONTINUOUS
10
1.778961220472441
20
1.5238253937007873
11
1.7929575590551181
21
1.5254024015748031
0
LINE
8
BLACK
6
CONTINUOUS
10
1.7929575590551181
20
1.5254024015748031
11
1.8070424409448818
21
1.5254024015748031
0
LINE
8
BLACK
6
CONTINUOUS
10
1.8070424409448818
20
1.5254024015748031
11
1.8210387795275591
21
1.5238253937007873
0
LINE
8
BLACK
6
CONTINUOUS
10
1.6894
20
1.3937888188976377
11
1.6907908661417324
21
1.3814446062992125
0
LINE
8
BLACK
6
CONTINUOUS
10
1.6907908661417324
20
1.3814446062992125
11
1.6935551181102362
21
1.3693337401574803
0
LINE
8
BLACK
6
CONTINUOUS
10
1.6935551181102362
20
1.3693337401574803
11
1.6976579527559055
21
1.3576085433070866
0
LINE
8
BLACK
6
CONTINUOUS
10
1.6976579527559055
20
1.3576085433070866
11
1.7030477952755905
21
1.3464164173228346
0
LINE
8
BLACK
6
CONTINUOUS
10
1.7030477952755905
20
1.3464164173228346
11
1.7096568503937009
21
1.3358981102362204
0
LINE
8
BLACK
6
CONTINUOUS
10
1.7096568503937009
20
1.3358981102362204
11
1.7174020472440945
21
1.3261859448818898
0
LINE
8
BLACK
6
CONTINUOUS
10
1.7174020472440945
20
1.3261859448818898
11
1.7261859448818897
21
1.3174020472440944
0
LINE
8
BLACK
6
CONTINUOUS
10
1.7261859448818897
20
1.3174020472440944
11
1.7358981102362205
21
1.3096568503937007
0
LINE
8
BLACK
6
CONTINUOUS
10
1.7358981102362205
20
1.3096568503937007
11
1.7464164173228347
21
1.3030477952755906
0
LINE
8
BLACK
6
CONTINUOUS
10
1.7464164173228347
20
1.3030477952755906
11
1.7576085433070865
21
1.2976579527559056
0
LINE
8
BLACK
6
CONTINUOUS
10
1.7576085433070865
20
1.2976579527559056
11
1.7693337401574802
21
1.2935551181102363
0
LINE
8
BLACK
6
CONTINUOUS
10
1.7693337401574802
20
1.2935551181102363
11
1.7814446062992126
21
1.2907908661417322
0
LINE
8
BLACK
6
CONTINUOUS
10
1.7814446062992126
20
1.2907908661417322
11
1.7937888188976379
21
1.2893999999999999
0
LINE
8
BLACK
6
CONTINUOUS
10
1.7937888188976379
20
1.2893999999999999
11
1.8062111811023622
21
1.2893999999999999
0
LINE
8
BLACK
6
CONTINUOUS
10
1.8062111811023622
20
1.2893999999999999
11
1.8185553937007874
21
1.2907908661417322
0
LINE
8
BLACK
6
CONTINUOUS
10
1.8185553937007874
20
1.2907908661417322
11
1.8306662598425196
21
1.2935551181102363
0
LINE
8
BLACK
6
CONTINUOUS
10
1.8306662598425196
20
1.2935551181102363
11
1.8423914566929134
21
1.2976579527559056
0
LINE
8
BLACK
6
CONTINUOUS
10
1.8423914566929134
20
1.2976579527559056
11
1.8535835826771654
21
1.3030477952755906
0
LINE
8
BLACK
6
CONTINUOUS
10
1.8535835826771654
20
1.3030477952755906
11
1.8641018897637796
21
1.3096568503937007
0
LINE
8
BLACK
6
CONTINUOUS
10
1.8641018897637796
20
1.3096568503937007
11
1.8738140551181102
21
1.3174020472440944
0
LINE
8
BLACK
6
CONTINUOUS
10
1.8738140551181102
20
1.3174020472440944
11
1.8825979527559056
21
1.3261859448818898
0
LINE
8
BLACK
6
CONTINUOUS
10
1.8825979527559056
20
1.3261859448818898
11
1.8903431496062992
21
1.3358981102362204
0
LINE
8
BLACK
6
CONTINUOUS
10
1.8903431496062992
20
1.3358981102362204
11
1.8969522047244094
21
1.3464164173228346
0
LINE
8
BLACK
6
CONTINUOUS
10
1.8969522047244094
20
1.3464164173228346
11
1.9023420472440944
21
1.3576085433070866
0
LINE
8
BLACK
6
CONTINUOUS
10
1.9023420472440944
20
1.3576085433070866
11
1.9064448818897637
21
1.3693337401574803
0
LINE
8
BLACK
6
CONTINUOUS
10
1.9064448818897637
20
1.3693337401574803
11
1.9092091338582677
21
1.3814446062992125
0
LINE
8
BLACK
6
CONTINUOUS
10
1.9092091338582677
20
1.3814446062992125
11
1.9105999999999999
21
1.3937888188976377
0
LINE
8
BLACK
6
CONTINUOUS
10
1.9105999999999999
20
1.3937888188976377
11
1.9105999999999999
21
1.4062111811023621
0
LINE
8
BLACK
6
CONTINUOUS
10
1.9105999999999999
20
1.4062111811023621
11
1.9092091338582677
21
1.4185553937007873
0
LINE
8
BLACK
6
CONTINUOUS
10
1.9092091338582677
20
1.4185553937007873
11
1.9064448818897637
21
1.4306662598425197
0
LINE
8
BLACK
6
CONTINUOUS
10
1.9064448818897637
20
1.4306662598425197
11
1.9023420472440944
21
1.4423914566929132
0
LINE
8
BLACK
6
CONTINUOUS
10
1.9023420472440944
20
1.4423914566929132
11
1.8969522047244094
21
1.4535835826771653
0
LINE
8
BLACK
6
CONTINUOUS
10
1.8969522047244094
20
1.4535835826771653
11
1.8903431496062992
21
1.4641018897637794
0
LINE
8
BLACK
6
CONTINUOUS
10
1.8903431496062992
20
1.4641018897637794
11
1.8825979527559056
21
1.4738140551181103
0
LINE
8
BLACK
6
CONTINUOUS
10
1.8825979527559056
20
1.4738140551181103
11
1.8738140551181102
21
1.4825979527559054
0
LINE
8
BLACK
6
CONTINUOUS
10
1.8738140551181102
20
1.4825979527559054
11
1.8641018897637796
21
1.4903431496062991
0
LINE
8
BLACK
6
CONTINUOUS
10
1.8641018897637796
20
1.4903431496062991
11
1.8535835826771654
21
1.4969522047244095
0
LINE
8
BLACK
6
CONTINUOUS
10
1.8535835826771654
20
1.4969522047244095
11
1.8423914566929134
21
1.5023420472440945
0
LINE
8
BLACK
6
CONTINUOUS
10
1.8423914566929134
20
1.5023420472440945
11
1.8306662598425196
21
1.5064448818897638
0
LINE
8
BLACK
6
CONTINUOUS
10
1.8306662598425196
20
1.5064448818897638
11
1.8185553937007874
21
1.5092091338582676
0
LINE
8
BLACK
6
CONTINUOUS
10
1.8185553937007874
20
1.5092091338582676
11
1.8062111811023622
21
1.5105999999999999
0
LINE
8
BLACK
6
CONTINUOUS
10
1.8062111811023622
20
1.5105999999999999
11
1.7937888188976379
21
1.5105999999999999
0
LINE
8
BLACK
6
CONTINUOUS
10
1.7937888188976379
20
1.5105999999999999
11
1.7814446062992126
21
1.5092091338582676
0
LINE
8
BLACK
6
CONTINUOUS
10
1.7814446062992126
20
1.5092091338582676
11
1.7693337401574802
21
1.5064448818897638
0
LINE
8
BLACK
6
CONTINUOUS
10
1.7693337401574802
20
1.5064448818897638
11
1.7576085433070865
21
1.5023420472440945
0
LINE
8
BLACK
6
CONTINUOUS
10
1.7576085433070865
20
1.5023420472440945
11
1.7464164173228347
21
1.4969522047244095
0
LINE
8
BLACK
6
CONTINUOUS
10
1.7464164173228347
20
1.4969522047244095
11
1.7358981102362205
21
1.4903431496062991
0
LINE
8
BLACK
6
CONTINUOUS
10
1.7358981102362205
20
1.4903431496062991
11
1.7261859448818897
21
1.4825979527559054
0
LINE
8
BLACK
6
CONTINUOUS
10
1.7261859448818897
20
1.4825979527559054
11
1.7174020472440945
21
1.4738140551181103
0
LINE
8
BLACK
6
CONTINUOUS
10
1.7174020472440945
20
1.4738140551181103
11
1.7096568503937009
21
1.4641018897637794
0
LINE
8
BLACK
6
CONTINUOUS
10
1.7096568503937009
20
1.4641018897637794
11
1.7030477952755905
21
1.4535835826771653
0
LINE
8
BLACK
6
CONTINUOUS
10
1.7030477952755905
20
1.4535835826771653
11
1.6976579527559055
21
1.4423914566929132
0
LINE
8
BLACK
6
CONTINUOUS
10
1.6976579527559055
20
1.4423914566929132
11
1.6935551181102362
21
1.4306662598425197
0
LINE
8
BLACK
6
CONTINUOUS
10
1.6935551181102362
20
1.4306662598425197
11
1.6907908661417324
21
1.4185553937007873
0
LINE
8
BLACK
6
CONTINUOUS
10
1.6907908661417324
20
1.4185553937007873
11
1.6894
21
1.4062111811023621
0
LINE
8
BLACK
6
CONTINUOUS
10
1.6894
20
1.4062111811023621
11
1.6894
21
1.3937888188976377
0
CIRCLE
8
BLACK
10
0.1
20
0.98
40
0.0068897637795276
0
CIRCLE
8
BLACK
10
0.2
20
0.98
40
0.0068897637795276
0
CIRCLE
8
BLACK
10
0.1
20
1.0800000000000001
40
0.0068897637795276
0
CIRCLE
8
BLACK
10
0.2
20
1.0800000000000001
40
0.0068897637795276
0
CIRCLE
8
BLACK
10
0.1
20
1.1799999999999999
40
0.0068897637795276
0
CIRCLE
8
BLACK
10
0.2
20
1.1799999999999999
40
0.0068897637795276
0
CIRCLE
8
BLACK
10
1.3499999999999999
20
1.03
40
0.0068897637795276
0
CIRCLE
8
BLACK
10
1.45
20
1.03
40
0.0068897637795276
0
CIRCLE
8
BLACK
10
1.75
20
1.1699999999999999
40
0.0068897637795276
0
CIRCLE
8
BLACK
10
1.8499999999999999
20
1.1699999999999999
40
0.0068897637795276
0
CIRCLE
8
BLACK
10
1.75
20
1.0700000000000001
40
0.0068897637795276
0
CIRCLE
8
BLACK
10
1.8499999999999999
20
1.0700000000000001
40
0.0068897637795276
0
CIRCLE
8
BLACK
10
1.1899999999999999
20
0.21
40
0.0068897637795276
0
CIRCLE
8
BLACK
10
1.1899999999999999
20
0.31
40
0.0068897637795276
0
CIRCLE
8
BLACK
10
1.3499999999999999
20
1.1299999999999999
40
0.0068897637795276
0
CIRCLE
8
BLACK
10
1.45
20
1.1299999999999999
40
0.0068897637795276
0
CIRCLE
8
BLACK
10
1.3499999999999999
20
1.3300000000000001
40
0.0068897637795276
0
CIRCLE
8
BLACK
10
1.45
20
1.3300000000000001
40
0.0068897637795276
0
CIRCLE
8
BLACK
10
1.3499999999999999
20
1.4299999999999999
40
0.0068897637795276
0
CIRCLE
8
BLACK
10
1.45
20
1.4299999999999999
40
0.0068897637795276
0
CIRCLE
8
BLACK
10
0.99
20
0.21
40
0.0068897637795276
0
CIRCLE
8
BLACK
10
0.99
20
0.31
40
0.0068897637795276
0
CIRCLE
8
BLACK
10
1.0900000000000001
20
0.31
40
0.0068897637795276
0
CIRCLE
8
BLACK
10
1.0900000000000001
20
0.21
40
0.0068897637795276
0
CIRCLE
8
BLACK
10
0.2
20
0.2
40
0.0068897637795276
0
CIRCLE
8
BLACK
10
0.2
20
1.3999999999999999
40
0.0068897637795276
0
CIRCLE
8
BLACK
10
1.8
20
0.2
40
0.0068897637795276
0
CIRCLE
8
BLACK
10
1.8
20
1.3999999999999999
40
0.0068897637795276
0
CIRCLE
8
BLACK
10
0.47
20
0.15
40
0.0068897637795276
0
CIRCLE
8
BLACK
10
0.47
20
0.25
40
0.0068897637795276
0
CIRCLE
8
BLACK
10
0.57
20
0.15
40
0.0068897637795276
0
CIRCLE
8
BLACK
10
0.57
20
0.25
40
0.0068897637795276
0
CIRCLE
8
BLACK
10
1.3499999999999999
20
1.23
40
0.0068897637795276
0
CIRCLE
8
BLACK
10
1.45
20
1.23
40
0.0068897637795276
0
CIRCLE
8
BLACK
10
0.54
20
1.3868503937007874
40
0.0068897637795276
0
CIRCLE
8
BLACK
10
0.54
20
1.1899999999999999
40
0.0068897637795276
0
CIRCLE
8
BLACK
10
0.74
20
1.3868503937007874
40
0.0068897637795276
0
CIRCLE
8
BLACK
10
0.74
20
1.1899999999999999
40
0.0068897637795276
0
CIRCLE
8
BLACK
10
1.05
20
1.2356
40
0.0068897637795276
0
CIRCLE
8
BLACK
10
1.05
20
1.3144
40
0.0068897637795276
0
CIRCLE
8
BLACK
10
0.4068503937007874
20
0.72
40
0.0068897637795276
0
CIRCLE
8
BLACK
10
0.21
20
0.72
40
0.0068897637795276
0
CIRCLE
8
BLACK
10
0.4068503937007874
20
0.5231496062992126
40
0.0068897637795276
0
CIRCLE
8
BLACK
10
0.21
20
0.5231496062992126
40
0.0068897637795276
0
CIRCLE
8
BLACK
10
1.5931496062992125
20
0.79
40
0.0068897637795276
0
CIRCLE
8
BLACK
10
1.79
20
0.79
40
0.0068897637795276
0
CIRCLE
8
BLACK
10
1.5931496062992125
20
0.5931496062992125
40
0.0068897637795276
0
CIRCLE
8
BLACK
10
1.79
20
0.5931496062992125
40
0.0068897637795276
0
CIRCLE
8
BLACK
10
1.29
20
0.31
40
0.0068897637795276
0
CIRCLE
8
BLACK
10
1.29
20
0.21
40
0.0068897637795276
  0
ENDSEC
  0
EOF
