  0
SECTION
  2
HEADER
  9
$ANGBASE
  50
0.0
  9
$ANGDIR
  70
1
  9
$MEASUREMENT
  70
0
  0
ENDSEC
  0
SECTION
  2
TABLES
  0
TABLE
  2
LTYPE
  70
4
  0
LTYPE
  5
40F
  2
CONTINUOUS
  70
0
  3
Solid line
  72
65
  73
0
  40
0.0
  0
LTYPE
  5
410
  2
DASHDOT
 70
0
  3
Dash Dot ____ _ ____ _
 72
65
 73
4
 40
2.0
 49
1.25
 49
-0.25
 49
0.25
 49
-0.25
  0
LTYPE
  5
411
  2
DASHED
 70
0
  3
Dashed __ __ __ __ __
 72
65
 73
2
 40
0.75
 49
0.5
 49
-0.25
  0
LTYPE
  5
43B
  2
DOTTED
 70
0
  3
Dotted .  .  .  .
 72
65
 73
2
 40
0.2
 49
0.0
 49
-0.2
  0
ENDTAB
  0
TABLE
  2
STYLE
  70
4
  0
STYLE
  2
KICAD
  70
0
  40
0
  41
1
  42
1
  50
0
  71
0
  3
isocp.shx
  0
STYLE
  2
KICADB
  70
0
  40
0
  41
1
  42
1
  50
0
  71
0
  3
isocp.shx
  0
STYLE
  2
KICADI
  70
0
  40
0
  41
1
  42
1
  50
15
  71
0
  3
isocp.shx
  0
STYLE
  2
KICADBI
  70
0
  40
0
  41
1
  42
1
  50
15
  71
0
  3
isocp.shx
  0
ENDTAB
  0
TABLE
  2
LAYER
  70
1
  0
LAYER
  2
BLACK
  70
0
  62
7
  6
CONTINUOUS
  0
ENDTAB
  0
ENDSEC
  0
SECTION
  2
ENTITIES
0
LINE
8
BLACK
6
CONTINUOUS
10
0.2197842125984252
20
0.3164414566929134
11
0.232697125984252
21
0.3134941732283464
0
LINE
8
BLACK
6
CONTINUOUS
10
0.232697125984252
20
0.3134941732283464
11
0.2451988188976378
21
0.3091196456692913
0
LINE
8
BLACK
6
CONTINUOUS
10
0.2451988188976378
20
0.3091196456692913
11
0.2571321653543307
21
0.3033728346456693
0
LINE
8
BLACK
6
CONTINUOUS
10
0.2571321653543307
20
0.3033728346456693
11
0.2683470078740157
21
0.2963261023622047
0
LINE
8
BLACK
6
CONTINUOUS
10
0.2683470078740157
20
0.2963261023622047
11
0.2787023622047244
21
0.2880679527559055
0
LINE
8
BLACK
6
CONTINUOUS
10
0.2787023622047244
20
0.2880679527559055
11
0.2880679527559055
21
0.2787023622047244
0
LINE
8
BLACK
6
CONTINUOUS
10
0.2880679527559055
20
0.2787023622047244
11
0.2963261023622047
21
0.2683470078740157
0
LINE
8
BLACK
6
CONTINUOUS
10
0.2963261023622047
20
0.2683470078740157
11
0.3033728346456693
21
0.2571321653543307
0
LINE
8
BLACK
6
CONTINUOUS
10
0.3033728346456693
20
0.2571321653543307
11
0.3091196456692913
21
0.2451988188976378
0
LINE
8
BLACK
6
CONTINUOUS
10
0.3091196456692913
20
0.2451988188976378
11
0.3134941732283464
21
0.232697125984252
0
LINE
8
BLACK
6
CONTINUOUS
10
0.3134941732283464
20
0.232697125984252
11
0.3164414566929134
21
0.2197842125984252
0
LINE
8
BLACK
6
CONTINUOUS
10
0.3164414566929134
20
0.2197842125984252
11
0.3179244094488189
21
0.2066224803149606
0
LINE
8
BLACK
6
CONTINUOUS
10
0.3179244094488189
20
0.2066224803149606
11
0.3179244094488189
21
0.1933775196850394
0
LINE
8
BLACK
6
CONTINUOUS
10
0.3179244094488189
20
0.1933775196850394
11
0.3164414566929134
21
0.1802157874015748
0
LINE
8
BLACK
6
CONTINUOUS
10
0.3164414566929134
20
0.1802157874015748
11
0.3134941732283464
21
0.167302874015748
0
LINE
8
BLACK
6
CONTINUOUS
10
0.3134941732283464
20
0.167302874015748
11
0.3091196456692913
21
0.1548011811023622
0
LINE
8
BLACK
6
CONTINUOUS
10
0.3091196456692913
20
0.1548011811023622
11
0.3033728346456693
21
0.1428678346456693
0
LINE
8
BLACK
6
CONTINUOUS
10
0.3033728346456693
20
0.1428678346456693
11
0.2963261023622047
21
0.1316529921259842
0
LINE
8
BLACK
6
CONTINUOUS
10
0.2963261023622047
20
0.1316529921259842
11
0.2880679527559055
21
0.1212976377952756
0
LINE
8
BLACK
6
CONTINUOUS
10
0.2880679527559055
20
0.1212976377952756
11
0.2787023622047244
21
0.1119320472440945
0
LINE
8
BLACK
6
CONTINUOUS
10
0.2787023622047244
20
0.1119320472440945
11
0.2683470078740157
21
0.1036738976377953
0
LINE
8
BLACK
6
CONTINUOUS
10
0.2683470078740157
20
0.1036738976377953
11
0.2571321653543307
21
0.0966271653543307
0
LINE
8
BLACK
6
CONTINUOUS
10
0.2571321653543307
20
0.0966271653543307
11
0.2451988188976378
21
0.0908803543307087
0
LINE
8
BLACK
6
CONTINUOUS
10
0.2451988188976378
20
0.0908803543307087
11
0.232697125984252
21
0.0865058267716535
0
LINE
8
BLACK
6
CONTINUOUS
10
0.232697125984252
20
0.0865058267716535
11
0.2197842125984252
21
0.0835585433070866
0
LINE
8
BLACK
6
CONTINUOUS
10
0.2197842125984252
20
0.0835585433070866
11
0.2066224803149606
21
0.0820755905511811
0
LINE
8
BLACK
6
CONTINUOUS
10
0.2066224803149606
20
0.0820755905511811
11
0.1933775196850394
21
0.0820755905511811
0
LINE
8
BLACK
6
CONTINUOUS
10
0.1933775196850394
20
0.0820755905511811
11
0.1802157874015748
21
0.0835585433070866
0
LINE
8
BLACK
6
CONTINUOUS
10
0.1802157874015748
20
0.0835585433070866
11
0.167302874015748
21
0.0865058267716535
0
LINE
8
BLACK
6
CONTINUOUS
10
0.167302874015748
20
0.0865058267716535
11
0.1548011811023622
21
0.0908803543307087
0
LINE
8
BLACK
6
CONTINUOUS
10
0.1548011811023622
20
0.0908803543307087
11
0.1428678346456693
21
0.0966271653543307
0
LINE
8
BLACK
6
CONTINUOUS
10
0.1428678346456693
20
0.0966271653543307
11
0.1316529921259842
21
0.1036738976377953
0
LINE
8
BLACK
6
CONTINUOUS
10
0.1316529921259842
20
0.1036738976377953
11
0.1212976377952756
21
0.1119320472440945
0
LINE
8
BLACK
6
CONTINUOUS
10
0.1212976377952756
20
0.1119320472440945
11
0.1119320472440945
21
0.1212976377952756
0
LINE
8
BLACK
6
CONTINUOUS
10
0.1119320472440945
20
0.1212976377952756
11
0.1036738976377953
21
0.1316529921259842
0
LINE
8
BLACK
6
CONTINUOUS
10
0.1036738976377953
20
0.1316529921259842
11
0.0966271653543307
21
0.1428678346456693
0
LINE
8
BLACK
6
CONTINUOUS
10
0.0966271653543307
20
0.1428678346456693
11
0.0908803543307087
21
0.1548011811023622
0
LINE
8
BLACK
6
CONTINUOUS
10
0.0908803543307087
20
0.1548011811023622
11
0.0865058267716535
21
0.167302874015748
0
LINE
8
BLACK
6
CONTINUOUS
10
0.0865058267716535
20
0.167302874015748
11
0.0835585433070866
21
0.1802157874015748
0
LINE
8
BLACK
6
CONTINUOUS
10
0.0835585433070866
20
0.1802157874015748
11
0.0820755905511811
21
0.1933775196850394
0
LINE
8
BLACK
6
CONTINUOUS
10
0.0820755905511811
20
0.1933775196850394
11
0.0820755905511811
21
0.2066224803149606
0
LINE
8
BLACK
6
CONTINUOUS
10
0.0820755905511811
20
0.2066224803149606
11
0.0835585433070866
21
0.2197842125984252
0
LINE
8
BLACK
6
CONTINUOUS
10
0.0835585433070866
20
0.2197842125984252
11
0.0865058267716535
21
0.232697125984252
0
LINE
8
BLACK
6
CONTINUOUS
10
0.0865058267716535
20
0.232697125984252
11
0.0908803543307087
21
0.2451988188976378
0
LINE
8
BLACK
6
CONTINUOUS
10
0.0908803543307087
20
0.2451988188976378
11
0.0966271653543307
21
0.2571321653543307
0
LINE
8
BLACK
6
CONTINUOUS
10
0.0966271653543307
20
0.2571321653543307
11
0.1036738976377953
21
0.2683470078740157
0
LINE
8
BLACK
6
CONTINUOUS
10
0.1036738976377953
20
0.2683470078740157
11
0.1119320472440945
21
0.2787023622047244
0
LINE
8
BLACK
6
CONTINUOUS
10
0.1119320472440945
20
0.2787023622047244
11
0.1212976377952756
21
0.2880679527559055
0
LINE
8
BLACK
6
CONTINUOUS
10
0.1212976377952756
20
0.2880679527559055
11
0.1316529921259842
21
0.2963261023622047
0
LINE
8
BLACK
6
CONTINUOUS
10
0.1316529921259842
20
0.2963261023622047
11
0.1428678346456693
21
0.3033728346456693
0
LINE
8
BLACK
6
CONTINUOUS
10
0.1428678346456693
20
0.3033728346456693
11
0.1548011811023622
21
0.3091196456692913
0
LINE
8
BLACK
6
CONTINUOUS
10
0.1548011811023622
20
0.3091196456692913
11
0.167302874015748
21
0.3134941732283464
0
LINE
8
BLACK
6
CONTINUOUS
10
0.167302874015748
20
0.3134941732283464
11
0.1802157874015748
21
0.3164414566929134
0
LINE
8
BLACK
6
CONTINUOUS
10
0.1802157874015748
20
0.3164414566929134
11
0.1933775196850394
21
0.3179244094488189
0
LINE
8
BLACK
6
CONTINUOUS
10
0.1933775196850394
20
0.3179244094488189
11
0.2066224803149606
21
0.3179244094488189
0
LINE
8
BLACK
6
CONTINUOUS
10
0.2066224803149606
20
0.3179244094488189
11
0.2197842125984252
21
0.3164414566929134
0
LINE
8
BLACK
6
CONTINUOUS
10
1.8197842125984252
20
0.3164414566929134
11
1.8326971259842519
21
0.3134941732283464
0
LINE
8
BLACK
6
CONTINUOUS
10
1.8326971259842519
20
0.3134941732283464
11
1.8451988188976378
21
0.3091196456692913
0
LINE
8
BLACK
6
CONTINUOUS
10
1.8451988188976378
20
0.3091196456692913
11
1.8571321653543307
21
0.3033728346456693
0
LINE
8
BLACK
6
CONTINUOUS
10
1.8571321653543307
20
0.3033728346456693
11
1.8683470078740156
21
0.2963261023622047
0
LINE
8
BLACK
6
CONTINUOUS
10
1.8683470078740156
20
0.2963261023622047
11
1.8787023622047243
21
0.2880679527559055
0
LINE
8
BLACK
6
CONTINUOUS
10
1.8787023622047243
20
0.2880679527559055
11
1.8880679527559054
21
0.2787023622047244
0
LINE
8
BLACK
6
CONTINUOUS
10
1.8880679527559054
20
0.2787023622047244
11
1.8963261023622047
21
0.2683470078740157
0
LINE
8
BLACK
6
CONTINUOUS
10
1.8963261023622047
20
0.2683470078740157
11
1.9033728346456693
21
0.2571321653543307
0
LINE
8
BLACK
6
CONTINUOUS
10
1.9033728346456693
20
0.2571321653543307
11
1.9091196456692914
21
0.2451988188976378
0
LINE
8
BLACK
6
CONTINUOUS
10
1.9091196456692914
20
0.2451988188976378
11
1.9134941732283464
21
0.232697125984252
0
LINE
8
BLACK
6
CONTINUOUS
10
1.9134941732283464
20
0.232697125984252
11
1.9164414566929133
21
0.2197842125984252
0
LINE
8
BLACK
6
CONTINUOUS
10
1.9164414566929133
20
0.2197842125984252
11
1.9179244094488188
21
0.2066224803149606
0
LINE
8
BLACK
6
CONTINUOUS
10
1.9179244094488188
20
0.2066224803149606
11
1.9179244094488188
21
0.1933775196850394
0
LINE
8
BLACK
6
CONTINUOUS
10
1.9179244094488188
20
0.1933775196850394
11
1.9164414566929133
21
0.1802157874015748
0
LINE
8
BLACK
6
CONTINUOUS
10
1.9164414566929133
20
0.1802157874015748
11
1.9134941732283464
21
0.167302874015748
0
LINE
8
BLACK
6
CONTINUOUS
10
1.9134941732283464
20
0.167302874015748
11
1.9091196456692914
21
0.1548011811023622
0
LINE
8
BLACK
6
CONTINUOUS
10
1.9091196456692914
20
0.1548011811023622
11
1.9033728346456693
21
0.1428678346456693
0
LINE
8
BLACK
6
CONTINUOUS
10
1.9033728346456693
20
0.1428678346456693
11
1.8963261023622047
21
0.1316529921259842
0
LINE
8
BLACK
6
CONTINUOUS
10
1.8963261023622047
20
0.1316529921259842
11
1.8880679527559054
21
0.1212976377952756
0
LINE
8
BLACK
6
CONTINUOUS
10
1.8880679527559054
20
0.1212976377952756
11
1.8787023622047243
21
0.1119320472440945
0
LINE
8
BLACK
6
CONTINUOUS
10
1.8787023622047243
20
0.1119320472440945
11
1.8683470078740156
21
0.1036738976377953
0
LINE
8
BLACK
6
CONTINUOUS
10
1.8683470078740156
20
0.1036738976377953
11
1.8571321653543307
21
0.0966271653543307
0
LINE
8
BLACK
6
CONTINUOUS
10
1.8571321653543307
20
0.0966271653543307
11
1.8451988188976378
21
0.0908803543307087
0
LINE
8
BLACK
6
CONTINUOUS
10
1.8451988188976378
20
0.0908803543307087
11
1.8326971259842519
21
0.0865058267716535
0
LINE
8
BLACK
6
CONTINUOUS
10
1.8326971259842519
20
0.0865058267716535
11
1.8197842125984252
21
0.0835585433070866
0
LINE
8
BLACK
6
CONTINUOUS
10
1.8197842125984252
20
0.0835585433070866
11
1.8066224803149606
21
0.0820755905511811
0
LINE
8
BLACK
6
CONTINUOUS
10
1.8066224803149606
20
0.0820755905511811
11
1.7933775196850392
21
0.0820755905511811
0
LINE
8
BLACK
6
CONTINUOUS
10
1.7933775196850392
20
0.0820755905511811
11
1.7802157874015747
21
0.0835585433070866
0
LINE
8
BLACK
6
CONTINUOUS
10
1.7802157874015747
20
0.0835585433070866
11
1.7673028740157479
21
0.0865058267716535
0
LINE
8
BLACK
6
CONTINUOUS
10
1.7673028740157479
20
0.0865058267716535
11
1.7548011811023623
21
0.0908803543307087
0
LINE
8
BLACK
6
CONTINUOUS
10
1.7548011811023623
20
0.0908803543307087
11
1.7428678346456692
21
0.0966271653543307
0
LINE
8
BLACK
6
CONTINUOUS
10
1.7428678346456692
20
0.0966271653543307
11
1.7316529921259842
21
0.1036738976377953
0
LINE
8
BLACK
6
CONTINUOUS
10
1.7316529921259842
20
0.1036738976377953
11
1.7212976377952756
21
0.1119320472440945
0
LINE
8
BLACK
6
CONTINUOUS
10
1.7212976377952756
20
0.1119320472440945
11
1.7119320472440944
21
0.1212976377952756
0
LINE
8
BLACK
6
CONTINUOUS
10
1.7119320472440944
20
0.1212976377952756
11
1.7036738976377952
21
0.1316529921259842
0
LINE
8
BLACK
6
CONTINUOUS
10
1.7036738976377952
20
0.1316529921259842
11
1.6966271653543308
21
0.1428678346456693
0
LINE
8
BLACK
6
CONTINUOUS
10
1.6966271653543308
20
0.1428678346456693
11
1.6908803543307087
21
0.1548011811023622
0
LINE
8
BLACK
6
CONTINUOUS
10
1.6908803543307087
20
0.1548011811023622
11
1.6865058267716535
21
0.167302874015748
0
LINE
8
BLACK
6
CONTINUOUS
10
1.6865058267716535
20
0.167302874015748
11
1.6835585433070865
21
0.1802157874015748
0
LINE
8
BLACK
6
CONTINUOUS
10
1.6835585433070865
20
0.1802157874015748
11
1.6820755905511811
21
0.1933775196850394
0
LINE
8
BLACK
6
CONTINUOUS
10
1.6820755905511811
20
0.1933775196850394
11
1.6820755905511811
21
0.2066224803149606
0
LINE
8
BLACK
6
CONTINUOUS
10
1.6820755905511811
20
0.2066224803149606
11
1.6835585433070865
21
0.2197842125984252
0
LINE
8
BLACK
6
CONTINUOUS
10
1.6835585433070865
20
0.2197842125984252
11
1.6865058267716535
21
0.232697125984252
0
LINE
8
BLACK
6
CONTINUOUS
10
1.6865058267716535
20
0.232697125984252
11
1.6908803543307087
21
0.2451988188976378
0
LINE
8
BLACK
6
CONTINUOUS
10
1.6908803543307087
20
0.2451988188976378
11
1.6966271653543308
21
0.2571321653543307
0
LINE
8
BLACK
6
CONTINUOUS
10
1.6966271653543308
20
0.2571321653543307
11
1.7036738976377952
21
0.2683470078740157
0
LINE
8
BLACK
6
CONTINUOUS
10
1.7036738976377952
20
0.2683470078740157
11
1.7119320472440944
21
0.2787023622047244
0
LINE
8
BLACK
6
CONTINUOUS
10
1.7119320472440944
20
0.2787023622047244
11
1.7212976377952756
21
0.2880679527559055
0
LINE
8
BLACK
6
CONTINUOUS
10
1.7212976377952756
20
0.2880679527559055
11
1.7316529921259842
21
0.2963261023622047
0
LINE
8
BLACK
6
CONTINUOUS
10
1.7316529921259842
20
0.2963261023622047
11
1.7428678346456692
21
0.3033728346456693
0
LINE
8
BLACK
6
CONTINUOUS
10
1.7428678346456692
20
0.3033728346456693
11
1.7548011811023623
21
0.3091196456692913
0
LINE
8
BLACK
6
CONTINUOUS
10
1.7548011811023623
20
0.3091196456692913
11
1.7673028740157479
21
0.3134941732283464
0
LINE
8
BLACK
6
CONTINUOUS
10
1.7673028740157479
20
0.3134941732283464
11
1.7802157874015747
21
0.3164414566929134
0
LINE
8
BLACK
6
CONTINUOUS
10
1.7802157874015747
20
0.3164414566929134
11
1.7933775196850392
21
0.3179244094488189
0
LINE
8
BLACK
6
CONTINUOUS
10
1.7933775196850392
20
0.3179244094488189
11
1.8066224803149606
21
0.3179244094488189
0
LINE
8
BLACK
6
CONTINUOUS
10
1.8066224803149606
20
0.3179244094488189
11
1.8197842125984252
21
0.3164414566929134
0
LINE
8
BLACK
6
CONTINUOUS
10
1.5884762992125985
20
0.2979426771653543
11
1.5937648031496063
21
0.2957520866141732
0
LINE
8
BLACK
6
CONTINUOUS
10
1.5937648031496063
20
0.2957520866141732
11
1.5985242913385826
21
0.2925718897637795
0
LINE
8
BLACK
6
CONTINUOUS
10
1.5985242913385826
20
0.2925718897637795
11
1.6025718897637795
21
0.2885242913385827
0
LINE
8
BLACK
6
CONTINUOUS
10
1.6025718897637795
20
0.2885242913385827
11
1.6057520866141732
21
0.2837648031496063
0
LINE
8
BLACK
6
CONTINUOUS
10
1.6057520866141732
20
0.2837648031496063
11
1.6079426771653542
21
0.2784762992125984
0
LINE
8
BLACK
6
CONTINUOUS
10
1.6079426771653542
20
0.2784762992125984
11
1.6090594094488189
21
0.2728620866141732
0
LINE
8
BLACK
6
CONTINUOUS
10
1.6090594094488189
20
0.2728620866141732
11
1.6090594094488189
21
0.2671379133858268
0
LINE
8
BLACK
6
CONTINUOUS
10
1.6090594094488189
20
0.2671379133858268
11
1.6079426771653542
21
0.2615237007874016
0
LINE
8
BLACK
6
CONTINUOUS
10
1.6079426771653542
20
0.2615237007874016
11
1.6057520866141732
21
0.2562351968503937
0
LINE
8
BLACK
6
CONTINUOUS
10
1.6057520866141732
20
0.2562351968503937
11
1.6025718897637795
21
0.2514757086614173
0
LINE
8
BLACK
6
CONTINUOUS
10
1.6025718897637795
20
0.2514757086614173
11
1.5985242913385826
21
0.2474281102362205
0
LINE
8
BLACK
6
CONTINUOUS
10
1.5985242913385826
20
0.2474281102362205
11
1.5937648031496063
21
0.2442479133858268
0
LINE
8
BLACK
6
CONTINUOUS
10
1.5937648031496063
20
0.2442479133858268
11
1.5884762992125985
21
0.2420573228346457
0
LINE
8
BLACK
6
CONTINUOUS
10
1.5884762992125985
20
0.2420573228346457
11
1.5828620866141732
21
0.2409405905511811
0
LINE
8
BLACK
6
CONTINUOUS
10
1.5828620866141732
20
0.2409405905511811
11
1.5771379133858268
21
0.2409405905511811
0
LINE
8
BLACK
6
CONTINUOUS
10
1.5771379133858268
20
0.2409405905511811
11
1.5715237007874014
21
0.2420573228346457
0
LINE
8
BLACK
6
CONTINUOUS
10
1.5715237007874014
20
0.2420573228346457
11
1.5662351968503936
21
0.2442479133858268
0
LINE
8
BLACK
6
CONTINUOUS
10
1.5662351968503936
20
0.2442479133858268
11
1.5614757086614173
21
0.2474281102362205
0
LINE
8
BLACK
6
CONTINUOUS
10
1.5614757086614173
20
0.2474281102362205
11
1.5574281102362204
21
0.2514757086614173
0
LINE
8
BLACK
6
CONTINUOUS
10
1.5574281102362204
20
0.2514757086614173
11
1.5542479133858267
21
0.2562351968503937
0
LINE
8
BLACK
6
CONTINUOUS
10
1.5542479133858267
20
0.2562351968503937
11
1.5520573228346457
21
0.2615237007874016
0
LINE
8
BLACK
6
CONTINUOUS
10
1.5520573228346457
20
0.2615237007874016
11
1.5509405905511811
21
0.2671379133858268
0
LINE
8
BLACK
6
CONTINUOUS
10
1.5509405905511811
20
0.2671379133858268
11
1.5509405905511811
21
0.2718694488188976
0
LINE
8
BLACK
6
CONTINUOUS
10
1.5509405905511811
20
0.2718694488188976
11
1.5509405905511811
21
0.2728620866141732
0
LINE
8
BLACK
6
CONTINUOUS
10
1.5509405905511811
20
0.2728620866141732
11
1.5520573228346457
21
0.2784762992125984
0
LINE
8
BLACK
6
CONTINUOUS
10
1.5520573228346457
20
0.2784762992125984
11
1.5542479133858267
21
0.2837648031496063
0
LINE
8
BLACK
6
CONTINUOUS
10
1.5542479133858267
20
0.2837648031496063
11
1.5574281102362204
21
0.2885242913385827
0
LINE
8
BLACK
6
CONTINUOUS
10
1.5574281102362204
20
0.2885242913385827
11
1.5614757086614173
21
0.2925718897637795
0
LINE
8
BLACK
6
CONTINUOUS
10
1.5614757086614173
20
0.2925718897637795
11
1.5662351968503936
21
0.2957520866141732
0
LINE
8
BLACK
6
CONTINUOUS
10
1.5662351968503936
20
0.2957520866141732
11
1.5715237007874014
21
0.2979426771653543
0
LINE
8
BLACK
6
CONTINUOUS
10
1.5715237007874014
20
0.2979426771653543
11
1.5771379133858268
21
0.2990594094488189
0
LINE
8
BLACK
6
CONTINUOUS
10
1.5771379133858268
20
0.2990594094488189
11
1.5828620866141732
21
0.2990594094488189
0
LINE
8
BLACK
6
CONTINUOUS
10
1.5828620866141732
20
0.2990594094488189
11
1.5884762992125985
21
0.2979426771653543
0
LINE
8
BLACK
6
CONTINUOUS
10
1.5795999999999999
20
0.2701656692913386
11
1.5795999999999999
21
0.2698343307086614
0
LINE
8
BLACK
6
CONTINUOUS
10
1.5795999999999999
20
0.2698343307086614
11
1.5798343307086613
21
0.2696
0
LINE
8
BLACK
6
CONTINUOUS
10
1.5798343307086613
20
0.2696
11
1.5801656692913386
21
0.2696
0
LINE
8
BLACK
6
CONTINUOUS
10
1.5801656692913386
20
0.2696
11
1.5804
21
0.2698343307086614
0
LINE
8
BLACK
6
CONTINUOUS
10
1.5804
20
0.2698343307086614
11
1.5804
21
0.2701656692913386
0
LINE
8
BLACK
6
CONTINUOUS
10
1.5804
20
0.2701656692913386
11
1.5801656692913386
21
0.2704
0
LINE
8
BLACK
6
CONTINUOUS
10
1.5801656692913386
20
0.2704
11
1.5798343307086613
21
0.2704
0
LINE
8
BLACK
6
CONTINUOUS
10
1.5798343307086613
20
0.2704
11
1.5795999999999999
21
0.2701656692913386
0
LINE
8
BLACK
6
CONTINUOUS
10
0.3559887007874016
20
1.084458031496063
11
0.3595266535433071
21
1.0824153937007874
0
LINE
8
BLACK
6
CONTINUOUS
10
0.3595266535433071
20
1.0824153937007874
11
0.3624153937007874
21
1.079526653543307
0
LINE
8
BLACK
6
CONTINUOUS
10
0.3624153937007874
20
1.079526653543307
11
0.364458031496063
21
1.0759887007874016
0
LINE
8
BLACK
6
CONTINUOUS
10
0.364458031496063
20
1.0759887007874016
11
0.3655153543307086
21
1.0720426377952756
0
LINE
8
BLACK
6
CONTINUOUS
10
0.3655153543307086
20
1.0720426377952756
11
0.3655153543307086
21
1.0679573622047245
0
LINE
8
BLACK
6
CONTINUOUS
10
0.3655153543307086
20
1.0679573622047245
11
0.364458031496063
21
1.0640112992125983
0
LINE
8
BLACK
6
CONTINUOUS
10
0.364458031496063
20
1.0640112992125983
11
0.3624153937007874
21
1.0604733464566929
0
LINE
8
BLACK
6
CONTINUOUS
10
0.3624153937007874
20
1.0604733464566929
11
0.3595266535433071
21
1.0575846062992125
0
LINE
8
BLACK
6
CONTINUOUS
10
0.3595266535433071
20
1.0575846062992125
11
0.3559887007874016
21
1.0555419685039369
0
LINE
8
BLACK
6
CONTINUOUS
10
0.3559887007874016
20
1.0555419685039369
11
0.3520426377952756
21
1.0544846456692913
0
LINE
8
BLACK
6
CONTINUOUS
10
0.3520426377952756
20
1.0544846456692913
11
0.3479573622047244
21
1.0544846456692913
0
LINE
8
BLACK
6
CONTINUOUS
10
0.3479573622047244
20
1.0544846456692913
11
0.3440112992125984
21
1.0555419685039369
0
LINE
8
BLACK
6
CONTINUOUS
10
0.3440112992125984
20
1.0555419685039369
11
0.3404733464566929
21
1.0575846062992125
0
LINE
8
BLACK
6
CONTINUOUS
10
0.3404733464566929
20
1.0575846062992125
11
0.3375846062992126
21
1.0604733464566929
0
LINE
8
BLACK
6
CONTINUOUS
10
0.3375846062992126
20
1.0604733464566929
11
0.335541968503937
21
1.0640112992125983
0
LINE
8
BLACK
6
CONTINUOUS
10
0.335541968503937
20
1.0640112992125983
11
0.3344846456692913
21
1.0679573622047245
0
LINE
8
BLACK
6
CONTINUOUS
10
0.3344846456692913
20
1.0679573622047245
11
0.3344846456692913
21
1.070268937007874
0
LINE
8
BLACK
6
CONTINUOUS
10
0.3344846456692913
20
1.070268937007874
11
0.3344846456692913
21
1.0720426377952756
0
LINE
8
BLACK
6
CONTINUOUS
10
0.3344846456692913
20
1.0720426377952756
11
0.335541968503937
21
1.0759887007874016
0
LINE
8
BLACK
6
CONTINUOUS
10
0.335541968503937
20
1.0759887007874016
11
0.3375846062992126
21
1.079526653543307
0
LINE
8
BLACK
6
CONTINUOUS
10
0.3375846062992126
20
1.079526653543307
11
0.3404733464566929
21
1.0824153937007874
0
LINE
8
BLACK
6
CONTINUOUS
10
0.3404733464566929
20
1.0824153937007874
11
0.3440112992125984
21
1.084458031496063
0
LINE
8
BLACK
6
CONTINUOUS
10
0.3440112992125984
20
1.084458031496063
11
0.3479573622047244
21
1.0855153543307086
0
LINE
8
BLACK
6
CONTINUOUS
10
0.3479573622047244
20
1.0855153543307086
11
0.3520426377952756
21
1.0855153543307086
0
LINE
8
BLACK
6
CONTINUOUS
10
0.3520426377952756
20
1.0855153543307086
11
0.3559887007874016
21
1.084458031496063
0
LINE
8
BLACK
6
CONTINUOUS
10
0.3493507480314961
20
1.0697310629921259
11
0.349731062992126
21
1.0693507480314961
0
LINE
8
BLACK
6
CONTINUOUS
10
0.349731062992126
20
1.0693507480314961
11
0.350268937007874
21
1.0693507480314961
0
LINE
8
BLACK
6
CONTINUOUS
10
0.350268937007874
20
1.0693507480314961
11
0.3506492519685039
21
1.0697310629921259
0
LINE
8
BLACK
6
CONTINUOUS
10
0.3506492519685039
20
1.0697310629921259
11
0.3506492519685039
21
1.070268937007874
0
LINE
8
BLACK
6
CONTINUOUS
10
0.3506492519685039
20
1.070268937007874
11
0.350268937007874
21
1.070649251968504
0
LINE
8
BLACK
6
CONTINUOUS
10
0.350268937007874
20
1.070649251968504
11
0.349731062992126
21
1.070649251968504
0
LINE
8
BLACK
6
CONTINUOUS
10
0.349731062992126
20
1.070649251968504
11
0.3493507480314961
21
1.070268937007874
0
LINE
8
BLACK
6
CONTINUOUS
10
0.3493507480314961
20
1.070268937007874
11
0.3493507480314961
21
1.0697310629921259
0
LINE
8
BLACK
6
CONTINUOUS
10
0.2197842125984252
20
1.5164414566929134
11
0.232697125984252
21
1.5134941732283465
0
LINE
8
BLACK
6
CONTINUOUS
10
0.232697125984252
20
1.5134941732283465
11
0.2451988188976378
21
1.5091196456692912
0
LINE
8
BLACK
6
CONTINUOUS
10
0.2451988188976378
20
1.5091196456692912
11
0.2571321653543307
21
1.5033728346456692
0
LINE
8
BLACK
6
CONTINUOUS
10
0.2571321653543307
20
1.5033728346456692
11
0.2683470078740157
21
1.4963261023622048
0
LINE
8
BLACK
6
CONTINUOUS
10
0.2683470078740157
20
1.4963261023622048
11
0.2787023622047244
21
1.4880679527559055
0
LINE
8
BLACK
6
CONTINUOUS
10
0.2787023622047244
20
1.4880679527559055
11
0.2880679527559055
21
1.4787023622047244
0
LINE
8
BLACK
6
CONTINUOUS
10
0.2880679527559055
20
1.4787023622047244
11
0.2963261023622047
21
1.4683470078740157
0
LINE
8
BLACK
6
CONTINUOUS
10
0.2963261023622047
20
1.4683470078740157
11
0.3033728346456693
21
1.4571321653543308
0
LINE
8
BLACK
6
CONTINUOUS
10
0.3033728346456693
20
1.4571321653543308
11
0.3091196456692913
21
1.4451988188976377
0
LINE
8
BLACK
6
CONTINUOUS
10
0.3091196456692913
20
1.4451988188976377
11
0.3134941732283464
21
1.432697125984252
0
LINE
8
BLACK
6
CONTINUOUS
10
0.3134941732283464
20
1.432697125984252
11
0.3164414566929134
21
1.4197842125984252
0
LINE
8
BLACK
6
CONTINUOUS
10
0.3164414566929134
20
1.4197842125984252
11
0.3179244094488189
21
1.4066224803149605
0
LINE
8
BLACK
6
CONTINUOUS
10
0.3179244094488189
20
1.4066224803149605
11
0.3179244094488189
21
1.3933775196850393
0
LINE
8
BLACK
6
CONTINUOUS
10
0.3179244094488189
20
1.3933775196850393
11
0.3164414566929134
21
1.3802157874015748
0
LINE
8
BLACK
6
CONTINUOUS
10
0.3164414566929134
20
1.3802157874015748
11
0.3134941732283464
21
1.367302874015748
0
LINE
8
BLACK
6
CONTINUOUS
10
0.3134941732283464
20
1.367302874015748
11
0.3091196456692913
21
1.3548011811023621
0
LINE
8
BLACK
6
CONTINUOUS
10
0.3091196456692913
20
1.3548011811023621
11
0.3033728346456693
21
1.3428678346456693
0
LINE
8
BLACK
6
CONTINUOUS
10
0.3033728346456693
20
1.3428678346456693
11
0.2963261023622047
21
1.3316529921259843
0
LINE
8
BLACK
6
CONTINUOUS
10
0.2963261023622047
20
1.3316529921259843
11
0.2880679527559055
21
1.3212976377952756
0
LINE
8
BLACK
6
CONTINUOUS
10
0.2880679527559055
20
1.3212976377952756
11
0.2787023622047244
21
1.3119320472440945
0
LINE
8
BLACK
6
CONTINUOUS
10
0.2787023622047244
20
1.3119320472440945
11
0.2683470078740157
21
1.3036738976377953
0
LINE
8
BLACK
6
CONTINUOUS
10
0.2683470078740157
20
1.3036738976377953
11
0.2571321653543307
21
1.2966271653543306
0
LINE
8
BLACK
6
CONTINUOUS
10
0.2571321653543307
20
1.2966271653543306
11
0.2451988188976378
21
1.2908803543307086
0
LINE
8
BLACK
6
CONTINUOUS
10
0.2451988188976378
20
1.2908803543307086
11
0.232697125984252
21
1.2865058267716536
0
LINE
8
BLACK
6
CONTINUOUS
10
0.232697125984252
20
1.2865058267716536
11
0.2197842125984252
21
1.2835585433070866
0
LINE
8
BLACK
6
CONTINUOUS
10
0.2197842125984252
20
1.2835585433070866
11
0.2066224803149606
21
1.2820755905511811
0
LINE
8
BLACK
6
CONTINUOUS
10
0.2066224803149606
20
1.2820755905511811
11
0.1933775196850394
21
1.2820755905511811
0
LINE
8
BLACK
6
CONTINUOUS
10
0.1933775196850394
20
1.2820755905511811
11
0.1802157874015748
21
1.2835585433070866
0
LINE
8
BLACK
6
CONTINUOUS
10
0.1802157874015748
20
1.2835585433070866
11
0.167302874015748
21
1.2865058267716536
0
LINE
8
BLACK
6
CONTINUOUS
10
0.167302874015748
20
1.2865058267716536
11
0.1548011811023622
21
1.2908803543307086
0
LINE
8
BLACK
6
CONTINUOUS
10
0.1548011811023622
20
1.2908803543307086
11
0.1428678346456693
21
1.2966271653543306
0
LINE
8
BLACK
6
CONTINUOUS
10
0.1428678346456693
20
1.2966271653543306
11
0.1316529921259842
21
1.3036738976377953
0
LINE
8
BLACK
6
CONTINUOUS
10
0.1316529921259842
20
1.3036738976377953
11
0.1212976377952756
21
1.3119320472440945
0
LINE
8
BLACK
6
CONTINUOUS
10
0.1212976377952756
20
1.3119320472440945
11
0.1119320472440945
21
1.3212976377952756
0
LINE
8
BLACK
6
CONTINUOUS
10
0.1119320472440945
20
1.3212976377952756
11
0.1036738976377953
21
1.3316529921259843
0
LINE
8
BLACK
6
CONTINUOUS
10
0.1036738976377953
20
1.3316529921259843
11
0.0966271653543307
21
1.3428678346456693
0
LINE
8
BLACK
6
CONTINUOUS
10
0.0966271653543307
20
1.3428678346456693
11
0.0908803543307087
21
1.3548011811023621
0
LINE
8
BLACK
6
CONTINUOUS
10
0.0908803543307087
20
1.3548011811023621
11
0.0865058267716535
21
1.367302874015748
0
LINE
8
BLACK
6
CONTINUOUS
10
0.0865058267716535
20
1.367302874015748
11
0.0835585433070866
21
1.3802157874015748
0
LINE
8
BLACK
6
CONTINUOUS
10
0.0835585433070866
20
1.3802157874015748
11
0.0820755905511811
21
1.3933775196850393
0
LINE
8
BLACK
6
CONTINUOUS
10
0.0820755905511811
20
1.3933775196850393
11
0.0820755905511811
21
1.4066224803149605
0
LINE
8
BLACK
6
CONTINUOUS
10
0.0820755905511811
20
1.4066224803149605
11
0.0835585433070866
21
1.4197842125984252
0
LINE
8
BLACK
6
CONTINUOUS
10
0.0835585433070866
20
1.4197842125984252
11
0.0865058267716535
21
1.432697125984252
0
LINE
8
BLACK
6
CONTINUOUS
10
0.0865058267716535
20
1.432697125984252
11
0.0908803543307087
21
1.4451988188976377
0
LINE
8
BLACK
6
CONTINUOUS
10
0.0908803543307087
20
1.4451988188976377
11
0.0966271653543307
21
1.4571321653543308
0
LINE
8
BLACK
6
CONTINUOUS
10
0.0966271653543307
20
1.4571321653543308
11
0.1036738976377953
21
1.4683470078740157
0
LINE
8
BLACK
6
CONTINUOUS
10
0.1036738976377953
20
1.4683470078740157
11
0.1119320472440945
21
1.4787023622047244
0
LINE
8
BLACK
6
CONTINUOUS
10
0.1119320472440945
20
1.4787023622047244
11
0.1212976377952756
21
1.4880679527559055
0
LINE
8
BLACK
6
CONTINUOUS
10
0.1212976377952756
20
1.4880679527559055
11
0.1316529921259842
21
1.4963261023622048
0
LINE
8
BLACK
6
CONTINUOUS
10
0.1316529921259842
20
1.4963261023622048
11
0.1428678346456693
21
1.5033728346456692
0
LINE
8
BLACK
6
CONTINUOUS
10
0.1428678346456693
20
1.5033728346456692
11
0.1548011811023622
21
1.5091196456692912
0
LINE
8
BLACK
6
CONTINUOUS
10
0.1548011811023622
20
1.5091196456692912
11
0.167302874015748
21
1.5134941732283465
0
LINE
8
BLACK
6
CONTINUOUS
10
0.167302874015748
20
1.5134941732283465
11
0.1802157874015748
21
1.5164414566929134
0
LINE
8
BLACK
6
CONTINUOUS
10
0.1802157874015748
20
1.5164414566929134
11
0.1933775196850394
21
1.5179244094488189
0
LINE
8
BLACK
6
CONTINUOUS
10
0.1933775196850394
20
1.5179244094488189
11
0.2066224803149606
21
1.5179244094488189
0
LINE
8
BLACK
6
CONTINUOUS
10
0.2066224803149606
20
1.5179244094488189
11
0.2197842125984252
21
1.5164414566929134
0
LINE
8
BLACK
6
CONTINUOUS
10
1.8197842125984252
20
1.5164414566929134
11
1.8326971259842519
21
1.5134941732283465
0
LINE
8
BLACK
6
CONTINUOUS
10
1.8326971259842519
20
1.5134941732283465
11
1.8451988188976378
21
1.5091196456692912
0
LINE
8
BLACK
6
CONTINUOUS
10
1.8451988188976378
20
1.5091196456692912
11
1.8571321653543307
21
1.5033728346456692
0
LINE
8
BLACK
6
CONTINUOUS
10
1.8571321653543307
20
1.5033728346456692
11
1.8683470078740156
21
1.4963261023622048
0
LINE
8
BLACK
6
CONTINUOUS
10
1.8683470078740156
20
1.4963261023622048
11
1.8787023622047243
21
1.4880679527559055
0
LINE
8
BLACK
6
CONTINUOUS
10
1.8787023622047243
20
1.4880679527559055
11
1.8880679527559054
21
1.4787023622047244
0
LINE
8
BLACK
6
CONTINUOUS
10
1.8880679527559054
20
1.4787023622047244
11
1.8963261023622047
21
1.4683470078740157
0
LINE
8
BLACK
6
CONTINUOUS
10
1.8963261023622047
20
1.4683470078740157
11
1.9033728346456693
21
1.4571321653543308
0
LINE
8
BLACK
6
CONTINUOUS
10
1.9033728346456693
20
1.4571321653543308
11
1.9091196456692914
21
1.4451988188976377
0
LINE
8
BLACK
6
CONTINUOUS
10
1.9091196456692914
20
1.4451988188976377
11
1.9134941732283464
21
1.432697125984252
0
LINE
8
BLACK
6
CONTINUOUS
10
1.9134941732283464
20
1.432697125984252
11
1.9164414566929133
21
1.4197842125984252
0
LINE
8
BLACK
6
CONTINUOUS
10
1.9164414566929133
20
1.4197842125984252
11
1.9179244094488188
21
1.4066224803149605
0
LINE
8
BLACK
6
CONTINUOUS
10
1.9179244094488188
20
1.4066224803149605
11
1.9179244094488188
21
1.3933775196850393
0
LINE
8
BLACK
6
CONTINUOUS
10
1.9179244094488188
20
1.3933775196850393
11
1.9164414566929133
21
1.3802157874015748
0
LINE
8
BLACK
6
CONTINUOUS
10
1.9164414566929133
20
1.3802157874015748
11
1.9134941732283464
21
1.367302874015748
0
LINE
8
BLACK
6
CONTINUOUS
10
1.9134941732283464
20
1.367302874015748
11
1.9091196456692914
21
1.3548011811023621
0
LINE
8
BLACK
6
CONTINUOUS
10
1.9091196456692914
20
1.3548011811023621
11
1.9033728346456693
21
1.3428678346456693
0
LINE
8
BLACK
6
CONTINUOUS
10
1.9033728346456693
20
1.3428678346456693
11
1.8963261023622047
21
1.3316529921259843
0
LINE
8
BLACK
6
CONTINUOUS
10
1.8963261023622047
20
1.3316529921259843
11
1.8880679527559054
21
1.3212976377952756
0
LINE
8
BLACK
6
CONTINUOUS
10
1.8880679527559054
20
1.3212976377952756
11
1.8787023622047243
21
1.3119320472440945
0
LINE
8
BLACK
6
CONTINUOUS
10
1.8787023622047243
20
1.3119320472440945
11
1.8683470078740156
21
1.3036738976377953
0
LINE
8
BLACK
6
CONTINUOUS
10
1.8683470078740156
20
1.3036738976377953
11
1.8571321653543307
21
1.2966271653543306
0
LINE
8
BLACK
6
CONTINUOUS
10
1.8571321653543307
20
1.2966271653543306
11
1.8451988188976378
21
1.2908803543307086
0
LINE
8
BLACK
6
CONTINUOUS
10
1.8451988188976378
20
1.2908803543307086
11
1.8326971259842519
21
1.2865058267716536
0
LINE
8
BLACK
6
CONTINUOUS
10
1.8326971259842519
20
1.2865058267716536
11
1.8197842125984252
21
1.2835585433070866
0
LINE
8
BLACK
6
CONTINUOUS
10
1.8197842125984252
20
1.2835585433070866
11
1.8066224803149606
21
1.2820755905511811
0
LINE
8
BLACK
6
CONTINUOUS
10
1.8066224803149606
20
1.2820755905511811
11
1.7933775196850392
21
1.2820755905511811
0
LINE
8
BLACK
6
CONTINUOUS
10
1.7933775196850392
20
1.2820755905511811
11
1.7802157874015747
21
1.2835585433070866
0
LINE
8
BLACK
6
CONTINUOUS
10
1.7802157874015747
20
1.2835585433070866
11
1.7673028740157479
21
1.2865058267716536
0
LINE
8
BLACK
6
CONTINUOUS
10
1.7673028740157479
20
1.2865058267716536
11
1.7548011811023623
21
1.2908803543307086
0
LINE
8
BLACK
6
CONTINUOUS
10
1.7548011811023623
20
1.2908803543307086
11
1.7428678346456692
21
1.2966271653543306
0
LINE
8
BLACK
6
CONTINUOUS
10
1.7428678346456692
20
1.2966271653543306
11
1.7316529921259842
21
1.3036738976377953
0
LINE
8
BLACK
6
CONTINUOUS
10
1.7316529921259842
20
1.3036738976377953
11
1.7212976377952756
21
1.3119320472440945
0
LINE
8
BLACK
6
CONTINUOUS
10
1.7212976377952756
20
1.3119320472440945
11
1.7119320472440944
21
1.3212976377952756
0
LINE
8
BLACK
6
CONTINUOUS
10
1.7119320472440944
20
1.3212976377952756
11
1.7036738976377952
21
1.3316529921259843
0
LINE
8
BLACK
6
CONTINUOUS
10
1.7036738976377952
20
1.3316529921259843
11
1.6966271653543308
21
1.3428678346456693
0
LINE
8
BLACK
6
CONTINUOUS
10
1.6966271653543308
20
1.3428678346456693
11
1.6908803543307087
21
1.3548011811023621
0
LINE
8
BLACK
6
CONTINUOUS
10
1.6908803543307087
20
1.3548011811023621
11
1.6865058267716535
21
1.367302874015748
0
LINE
8
BLACK
6
CONTINUOUS
10
1.6865058267716535
20
1.367302874015748
11
1.6835585433070865
21
1.3802157874015748
0
LINE
8
BLACK
6
CONTINUOUS
10
1.6835585433070865
20
1.3802157874015748
11
1.6820755905511811
21
1.3933775196850393
0
LINE
8
BLACK
6
CONTINUOUS
10
1.6820755905511811
20
1.3933775196850393
11
1.6820755905511811
21
1.4066224803149605
0
LINE
8
BLACK
6
CONTINUOUS
10
1.6820755905511811
20
1.4066224803149605
11
1.6835585433070865
21
1.4197842125984252
0
LINE
8
BLACK
6
CONTINUOUS
10
1.6835585433070865
20
1.4197842125984252
11
1.6865058267716535
21
1.432697125984252
0
LINE
8
BLACK
6
CONTINUOUS
10
1.6865058267716535
20
1.432697125984252
11
1.6908803543307087
21
1.4451988188976377
0
LINE
8
BLACK
6
CONTINUOUS
10
1.6908803543307087
20
1.4451988188976377
11
1.6966271653543308
21
1.4571321653543308
0
LINE
8
BLACK
6
CONTINUOUS
10
1.6966271653543308
20
1.4571321653543308
11
1.7036738976377952
21
1.4683470078740157
0
LINE
8
BLACK
6
CONTINUOUS
10
1.7036738976377952
20
1.4683470078740157
11
1.7119320472440944
21
1.4787023622047244
0
LINE
8
BLACK
6
CONTINUOUS
10
1.7119320472440944
20
1.4787023622047244
11
1.7212976377952756
21
1.4880679527559055
0
LINE
8
BLACK
6
CONTINUOUS
10
1.7212976377952756
20
1.4880679527559055
11
1.7316529921259842
21
1.4963261023622048
0
LINE
8
BLACK
6
CONTINUOUS
10
1.7316529921259842
20
1.4963261023622048
11
1.7428678346456692
21
1.5033728346456692
0
LINE
8
BLACK
6
CONTINUOUS
10
1.7428678346456692
20
1.5033728346456692
11
1.7548011811023623
21
1.5091196456692912
0
LINE
8
BLACK
6
CONTINUOUS
10
1.7548011811023623
20
1.5091196456692912
11
1.7673028740157479
21
1.5134941732283465
0
LINE
8
BLACK
6
CONTINUOUS
10
1.7673028740157479
20
1.5134941732283465
11
1.7802157874015747
21
1.5164414566929134
0
LINE
8
BLACK
6
CONTINUOUS
10
1.7802157874015747
20
1.5164414566929134
11
1.7933775196850392
21
1.5179244094488189
0
LINE
8
BLACK
6
CONTINUOUS
10
1.7933775196850392
20
1.5179244094488189
11
1.8066224803149606
21
1.5179244094488189
0
LINE
8
BLACK
6
CONTINUOUS
10
1.8066224803149606
20
1.5179244094488189
11
1.8197842125984252
21
1.5164414566929134
0
LINE
8
BLACK
6
CONTINUOUS
10
0.9259887007874016
20
1.334458031496063
11
0.9295266535433071
21
1.3324153937007874
0
LINE
8
BLACK
6
CONTINUOUS
10
0.9295266535433071
20
1.3324153937007874
11
0.9324153937007874
21
1.329526653543307
0
LINE
8
BLACK
6
CONTINUOUS
10
0.9324153937007874
20
1.329526653543307
11
0.934458031496063
21
1.3259887007874016
0
LINE
8
BLACK
6
CONTINUOUS
10
0.934458031496063
20
1.3259887007874016
11
0.9355153543307086
21
1.3220426377952756
0
LINE
8
BLACK
6
CONTINUOUS
10
0.9355153543307086
20
1.3220426377952756
11
0.9355153543307086
21
1.3179573622047245
0
LINE
8
BLACK
6
CONTINUOUS
10
0.9355153543307086
20
1.3179573622047245
11
0.934458031496063
21
1.3140112992125983
0
LINE
8
BLACK
6
CONTINUOUS
10
0.934458031496063
20
1.3140112992125983
11
0.9324153937007874
21
1.3104733464566929
0
LINE
8
BLACK
6
CONTINUOUS
10
0.9324153937007874
20
1.3104733464566929
11
0.9295266535433071
21
1.3075846062992125
0
LINE
8
BLACK
6
CONTINUOUS
10
0.9295266535433071
20
1.3075846062992125
11
0.9259887007874016
21
1.3055419685039369
0
LINE
8
BLACK
6
CONTINUOUS
10
0.9259887007874016
20
1.3055419685039369
11
0.9220426377952756
21
1.3044846456692913
0
LINE
8
BLACK
6
CONTINUOUS
10
0.9220426377952756
20
1.3044846456692913
11
0.9179573622047243
21
1.3044846456692913
0
LINE
8
BLACK
6
CONTINUOUS
10
0.9179573622047243
20
1.3044846456692913
11
0.9140112992125984
21
1.3055419685039369
0
LINE
8
BLACK
6
CONTINUOUS
10
0.9140112992125984
20
1.3055419685039369
11
0.9104733464566929
21
1.3075846062992125
0
LINE
8
BLACK
6
CONTINUOUS
10
0.9104733464566929
20
1.3075846062992125
11
0.9075846062992126
21
1.3104733464566929
0
LINE
8
BLACK
6
CONTINUOUS
10
0.9075846062992126
20
1.3104733464566929
11
0.905541968503937
21
1.3140112992125983
0
LINE
8
BLACK
6
CONTINUOUS
10
0.905541968503937
20
1.3140112992125983
11
0.9044846456692913
21
1.3179573622047245
0
LINE
8
BLACK
6
CONTINUOUS
10
0.9044846456692913
20
1.3179573622047245
11
0.9044846456692913
21
1.320268937007874
0
LINE
8
BLACK
6
CONTINUOUS
10
0.9044846456692913
20
1.320268937007874
11
0.9044846456692913
21
1.3220426377952756
0
LINE
8
BLACK
6
CONTINUOUS
10
0.9044846456692913
20
1.3220426377952756
11
0.905541968503937
21
1.3259887007874016
0
LINE
8
BLACK
6
CONTINUOUS
10
0.905541968503937
20
1.3259887007874016
11
0.9075846062992126
21
1.329526653543307
0
LINE
8
BLACK
6
CONTINUOUS
10
0.9075846062992126
20
1.329526653543307
11
0.9104733464566929
21
1.3324153937007874
0
LINE
8
BLACK
6
CONTINUOUS
10
0.9104733464566929
20
1.3324153937007874
11
0.9140112992125984
21
1.334458031496063
0
LINE
8
BLACK
6
CONTINUOUS
10
0.9140112992125984
20
1.334458031496063
11
0.9179573622047243
21
1.3355153543307086
0
LINE
8
BLACK
6
CONTINUOUS
10
0.9179573622047243
20
1.3355153543307086
11
0.9220426377952756
21
1.3355153543307086
0
LINE
8
BLACK
6
CONTINUOUS
10
0.9220426377952756
20
1.3355153543307086
11
0.9259887007874016
21
1.334458031496063
0
LINE
8
BLACK
6
CONTINUOUS
10
0.9193507480314961
20
1.3197310629921259
11
0.9197310629921259
21
1.3193507480314961
0
LINE
8
BLACK
6
CONTINUOUS
10
0.9197310629921259
20
1.3193507480314961
11
0.920268937007874
21
1.3193507480314961
0
LINE
8
BLACK
6
CONTINUOUS
10
0.920268937007874
20
1.3193507480314961
11
0.9206492519685039
21
1.3197310629921259
0
LINE
8
BLACK
6
CONTINUOUS
10
0.9206492519685039
20
1.3197310629921259
11
0.9206492519685039
21
1.320268937007874
0
LINE
8
BLACK
6
CONTINUOUS
10
0.9206492519685039
20
1.320268937007874
11
0.920268937007874
21
1.3206492519685038
0
LINE
8
BLACK
6
CONTINUOUS
10
0.920268937007874
20
1.3206492519685038
11
0.9197310629921259
21
1.3206492519685038
0
LINE
8
BLACK
6
CONTINUOUS
10
0.9197310629921259
20
1.3206492519685038
11
0.9193507480314961
21
1.320268937007874
0
LINE
8
BLACK
6
CONTINUOUS
10
0.9193507480314961
20
1.320268937007874
11
0.9193507480314961
21
1.3197310629921259
  0
ENDSEC
  0
EOF
