  0
SECTION
  2
HEADER
  9
$ANGBASE
  50
0.0
  9
$ANGDIR
  70
1
  9
$MEASUREMENT
  70
0
  0
ENDSEC
  0
SECTION
  2
TABLES
  0
TABLE
  2
LTYPE
  70
4
  0
LTYPE
  5
40F
  2
CONTINUOUS
  70
0
  3
Solid line
  72
65
  73
0
  40
0.0
  0
LTYPE
  5
410
  2
DASHDOT
 70
0
  3
Dash Dot ____ _ ____ _
 72
65
 73
4
 40
2.0
 49
1.25
 49
-0.25
 49
0.25
 49
-0.25
  0
LTYPE
  5
411
  2
DASHED
 70
0
  3
Dashed __ __ __ __ __
 72
65
 73
2
 40
0.75
 49
0.5
 49
-0.25
  0
LTYPE
  5
43B
  2
DOTTED
 70
0
  3
Dotted .  .  .  .
 72
65
 73
2
 40
0.2
 49
0.0
 49
-0.2
  0
ENDTAB
  0
TABLE
  2
STYLE
  70
4
  0
STYLE
  2
KICAD
  70
0
  40
0
  41
1
  42
1
  50
0
  71
0
  3
isocp.shx
  0
STYLE
  2
KICADB
  70
0
  40
0
  41
1
  42
1
  50
0
  71
0
  3
isocp.shx
  0
STYLE
  2
KICADI
  70
0
  40
0
  41
1
  42
1
  50
15
  71
0
  3
isocp.shx
  0
STYLE
  2
KICADBI
  70
0
  40
0
  41
1
  42
1
  50
15
  71
0
  3
isocp.shx
  0
ENDTAB
  0
TABLE
  2
LAYER
  70
1
  0
LAYER
  2
BLACK
  70
0
  62
7
  6
CONTINUOUS
  0
ENDTAB
  0
ENDSEC
  0
SECTION
  2
ENTITIES
0
LINE
8
BLACK
6
CONTINUOUS
10
0.7474
20
0.0608
11
0.6706
21
0.0608
0
LINE
8
BLACK
6
CONTINUOUS
10
0.6706
20
0.0608
11
0.6706
21
0.1592
0
LINE
8
BLACK
6
CONTINUOUS
10
0.6706
20
0.1592
11
0.7474
21
0.1592
0
LINE
8
BLACK
6
CONTINUOUS
10
0.7474
20
0.1592
11
0.7474
21
0.0608
0
LINE
8
BLACK
6
CONTINUOUS
10
0.8694
20
0.0608
11
0.7926
21
0.0608
0
LINE
8
BLACK
6
CONTINUOUS
10
0.7926
20
0.0608
11
0.7926
21
0.1592
0
LINE
8
BLACK
6
CONTINUOUS
10
0.7926
20
0.1592
11
0.8694
21
0.1592
0
LINE
8
BLACK
6
CONTINUOUS
10
0.8694
20
0.1592
11
0.8694
21
0.0608
0
LINE
8
BLACK
6
CONTINUOUS
10
0.97
20
0.0725
11
0.9349999999999999
21
0.0725
0
LINE
8
BLACK
6
CONTINUOUS
10
0.9349999999999999
20
0.0725
11
0.9349999999999999
21
0.1275
0
LINE
8
BLACK
6
CONTINUOUS
10
0.9349999999999999
20
0.1275
11
0.97
21
0.1275
0
LINE
8
BLACK
6
CONTINUOUS
10
0.97
20
0.1275
11
0.97
21
0.0725
0
LINE
8
BLACK
6
CONTINUOUS
10
1.0449999999999999
20
0.0725
11
1.01
21
0.0725
0
LINE
8
BLACK
6
CONTINUOUS
10
1.01
20
0.0725
11
1.01
21
0.1275
0
LINE
8
BLACK
6
CONTINUOUS
10
1.01
20
0.1275
11
1.0449999999999999
21
0.1275
0
LINE
8
BLACK
6
CONTINUOUS
10
1.0449999999999999
20
0.1275
11
1.0449999999999999
21
0.0725
0
LINE
8
BLACK
6
CONTINUOUS
10
1.1299999999999999
20
0.0725
11
1.095
21
0.0725
0
LINE
8
BLACK
6
CONTINUOUS
10
1.095
20
0.0725
11
1.095
21
0.1275
0
LINE
8
BLACK
6
CONTINUOUS
10
1.095
20
0.1275
11
1.1299999999999999
21
0.1275
0
LINE
8
BLACK
6
CONTINUOUS
10
1.1299999999999999
20
0.1275
11
1.1299999999999999
21
0.0725
0
LINE
8
BLACK
6
CONTINUOUS
10
1.2050000000000001
20
0.0725
11
1.1699999999999999
21
0.0725
0
LINE
8
BLACK
6
CONTINUOUS
10
1.1699999999999999
20
0.0725
11
1.1699999999999999
21
0.1275
0
LINE
8
BLACK
6
CONTINUOUS
10
1.1699999999999999
20
0.1275
11
1.2050000000000001
21
0.1275
0
LINE
8
BLACK
6
CONTINUOUS
10
1.2050000000000001
20
0.1275
11
1.2050000000000001
21
0.0725
0
LINE
8
BLACK
6
CONTINUOUS
10
1.3599999999999999
20
0.0725
11
1.325
21
0.0725
0
LINE
8
BLACK
6
CONTINUOUS
10
1.325
20
0.0725
11
1.325
21
0.1275
0
LINE
8
BLACK
6
CONTINUOUS
10
1.325
20
0.1275
11
1.3599999999999999
21
0.1275
0
LINE
8
BLACK
6
CONTINUOUS
10
1.3599999999999999
20
0.1275
11
1.3599999999999999
21
0.0725
0
LINE
8
BLACK
6
CONTINUOUS
10
1.4350000000000001
20
0.0725
11
1.3999999999999999
21
0.0725
0
LINE
8
BLACK
6
CONTINUOUS
10
1.3999999999999999
20
0.0725
11
1.3999999999999999
21
0.1275
0
LINE
8
BLACK
6
CONTINUOUS
10
1.3999999999999999
20
0.1275
11
1.4350000000000001
21
0.1275
0
LINE
8
BLACK
6
CONTINUOUS
10
1.4350000000000001
20
0.1275
11
1.4350000000000001
21
0.0725
0
LINE
8
BLACK
6
CONTINUOUS
10
1.52
20
0.0725
11
1.4849999999999999
21
0.0725
0
LINE
8
BLACK
6
CONTINUOUS
10
1.4849999999999999
20
0.0725
11
1.4849999999999999
21
0.1275
0
LINE
8
BLACK
6
CONTINUOUS
10
1.4849999999999999
20
0.1275
11
1.52
21
0.1275
0
LINE
8
BLACK
6
CONTINUOUS
10
1.52
20
0.1275
11
1.52
21
0.0725
0
LINE
8
BLACK
6
CONTINUOUS
10
1.595
20
0.0725
11
1.5600000000000001
21
0.0725
0
LINE
8
BLACK
6
CONTINUOUS
10
1.5600000000000001
20
0.0725
11
1.5600000000000001
21
0.1275
0
LINE
8
BLACK
6
CONTINUOUS
10
1.5600000000000001
20
0.1275
11
1.595
21
0.1275
0
LINE
8
BLACK
6
CONTINUOUS
10
1.595
20
0.1275
11
1.595
21
0.0725
0
LINE
8
BLACK
6
CONTINUOUS
10
1.6134500000000001
20
0.1755
11
1.5465499999999999
21
0.1755
0
LINE
8
BLACK
6
CONTINUOUS
10
1.5465499999999999
20
0.1755
11
1.5465499999999999
21
0.2267
0
LINE
8
BLACK
6
CONTINUOUS
10
1.5465499999999999
20
0.2267
11
1.6134500000000001
21
0.2267
0
LINE
8
BLACK
6
CONTINUOUS
10
1.6134500000000001
20
0.2267
11
1.6134500000000001
21
0.1755
0
LINE
8
BLACK
6
CONTINUOUS
10
0.72075
20
0.177
11
0.68925
21
0.177
0
LINE
8
BLACK
6
CONTINUOUS
10
0.68925
20
0.177
11
0.68925
21
0.2164
0
LINE
8
BLACK
6
CONTINUOUS
10
0.68925
20
0.2164
11
0.72075
21
0.2164
0
LINE
8
BLACK
6
CONTINUOUS
10
0.72075
20
0.2164
11
0.72075
21
0.177
0
LINE
8
BLACK
6
CONTINUOUS
10
0.8375
20
0.195
11
0.7825
21
0.195
0
LINE
8
BLACK
6
CONTINUOUS
10
0.7825
20
0.195
11
0.7825
21
0.23
0
LINE
8
BLACK
6
CONTINUOUS
10
0.7825
20
0.23
11
0.8375
21
0.23
0
LINE
8
BLACK
6
CONTINUOUS
10
0.8375
20
0.23
11
0.8375
21
0.195
0
LINE
8
BLACK
6
CONTINUOUS
10
0.9225
20
0.195
11
0.8674999999999999
21
0.195
0
LINE
8
BLACK
6
CONTINUOUS
10
0.8674999999999999
20
0.195
11
0.8674999999999999
21
0.23
0
LINE
8
BLACK
6
CONTINUOUS
10
0.8674999999999999
20
0.23
11
0.9225
21
0.23
0
LINE
8
BLACK
6
CONTINUOUS
10
0.9225
20
0.23
11
0.9225
21
0.195
0
LINE
8
BLACK
6
CONTINUOUS
10
1.4224999999999999
20
0.205
11
1.3674999999999999
21
0.205
0
LINE
8
BLACK
6
CONTINUOUS
10
1.3674999999999999
20
0.205
11
1.3674999999999999
21
0.24
0
LINE
8
BLACK
6
CONTINUOUS
10
1.3674999999999999
20
0.24
11
1.4224999999999999
21
0.24
0
LINE
8
BLACK
6
CONTINUOUS
10
1.4224999999999999
20
0.24
11
1.4224999999999999
21
0.205
0
LINE
8
BLACK
6
CONTINUOUS
10
1.5125
20
0.25
11
1.4575
21
0.25
0
LINE
8
BLACK
6
CONTINUOUS
10
1.4575
20
0.25
11
1.4575
21
0.285
0
LINE
8
BLACK
6
CONTINUOUS
10
1.4575
20
0.285
11
1.5125
21
0.285
0
LINE
8
BLACK
6
CONTINUOUS
10
1.5125
20
0.285
11
1.5125
21
0.25
0
LINE
8
BLACK
6
CONTINUOUS
10
0.68325
20
0.2636
11
0.6517499999999999
21
0.2636
0
LINE
8
BLACK
6
CONTINUOUS
10
0.6517499999999999
20
0.2636
11
0.6517499999999999
21
0.303
0
LINE
8
BLACK
6
CONTINUOUS
10
0.6517499999999999
20
0.303
11
0.68325
21
0.303
0
LINE
8
BLACK
6
CONTINUOUS
10
0.68325
20
0.303
11
0.68325
21
0.2636
0
LINE
8
BLACK
6
CONTINUOUS
10
0.75825
20
0.2636
11
0.72675
21
0.2636
0
LINE
8
BLACK
6
CONTINUOUS
10
0.72675
20
0.2636
11
0.72675
21
0.303
0
LINE
8
BLACK
6
CONTINUOUS
10
0.72675
20
0.303
11
0.75825
21
0.303
0
LINE
8
BLACK
6
CONTINUOUS
10
0.75825
20
0.303
11
0.75825
21
0.2636
0
LINE
8
BLACK
6
CONTINUOUS
10
0.8375
20
0.27
11
0.7825
21
0.27
0
LINE
8
BLACK
6
CONTINUOUS
10
0.7825
20
0.27
11
0.7825
21
0.305
0
LINE
8
BLACK
6
CONTINUOUS
10
0.7825
20
0.305
11
0.8375
21
0.305
0
LINE
8
BLACK
6
CONTINUOUS
10
0.8375
20
0.305
11
0.8375
21
0.27
0
LINE
8
BLACK
6
CONTINUOUS
10
0.9225
20
0.27
11
0.8674999999999999
21
0.27
0
LINE
8
BLACK
6
CONTINUOUS
10
0.8674999999999999
20
0.27
11
0.8674999999999999
21
0.305
0
LINE
8
BLACK
6
CONTINUOUS
10
0.8674999999999999
20
0.305
11
0.9225
21
0.305
0
LINE
8
BLACK
6
CONTINUOUS
10
0.9225
20
0.305
11
0.9225
21
0.27
0
LINE
8
BLACK
6
CONTINUOUS
10
1.4224999999999999
20
0.28
11
1.3674999999999999
21
0.28
0
LINE
8
BLACK
6
CONTINUOUS
10
1.3674999999999999
20
0.28
11
1.3674999999999999
21
0.315
0
LINE
8
BLACK
6
CONTINUOUS
10
1.3674999999999999
20
0.315
11
1.4224999999999999
21
0.315
0
LINE
8
BLACK
6
CONTINUOUS
10
1.4224999999999999
20
0.315
11
1.4224999999999999
21
0.28
0
LINE
8
BLACK
6
CONTINUOUS
10
1.6134500000000001
20
0.3133
11
1.5465499999999999
21
0.3133
0
LINE
8
BLACK
6
CONTINUOUS
10
1.5465499999999999
20
0.3133
11
1.5465499999999999
21
0.3645
0
LINE
8
BLACK
6
CONTINUOUS
10
1.5465499999999999
20
0.3645
11
1.6134500000000001
21
0.3645
0
LINE
8
BLACK
6
CONTINUOUS
10
1.6134500000000001
20
0.3645
11
1.6134500000000001
21
0.3133
0
LINE
8
BLACK
6
CONTINUOUS
10
1.5125
20
0.325
11
1.4575
21
0.325
0
LINE
8
BLACK
6
CONTINUOUS
10
1.4575
20
0.325
11
1.4575
21
0.36
0
LINE
8
BLACK
6
CONTINUOUS
10
1.4575
20
0.36
11
1.5125
21
0.36
0
LINE
8
BLACK
6
CONTINUOUS
10
1.5125
20
0.36
11
1.5125
21
0.325
0
LINE
8
BLACK
6
CONTINUOUS
10
0.6
20
0.3325
11
0.5649999999999999
21
0.3325
0
LINE
8
BLACK
6
CONTINUOUS
10
0.5649999999999999
20
0.3325
11
0.5649999999999999
21
0.3875
0
LINE
8
BLACK
6
CONTINUOUS
10
0.5649999999999999
20
0.3875
11
0.6
21
0.3875
0
LINE
8
BLACK
6
CONTINUOUS
10
0.6
20
0.3875
11
0.6
21
0.3325
0
LINE
8
BLACK
6
CONTINUOUS
10
0.6749999999999999
20
0.3325
11
0.64
21
0.3325
0
LINE
8
BLACK
6
CONTINUOUS
10
0.64
20
0.3325
11
0.64
21
0.3875
0
LINE
8
BLACK
6
CONTINUOUS
10
0.64
20
0.3875
11
0.6749999999999999
21
0.3875
0
LINE
8
BLACK
6
CONTINUOUS
10
0.6749999999999999
20
0.3875
11
0.6749999999999999
21
0.3325
0
LINE
8
BLACK
6
CONTINUOUS
10
0.75
20
0.3325
11
0.715
21
0.3325
0
LINE
8
BLACK
6
CONTINUOUS
10
0.715
20
0.3325
11
0.715
21
0.3875
0
LINE
8
BLACK
6
CONTINUOUS
10
0.715
20
0.3875
11
0.75
21
0.3875
0
LINE
8
BLACK
6
CONTINUOUS
10
0.75
20
0.3875
11
0.75
21
0.3325
0
LINE
8
BLACK
6
CONTINUOUS
10
0.825
20
0.3325
11
0.79
21
0.3325
0
LINE
8
BLACK
6
CONTINUOUS
10
0.79
20
0.3325
11
0.79
21
0.3875
0
LINE
8
BLACK
6
CONTINUOUS
10
0.79
20
0.3875
11
0.825
21
0.3875
0
LINE
8
BLACK
6
CONTINUOUS
10
0.825
20
0.3875
11
0.825
21
0.3325
0
LINE
8
BLACK
6
CONTINUOUS
10
1.3125
20
0.375
11
1.2575000000000001
21
0.375
0
LINE
8
BLACK
6
CONTINUOUS
10
1.2575000000000001
20
0.375
11
1.2575000000000001
21
0.41
0
LINE
8
BLACK
6
CONTINUOUS
10
1.2575000000000001
20
0.41
11
1.3125
21
0.41
0
LINE
8
BLACK
6
CONTINUOUS
10
1.3125
20
0.41
11
1.3125
21
0.375
0
LINE
8
BLACK
6
CONTINUOUS
10
1.4299999999999999
20
0.4125
11
1.395
21
0.4125
0
LINE
8
BLACK
6
CONTINUOUS
10
1.395
20
0.4125
11
1.395
21
0.4675
0
LINE
8
BLACK
6
CONTINUOUS
10
1.395
20
0.4675
11
1.4299999999999999
21
0.4675
0
LINE
8
BLACK
6
CONTINUOUS
10
1.4299999999999999
20
0.4675
11
1.4299999999999999
21
0.4125
0
LINE
8
BLACK
6
CONTINUOUS
10
1.5049999999999999
20
0.4125
11
1.47
21
0.4125
0
LINE
8
BLACK
6
CONTINUOUS
10
1.47
20
0.4125
11
1.47
21
0.4675
0
LINE
8
BLACK
6
CONTINUOUS
10
1.47
20
0.4675
11
1.5049999999999999
21
0.4675
0
LINE
8
BLACK
6
CONTINUOUS
10
1.5049999999999999
20
0.4675
11
1.5049999999999999
21
0.4125
0
LINE
8
BLACK
6
CONTINUOUS
10
1.5899999999999999
20
0.4125
11
1.5549999999999999
21
0.4125
0
LINE
8
BLACK
6
CONTINUOUS
10
1.5549999999999999
20
0.4125
11
1.5549999999999999
21
0.4675
0
LINE
8
BLACK
6
CONTINUOUS
10
1.5549999999999999
20
0.4675
11
1.5899999999999999
21
0.4675
0
LINE
8
BLACK
6
CONTINUOUS
10
1.5899999999999999
20
0.4675
11
1.5899999999999999
21
0.4125
0
LINE
8
BLACK
6
CONTINUOUS
10
1.665
20
0.4125
11
1.6299999999999999
21
0.4125
0
LINE
8
BLACK
6
CONTINUOUS
10
1.6299999999999999
20
0.4125
11
1.6299999999999999
21
0.4675
0
LINE
8
BLACK
6
CONTINUOUS
10
1.6299999999999999
20
0.4675
11
1.665
21
0.4675
0
LINE
8
BLACK
6
CONTINUOUS
10
1.665
20
0.4675
11
1.665
21
0.4125
0
LINE
8
BLACK
6
CONTINUOUS
10
0.7303499999999999
20
0.42875
11
0.71465
21
0.42875
0
LINE
8
BLACK
6
CONTINUOUS
10
0.71465
20
0.42875
11
0.71465
21
0.48385
0
LINE
8
BLACK
6
CONTINUOUS
10
0.71465
20
0.48385
11
0.7303499999999999
21
0.48385
0
LINE
8
BLACK
6
CONTINUOUS
10
0.7303499999999999
20
0.48385
11
0.7303499999999999
21
0.42875
0
LINE
8
BLACK
6
CONTINUOUS
10
0.75595
20
0.42875
11
0.74025
21
0.42875
0
LINE
8
BLACK
6
CONTINUOUS
10
0.74025
20
0.42875
11
0.74025
21
0.48385
0
LINE
8
BLACK
6
CONTINUOUS
10
0.74025
20
0.48385
11
0.75595
21
0.48385
0
LINE
8
BLACK
6
CONTINUOUS
10
0.75595
20
0.48385
11
0.75595
21
0.42875
0
LINE
8
BLACK
6
CONTINUOUS
10
0.78155
20
0.42875
11
0.76585
21
0.42875
0
LINE
8
BLACK
6
CONTINUOUS
10
0.76585
20
0.42875
11
0.76585
21
0.48385
0
LINE
8
BLACK
6
CONTINUOUS
10
0.76585
20
0.48385
11
0.78155
21
0.48385
0
LINE
8
BLACK
6
CONTINUOUS
10
0.78155
20
0.48385
11
0.78155
21
0.42875
0
LINE
8
BLACK
6
CONTINUOUS
10
0.80715
20
0.42875
11
0.79145
21
0.42875
0
LINE
8
BLACK
6
CONTINUOUS
10
0.79145
20
0.42875
11
0.79145
21
0.48385
0
LINE
8
BLACK
6
CONTINUOUS
10
0.79145
20
0.48385
11
0.80715
21
0.48385
0
LINE
8
BLACK
6
CONTINUOUS
10
0.80715
20
0.48385
11
0.80715
21
0.42875
0
LINE
8
BLACK
6
CONTINUOUS
10
0.83275
20
0.42875
11
0.8170499999999999
21
0.42875
0
LINE
8
BLACK
6
CONTINUOUS
10
0.8170499999999999
20
0.42875
11
0.8170499999999999
21
0.48385
0
LINE
8
BLACK
6
CONTINUOUS
10
0.8170499999999999
20
0.48385
11
0.83275
21
0.48385
0
LINE
8
BLACK
6
CONTINUOUS
10
0.83275
20
0.48385
11
0.83275
21
0.42875
0
LINE
8
BLACK
6
CONTINUOUS
10
0.8583499999999999
20
0.42875
11
0.84265
21
0.42875
0
LINE
8
BLACK
6
CONTINUOUS
10
0.84265
20
0.42875
11
0.84265
21
0.48385
0
LINE
8
BLACK
6
CONTINUOUS
10
0.84265
20
0.48385
11
0.8583499999999999
21
0.48385
0
LINE
8
BLACK
6
CONTINUOUS
10
0.8583499999999999
20
0.48385
11
0.8583499999999999
21
0.42875
0
LINE
8
BLACK
6
CONTINUOUS
10
0.88395
20
0.42875
11
0.86825
21
0.42875
0
LINE
8
BLACK
6
CONTINUOUS
10
0.86825
20
0.42875
11
0.86825
21
0.48385
0
LINE
8
BLACK
6
CONTINUOUS
10
0.86825
20
0.48385
11
0.88395
21
0.48385
0
LINE
8
BLACK
6
CONTINUOUS
10
0.88395
20
0.48385
11
0.88395
21
0.42875
0
LINE
8
BLACK
6
CONTINUOUS
10
0.90955
20
0.42875
11
0.89385
21
0.42875
0
LINE
8
BLACK
6
CONTINUOUS
10
0.89385
20
0.42875
11
0.89385
21
0.48385
0
LINE
8
BLACK
6
CONTINUOUS
10
0.89385
20
0.48385
11
0.90955
21
0.48385
0
LINE
8
BLACK
6
CONTINUOUS
10
0.90955
20
0.48385
11
0.90955
21
0.42875
0
LINE
8
BLACK
6
CONTINUOUS
10
0.9351499999999999
20
0.42875
11
0.91945
21
0.42875
0
LINE
8
BLACK
6
CONTINUOUS
10
0.91945
20
0.42875
11
0.91945
21
0.48385
0
LINE
8
BLACK
6
CONTINUOUS
10
0.91945
20
0.48385
11
0.9351499999999999
21
0.48385
0
LINE
8
BLACK
6
CONTINUOUS
10
0.9351499999999999
20
0.48385
11
0.9351499999999999
21
0.42875
0
LINE
8
BLACK
6
CONTINUOUS
10
0.96055
20
0.42875
11
0.94485
21
0.42875
0
LINE
8
BLACK
6
CONTINUOUS
10
0.94485
20
0.42875
11
0.94485
21
0.48385
0
LINE
8
BLACK
6
CONTINUOUS
10
0.94485
20
0.48385
11
0.96055
21
0.48385
0
LINE
8
BLACK
6
CONTINUOUS
10
0.96055
20
0.48385
11
0.96055
21
0.42875
0
LINE
8
BLACK
6
CONTINUOUS
10
0.98615
20
0.42875
11
0.9704499999999999
21
0.42875
0
LINE
8
BLACK
6
CONTINUOUS
10
0.9704499999999999
20
0.42875
11
0.9704499999999999
21
0.48385
0
LINE
8
BLACK
6
CONTINUOUS
10
0.9704499999999999
20
0.48385
11
0.98615
21
0.48385
0
LINE
8
BLACK
6
CONTINUOUS
10
0.98615
20
0.48385
11
0.98615
21
0.42875
0
LINE
8
BLACK
6
CONTINUOUS
10
1.0117499999999999
20
0.42875
11
0.99605
21
0.42875
0
LINE
8
BLACK
6
CONTINUOUS
10
0.99605
20
0.42875
11
0.99605
21
0.48385
0
LINE
8
BLACK
6
CONTINUOUS
10
0.99605
20
0.48385
11
1.0117499999999999
21
0.48385
0
LINE
8
BLACK
6
CONTINUOUS
10
1.0117499999999999
20
0.48385
11
1.0117499999999999
21
0.42875
0
LINE
8
BLACK
6
CONTINUOUS
10
1.03735
20
0.42875
11
1.0216499999999999
21
0.42875
0
LINE
8
BLACK
6
CONTINUOUS
10
1.0216499999999999
20
0.42875
11
1.0216499999999999
21
0.48385
0
LINE
8
BLACK
6
CONTINUOUS
10
1.0216499999999999
20
0.48385
11
1.03735
21
0.48385
0
LINE
8
BLACK
6
CONTINUOUS
10
1.03735
20
0.48385
11
1.03735
21
0.42875
0
LINE
8
BLACK
6
CONTINUOUS
10
1.0629500000000001
20
0.42875
11
1.04725
21
0.42875
0
LINE
8
BLACK
6
CONTINUOUS
10
1.04725
20
0.42875
11
1.04725
21
0.48385
0
LINE
8
BLACK
6
CONTINUOUS
10
1.04725
20
0.48385
11
1.0629500000000001
21
0.48385
0
LINE
8
BLACK
6
CONTINUOUS
10
1.0629500000000001
20
0.48385
11
1.0629500000000001
21
0.42875
0
LINE
8
BLACK
6
CONTINUOUS
10
1.0885499999999999
20
0.42875
11
1.0728500000000001
21
0.42875
0
LINE
8
BLACK
6
CONTINUOUS
10
1.0728500000000001
20
0.42875
11
1.0728500000000001
21
0.48385
0
LINE
8
BLACK
6
CONTINUOUS
10
1.0728500000000001
20
0.48385
11
1.0885499999999999
21
0.48385
0
LINE
8
BLACK
6
CONTINUOUS
10
1.0885499999999999
20
0.48385
11
1.0885499999999999
21
0.42875
0
LINE
8
BLACK
6
CONTINUOUS
10
1.11415
20
0.42875
11
1.0984499999999999
21
0.42875
0
LINE
8
BLACK
6
CONTINUOUS
10
1.0984499999999999
20
0.42875
11
1.0984499999999999
21
0.48385
0
LINE
8
BLACK
6
CONTINUOUS
10
1.0984499999999999
20
0.48385
11
1.11415
21
0.48385
0
LINE
8
BLACK
6
CONTINUOUS
10
1.11415
20
0.48385
11
1.11415
21
0.42875
0
LINE
8
BLACK
6
CONTINUOUS
10
1.13975
20
0.42875
11
1.12405
21
0.42875
0
LINE
8
BLACK
6
CONTINUOUS
10
1.12405
20
0.42875
11
1.12405
21
0.48385
0
LINE
8
BLACK
6
CONTINUOUS
10
1.12405
20
0.48385
11
1.13975
21
0.48385
0
LINE
8
BLACK
6
CONTINUOUS
10
1.13975
20
0.48385
11
1.13975
21
0.42875
0
LINE
8
BLACK
6
CONTINUOUS
10
1.1653499999999999
20
0.42875
11
1.1496500000000001
21
0.42875
0
LINE
8
BLACK
6
CONTINUOUS
10
1.1496500000000001
20
0.42875
11
1.1496500000000001
21
0.48385
0
LINE
8
BLACK
6
CONTINUOUS
10
1.1496500000000001
20
0.48385
11
1.1653499999999999
21
0.48385
0
LINE
8
BLACK
6
CONTINUOUS
10
1.1653499999999999
20
0.48385
11
1.1653499999999999
21
0.42875
0
LINE
8
BLACK
6
CONTINUOUS
10
1.3125
20
0.45
11
1.2575000000000001
21
0.45
0
LINE
8
BLACK
6
CONTINUOUS
10
1.2575000000000001
20
0.45
11
1.2575000000000001
21
0.485
0
LINE
8
BLACK
6
CONTINUOUS
10
1.2575000000000001
20
0.485
11
1.3125
21
0.485
0
LINE
8
BLACK
6
CONTINUOUS
10
1.3125
20
0.485
11
1.3125
21
0.45
0
LINE
8
BLACK
6
CONTINUOUS
10
1.1329
20
0.77705
11
1.2548999999999999
21
0.77705
0
LINE
8
BLACK
6
CONTINUOUS
10
1.2548999999999999
20
0.77705
11
1.2548999999999999
21
0.66295
0
LINE
8
BLACK
6
CONTINUOUS
10
1.2548999999999999
20
0.66295
11
1.1329
21
0.66295
0
LINE
8
BLACK
6
CONTINUOUS
10
1.1329
20
0.66295
11
1.1329
21
0.598
0
LINE
8
BLACK
6
CONTINUOUS
10
1.1329
20
0.598
11
0.7471
21
0.598
0
LINE
8
BLACK
6
CONTINUOUS
10
0.7471
20
0.598
11
0.7471
21
0.66295
0
LINE
8
BLACK
6
CONTINUOUS
10
0.7471
20
0.66295
11
0.6251
21
0.66295
0
LINE
8
BLACK
6
CONTINUOUS
10
0.6251
20
0.66295
11
0.6251
21
0.77705
0
LINE
8
BLACK
6
CONTINUOUS
10
0.6251
20
0.77705
11
0.7471
21
0.77705
0
LINE
8
BLACK
6
CONTINUOUS
10
0.7471
20
0.77705
11
0.7471
21
0.842
0
LINE
8
BLACK
6
CONTINUOUS
10
0.7471
20
0.842
11
1.1329
21
0.842
0
LINE
8
BLACK
6
CONTINUOUS
10
1.1329
20
0.842
11
1.1329
21
0.77705
0
LINE
8
BLACK
6
CONTINUOUS
10
1.5674999999999999
20
0.9349999999999999
11
1.5125
21
0.9349999999999999
0
LINE
8
BLACK
6
CONTINUOUS
10
1.5125
20
0.9349999999999999
11
1.5125
21
0.97
0
LINE
8
BLACK
6
CONTINUOUS
10
1.5125
20
0.97
11
1.5674999999999999
21
0.97
0
LINE
8
BLACK
6
CONTINUOUS
10
1.5674999999999999
20
0.97
11
1.5674999999999999
21
0.9349999999999999
0
LINE
8
BLACK
6
CONTINUOUS
10
0.38545
20
0.9420999999999999
11
0.31455
21
0.9420999999999999
0
LINE
8
BLACK
6
CONTINUOUS
10
0.31455
20
0.9420999999999999
11
0.31455
21
1.0405
0
LINE
8
BLACK
6
CONTINUOUS
10
0.31455
20
1.0405
11
0.38545
21
1.0405
0
LINE
8
BLACK
6
CONTINUOUS
10
0.38545
20
1.0405
11
0.38545
21
0.9420999999999999
0
LINE
8
BLACK
6
CONTINUOUS
10
1.6475
20
0.955
11
1.5925
21
0.955
0
LINE
8
BLACK
6
CONTINUOUS
10
1.5925
20
0.955
11
1.5925
21
0.99
0
LINE
8
BLACK
6
CONTINUOUS
10
1.5925
20
0.99
11
1.6475
21
0.99
0
LINE
8
BLACK
6
CONTINUOUS
10
1.6475
20
0.99
11
1.6475
21
0.955
0
LINE
8
BLACK
6
CONTINUOUS
10
0.7303499999999999
20
0.9561499999999999
11
0.71465
21
0.9561499999999999
0
LINE
8
BLACK
6
CONTINUOUS
10
0.71465
20
0.9561499999999999
11
0.71465
21
1.01125
0
LINE
8
BLACK
6
CONTINUOUS
10
0.71465
20
1.01125
11
0.7303499999999999
21
1.01125
0
LINE
8
BLACK
6
CONTINUOUS
10
0.7303499999999999
20
1.01125
11
0.7303499999999999
21
0.9561499999999999
0
LINE
8
BLACK
6
CONTINUOUS
10
0.75595
20
0.9561499999999999
11
0.74025
21
0.9561499999999999
0
LINE
8
BLACK
6
CONTINUOUS
10
0.74025
20
0.9561499999999999
11
0.74025
21
1.01125
0
LINE
8
BLACK
6
CONTINUOUS
10
0.74025
20
1.01125
11
0.75595
21
1.01125
0
LINE
8
BLACK
6
CONTINUOUS
10
0.75595
20
1.01125
11
0.75595
21
0.9561499999999999
0
LINE
8
BLACK
6
CONTINUOUS
10
0.78155
20
0.9561499999999999
11
0.76585
21
0.9561499999999999
0
LINE
8
BLACK
6
CONTINUOUS
10
0.76585
20
0.9561499999999999
11
0.76585
21
1.01125
0
LINE
8
BLACK
6
CONTINUOUS
10
0.76585
20
1.01125
11
0.78155
21
1.01125
0
LINE
8
BLACK
6
CONTINUOUS
10
0.78155
20
1.01125
11
0.78155
21
0.9561499999999999
0
LINE
8
BLACK
6
CONTINUOUS
10
0.80715
20
0.9561499999999999
11
0.79145
21
0.9561499999999999
0
LINE
8
BLACK
6
CONTINUOUS
10
0.79145
20
0.9561499999999999
11
0.79145
21
1.01125
0
LINE
8
BLACK
6
CONTINUOUS
10
0.79145
20
1.01125
11
0.80715
21
1.01125
0
LINE
8
BLACK
6
CONTINUOUS
10
0.80715
20
1.01125
11
0.80715
21
0.9561499999999999
0
LINE
8
BLACK
6
CONTINUOUS
10
0.83275
20
0.9561499999999999
11
0.8170499999999999
21
0.9561499999999999
0
LINE
8
BLACK
6
CONTINUOUS
10
0.8170499999999999
20
0.9561499999999999
11
0.8170499999999999
21
1.01125
0
LINE
8
BLACK
6
CONTINUOUS
10
0.8170499999999999
20
1.01125
11
0.83275
21
1.01125
0
LINE
8
BLACK
6
CONTINUOUS
10
0.83275
20
1.01125
11
0.83275
21
0.9561499999999999
0
LINE
8
BLACK
6
CONTINUOUS
10
0.8583499999999999
20
0.9561499999999999
11
0.84265
21
0.9561499999999999
0
LINE
8
BLACK
6
CONTINUOUS
10
0.84265
20
0.9561499999999999
11
0.84265
21
1.01125
0
LINE
8
BLACK
6
CONTINUOUS
10
0.84265
20
1.01125
11
0.8583499999999999
21
1.01125
0
LINE
8
BLACK
6
CONTINUOUS
10
0.8583499999999999
20
1.01125
11
0.8583499999999999
21
0.9561499999999999
0
LINE
8
BLACK
6
CONTINUOUS
10
0.88395
20
0.9561499999999999
11
0.86825
21
0.9561499999999999
0
LINE
8
BLACK
6
CONTINUOUS
10
0.86825
20
0.9561499999999999
11
0.86825
21
1.01125
0
LINE
8
BLACK
6
CONTINUOUS
10
0.86825
20
1.01125
11
0.88395
21
1.01125
0
LINE
8
BLACK
6
CONTINUOUS
10
0.88395
20
1.01125
11
0.88395
21
0.9561499999999999
0
LINE
8
BLACK
6
CONTINUOUS
10
0.90955
20
0.9561499999999999
11
0.89385
21
0.9561499999999999
0
LINE
8
BLACK
6
CONTINUOUS
10
0.89385
20
0.9561499999999999
11
0.89385
21
1.01125
0
LINE
8
BLACK
6
CONTINUOUS
10
0.89385
20
1.01125
11
0.90955
21
1.01125
0
LINE
8
BLACK
6
CONTINUOUS
10
0.90955
20
1.01125
11
0.90955
21
0.9561499999999999
0
LINE
8
BLACK
6
CONTINUOUS
10
0.9351499999999999
20
0.9561499999999999
11
0.91945
21
0.9561499999999999
0
LINE
8
BLACK
6
CONTINUOUS
10
0.91945
20
0.9561499999999999
11
0.91945
21
1.01125
0
LINE
8
BLACK
6
CONTINUOUS
10
0.91945
20
1.01125
11
0.9351499999999999
21
1.01125
0
LINE
8
BLACK
6
CONTINUOUS
10
0.9351499999999999
20
1.01125
11
0.9351499999999999
21
0.9561499999999999
0
LINE
8
BLACK
6
CONTINUOUS
10
0.96055
20
0.9561499999999999
11
0.94485
21
0.9561499999999999
0
LINE
8
BLACK
6
CONTINUOUS
10
0.94485
20
0.9561499999999999
11
0.94485
21
1.01125
0
LINE
8
BLACK
6
CONTINUOUS
10
0.94485
20
1.01125
11
0.96055
21
1.01125
0
LINE
8
BLACK
6
CONTINUOUS
10
0.96055
20
1.01125
11
0.96055
21
0.9561499999999999
0
LINE
8
BLACK
6
CONTINUOUS
10
0.98615
20
0.9561499999999999
11
0.9704499999999999
21
0.9561499999999999
0
LINE
8
BLACK
6
CONTINUOUS
10
0.9704499999999999
20
0.9561499999999999
11
0.9704499999999999
21
1.01125
0
LINE
8
BLACK
6
CONTINUOUS
10
0.9704499999999999
20
1.01125
11
0.98615
21
1.01125
0
LINE
8
BLACK
6
CONTINUOUS
10
0.98615
20
1.01125
11
0.98615
21
0.9561499999999999
0
LINE
8
BLACK
6
CONTINUOUS
10
1.0117499999999999
20
0.9561499999999999
11
0.99605
21
0.9561499999999999
0
LINE
8
BLACK
6
CONTINUOUS
10
0.99605
20
0.9561499999999999
11
0.99605
21
1.01125
0
LINE
8
BLACK
6
CONTINUOUS
10
0.99605
20
1.01125
11
1.0117499999999999
21
1.01125
0
LINE
8
BLACK
6
CONTINUOUS
10
1.0117499999999999
20
1.01125
11
1.0117499999999999
21
0.9561499999999999
0
LINE
8
BLACK
6
CONTINUOUS
10
1.03735
20
0.9561499999999999
11
1.0216499999999999
21
0.9561499999999999
0
LINE
8
BLACK
6
CONTINUOUS
10
1.0216499999999999
20
0.9561499999999999
11
1.0216499999999999
21
1.01125
0
LINE
8
BLACK
6
CONTINUOUS
10
1.0216499999999999
20
1.01125
11
1.03735
21
1.01125
0
LINE
8
BLACK
6
CONTINUOUS
10
1.03735
20
1.01125
11
1.03735
21
0.9561499999999999
0
LINE
8
BLACK
6
CONTINUOUS
10
1.0629500000000001
20
0.9561499999999999
11
1.04725
21
0.9561499999999999
0
LINE
8
BLACK
6
CONTINUOUS
10
1.04725
20
0.9561499999999999
11
1.04725
21
1.01125
0
LINE
8
BLACK
6
CONTINUOUS
10
1.04725
20
1.01125
11
1.0629500000000001
21
1.01125
0
LINE
8
BLACK
6
CONTINUOUS
10
1.0629500000000001
20
1.01125
11
1.0629500000000001
21
0.9561499999999999
0
LINE
8
BLACK
6
CONTINUOUS
10
1.0885499999999999
20
0.9561499999999999
11
1.0728500000000001
21
0.9561499999999999
0
LINE
8
BLACK
6
CONTINUOUS
10
1.0728500000000001
20
0.9561499999999999
11
1.0728500000000001
21
1.01125
0
LINE
8
BLACK
6
CONTINUOUS
10
1.0728500000000001
20
1.01125
11
1.0885499999999999
21
1.01125
0
LINE
8
BLACK
6
CONTINUOUS
10
1.0885499999999999
20
1.01125
11
1.0885499999999999
21
0.9561499999999999
0
LINE
8
BLACK
6
CONTINUOUS
10
1.11415
20
0.9561499999999999
11
1.0984499999999999
21
0.9561499999999999
0
LINE
8
BLACK
6
CONTINUOUS
10
1.0984499999999999
20
0.9561499999999999
11
1.0984499999999999
21
1.01125
0
LINE
8
BLACK
6
CONTINUOUS
10
1.0984499999999999
20
1.01125
11
1.11415
21
1.01125
0
LINE
8
BLACK
6
CONTINUOUS
10
1.11415
20
1.01125
11
1.11415
21
0.9561499999999999
0
LINE
8
BLACK
6
CONTINUOUS
10
1.13975
20
0.9561499999999999
11
1.12405
21
0.9561499999999999
0
LINE
8
BLACK
6
CONTINUOUS
10
1.12405
20
0.9561499999999999
11
1.12405
21
1.01125
0
LINE
8
BLACK
6
CONTINUOUS
10
1.12405
20
1.01125
11
1.13975
21
1.01125
0
LINE
8
BLACK
6
CONTINUOUS
10
1.13975
20
1.01125
11
1.13975
21
0.9561499999999999
0
LINE
8
BLACK
6
CONTINUOUS
10
1.1653499999999999
20
0.9561499999999999
11
1.1496500000000001
21
0.9561499999999999
0
LINE
8
BLACK
6
CONTINUOUS
10
1.1496500000000001
20
0.9561499999999999
11
1.1496500000000001
21
1.01125
0
LINE
8
BLACK
6
CONTINUOUS
10
1.1496500000000001
20
1.01125
11
1.1653499999999999
21
1.01125
0
LINE
8
BLACK
6
CONTINUOUS
10
1.1653499999999999
20
1.01125
11
1.1653499999999999
21
0.9561499999999999
0
LINE
8
BLACK
6
CONTINUOUS
10
1.5674999999999999
20
1.01
11
1.5125
21
1.01
0
LINE
8
BLACK
6
CONTINUOUS
10
1.5125
20
1.01
11
1.5125
21
1.0449999999999999
0
LINE
8
BLACK
6
CONTINUOUS
10
1.5125
20
1.0449999999999999
11
1.5674999999999999
21
1.0449999999999999
0
LINE
8
BLACK
6
CONTINUOUS
10
1.5674999999999999
20
1.0449999999999999
11
1.5674999999999999
21
1.01
0
LINE
8
BLACK
6
CONTINUOUS
10
1.6475
20
1.03
11
1.5925
21
1.03
0
LINE
8
BLACK
6
CONTINUOUS
10
1.5925
20
1.03
11
1.5925
21
1.0649999999999999
0
LINE
8
BLACK
6
CONTINUOUS
10
1.5925
20
1.0649999999999999
11
1.6475
21
1.0649999999999999
0
LINE
8
BLACK
6
CONTINUOUS
10
1.6475
20
1.0649999999999999
11
1.6475
21
1.03
0
LINE
8
BLACK
6
CONTINUOUS
10
0.6925
20
1.0325
11
0.6575
21
1.0325
0
LINE
8
BLACK
6
CONTINUOUS
10
0.6575
20
1.0325
11
0.6575
21
1.0874999999999999
0
LINE
8
BLACK
6
CONTINUOUS
10
0.6575
20
1.0874999999999999
11
0.6925
21
1.0874999999999999
0
LINE
8
BLACK
6
CONTINUOUS
10
0.6925
20
1.0874999999999999
11
0.6925
21
1.0325
0
LINE
8
BLACK
6
CONTINUOUS
10
0.7675
20
1.0325
11
0.7324999999999999
21
1.0325
0
LINE
8
BLACK
6
CONTINUOUS
10
0.7324999999999999
20
1.0325
11
0.7324999999999999
21
1.0874999999999999
0
LINE
8
BLACK
6
CONTINUOUS
10
0.7324999999999999
20
1.0874999999999999
11
0.7675
21
1.0874999999999999
0
LINE
8
BLACK
6
CONTINUOUS
10
0.7675
20
1.0874999999999999
11
0.7675
21
1.0325
0
LINE
8
BLACK
6
CONTINUOUS
10
1.5674999999999999
20
1.095
11
1.5125
21
1.095
0
LINE
8
BLACK
6
CONTINUOUS
10
1.5125
20
1.095
11
1.5125
21
1.1299999999999999
0
LINE
8
BLACK
6
CONTINUOUS
10
1.5125
20
1.1299999999999999
11
1.5674999999999999
21
1.1299999999999999
0
LINE
8
BLACK
6
CONTINUOUS
10
1.5674999999999999
20
1.1299999999999999
11
1.5674999999999999
21
1.095
0
LINE
8
BLACK
6
CONTINUOUS
10
1.6475
20
1.095
11
1.5925
21
1.095
0
LINE
8
BLACK
6
CONTINUOUS
10
1.5925
20
1.095
11
1.5925
21
1.1299999999999999
0
LINE
8
BLACK
6
CONTINUOUS
10
1.5925
20
1.1299999999999999
11
1.6475
21
1.1299999999999999
0
LINE
8
BLACK
6
CONTINUOUS
10
1.6475
20
1.1299999999999999
11
1.6475
21
1.095
0
LINE
8
BLACK
6
CONTINUOUS
10
0.38545
20
1.0994999999999999
11
0.31455
21
1.0994999999999999
0
LINE
8
BLACK
6
CONTINUOUS
10
0.31455
20
1.0994999999999999
11
0.31455
21
1.1979
0
LINE
8
BLACK
6
CONTINUOUS
10
0.31455
20
1.1979
11
0.38545
21
1.1979
0
LINE
8
BLACK
6
CONTINUOUS
10
0.38545
20
1.1979
11
0.38545
21
1.0994999999999999
0
LINE
8
BLACK
6
CONTINUOUS
10
0.9399999999999999
20
1.1025
11
0.905
21
1.1025
0
LINE
8
BLACK
6
CONTINUOUS
10
0.905
20
1.1025
11
0.905
21
1.1575
0
LINE
8
BLACK
6
CONTINUOUS
10
0.905
20
1.1575
11
0.9399999999999999
21
1.1575
0
LINE
8
BLACK
6
CONTINUOUS
10
0.9399999999999999
20
1.1575
11
0.9399999999999999
21
1.1025
0
LINE
8
BLACK
6
CONTINUOUS
10
1.0149999999999999
20
1.1025
11
0.98
21
1.1025
0
LINE
8
BLACK
6
CONTINUOUS
10
0.98
20
1.1025
11
0.98
21
1.1575
0
LINE
8
BLACK
6
CONTINUOUS
10
0.98
20
1.1575
11
1.0149999999999999
21
1.1575
0
LINE
8
BLACK
6
CONTINUOUS
10
1.0149999999999999
20
1.1575
11
1.0149999999999999
21
1.1025
0
LINE
8
BLACK
6
CONTINUOUS
10
1.1692
20
1.1204000000000001
11
1.0708
21
1.1204000000000001
0
LINE
8
BLACK
6
CONTINUOUS
10
1.0708
20
1.1204000000000001
11
1.0708
21
1.2207999999999999
0
LINE
8
BLACK
6
CONTINUOUS
10
1.0708
20
1.2207999999999999
11
1.1692
21
1.2207999999999999
0
LINE
8
BLACK
6
CONTINUOUS
10
1.1692
20
1.2207999999999999
11
1.1692
21
1.1204000000000001
0
LINE
8
BLACK
6
CONTINUOUS
10
1.5674999999999999
20
1.1699999999999999
11
1.5125
21
1.1699999999999999
0
LINE
8
BLACK
6
CONTINUOUS
10
1.5125
20
1.1699999999999999
11
1.5125
21
1.2050000000000001
0
LINE
8
BLACK
6
CONTINUOUS
10
1.5125
20
1.2050000000000001
11
1.5674999999999999
21
1.2050000000000001
0
LINE
8
BLACK
6
CONTINUOUS
10
1.5674999999999999
20
1.2050000000000001
11
1.5674999999999999
21
1.1699999999999999
0
LINE
8
BLACK
6
CONTINUOUS
10
1.6475
20
1.1699999999999999
11
1.5925
21
1.1699999999999999
0
LINE
8
BLACK
6
CONTINUOUS
10
1.5925
20
1.1699999999999999
11
1.5925
21
1.2050000000000001
0
LINE
8
BLACK
6
CONTINUOUS
10
1.5925
20
1.2050000000000001
11
1.6475
21
1.2050000000000001
0
LINE
8
BLACK
6
CONTINUOUS
10
1.6475
20
1.2050000000000001
11
1.6475
21
1.1699999999999999
0
LINE
8
BLACK
6
CONTINUOUS
10
0.95545
20
1.1920999999999999
11
0.8845499999999999
21
1.1920999999999999
0
LINE
8
BLACK
6
CONTINUOUS
10
0.8845499999999999
20
1.1920999999999999
11
0.8845499999999999
21
1.2905
0
LINE
8
BLACK
6
CONTINUOUS
10
0.8845499999999999
20
1.2905
11
0.95545
21
1.2905
0
LINE
8
BLACK
6
CONTINUOUS
10
0.95545
20
1.2905
11
0.95545
21
1.1920999999999999
0
LINE
8
BLACK
6
CONTINUOUS
10
1.1692
20
1.3191999999999999
11
1.0708
21
1.3191999999999999
0
LINE
8
BLACK
6
CONTINUOUS
10
1.0708
20
1.3191999999999999
11
1.0708
21
1.4196
0
LINE
8
BLACK
6
CONTINUOUS
10
1.0708
20
1.4196
11
1.1692
21
1.4196
0
LINE
8
BLACK
6
CONTINUOUS
10
1.1692
20
1.4196
11
1.1692
21
1.3191999999999999
0
LINE
8
BLACK
6
CONTINUOUS
10
0.95545
20
1.3494999999999999
11
0.8845499999999999
21
1.3494999999999999
0
LINE
8
BLACK
6
CONTINUOUS
10
0.8845499999999999
20
1.3494999999999999
11
0.8845499999999999
21
1.4479
0
LINE
8
BLACK
6
CONTINUOUS
10
0.8845499999999999
20
1.4479
11
0.95545
21
1.4479
0
LINE
8
BLACK
6
CONTINUOUS
10
0.95545
20
1.4479
11
0.95545
21
1.3494999999999999
  0
ENDSEC
  0
EOF
