%TF.GenerationSoftware,KiCad,Pcbnew,9.0.1+1*%
%TF.CreationDate,2025-08-19T22:17:54+00:00*%
%TF.ProjectId,HBSTEP01,48425354-4550-4303-912e-6b696361645f,rev?*%
%TF.SameCoordinates,Original*%
%TF.FileFunction,Copper,L1,Top*%
%TF.FilePolarity,Positive*%
%FSLAX46Y46*%
G04 Gerber Fmt 4.6, Leading zero omitted, Abs format (unit mm)*
G04 Created by KiCad (PCBNEW 9.0.1+1) date 2025-08-19 22:17:54*
%MOMM*%
%LPD*%
G01*
G04 APERTURE LIST*
%TA.AperFunction,ComponentPad*%
%ADD10R,1.524000X1.524000*%
%TD*%
%TA.AperFunction,ComponentPad*%
%ADD11C,6.000000*%
%TD*%
%TA.AperFunction,ComponentPad*%
%ADD12R,3.810000X3.810000*%
%TD*%
%TA.AperFunction,ComponentPad*%
%ADD13C,1.480820*%
%TD*%
%TA.AperFunction,ViaPad*%
%ADD14C,0.889000*%
%TD*%
%TA.AperFunction,Conductor*%
%ADD15C,0.400000*%
%TD*%
%TA.AperFunction,Conductor*%
%ADD16C,0.254000*%
%TD*%
%TA.AperFunction,Conductor*%
%ADD17C,0.300000*%
%TD*%
%TA.AperFunction,Conductor*%
%ADD18C,0.500000*%
%TD*%
G04 APERTURE END LIST*
D10*
%TO.P,J1,1*%
%TO.N,GND*%
X2540000Y24892000D03*
%TO.P,J1,2*%
X5080000Y24892000D03*
%TD*%
%TO.P,J2,1*%
%TO.N,VDD*%
X2540000Y27432000D03*
%TO.P,J2,2*%
X5080000Y27432000D03*
%TD*%
%TO.P,J3,1*%
%TO.N,GND*%
X2540000Y29972000D03*
%TO.P,J3,2*%
X5080000Y29972000D03*
%TD*%
%TO.P,J6,1*%
%TO.N,/FLAG*%
X34290000Y26162000D03*
%TO.P,J6,2*%
X36830000Y26162000D03*
%TD*%
%TO.P,J7,1*%
%TO.N,/SYNC*%
X44450000Y29718000D03*
%TO.P,J7,2*%
X46990000Y29718000D03*
%TD*%
%TO.P,J8,1*%
%TO.N,/STCK*%
X44450000Y27178000D03*
%TO.P,J8,2*%
X46990000Y27178000D03*
%TD*%
%TO.P,J9,1*%
%TO.N,/STBY*%
X30226000Y5334000D03*
%TO.P,J9,2*%
X30226000Y7874000D03*
%TD*%
%TO.P,J10,1*%
%TO.N,/CS*%
X34290000Y28702000D03*
%TO.P,J10,2*%
X36830000Y28702000D03*
%TD*%
%TO.P,J11,1*%
%TO.N,/CK*%
X34290000Y33782000D03*
%TO.P,J11,2*%
X36830000Y33782000D03*
%TD*%
%TO.P,J12,1*%
%TO.N,/SDO*%
X34290000Y36322000D03*
%TO.P,J12,2*%
X36830000Y36322000D03*
%TD*%
%TO.P,J18,1*%
%TO.N,VDD*%
X25146000Y5334000D03*
%TD*%
%TO.P,J19,1*%
%TO.N,Net-(C15-Pad1)*%
X25146000Y7874000D03*
%TD*%
%TO.P,J24,1*%
%TO.N,/ADCIN*%
X27686000Y7874000D03*
%TD*%
%TO.P,J25,1*%
%TO.N,Net-(J25-Pad1)*%
X27686000Y5334000D03*
%TD*%
D11*
%TO.P,P1,1*%
%TO.N,GND*%
X5080000Y5080000D03*
%TD*%
%TO.P,P2,1*%
%TO.N,GND*%
X5080000Y35560000D03*
%TD*%
%TO.P,P3,1*%
%TO.N,GND*%
X45720000Y5080000D03*
%TD*%
%TO.P,P4,1*%
%TO.N,GND*%
X45720000Y35560000D03*
%TD*%
D10*
%TO.P,J15,1*%
%TO.N,/OSCO*%
X11938000Y3810000D03*
%TO.P,J15,2*%
X11938000Y6350000D03*
%TD*%
%TO.P,J14,1*%
%TO.N,/OSCI*%
X14478000Y3810000D03*
%TO.P,J14,2*%
X14478000Y6350000D03*
%TD*%
%TO.P,J13,1*%
%TO.N,/SDI*%
X34290000Y31242000D03*
%TO.P,J13,2*%
X36830000Y31242000D03*
%TD*%
D12*
%TO.P,J5,1*%
%TO.N,GND*%
X13716000Y35226000D03*
X13716000Y30226000D03*
%TD*%
%TO.P,J4,1*%
%TO.N,VSS*%
X18796000Y35226000D03*
X18796000Y30226000D03*
%TD*%
D13*
%TO.P,C13,1*%
%TO.N,VSS*%
X26670000Y31384240D03*
%TO.P,C13,2*%
%TO.N,GND*%
X26670000Y33385760D03*
%TD*%
D12*
%TO.P,J23,1*%
%TO.N,/2B*%
X10334000Y18288000D03*
X5334000Y18288000D03*
%TD*%
%TO.P,J22,1*%
%TO.N,/1B*%
X10334000Y13288000D03*
X5334000Y13288000D03*
%TD*%
%TO.P,J21,1*%
%TO.N,/2A*%
X40466000Y20066000D03*
X45466000Y20066000D03*
%TD*%
%TO.P,J20,1*%
%TO.N,/1A*%
X40466000Y15066000D03*
X45466000Y15066000D03*
%TD*%
D10*
%TO.P,J26,1*%
%TO.N,Net-(C14-Pad1)*%
X32766000Y7874000D03*
%TD*%
%TO.P,J27,1*%
%TO.N,GND*%
X32766000Y5334000D03*
%TD*%
D14*
%TO.N,VSS*%
X20066000Y13208000D03*
X26924000Y13208000D03*
X31114996Y12065000D03*
%TO.N,GND*%
X26289000Y19939000D03*
X24765000Y17780000D03*
X19431000Y2032000D03*
X22225000Y16129000D03*
X23876000Y16256000D03*
X22225000Y17780000D03*
X23495000Y20701000D03*
X29083000Y18288000D03*
X32893000Y3937000D03*
X25527000Y34925000D03*
X24892000Y19050000D03*
X19433975Y4068390D03*
X26924000Y16256000D03*
X28067000Y17145000D03*
X22225000Y19431000D03*
X26797000Y37465000D03*
X26162000Y18034000D03*
X23368000Y17780000D03*
X31882487Y3815487D03*
X23495000Y19304000D03*
X13716000Y24511000D03*
X22225000Y20701000D03*
X30325060Y18288000D03*
X25019000Y20447000D03*
X28067000Y19685000D03*
X25527000Y36322000D03*
X13716000Y27432000D03*
%TO.N,VDD*%
X10922000Y23622000D03*
X39116000Y31369000D03*
X22098000Y28702000D03*
X33274000Y2540000D03*
%TO.N,/FLAG*%
X26162000Y23368000D03*
%TO.N,/SYNC*%
X25894365Y26556636D03*
%TO.N,/STCK*%
X27184332Y22856834D03*
%TO.N,/CS*%
X25019000Y23368000D03*
%TO.N,/CK*%
X23523488Y26641515D03*
%TO.N,/SDO*%
X22352000Y26670000D03*
%TO.N,/SDI*%
X22860000Y23368000D03*
%TO.N,/OSCI*%
X23685511Y8890000D03*
%TO.N,/OSCO*%
X22606000Y9906000D03*
%TO.N,Net-(C14-Pad1)*%
X38862000Y11176000D03*
%TO.N,Net-(R6-Pad1)*%
X34544000Y11176000D03*
X28941915Y9129915D03*
%TD*%
D15*
%TO.N,VSS*%
X30486379Y12065000D02*
X31114996Y12065000D01*
X28067000Y12065000D02*
X30486379Y12065000D01*
X26924000Y13208000D02*
X28067000Y12065000D01*
D16*
%TO.N,GND*%
X29083000Y18161000D02*
X28067000Y17145000D01*
X26543000Y19685000D02*
X26289000Y19939000D01*
X26289000Y18161000D02*
X26162000Y18034000D01*
X27051000Y16383000D02*
X26924000Y16256000D01*
X24003000Y16383000D02*
X23876000Y16256000D01*
X22352000Y16256000D02*
X22225000Y16129000D01*
X22225000Y17907000D02*
X22225000Y17780000D01*
X23495000Y17907000D02*
X23368000Y17780000D01*
X24765000Y18923000D02*
X24892000Y19050000D01*
X24892000Y20320000D02*
X25019000Y20447000D01*
D17*
X19433975Y4068390D02*
X19433975Y2034975D01*
D16*
X22225000Y17780000D02*
X22225000Y19431000D01*
X30325060Y18288000D02*
X29083000Y18288000D01*
D17*
X31882487Y3815487D02*
X32771487Y3815487D01*
D16*
X24765000Y17780000D02*
X24765000Y18923000D01*
X23876000Y16256000D02*
X22352000Y16256000D01*
X24892000Y19050000D02*
X24892000Y20320000D01*
X23495000Y20701000D02*
X23495000Y19304000D01*
X22225000Y20701000D02*
X23495000Y20701000D01*
X23368000Y17780000D02*
X24765000Y17780000D01*
D17*
X19433975Y2034975D02*
X19431000Y2032000D01*
X32771487Y3815487D02*
X32893000Y3937000D01*
X13716000Y30226000D02*
X13716000Y27432000D01*
X25527000Y34925000D02*
X25527000Y36322000D01*
D16*
X26162000Y18034000D02*
X27051000Y16383000D01*
X22225000Y19431000D02*
X22225000Y20701000D01*
X29083000Y18288000D02*
X29083000Y18161000D01*
X26289000Y19939000D02*
X26289000Y18161000D01*
X28067000Y17145000D02*
X28067000Y19685000D01*
X22225000Y16129000D02*
X22225000Y17907000D01*
X28067000Y19685000D02*
X26543000Y19685000D01*
X23495000Y19304000D02*
X23495000Y17907000D01*
X26924000Y16256000D02*
X24003000Y16383000D01*
D18*
%TO.N,VDD*%
X26412001Y9039201D02*
X23767202Y11684000D01*
X9398000Y36576000D02*
X11684000Y38862000D01*
X21564103Y29235897D02*
X22098000Y28702000D01*
X14986000Y11684000D02*
X13462000Y13208000D01*
X23767202Y11684000D02*
X14986000Y11684000D01*
X26412001Y6708799D02*
X26412001Y9039201D01*
X9398000Y30488000D02*
X9398000Y35625202D01*
X21564103Y38862000D02*
X36721202Y38862000D01*
X25037202Y5334000D02*
X26412001Y6708799D01*
X20902628Y38862000D02*
X21564103Y38862000D01*
X30220920Y2540000D02*
X26678000Y2540000D01*
X9398000Y35625202D02*
X9398000Y36576000D01*
X39116000Y36467202D02*
X38874077Y36709125D01*
X39116000Y31369000D02*
X39116000Y36467202D01*
X33274000Y2540000D02*
X30220920Y2540000D01*
X36721202Y38862000D02*
X38874077Y36709125D01*
X25146000Y4072000D02*
X25146000Y5334000D01*
X26678000Y2540000D02*
X25146000Y4072000D01*
X21564103Y38862000D02*
X21564103Y29235897D01*
X25146000Y5334000D02*
X25037202Y5334000D01*
X6342000Y27432000D02*
X9398000Y30488000D01*
X13462000Y13208000D02*
X13462000Y21082000D01*
X11684000Y38862000D02*
X20902628Y38862000D01*
X13462000Y21082000D02*
X10922000Y23622000D01*
X5080000Y27432000D02*
X6342000Y27432000D01*
D17*
%TO.N,/STBY*%
X30226000Y7874000D02*
X30226000Y5334000D01*
%TO.N,/FLAG*%
X28956000Y26162000D02*
X34290000Y26162000D01*
X26162000Y23368000D02*
X28956000Y26162000D01*
D16*
%TO.N,/SYNC*%
X25894365Y26556636D02*
X26522982Y26556636D01*
X43434000Y29718000D02*
X44450000Y29718000D01*
X26522982Y26556636D02*
X29811346Y29845000D01*
X29811346Y29845000D02*
X43306999Y29845001D01*
X43306999Y29845001D02*
X43434000Y29718000D01*
X44323000Y29845000D02*
X44450000Y29718000D01*
%TO.N,/STCK*%
X41144834Y22856834D02*
X44450000Y26162000D01*
X27184332Y22856834D02*
X41144834Y22856834D01*
X44450000Y26162000D02*
X44450000Y27178000D01*
%TO.N,/CS*%
X25019000Y23996617D02*
X29724383Y28702000D01*
X33274000Y28702000D02*
X34290000Y28702000D01*
X25019000Y23368000D02*
X25019000Y23996617D01*
X29724383Y28702000D02*
X33274000Y28702000D01*
D17*
%TO.N,/CK*%
X23523488Y26641515D02*
X24841119Y27959146D01*
X32213898Y33782000D02*
X33228000Y33782000D01*
X33228000Y33782000D02*
X34290000Y33782000D01*
X26391044Y27959146D02*
X32213898Y33782000D01*
X24841119Y27959146D02*
X26391044Y27959146D01*
%TO.N,/SDO*%
X22352000Y26670000D02*
X22352000Y27298617D01*
X24644383Y29591000D02*
X26497000Y29591000D01*
X33228000Y36322000D02*
X34290000Y36322000D01*
X22352000Y27298617D02*
X24644383Y29591000D01*
X26497000Y29591000D02*
X33228000Y36322000D01*
%TO.N,/SDI*%
X33228000Y31242000D02*
X32258000Y31242000D01*
X34290000Y31242000D02*
X33228000Y31242000D01*
X29672386Y30457000D02*
X31473000Y30457000D01*
D16*
X26630049Y27382137D02*
X25519892Y27382137D01*
D17*
X24838167Y26700412D02*
X24838167Y26756220D01*
D16*
X31496000Y30480000D02*
X32258000Y31242000D01*
D17*
X22860000Y23368000D02*
X22860000Y24722245D01*
D16*
X25519892Y27382137D02*
X24963519Y26825764D01*
X31496000Y30480000D02*
X29727912Y30480000D01*
D17*
X24838167Y26700412D02*
X24963519Y26825764D01*
X26620523Y27405137D02*
X29672386Y30457000D01*
X31473000Y30457000D02*
X32258000Y31242000D01*
X22860000Y24722245D02*
X24838167Y26700412D01*
X25487084Y27405137D02*
X26620523Y27405137D01*
D16*
X29727912Y30480000D02*
X26630049Y27382137D01*
D17*
X24838167Y26756220D02*
X25487084Y27405137D01*
%TO.N,/OSCI*%
X15956000Y8890000D02*
X14478000Y7412000D01*
X14478000Y7412000D02*
X14478000Y6350000D01*
X23685511Y8890000D02*
X15956000Y8890000D01*
%TO.N,/OSCO*%
X11938000Y7412000D02*
X11938000Y6350000D01*
X22606000Y9906000D02*
X14432000Y9906000D01*
X14432000Y9906000D02*
X11938000Y7412000D01*
%TO.N,Net-(C14-Pad1)*%
X36068000Y11176000D02*
X32766000Y7874000D01*
X38862000Y11176000D02*
X36068000Y11176000D01*
%TO.N,Net-(R6-Pad1)*%
X30656414Y9574414D02*
X32258000Y11176000D01*
X32258000Y11176000D02*
X34544000Y11176000D01*
X28941915Y9129915D02*
X29386414Y9574414D01*
X29386414Y9574414D02*
X30656414Y9574414D01*
%TD*%
%TA.AperFunction,Conductor*%
%TO.N,VSS*%
G36*
X21018794Y37573093D02*
G01*
X21054758Y37523593D01*
X21059603Y37493000D01*
X21059603Y29169478D01*
X21078627Y29098478D01*
X21082000Y29072856D01*
X21082000Y14732000D01*
X21082000Y13970000D01*
X27587000Y13970000D01*
X27645191Y13951093D01*
X27681155Y13901593D01*
X27686000Y13871000D01*
X27686000Y12799000D01*
X27667093Y12740809D01*
X27617593Y12704845D01*
X27587000Y12700000D01*
X19304000Y12700000D01*
X16609000Y12700000D01*
X16550809Y12718907D01*
X16514845Y12768407D01*
X16510000Y12799000D01*
X16510000Y37493000D01*
X16528907Y37551191D01*
X16578407Y37587155D01*
X16609000Y37592000D01*
X20960603Y37592000D01*
X21018794Y37573093D01*
G37*
%TD.AperFunction*%
%TD*%
%TA.AperFunction,Conductor*%
%TO.N,GND*%
G36*
X50454691Y40316593D02*
G01*
X50490655Y40267093D01*
X50495500Y40236500D01*
X50495500Y403500D01*
X50476593Y345309D01*
X50427093Y309345D01*
X50396500Y304500D01*
X403500Y304500D01*
X345309Y323407D01*
X309345Y372907D01*
X304500Y403500D01*
X304500Y4597066D01*
X10921500Y4597066D01*
X10921500Y3022936D01*
X10921501Y3022929D01*
X10936265Y2948699D01*
X10936266Y2948697D01*
X10992513Y2864519D01*
X10992518Y2864514D01*
X11048638Y2827016D01*
X11076699Y2808266D01*
X11150933Y2793500D01*
X12725063Y2793500D01*
X12725070Y2793501D01*
X12799300Y2808265D01*
X12799302Y2808266D01*
X12883480Y2864513D01*
X12883481Y2864514D01*
X12883484Y2864516D01*
X12939734Y2948699D01*
X12954500Y3022933D01*
X12954499Y4597066D01*
X13461500Y4597066D01*
X13461500Y3022936D01*
X13461501Y3022929D01*
X13476265Y2948699D01*
X13476266Y2948697D01*
X13532513Y2864519D01*
X13532518Y2864514D01*
X13588638Y2827016D01*
X13616699Y2808266D01*
X13690933Y2793500D01*
X15265063Y2793500D01*
X15265070Y2793501D01*
X15339300Y2808265D01*
X15339302Y2808266D01*
X15423480Y2864513D01*
X15423481Y2864514D01*
X15423484Y2864516D01*
X15479734Y2948699D01*
X15494500Y3022933D01*
X15494499Y4597066D01*
X15479734Y4671301D01*
X15423484Y4755484D01*
X15339301Y4811734D01*
X15265067Y4826500D01*
X13690934Y4826499D01*
X13690929Y4826498D01*
X13616699Y4811734D01*
X13616697Y4811733D01*
X13616696Y4811732D01*
X13532516Y4755484D01*
X13476266Y4671301D01*
X13461501Y4597071D01*
X13461500Y4597066D01*
X12954499Y4597066D01*
X12939734Y4671301D01*
X12883484Y4755484D01*
X12799301Y4811734D01*
X12725067Y4826500D01*
X11150934Y4826499D01*
X11150929Y4826498D01*
X11076699Y4811734D01*
X11076697Y4811733D01*
X11076696Y4811732D01*
X10992516Y4755484D01*
X10936266Y4671301D01*
X10921501Y4597071D01*
X10921500Y4597066D01*
X304500Y4597066D01*
X304500Y15218067D01*
X3174500Y15218067D01*
X3174500Y11357936D01*
X3174501Y11357929D01*
X3189265Y11283699D01*
X3189266Y11283697D01*
X3245513Y11199519D01*
X3245518Y11199514D01*
X3301578Y11162056D01*
X3329699Y11143266D01*
X3403933Y11128500D01*
X7264063Y11128500D01*
X7264070Y11128501D01*
X7338300Y11143265D01*
X7338302Y11143266D01*
X7422480Y11199513D01*
X7422481Y11199514D01*
X7422484Y11199516D01*
X7478734Y11283699D01*
X7493500Y11357933D01*
X7493499Y15218066D01*
X7493499Y15218067D01*
X8174500Y15218067D01*
X8174500Y11357936D01*
X8174501Y11357929D01*
X8189265Y11283699D01*
X8189266Y11283697D01*
X8245513Y11199519D01*
X8245518Y11199514D01*
X8301578Y11162056D01*
X8329699Y11143266D01*
X8403933Y11128500D01*
X12264063Y11128500D01*
X12264070Y11128501D01*
X12338300Y11143265D01*
X12338302Y11143266D01*
X12422480Y11199513D01*
X12422481Y11199514D01*
X12422484Y11199516D01*
X12478734Y11283699D01*
X12493500Y11357933D01*
X12493499Y15218066D01*
X12478734Y15292301D01*
X12422484Y15376484D01*
X12338301Y15432734D01*
X12264067Y15447500D01*
X8403934Y15447499D01*
X8403929Y15447498D01*
X8329699Y15432734D01*
X8329697Y15432733D01*
X8329696Y15432732D01*
X8245516Y15376484D01*
X8189266Y15292301D01*
X8174501Y15218070D01*
X8174500Y15218067D01*
X7493499Y15218067D01*
X7478734Y15292301D01*
X7422484Y15376484D01*
X7338301Y15432734D01*
X7264067Y15447500D01*
X3403934Y15447499D01*
X3403929Y15447498D01*
X3329699Y15432734D01*
X3329697Y15432733D01*
X3329696Y15432732D01*
X3245516Y15376484D01*
X3189266Y15292301D01*
X3174501Y15218070D01*
X3174500Y15218067D01*
X304500Y15218067D01*
X304500Y20218067D01*
X3174500Y20218067D01*
X3174500Y16357936D01*
X3174501Y16357929D01*
X3189265Y16283699D01*
X3189266Y16283697D01*
X3245513Y16199519D01*
X3245518Y16199514D01*
X3301638Y16162016D01*
X3329699Y16143266D01*
X3403933Y16128500D01*
X7264063Y16128500D01*
X7264070Y16128501D01*
X7338300Y16143265D01*
X7338302Y16143266D01*
X7422480Y16199513D01*
X7422481Y16199514D01*
X7422484Y16199516D01*
X7478734Y16283699D01*
X7493500Y16357933D01*
X7493499Y20218066D01*
X7493499Y20218067D01*
X8174500Y20218067D01*
X8174500Y16357936D01*
X8174501Y16357929D01*
X8189265Y16283699D01*
X8189266Y16283697D01*
X8245513Y16199519D01*
X8245518Y16199514D01*
X8301638Y16162016D01*
X8329699Y16143266D01*
X8403933Y16128500D01*
X12264063Y16128500D01*
X12264070Y16128501D01*
X12338300Y16143265D01*
X12338302Y16143266D01*
X12422480Y16199513D01*
X12422481Y16199514D01*
X12422484Y16199516D01*
X12478734Y16283699D01*
X12493500Y16357933D01*
X12493499Y20218066D01*
X12478734Y20292301D01*
X12422484Y20376484D01*
X12338301Y20432734D01*
X12264067Y20447500D01*
X8403934Y20447499D01*
X8403929Y20447498D01*
X8329699Y20432734D01*
X8329697Y20432733D01*
X8329696Y20432732D01*
X8245516Y20376484D01*
X8189266Y20292301D01*
X8174501Y20218070D01*
X8174500Y20218067D01*
X7493499Y20218067D01*
X7478734Y20292301D01*
X7422484Y20376484D01*
X7338301Y20432734D01*
X7264067Y20447500D01*
X3403934Y20447499D01*
X3403929Y20447498D01*
X3329699Y20432734D01*
X3329697Y20432733D01*
X3329696Y20432732D01*
X3245516Y20376484D01*
X3189266Y20292301D01*
X3174501Y20218070D01*
X3174500Y20218067D01*
X304500Y20218067D01*
X304500Y23690847D01*
X10223000Y23690847D01*
X10223000Y23553152D01*
X10249862Y23418109D01*
X10249862Y23418107D01*
X10302552Y23290901D01*
X10302552Y23290900D01*
X10379050Y23176414D01*
X10476414Y23079050D01*
X10590901Y23002552D01*
X10718108Y22949862D01*
X10853152Y22923000D01*
X10853155Y22923000D01*
X10866521Y22923000D01*
X10924712Y22904093D01*
X10936525Y22894004D01*
X12928504Y20902025D01*
X12956281Y20847508D01*
X12957500Y20832021D01*
X12957500Y13141581D01*
X12978905Y13061698D01*
X12991882Y13013267D01*
X13012522Y12977519D01*
X13012524Y12977516D01*
X13045000Y12921265D01*
X13058299Y12898230D01*
X14582300Y11374230D01*
X14582299Y11374229D01*
X14676229Y11280300D01*
X14676234Y11280296D01*
X14791266Y11213882D01*
X14791265Y11213882D01*
X14841052Y11200541D01*
X14919581Y11179500D01*
X23517223Y11179500D01*
X23575414Y11160593D01*
X23587227Y11150504D01*
X25678227Y9059503D01*
X25706004Y9004986D01*
X25696433Y8944554D01*
X25653168Y8901289D01*
X25608223Y8890499D01*
X24479354Y8890499D01*
X24421163Y8909406D01*
X24385199Y8958906D01*
X24382256Y8970185D01*
X24373696Y9013212D01*
X24357649Y9093891D01*
X24304957Y9221101D01*
X24228460Y9335586D01*
X24131097Y9432949D01*
X24016612Y9509446D01*
X23889402Y9562138D01*
X23754356Y9589000D01*
X23616666Y9589000D01*
X23481620Y9562138D01*
X23481618Y9562137D01*
X23386822Y9522872D01*
X23325825Y9518072D01*
X23273656Y9550041D01*
X23250242Y9606569D01*
X23257472Y9652216D01*
X23278138Y9702109D01*
X23305000Y9837155D01*
X23305000Y9974845D01*
X23278138Y10109891D01*
X23225446Y10237101D01*
X23148949Y10351586D01*
X23051586Y10448949D01*
X22937101Y10525446D01*
X22809891Y10578138D01*
X22674845Y10605000D01*
X22537155Y10605000D01*
X22402109Y10578138D01*
X22402107Y10578137D01*
X22274901Y10525447D01*
X22274900Y10525447D01*
X22160414Y10448949D01*
X22063047Y10351582D01*
X22059969Y10347831D01*
X22058284Y10349213D01*
X22016969Y10316627D01*
X21982682Y10310500D01*
X14485253Y10310500D01*
X14378747Y10310500D01*
X14275869Y10282934D01*
X14183631Y10229681D01*
X11689631Y7735680D01*
X11689630Y7735680D01*
X11614320Y7660369D01*
X11614316Y7660364D01*
X11561067Y7568135D01*
X11533499Y7465250D01*
X11532653Y7458819D01*
X11531383Y7458986D01*
X11514593Y7407308D01*
X11465093Y7371344D01*
X11434500Y7366499D01*
X11150934Y7366499D01*
X11150929Y7366498D01*
X11076699Y7351734D01*
X11076697Y7351733D01*
X11076696Y7351732D01*
X10992516Y7295484D01*
X10936266Y7211301D01*
X10921501Y7137070D01*
X10921500Y7137066D01*
X10921500Y5562936D01*
X10921501Y5562929D01*
X10936265Y5488699D01*
X10936266Y5488697D01*
X10992513Y5404519D01*
X10992518Y5404514D01*
X11048638Y5367016D01*
X11076699Y5348266D01*
X11150933Y5333500D01*
X12725063Y5333500D01*
X12725070Y5333501D01*
X12799300Y5348265D01*
X12799302Y5348266D01*
X12883480Y5404513D01*
X12883481Y5404514D01*
X12883484Y5404516D01*
X12939734Y5488699D01*
X12954500Y5562933D01*
X12954499Y7137066D01*
X12939734Y7211301D01*
X12883484Y7295484D01*
X12799301Y7351734D01*
X12725067Y7366500D01*
X12703557Y7366499D01*
X12645368Y7385404D01*
X12609403Y7434903D01*
X12609400Y7496088D01*
X12633552Y7535503D01*
X13536416Y8438366D01*
X14570554Y9472504D01*
X14625071Y9500281D01*
X14640558Y9501500D01*
X21982682Y9501500D01*
X21995221Y9497425D01*
X22008389Y9498104D01*
X22021016Y9489044D01*
X22040873Y9482593D01*
X22059674Y9464735D01*
X22062498Y9461240D01*
X22063051Y9460414D01*
X22063655Y9459809D01*
X22066949Y9455735D01*
X22076108Y9431812D01*
X22087738Y9408987D01*
X22086892Y9403646D01*
X22088826Y9398595D01*
X22082174Y9373857D01*
X22078167Y9348555D01*
X22074342Y9344730D01*
X22072938Y9339508D01*
X22053017Y9323405D01*
X22034902Y9305290D01*
X22028792Y9303823D01*
X22025354Y9301044D01*
X22014991Y9300510D01*
X21989957Y9294500D01*
X16009253Y9294500D01*
X15902747Y9294500D01*
X15799869Y9266934D01*
X15707631Y9213681D01*
X14229631Y7735680D01*
X14229630Y7735680D01*
X14154320Y7660369D01*
X14154316Y7660364D01*
X14101067Y7568135D01*
X14073499Y7465250D01*
X14072653Y7458819D01*
X14071383Y7458986D01*
X14054593Y7407308D01*
X14005093Y7371344D01*
X13974500Y7366499D01*
X13690934Y7366499D01*
X13690929Y7366498D01*
X13616699Y7351734D01*
X13616697Y7351733D01*
X13616696Y7351732D01*
X13532516Y7295484D01*
X13476266Y7211301D01*
X13461501Y7137070D01*
X13461500Y7137066D01*
X13461500Y5562936D01*
X13461501Y5562929D01*
X13476265Y5488699D01*
X13476266Y5488697D01*
X13532513Y5404519D01*
X13532518Y5404514D01*
X13588638Y5367016D01*
X13616699Y5348266D01*
X13690933Y5333500D01*
X15265063Y5333500D01*
X15265070Y5333501D01*
X15339300Y5348265D01*
X15339302Y5348266D01*
X15423480Y5404513D01*
X15423481Y5404514D01*
X15423484Y5404516D01*
X15479734Y5488699D01*
X15494500Y5562933D01*
X15494499Y7137066D01*
X15479734Y7211301D01*
X15423484Y7295484D01*
X15339301Y7351734D01*
X15265067Y7366500D01*
X15243558Y7366499D01*
X15185369Y7385404D01*
X15149404Y7434903D01*
X15149401Y7496088D01*
X15173553Y7535503D01*
X16094554Y8456504D01*
X16149071Y8484281D01*
X16164558Y8485500D01*
X23062193Y8485500D01*
X23120384Y8466593D01*
X23138704Y8447532D01*
X23139480Y8448169D01*
X23142558Y8444417D01*
X23239925Y8347050D01*
X23354412Y8270552D01*
X23481619Y8217862D01*
X23616663Y8191000D01*
X23616666Y8191000D01*
X23754358Y8191000D01*
X23844386Y8208908D01*
X23889402Y8217862D01*
X23889403Y8217862D01*
X23992615Y8260613D01*
X24053612Y8265413D01*
X24105781Y8233444D01*
X24129195Y8176915D01*
X24129500Y8169149D01*
X24129500Y7086936D01*
X24129501Y7086929D01*
X24144265Y7012699D01*
X24144266Y7012697D01*
X24200513Y6928519D01*
X24200518Y6928514D01*
X24256638Y6891016D01*
X24284699Y6872266D01*
X24344166Y6860437D01*
X24358932Y6857500D01*
X24358933Y6857500D01*
X25608224Y6857500D01*
X25666415Y6838593D01*
X25702379Y6789093D01*
X25702379Y6727907D01*
X25678228Y6688496D01*
X25369227Y6379495D01*
X25314710Y6351718D01*
X25299223Y6350499D01*
X24358934Y6350499D01*
X24358929Y6350498D01*
X24284699Y6335734D01*
X24284697Y6335733D01*
X24284696Y6335732D01*
X24200516Y6279484D01*
X24144266Y6195301D01*
X24129501Y6121070D01*
X24129500Y6121066D01*
X24129500Y4546936D01*
X24129501Y4546929D01*
X24144265Y4472699D01*
X24144266Y4472697D01*
X24200513Y4388519D01*
X24200518Y4388514D01*
X24256638Y4351016D01*
X24284699Y4332266D01*
X24344166Y4320437D01*
X24358932Y4317500D01*
X24358933Y4317500D01*
X24542500Y4317500D01*
X24600691Y4298593D01*
X24636655Y4249093D01*
X24641500Y4218500D01*
X24641500Y4005582D01*
X24675881Y3877270D01*
X24700192Y3835161D01*
X24700191Y3835160D01*
X24742295Y3762234D01*
X26368232Y2136297D01*
X26461783Y2082285D01*
X26461784Y2082286D01*
X26483268Y2069881D01*
X26547425Y2052690D01*
X26611581Y2035500D01*
X30154501Y2035500D01*
X32748957Y2035500D01*
X32807148Y2016593D01*
X32818961Y2006504D01*
X32828414Y1997050D01*
X32942901Y1920552D01*
X33070108Y1867862D01*
X33205152Y1841000D01*
X33205155Y1841000D01*
X33342847Y1841000D01*
X33432875Y1858908D01*
X33477891Y1867862D01*
X33477892Y1867862D01*
X33605098Y1920552D01*
X33605099Y1920552D01*
X33719585Y1997050D01*
X33816949Y2094414D01*
X33893447Y2208900D01*
X33893447Y2208901D01*
X33946137Y2336107D01*
X33946138Y2336109D01*
X33973000Y2471155D01*
X33973000Y2608845D01*
X33946138Y2743891D01*
X33893446Y2871101D01*
X33816949Y2985586D01*
X33719586Y3082949D01*
X33605101Y3159446D01*
X33477891Y3212138D01*
X33342845Y3239000D01*
X33205155Y3239000D01*
X33070109Y3212138D01*
X33070107Y3212137D01*
X32942901Y3159447D01*
X32942900Y3159447D01*
X32828414Y3082949D01*
X32818961Y3073496D01*
X32764444Y3045719D01*
X32748957Y3044500D01*
X26927979Y3044500D01*
X26869788Y3063407D01*
X26857975Y3073496D01*
X26692471Y3239000D01*
X25782972Y4148498D01*
X25755197Y4203013D01*
X25764768Y4263445D01*
X25808033Y4306710D01*
X25852977Y4317500D01*
X25933063Y4317500D01*
X25933070Y4317501D01*
X26007300Y4332265D01*
X26007302Y4332266D01*
X26091480Y4388513D01*
X26091481Y4388514D01*
X26091484Y4388516D01*
X26147734Y4472699D01*
X26162500Y4546933D01*
X26162499Y5704818D01*
X26181406Y5763009D01*
X26191495Y5774821D01*
X26500496Y6083823D01*
X26555013Y6111601D01*
X26615445Y6102030D01*
X26658710Y6058765D01*
X26669500Y6013820D01*
X26669500Y4546936D01*
X26669501Y4546929D01*
X26684265Y4472699D01*
X26684266Y4472697D01*
X26740513Y4388519D01*
X26740518Y4388514D01*
X26796638Y4351016D01*
X26824699Y4332266D01*
X26898933Y4317500D01*
X28473063Y4317500D01*
X28473070Y4317501D01*
X28547300Y4332265D01*
X28547302Y4332266D01*
X28631480Y4388513D01*
X28631481Y4388514D01*
X28631484Y4388516D01*
X28687734Y4472699D01*
X28702500Y4546933D01*
X28702499Y6121066D01*
X28687734Y6195301D01*
X28631484Y6279484D01*
X28547301Y6335734D01*
X28473067Y6350500D01*
X26959155Y6350499D01*
X26900965Y6369406D01*
X26865001Y6418906D01*
X26865001Y6480092D01*
X26866352Y6483973D01*
X26869253Y6491783D01*
X26882120Y6514069D01*
X26892790Y6553891D01*
X26916501Y6642380D01*
X26916501Y6758500D01*
X26935408Y6816691D01*
X26984908Y6852655D01*
X27015501Y6857500D01*
X28473063Y6857500D01*
X28473070Y6857501D01*
X28547300Y6872265D01*
X28547302Y6872266D01*
X28631480Y6928513D01*
X28631481Y6928514D01*
X28631484Y6928516D01*
X28687734Y7012699D01*
X28702500Y7086933D01*
X28702499Y8344211D01*
X28721406Y8402402D01*
X28770906Y8438366D01*
X28820812Y8441309D01*
X28873064Y8430915D01*
X28873070Y8430915D01*
X29010765Y8430915D01*
X29091187Y8446912D01*
X29151948Y8439720D01*
X29196877Y8398187D01*
X29209500Y8349814D01*
X29209500Y7086936D01*
X29209501Y7086929D01*
X29224265Y7012699D01*
X29224266Y7012697D01*
X29280513Y6928519D01*
X29280518Y6928514D01*
X29336638Y6891016D01*
X29364699Y6872266D01*
X29424166Y6860437D01*
X29438932Y6857500D01*
X29438933Y6857500D01*
X29722500Y6857500D01*
X29780691Y6838593D01*
X29816655Y6789093D01*
X29821500Y6758500D01*
X29821500Y6449499D01*
X29802593Y6391308D01*
X29753093Y6355344D01*
X29722500Y6350499D01*
X29438934Y6350499D01*
X29438929Y6350498D01*
X29364699Y6335734D01*
X29364697Y6335733D01*
X29364696Y6335732D01*
X29280516Y6279484D01*
X29224266Y6195301D01*
X29209501Y6121070D01*
X29209500Y6121066D01*
X29209500Y4546936D01*
X29209501Y4546929D01*
X29224265Y4472699D01*
X29224266Y4472697D01*
X29280513Y4388519D01*
X29280518Y4388514D01*
X29336638Y4351016D01*
X29364699Y4332266D01*
X29438933Y4317500D01*
X31013063Y4317500D01*
X31013070Y4317501D01*
X31087300Y4332265D01*
X31087302Y4332266D01*
X31171480Y4388513D01*
X31171481Y4388514D01*
X31171484Y4388516D01*
X31227734Y4472699D01*
X31242500Y4546933D01*
X31242499Y6121066D01*
X31227734Y6195301D01*
X31171484Y6279484D01*
X31087301Y6335734D01*
X31013067Y6350500D01*
X30729499Y6350499D01*
X30671310Y6369406D01*
X30635346Y6418906D01*
X30630500Y6449499D01*
X30630500Y6758500D01*
X30649407Y6816691D01*
X30698907Y6852655D01*
X30729500Y6857500D01*
X31013063Y6857500D01*
X31013070Y6857501D01*
X31087300Y6872265D01*
X31087302Y6872266D01*
X31171480Y6928513D01*
X31171481Y6928514D01*
X31171484Y6928516D01*
X31227734Y7012699D01*
X31242500Y7086933D01*
X31242499Y8661066D01*
X31227734Y8735301D01*
X31171484Y8819484D01*
X31087301Y8875734D01*
X31013067Y8890500D01*
X29727617Y8890499D01*
X29705894Y8897557D01*
X29683307Y8900969D01*
X29677364Y8906827D01*
X29669427Y8909406D01*
X29655999Y8927887D01*
X29639733Y8943922D01*
X29638611Y8951819D01*
X29633463Y8958906D01*
X29629728Y9004284D01*
X29630069Y9006546D01*
X29640915Y9061070D01*
X29640915Y9078350D01*
X29642025Y9085699D01*
X29652553Y9106733D01*
X29659822Y9129105D01*
X29665995Y9133590D01*
X29669411Y9140414D01*
X29690291Y9151242D01*
X29709322Y9165069D01*
X29720307Y9166808D01*
X29723727Y9168582D01*
X29727707Y9167980D01*
X29739915Y9169914D01*
X30709665Y9169914D01*
X30709667Y9169914D01*
X30812545Y9197480D01*
X30812549Y9197481D01*
X30904778Y9250730D01*
X30904779Y9250731D01*
X30904780Y9250732D01*
X30904783Y9250734D01*
X32396554Y10742504D01*
X32451071Y10770281D01*
X32466558Y10771500D01*
X33920682Y10771500D01*
X33978873Y10752593D01*
X33997193Y10733532D01*
X33997969Y10734169D01*
X34001047Y10730417D01*
X34098414Y10633050D01*
X34212901Y10556552D01*
X34340108Y10503862D01*
X34475152Y10477000D01*
X34557943Y10477000D01*
X34616134Y10458093D01*
X34652098Y10408593D01*
X34652098Y10347407D01*
X34627947Y10307996D01*
X33239446Y8919495D01*
X33184929Y8891718D01*
X33169442Y8890499D01*
X31978934Y8890499D01*
X31978929Y8890498D01*
X31904699Y8875734D01*
X31904697Y8875733D01*
X31904696Y8875732D01*
X31820516Y8819484D01*
X31764266Y8735301D01*
X31749501Y8661070D01*
X31749500Y8661066D01*
X31749500Y7086936D01*
X31749501Y7086929D01*
X31764265Y7012699D01*
X31764266Y7012697D01*
X31820513Y6928519D01*
X31820518Y6928514D01*
X31876638Y6891016D01*
X31904699Y6872266D01*
X31978933Y6857500D01*
X33553063Y6857500D01*
X33553070Y6857501D01*
X33627300Y6872265D01*
X33627302Y6872266D01*
X33711480Y6928513D01*
X33711481Y6928514D01*
X33711484Y6928516D01*
X33767734Y7012699D01*
X33782500Y7086933D01*
X33782499Y8277442D01*
X33801406Y8335633D01*
X33811495Y8347446D01*
X36206553Y10742504D01*
X36261070Y10770281D01*
X36276557Y10771500D01*
X38238682Y10771500D01*
X38296873Y10752593D01*
X38315193Y10733532D01*
X38315969Y10734169D01*
X38319047Y10730417D01*
X38416414Y10633050D01*
X38530901Y10556552D01*
X38658108Y10503862D01*
X38793152Y10477000D01*
X38793155Y10477000D01*
X38930847Y10477000D01*
X39020875Y10494908D01*
X39065891Y10503862D01*
X39065892Y10503862D01*
X39193098Y10556552D01*
X39193099Y10556552D01*
X39307585Y10633050D01*
X39404949Y10730414D01*
X39481447Y10844900D01*
X39481447Y10844901D01*
X39534137Y10972107D01*
X39534138Y10972109D01*
X39561000Y11107155D01*
X39561000Y11244845D01*
X39534138Y11379891D01*
X39481446Y11507101D01*
X39404949Y11621586D01*
X39307586Y11718949D01*
X39193101Y11795446D01*
X39065891Y11848138D01*
X38930845Y11875000D01*
X38793155Y11875000D01*
X38658109Y11848138D01*
X38658107Y11848137D01*
X38530901Y11795447D01*
X38530900Y11795447D01*
X38416414Y11718949D01*
X38319047Y11621582D01*
X38315969Y11617831D01*
X38314284Y11619213D01*
X38272969Y11586627D01*
X38238682Y11580500D01*
X36121253Y11580500D01*
X36014747Y11580500D01*
X35911869Y11552934D01*
X35911866Y11552932D01*
X35911864Y11552932D01*
X35819635Y11499683D01*
X35819633Y11499681D01*
X35819631Y11499680D01*
X35412001Y11092050D01*
X35357487Y11064275D01*
X35297055Y11073846D01*
X35253790Y11117111D01*
X35243000Y11162056D01*
X35243000Y11244843D01*
X35243000Y11244845D01*
X35216138Y11379891D01*
X35163446Y11507101D01*
X35086949Y11621586D01*
X34989586Y11718949D01*
X34875101Y11795446D01*
X34747891Y11848138D01*
X34612845Y11875000D01*
X34475155Y11875000D01*
X34340109Y11848138D01*
X34340107Y11848137D01*
X34212901Y11795447D01*
X34212900Y11795447D01*
X34098414Y11718949D01*
X34001047Y11621582D01*
X33997969Y11617831D01*
X33996284Y11619213D01*
X33954969Y11586627D01*
X33920682Y11580500D01*
X32311253Y11580500D01*
X32204747Y11580500D01*
X32101869Y11552934D01*
X32009631Y11499681D01*
X31244120Y10734169D01*
X30517861Y10007910D01*
X30463344Y9980133D01*
X30447857Y9978914D01*
X29439667Y9978914D01*
X29333161Y9978914D01*
X29230283Y9951348D01*
X29138045Y9898095D01*
X29096639Y9856689D01*
X29042125Y9828914D01*
X29015694Y9829440D01*
X29015596Y9828438D01*
X29010763Y9828914D01*
X29010760Y9828915D01*
X28873070Y9828915D01*
X28738024Y9802053D01*
X28738022Y9802052D01*
X28610816Y9749362D01*
X28610815Y9749362D01*
X28496329Y9672864D01*
X28398965Y9575500D01*
X28322467Y9461014D01*
X28322467Y9461013D01*
X28269777Y9333807D01*
X28269777Y9333805D01*
X28242915Y9198762D01*
X28242915Y9061064D01*
X28253309Y9008812D01*
X28246117Y8948051D01*
X28204584Y8903122D01*
X28156211Y8890499D01*
X27015501Y8890499D01*
X27003882Y8894273D01*
X26991698Y8893403D01*
X26975481Y8903502D01*
X26957310Y8909406D01*
X26950128Y8919289D01*
X26939760Y8925747D01*
X26934033Y8941443D01*
X26921346Y8958906D01*
X26916753Y8982442D01*
X26916501Y8985967D01*
X26916501Y9105620D01*
X26907288Y9140000D01*
X26885559Y9221099D01*
X26882123Y9233924D01*
X26882122Y9233925D01*
X26882121Y9233930D01*
X26815702Y9348971D01*
X24076972Y12087701D01*
X24035285Y12111768D01*
X23985908Y12140277D01*
X23985880Y12140291D01*
X23985858Y12140305D01*
X23961932Y12154119D01*
X23833621Y12188500D01*
X23833619Y12188500D01*
X15235978Y12188500D01*
X15177787Y12207407D01*
X15165974Y12217496D01*
X13995496Y13387974D01*
X13967719Y13442491D01*
X13966500Y13457978D01*
X13966500Y21148417D01*
X13966500Y21148419D01*
X13932119Y21276730D01*
X13865700Y21391770D01*
X13771770Y21485700D01*
X11649996Y23607474D01*
X11622219Y23661991D01*
X11621000Y23677478D01*
X11621000Y23690843D01*
X11621000Y23690845D01*
X11594138Y23825891D01*
X11541446Y23953101D01*
X11464949Y24067586D01*
X11367586Y24164949D01*
X11253101Y24241446D01*
X11125891Y24294138D01*
X10990845Y24321000D01*
X10853155Y24321000D01*
X10718109Y24294138D01*
X10718107Y24294137D01*
X10590901Y24241447D01*
X10590900Y24241447D01*
X10476414Y24164949D01*
X10379050Y24067585D01*
X10302552Y23953099D01*
X10302552Y23953098D01*
X10285092Y23910945D01*
X10249862Y23825891D01*
X10247414Y23813585D01*
X10223000Y23690847D01*
X304500Y23690847D01*
X304500Y28219066D01*
X1523500Y28219066D01*
X1523500Y26644936D01*
X1523501Y26644929D01*
X1538265Y26570699D01*
X1538266Y26570697D01*
X1594513Y26486519D01*
X1594518Y26486514D01*
X1646105Y26452045D01*
X1678699Y26430266D01*
X1752933Y26415500D01*
X3327063Y26415500D01*
X3327070Y26415501D01*
X3401300Y26430265D01*
X3401302Y26430266D01*
X3485480Y26486513D01*
X3485481Y26486514D01*
X3485484Y26486516D01*
X3541734Y26570699D01*
X3556500Y26644933D01*
X3556499Y28219066D01*
X4063500Y28219066D01*
X4063500Y26644936D01*
X4063501Y26644929D01*
X4078265Y26570699D01*
X4078266Y26570697D01*
X4134513Y26486519D01*
X4134518Y26486514D01*
X4186105Y26452045D01*
X4218699Y26430266D01*
X4292933Y26415500D01*
X5867063Y26415500D01*
X5867070Y26415501D01*
X5941300Y26430265D01*
X5941302Y26430266D01*
X6025480Y26486513D01*
X6025481Y26486514D01*
X6025484Y26486516D01*
X6081734Y26570699D01*
X6096500Y26644933D01*
X6096500Y26828500D01*
X6115407Y26886691D01*
X6164907Y26922655D01*
X6195500Y26927500D01*
X6408417Y26927500D01*
X6408419Y26927500D01*
X6536730Y26961881D01*
X6579220Y26986413D01*
X6579221Y26986413D01*
X6579222Y26986414D01*
X6651770Y27028299D01*
X9801701Y30178230D01*
X9849458Y30260949D01*
X9868119Y30293270D01*
X9902500Y30421581D01*
X9902500Y35691621D01*
X9902500Y36326021D01*
X9921407Y36384212D01*
X9931496Y36396025D01*
X11863975Y38328504D01*
X11918492Y38356281D01*
X11933979Y38357500D01*
X20836209Y38357500D01*
X20960603Y38357500D01*
X21018794Y38338593D01*
X21054758Y38289093D01*
X21059603Y38258500D01*
X21059603Y37950500D01*
X21040696Y37892309D01*
X20991196Y37856345D01*
X20960603Y37851500D01*
X16609000Y37851500D01*
X16568409Y37848306D01*
X16537816Y37843461D01*
X16517827Y37839485D01*
X16425876Y37797095D01*
X16425875Y37797094D01*
X16376379Y37761134D01*
X16376376Y37761131D01*
X16331581Y37719722D01*
X16331580Y37719721D01*
X16282107Y37631379D01*
X16263199Y37573186D01*
X16250500Y37493003D01*
X16250500Y37493000D01*
X16250500Y12799000D01*
X16253694Y12758409D01*
X16257063Y12737138D01*
X16258542Y12727798D01*
X16262513Y12707833D01*
X16262516Y12707824D01*
X16304902Y12615880D01*
X16304905Y12615875D01*
X16340865Y12566379D01*
X16340868Y12566376D01*
X16382277Y12521582D01*
X16382278Y12521580D01*
X16470620Y12472107D01*
X16528814Y12453199D01*
X16528811Y12453199D01*
X16608997Y12440500D01*
X16609000Y12440500D01*
X27007732Y12440500D01*
X27065923Y12421593D01*
X27077736Y12411504D01*
X27703307Y11785932D01*
X27703309Y11785930D01*
X27703308Y11785929D01*
X27787930Y11701308D01*
X27891565Y11641474D01*
X27891569Y11641473D01*
X27915997Y11634927D01*
X28007164Y11610499D01*
X28007166Y11610499D01*
X28132899Y11610499D01*
X28132915Y11610500D01*
X30426543Y11610500D01*
X30539953Y11610500D01*
X30598144Y11591593D01*
X30609957Y11581504D01*
X30669410Y11522050D01*
X30783897Y11445552D01*
X30911104Y11392862D01*
X31046148Y11366000D01*
X31046151Y11366000D01*
X31183843Y11366000D01*
X31273871Y11383908D01*
X31318887Y11392862D01*
X31318888Y11392862D01*
X31446094Y11445552D01*
X31446095Y11445552D01*
X31560581Y11522050D01*
X31657945Y11619414D01*
X31734443Y11733900D01*
X31734443Y11733901D01*
X31787133Y11861107D01*
X31787134Y11861109D01*
X31813996Y11996155D01*
X31813996Y12133845D01*
X31787134Y12268891D01*
X31734442Y12396101D01*
X31657945Y12510586D01*
X31560582Y12607949D01*
X31446097Y12684446D01*
X31318887Y12737138D01*
X31183841Y12764000D01*
X31046151Y12764000D01*
X30911105Y12737138D01*
X30911103Y12737137D01*
X30783897Y12684447D01*
X30783896Y12684447D01*
X30669410Y12607949D01*
X30609957Y12548496D01*
X30555440Y12520719D01*
X30539953Y12519500D01*
X28296268Y12519500D01*
X28238077Y12538407D01*
X28226264Y12548496D01*
X27974496Y12800264D01*
X27946719Y12854781D01*
X27945500Y12870268D01*
X27945500Y13870993D01*
X27945500Y13871000D01*
X27942306Y13911591D01*
X27937461Y13942184D01*
X27933485Y13962173D01*
X27891095Y14054124D01*
X27855131Y14103624D01*
X27813722Y14148419D01*
X27725379Y14197893D01*
X27667188Y14216800D01*
X27587003Y14229500D01*
X27587000Y14229500D01*
X21440500Y14229500D01*
X21382309Y14248407D01*
X21346345Y14297907D01*
X21341500Y14328500D01*
X21341500Y16996067D01*
X38306500Y16996067D01*
X38306500Y13135936D01*
X38306501Y13135929D01*
X38321265Y13061699D01*
X38321266Y13061697D01*
X38377513Y12977519D01*
X38377515Y12977517D01*
X38377516Y12977516D01*
X38461699Y12921266D01*
X38535933Y12906500D01*
X42396063Y12906500D01*
X42396070Y12906501D01*
X42470300Y12921265D01*
X42470302Y12921266D01*
X42554480Y12977513D01*
X42554484Y12977516D01*
X42610734Y13061699D01*
X42625500Y13135933D01*
X42625499Y16996066D01*
X42625499Y16996067D01*
X43306500Y16996067D01*
X43306500Y13135936D01*
X43306501Y13135929D01*
X43321265Y13061699D01*
X43321266Y13061697D01*
X43377513Y12977519D01*
X43377515Y12977517D01*
X43377516Y12977516D01*
X43461699Y12921266D01*
X43535933Y12906500D01*
X47396063Y12906500D01*
X47396070Y12906501D01*
X47470300Y12921265D01*
X47470302Y12921266D01*
X47554480Y12977513D01*
X47554484Y12977516D01*
X47610734Y13061699D01*
X47625500Y13135933D01*
X47625499Y16996066D01*
X47610734Y17070301D01*
X47554484Y17154484D01*
X47470301Y17210734D01*
X47396067Y17225500D01*
X43535934Y17225499D01*
X43535929Y17225498D01*
X43461699Y17210734D01*
X43461697Y17210733D01*
X43461696Y17210732D01*
X43377516Y17154484D01*
X43321266Y17070301D01*
X43306501Y16996070D01*
X43306500Y16996067D01*
X42625499Y16996067D01*
X42610734Y17070301D01*
X42554484Y17154484D01*
X42470301Y17210734D01*
X42396067Y17225500D01*
X38535934Y17225499D01*
X38535929Y17225498D01*
X38461699Y17210734D01*
X38461697Y17210733D01*
X38461696Y17210732D01*
X38377516Y17154484D01*
X38321266Y17070301D01*
X38306501Y16996070D01*
X38306500Y16996067D01*
X21341500Y16996067D01*
X21341500Y21996067D01*
X38306500Y21996067D01*
X38306500Y18135936D01*
X38306501Y18135929D01*
X38321265Y18061699D01*
X38321266Y18061697D01*
X38377513Y17977519D01*
X38377518Y17977514D01*
X38433638Y17940016D01*
X38461699Y17921266D01*
X38535933Y17906500D01*
X42396063Y17906500D01*
X42396070Y17906501D01*
X42470300Y17921265D01*
X42470302Y17921266D01*
X42554480Y17977513D01*
X42554481Y17977514D01*
X42554484Y17977516D01*
X42610734Y18061699D01*
X42625500Y18135933D01*
X42625499Y21996066D01*
X42625499Y21996067D01*
X43306500Y21996067D01*
X43306500Y18135936D01*
X43306501Y18135929D01*
X43321265Y18061699D01*
X43321266Y18061697D01*
X43377513Y17977519D01*
X43377518Y17977514D01*
X43433638Y17940016D01*
X43461699Y17921266D01*
X43535933Y17906500D01*
X47396063Y17906500D01*
X47396070Y17906501D01*
X47470300Y17921265D01*
X47470302Y17921266D01*
X47554480Y17977513D01*
X47554481Y17977514D01*
X47554484Y17977516D01*
X47610734Y18061699D01*
X47625500Y18135933D01*
X47625499Y21996066D01*
X47610734Y22070301D01*
X47554484Y22154484D01*
X47470301Y22210734D01*
X47396067Y22225500D01*
X43535934Y22225499D01*
X43535929Y22225498D01*
X43461699Y22210734D01*
X43461697Y22210733D01*
X43461696Y22210732D01*
X43377516Y22154484D01*
X43321266Y22070301D01*
X43306501Y21996070D01*
X43306500Y21996067D01*
X42625499Y21996067D01*
X42610734Y22070301D01*
X42554484Y22154484D01*
X42470301Y22210734D01*
X42396067Y22225500D01*
X38535934Y22225499D01*
X38535929Y22225498D01*
X38461699Y22210734D01*
X38461697Y22210733D01*
X38461696Y22210732D01*
X38377516Y22154484D01*
X38321266Y22070301D01*
X38306501Y21996070D01*
X38306500Y21996067D01*
X21341500Y21996067D01*
X21341500Y28249656D01*
X21360407Y28307847D01*
X21409907Y28343811D01*
X21471093Y28343811D01*
X21520593Y28307847D01*
X21522815Y28304658D01*
X21555050Y28256414D01*
X21652414Y28159050D01*
X21766901Y28082552D01*
X21894108Y28029862D01*
X22029152Y28003000D01*
X22029155Y28003000D01*
X22166848Y28003000D01*
X22243077Y28018163D01*
X22303839Y28010971D01*
X22348768Y27969438D01*
X22360705Y27909428D01*
X22335089Y27853863D01*
X22332395Y27851061D01*
X22103631Y27622297D01*
X22103630Y27622297D01*
X22028320Y27546986D01*
X22028316Y27546981D01*
X21975067Y27454752D01*
X21975066Y27454748D01*
X21947500Y27351870D01*
X21947500Y27351868D01*
X21947500Y27293318D01*
X21928593Y27235127D01*
X21909537Y27216814D01*
X21910176Y27216037D01*
X21906416Y27212951D01*
X21809052Y27115588D01*
X21732552Y27001099D01*
X21732552Y27001098D01*
X21679862Y26873892D01*
X21679862Y26873890D01*
X21653000Y26738847D01*
X21653000Y26601152D01*
X21679862Y26466109D01*
X21679862Y26466107D01*
X21732552Y26338901D01*
X21732552Y26338900D01*
X21809050Y26224414D01*
X21906414Y26127050D01*
X22020901Y26050552D01*
X22148108Y25997862D01*
X22283152Y25971000D01*
X22283155Y25971000D01*
X22420847Y25971000D01*
X22528914Y25992496D01*
X22555891Y25997862D01*
X22555892Y25997862D01*
X22683098Y26050552D01*
X22683099Y26050552D01*
X22797585Y26127050D01*
X22853497Y26182962D01*
X22908014Y26210739D01*
X22968446Y26201168D01*
X22993504Y26182962D01*
X23077899Y26098567D01*
X23192389Y26022067D01*
X23319595Y25969377D01*
X23324255Y25967964D01*
X23323766Y25966354D01*
X23371077Y25939840D01*
X23396676Y25884267D01*
X23384721Y25824261D01*
X23368363Y25802657D01*
X22611631Y25045925D01*
X22611630Y25045925D01*
X22536320Y24970614D01*
X22536316Y24970609D01*
X22483067Y24878380D01*
X22483066Y24878376D01*
X22455500Y24775498D01*
X22455500Y24775496D01*
X22455500Y23991318D01*
X22436593Y23933127D01*
X22417537Y23914814D01*
X22418176Y23914037D01*
X22414416Y23910951D01*
X22317052Y23813588D01*
X22240552Y23699099D01*
X22240552Y23699098D01*
X22187862Y23571892D01*
X22187862Y23571890D01*
X22161000Y23436847D01*
X22161000Y23299152D01*
X22187862Y23164109D01*
X22187862Y23164107D01*
X22240552Y23036901D01*
X22240552Y23036900D01*
X22317050Y22922414D01*
X22414414Y22825050D01*
X22528901Y22748552D01*
X22656108Y22695862D01*
X22791152Y22669000D01*
X22791155Y22669000D01*
X22928847Y22669000D01*
X23018875Y22686908D01*
X23063891Y22695862D01*
X23063892Y22695862D01*
X23191098Y22748552D01*
X23191099Y22748552D01*
X23305585Y22825050D01*
X23402949Y22922414D01*
X23479447Y23036900D01*
X23479447Y23036901D01*
X23532137Y23164107D01*
X23532138Y23164109D01*
X23559000Y23299155D01*
X23559000Y23436845D01*
X23532138Y23571891D01*
X23479446Y23699101D01*
X23402949Y23813586D01*
X23305586Y23910949D01*
X23305582Y23910951D01*
X23301824Y23914037D01*
X23303210Y23915726D01*
X23270634Y23957012D01*
X23264500Y23991318D01*
X23264500Y24513687D01*
X23283407Y24571878D01*
X23293496Y24583691D01*
X24084741Y25374936D01*
X25070692Y26360887D01*
X25125207Y26388663D01*
X25185639Y26379092D01*
X25228904Y26335827D01*
X25232158Y26328768D01*
X25274918Y26225535D01*
X25351415Y26111050D01*
X25448779Y26013686D01*
X25563266Y25937188D01*
X25690473Y25884498D01*
X25825517Y25857636D01*
X25825520Y25857636D01*
X25963212Y25857636D01*
X26053240Y25875544D01*
X26098256Y25884498D01*
X26098258Y25884499D01*
X26102906Y25885909D01*
X26103258Y25884747D01*
X26158825Y25889115D01*
X26210991Y25857141D01*
X26234401Y25800611D01*
X26220111Y25741117D01*
X26205709Y25722849D01*
X24784753Y24301893D01*
X24784752Y24301893D01*
X24724307Y24241447D01*
X24713724Y24230864D01*
X24663499Y24143871D01*
X24637500Y24046842D01*
X24637500Y24046840D01*
X24637500Y24006686D01*
X24618593Y23948495D01*
X24593503Y23924372D01*
X24573414Y23910949D01*
X24573410Y23910945D01*
X24476050Y23813585D01*
X24399552Y23699099D01*
X24399552Y23699098D01*
X24346862Y23571892D01*
X24346862Y23571890D01*
X24320000Y23436847D01*
X24320000Y23299152D01*
X24346862Y23164109D01*
X24346862Y23164107D01*
X24399552Y23036901D01*
X24399552Y23036900D01*
X24476050Y22922414D01*
X24573414Y22825050D01*
X24687901Y22748552D01*
X24815108Y22695862D01*
X24950152Y22669000D01*
X24950155Y22669000D01*
X25087847Y22669000D01*
X25177875Y22686908D01*
X25222891Y22695862D01*
X25222892Y22695862D01*
X25350098Y22748552D01*
X25350099Y22748552D01*
X25464585Y22825050D01*
X25520496Y22880961D01*
X25575013Y22908738D01*
X25635445Y22899167D01*
X25660504Y22880961D01*
X25716414Y22825050D01*
X25830901Y22748552D01*
X25958108Y22695862D01*
X26093152Y22669000D01*
X26093155Y22669000D01*
X26230847Y22669000D01*
X26365887Y22695861D01*
X26365891Y22695862D01*
X26384133Y22703418D01*
X26445128Y22708217D01*
X26497297Y22676247D01*
X26513480Y22649838D01*
X26564884Y22525735D01*
X26564884Y22525734D01*
X26641382Y22411248D01*
X26738746Y22313884D01*
X26853233Y22237386D01*
X26980440Y22184696D01*
X27115484Y22157834D01*
X27115487Y22157834D01*
X27253179Y22157834D01*
X27343207Y22175742D01*
X27388223Y22184696D01*
X27388224Y22184696D01*
X27515430Y22237386D01*
X27515431Y22237386D01*
X27629917Y22313884D01*
X27727277Y22411244D01*
X27727281Y22411248D01*
X27740703Y22431336D01*
X27788753Y22469215D01*
X27823018Y22475334D01*
X41195057Y22475334D01*
X41195059Y22475334D01*
X41292088Y22501333D01*
X41379081Y22551558D01*
X41379083Y22551560D01*
X41450110Y22622586D01*
X41450110Y22622587D01*
X43068970Y24241447D01*
X44755276Y25927753D01*
X44780245Y25971000D01*
X44805499Y26014741D01*
X44805499Y26014742D01*
X44805502Y26014747D01*
X44825164Y26088125D01*
X44858488Y26139438D01*
X44915609Y26161364D01*
X44920790Y26161500D01*
X45237063Y26161500D01*
X45237070Y26161501D01*
X45311300Y26176265D01*
X45311302Y26176266D01*
X45395480Y26232513D01*
X45395481Y26232514D01*
X45395484Y26232516D01*
X45451734Y26316699D01*
X45466500Y26390933D01*
X45466499Y27965066D01*
X45973500Y27965066D01*
X45973500Y26390936D01*
X45973501Y26390929D01*
X45988265Y26316699D01*
X45988266Y26316697D01*
X46044513Y26232519D01*
X46044518Y26232514D01*
X46077107Y26210739D01*
X46128699Y26176266D01*
X46202933Y26161500D01*
X47777063Y26161500D01*
X47777070Y26161501D01*
X47851300Y26176265D01*
X47851302Y26176266D01*
X47935480Y26232513D01*
X47935481Y26232514D01*
X47935484Y26232516D01*
X47991734Y26316699D01*
X48006500Y26390933D01*
X48006499Y27965066D01*
X47991734Y28039301D01*
X47935484Y28123484D01*
X47851301Y28179734D01*
X47777067Y28194500D01*
X46202934Y28194499D01*
X46202929Y28194498D01*
X46128699Y28179734D01*
X46128697Y28179733D01*
X46067704Y28138978D01*
X46044516Y28123484D01*
X45988266Y28039301D01*
X45973501Y27965071D01*
X45973500Y27965066D01*
X45466499Y27965066D01*
X45451734Y28039301D01*
X45395484Y28123484D01*
X45311301Y28179734D01*
X45237067Y28194500D01*
X43662934Y28194499D01*
X43662929Y28194498D01*
X43588699Y28179734D01*
X43588697Y28179733D01*
X43527704Y28138978D01*
X43504516Y28123484D01*
X43448266Y28039301D01*
X43433501Y27965071D01*
X43433500Y27965066D01*
X43433500Y26390936D01*
X43433501Y26390929D01*
X43448265Y26316699D01*
X43448266Y26316697D01*
X43504513Y26232519D01*
X43504518Y26232514D01*
X43537107Y26210739D01*
X43588699Y26176266D01*
X43648166Y26164437D01*
X43662932Y26161500D01*
X43662933Y26161500D01*
X43670969Y26161500D01*
X43729160Y26142593D01*
X43765124Y26093093D01*
X43765124Y26031907D01*
X43740973Y25992496D01*
X41015807Y23267330D01*
X40961290Y23239553D01*
X40945803Y23238334D01*
X27823018Y23238334D01*
X27764827Y23257241D01*
X27740703Y23282332D01*
X27727281Y23302420D01*
X27629918Y23399783D01*
X27515433Y23476280D01*
X27388223Y23528972D01*
X27253177Y23555834D01*
X27160891Y23555834D01*
X27102700Y23574741D01*
X27066736Y23624241D01*
X27066736Y23685427D01*
X27090887Y23724838D01*
X29094553Y25728504D01*
X29149070Y25756281D01*
X29164557Y25757500D01*
X33174501Y25757500D01*
X33232692Y25738593D01*
X33268656Y25689093D01*
X33273501Y25658500D01*
X33273501Y25374929D01*
X33288265Y25300699D01*
X33288266Y25300697D01*
X33344513Y25216519D01*
X33344518Y25216514D01*
X33400638Y25179016D01*
X33428699Y25160266D01*
X33502933Y25145500D01*
X35077063Y25145500D01*
X35077070Y25145501D01*
X35151300Y25160265D01*
X35151302Y25160266D01*
X35235480Y25216513D01*
X35235481Y25216514D01*
X35235484Y25216516D01*
X35291734Y25300699D01*
X35306500Y25374933D01*
X35306499Y26949066D01*
X35813500Y26949066D01*
X35813500Y25374936D01*
X35813501Y25374929D01*
X35828265Y25300699D01*
X35828266Y25300697D01*
X35884513Y25216519D01*
X35884518Y25216514D01*
X35940638Y25179016D01*
X35968699Y25160266D01*
X36042933Y25145500D01*
X37617063Y25145500D01*
X37617070Y25145501D01*
X37691300Y25160265D01*
X37691302Y25160266D01*
X37775480Y25216513D01*
X37775481Y25216514D01*
X37775484Y25216516D01*
X37831734Y25300699D01*
X37846500Y25374933D01*
X37846499Y26949066D01*
X37831734Y27023301D01*
X37775484Y27107484D01*
X37691301Y27163734D01*
X37617067Y27178500D01*
X36042934Y27178499D01*
X36042929Y27178498D01*
X35968699Y27163734D01*
X35968697Y27163733D01*
X35968696Y27163732D01*
X35884516Y27107484D01*
X35828266Y27023301D01*
X35823850Y27001098D01*
X35813500Y26949066D01*
X35306499Y26949066D01*
X35291734Y27023301D01*
X35235484Y27107484D01*
X35151301Y27163734D01*
X35077067Y27178500D01*
X33502934Y27178499D01*
X33502929Y27178498D01*
X33428699Y27163734D01*
X33428697Y27163733D01*
X33428696Y27163732D01*
X33344516Y27107484D01*
X33288266Y27023301D01*
X33283850Y27001099D01*
X33273500Y26949067D01*
X33273500Y26665500D01*
X33254593Y26607309D01*
X33205093Y26571345D01*
X33174500Y26566500D01*
X29009253Y26566500D01*
X28902747Y26566500D01*
X28799869Y26538934D01*
X28799866Y26538932D01*
X28799864Y26538932D01*
X28707635Y26485683D01*
X28707634Y26485682D01*
X28707631Y26485680D01*
X27438470Y25216519D01*
X26316727Y24094776D01*
X26262210Y24066999D01*
X26235779Y24067525D01*
X26235681Y24066523D01*
X26230848Y24066999D01*
X26230845Y24067000D01*
X26093155Y24067000D01*
X25958109Y24040138D01*
X25830899Y23987446D01*
X25818172Y23978942D01*
X25759287Y23962334D01*
X25701883Y23983511D01*
X25667889Y24034384D01*
X25670291Y24095522D01*
X25693168Y24131262D01*
X29853409Y28291504D01*
X29907926Y28319281D01*
X29923413Y28320500D01*
X33174501Y28320500D01*
X33232692Y28301593D01*
X33268656Y28252093D01*
X33273501Y28221500D01*
X33273501Y27914929D01*
X33288265Y27840699D01*
X33288266Y27840697D01*
X33344513Y27756519D01*
X33344518Y27756514D01*
X33400638Y27719016D01*
X33428699Y27700266D01*
X33502933Y27685500D01*
X35077063Y27685500D01*
X35077070Y27685501D01*
X35151300Y27700265D01*
X35151302Y27700266D01*
X35235480Y27756513D01*
X35235481Y27756514D01*
X35235484Y27756516D01*
X35291734Y27840699D01*
X35306500Y27914933D01*
X35306499Y29364500D01*
X35325406Y29422691D01*
X35374906Y29458655D01*
X35405499Y29463500D01*
X35714500Y29463500D01*
X35772691Y29444593D01*
X35808655Y29395093D01*
X35813500Y29364500D01*
X35813500Y27914936D01*
X35813501Y27914929D01*
X35828265Y27840699D01*
X35828266Y27840697D01*
X35884513Y27756519D01*
X35884518Y27756514D01*
X35940638Y27719016D01*
X35968699Y27700266D01*
X36042933Y27685500D01*
X37617063Y27685500D01*
X37617070Y27685501D01*
X37691300Y27700265D01*
X37691302Y27700266D01*
X37775480Y27756513D01*
X37775481Y27756514D01*
X37775484Y27756516D01*
X37831734Y27840699D01*
X37846500Y27914933D01*
X37846499Y29364500D01*
X37865406Y29422691D01*
X37914906Y29458655D01*
X37945499Y29463500D01*
X43107970Y29463500D01*
X43109850Y29462889D01*
X43111754Y29463428D01*
X43122100Y29458908D01*
X43166161Y29444593D01*
X43169179Y29442310D01*
X43173807Y29438668D01*
X43199753Y29412724D01*
X43220060Y29401000D01*
X43226193Y29397458D01*
X43226197Y29397456D01*
X43286747Y29362497D01*
X43360125Y29342835D01*
X43411439Y29309511D01*
X43433365Y29252389D01*
X43433501Y29247209D01*
X43433501Y28930929D01*
X43448265Y28856699D01*
X43448266Y28856697D01*
X43504513Y28772519D01*
X43504518Y28772514D01*
X43560638Y28735016D01*
X43588699Y28716266D01*
X43662933Y28701500D01*
X45237063Y28701500D01*
X45237070Y28701501D01*
X45311300Y28716265D01*
X45311302Y28716266D01*
X45395480Y28772513D01*
X45395481Y28772514D01*
X45395484Y28772516D01*
X45451734Y28856699D01*
X45466500Y28930933D01*
X45466499Y30505066D01*
X45973500Y30505066D01*
X45973500Y28930936D01*
X45973501Y28930929D01*
X45988265Y28856699D01*
X45988266Y28856697D01*
X46044513Y28772519D01*
X46044518Y28772514D01*
X46100638Y28735016D01*
X46128699Y28716266D01*
X46202933Y28701500D01*
X47777063Y28701500D01*
X47777070Y28701501D01*
X47851300Y28716265D01*
X47851302Y28716266D01*
X47935480Y28772513D01*
X47935481Y28772514D01*
X47935484Y28772516D01*
X47991734Y28856699D01*
X48006500Y28930933D01*
X48006499Y30505066D01*
X47991734Y30579301D01*
X47935484Y30663484D01*
X47851301Y30719734D01*
X47777067Y30734500D01*
X46202934Y30734499D01*
X46202929Y30734498D01*
X46128699Y30719734D01*
X46128697Y30719733D01*
X46128696Y30719732D01*
X46044516Y30663484D01*
X45988266Y30579301D01*
X45973501Y30505071D01*
X45973500Y30505066D01*
X45466499Y30505066D01*
X45451734Y30579301D01*
X45395484Y30663484D01*
X45311301Y30719734D01*
X45237067Y30734500D01*
X43662934Y30734499D01*
X43662929Y30734498D01*
X43588699Y30719734D01*
X43588697Y30719733D01*
X43588696Y30719732D01*
X43504516Y30663484D01*
X43448266Y30579301D01*
X43433501Y30505071D01*
X43433500Y30505067D01*
X43433500Y30325501D01*
X43428654Y30310588D01*
X43428655Y30294909D01*
X43419438Y30282223D01*
X43414593Y30267310D01*
X43401907Y30258093D01*
X43392692Y30245409D01*
X43377780Y30240563D01*
X43365093Y30231346D01*
X43334501Y30226501D01*
X43256774Y30226501D01*
X43256773Y30226500D01*
X43237081Y30226500D01*
X37913917Y30226500D01*
X37855726Y30245407D01*
X37819762Y30294907D01*
X37819762Y30356093D01*
X37831597Y30380494D01*
X37831734Y30380699D01*
X37846500Y30454933D01*
X37846499Y32029066D01*
X37831734Y32103301D01*
X37775484Y32187484D01*
X37691301Y32243734D01*
X37617067Y32258500D01*
X36042934Y32258499D01*
X36042929Y32258498D01*
X35968699Y32243734D01*
X35968697Y32243733D01*
X35968696Y32243732D01*
X35884516Y32187484D01*
X35828266Y32103301D01*
X35813501Y32029070D01*
X35813500Y32029066D01*
X35813500Y30454936D01*
X35813501Y30454929D01*
X35828265Y30380699D01*
X35828266Y30380698D01*
X35828399Y30380500D01*
X35828506Y30380118D01*
X35831998Y30371689D01*
X35831000Y30371275D01*
X35845006Y30321611D01*
X35823827Y30264208D01*
X35772953Y30230216D01*
X35746082Y30226500D01*
X35373917Y30226500D01*
X35315726Y30245407D01*
X35279762Y30294907D01*
X35279762Y30356093D01*
X35291597Y30380494D01*
X35291734Y30380699D01*
X35306500Y30454933D01*
X35306499Y32029066D01*
X35291734Y32103301D01*
X35235484Y32187484D01*
X35151301Y32243734D01*
X35077067Y32258500D01*
X33502934Y32258499D01*
X33502929Y32258498D01*
X33428699Y32243734D01*
X33428697Y32243733D01*
X33428696Y32243732D01*
X33344516Y32187484D01*
X33288266Y32103301D01*
X33273501Y32029070D01*
X33273500Y32029067D01*
X33273500Y31745500D01*
X33254593Y31687309D01*
X33205093Y31651345D01*
X33174500Y31646500D01*
X32311253Y31646500D01*
X32204747Y31646500D01*
X32101869Y31618934D01*
X32009631Y31565681D01*
X31609060Y31165109D01*
X31334447Y30890496D01*
X31279930Y30862719D01*
X31264443Y30861500D01*
X30104455Y30861500D01*
X30046264Y30880407D01*
X30010300Y30929907D01*
X30010300Y30991093D01*
X30034451Y31030504D01*
X32352451Y33348504D01*
X32406968Y33376281D01*
X32422455Y33377500D01*
X33174501Y33377500D01*
X33232692Y33358593D01*
X33268656Y33309093D01*
X33273501Y33278500D01*
X33273501Y32994929D01*
X33288265Y32920699D01*
X33288266Y32920697D01*
X33344513Y32836519D01*
X33344518Y32836514D01*
X33400638Y32799016D01*
X33428699Y32780266D01*
X33502933Y32765500D01*
X35077063Y32765500D01*
X35077070Y32765501D01*
X35151300Y32780265D01*
X35151302Y32780266D01*
X35235480Y32836513D01*
X35235481Y32836514D01*
X35235484Y32836516D01*
X35291734Y32920699D01*
X35306500Y32994933D01*
X35306499Y34569066D01*
X35813500Y34569066D01*
X35813500Y32994936D01*
X35813501Y32994929D01*
X35828265Y32920699D01*
X35828266Y32920697D01*
X35884513Y32836519D01*
X35884518Y32836514D01*
X35940638Y32799016D01*
X35968699Y32780266D01*
X36042933Y32765500D01*
X37617063Y32765500D01*
X37617070Y32765501D01*
X37691300Y32780265D01*
X37691302Y32780266D01*
X37775480Y32836513D01*
X37775481Y32836514D01*
X37775484Y32836516D01*
X37831734Y32920699D01*
X37846500Y32994933D01*
X37846499Y34569066D01*
X37831734Y34643301D01*
X37775484Y34727484D01*
X37691301Y34783734D01*
X37617067Y34798500D01*
X36042934Y34798499D01*
X36042929Y34798498D01*
X35968699Y34783734D01*
X35968697Y34783733D01*
X35968696Y34783732D01*
X35884516Y34727484D01*
X35828266Y34643301D01*
X35813501Y34569071D01*
X35813500Y34569066D01*
X35306499Y34569066D01*
X35291734Y34643301D01*
X35235484Y34727484D01*
X35151301Y34783734D01*
X35077067Y34798500D01*
X33502934Y34798499D01*
X33502929Y34798498D01*
X33428699Y34783734D01*
X33428697Y34783733D01*
X33428696Y34783732D01*
X33344516Y34727484D01*
X33288266Y34643301D01*
X33273501Y34569071D01*
X33273500Y34569067D01*
X33273500Y34285500D01*
X33254593Y34227309D01*
X33205093Y34191345D01*
X33174500Y34186500D01*
X32267151Y34186500D01*
X32160645Y34186500D01*
X32057767Y34158934D01*
X32057764Y34158932D01*
X32057762Y34158932D01*
X31965533Y34105683D01*
X31965532Y34105682D01*
X31965529Y34105680D01*
X29024958Y31165109D01*
X26252491Y28392642D01*
X26197974Y28364865D01*
X26182487Y28363646D01*
X24894372Y28363646D01*
X24787866Y28363646D01*
X24684988Y28336080D01*
X24592750Y28282827D01*
X24066443Y27756519D01*
X23678215Y27368291D01*
X23623698Y27340514D01*
X23597267Y27341040D01*
X23597169Y27340038D01*
X23592336Y27340514D01*
X23592333Y27340515D01*
X23454643Y27340515D01*
X23319597Y27313653D01*
X23319595Y27313652D01*
X23192389Y27260962D01*
X23192388Y27260962D01*
X23105987Y27203230D01*
X23047098Y27186621D01*
X22989695Y27207799D01*
X22955702Y27258672D01*
X22958104Y27319810D01*
X22980981Y27355549D01*
X24782936Y29157504D01*
X24837453Y29185281D01*
X24852940Y29186500D01*
X26550251Y29186500D01*
X26550253Y29186500D01*
X26653131Y29214066D01*
X26653135Y29214067D01*
X26745364Y29267316D01*
X26745365Y29267317D01*
X26745366Y29267318D01*
X26745369Y29267320D01*
X33104496Y35626447D01*
X33159013Y35654224D01*
X33219445Y35644653D01*
X33262710Y35601388D01*
X33273500Y35556447D01*
X33273500Y35534937D01*
X33273501Y35534929D01*
X33288265Y35460699D01*
X33288266Y35460697D01*
X33344513Y35376519D01*
X33344518Y35376514D01*
X33400638Y35339016D01*
X33428699Y35320266D01*
X33502933Y35305500D01*
X35077063Y35305500D01*
X35077070Y35305501D01*
X35151300Y35320265D01*
X35151302Y35320266D01*
X35235480Y35376513D01*
X35235481Y35376514D01*
X35235484Y35376516D01*
X35291734Y35460699D01*
X35306500Y35534933D01*
X35306499Y37109066D01*
X35291734Y37183301D01*
X35235484Y37267484D01*
X35151301Y37323734D01*
X35077067Y37338500D01*
X33502934Y37338499D01*
X33502929Y37338498D01*
X33428699Y37323734D01*
X33428697Y37323733D01*
X33428696Y37323732D01*
X33344516Y37267484D01*
X33288266Y37183301D01*
X33274248Y37112826D01*
X33273500Y37109067D01*
X33273500Y36825500D01*
X33254593Y36767309D01*
X33205093Y36731345D01*
X33197220Y36729142D01*
X33186015Y36726500D01*
X33174747Y36726500D01*
X33093608Y36704759D01*
X33071868Y36698934D01*
X32979631Y36645680D01*
X29711451Y33377500D01*
X27820975Y31487024D01*
X27766458Y31459247D01*
X27706026Y31468818D01*
X27662761Y31512083D01*
X27653874Y31537710D01*
X27626676Y31674445D01*
X27551678Y31855507D01*
X27442797Y32018458D01*
X27304218Y32157037D01*
X27141267Y32265918D01*
X26960205Y32340916D01*
X26767990Y32379150D01*
X26572010Y32379150D01*
X26379795Y32340916D01*
X26379793Y32340915D01*
X26198735Y32265919D01*
X26198734Y32265919D01*
X26035782Y32157037D01*
X25897202Y32018457D01*
X25788320Y31855505D01*
X25788320Y31855504D01*
X25713324Y31674446D01*
X25713324Y31674444D01*
X25675090Y31482232D01*
X25675090Y31286247D01*
X25713324Y31094035D01*
X25713324Y31094033D01*
X25788320Y30912975D01*
X25788320Y30912974D01*
X25897202Y30750022D01*
X26035782Y30611442D01*
X26198735Y30502560D01*
X26379793Y30427564D01*
X26516526Y30400366D01*
X26569909Y30370469D01*
X26595525Y30314904D01*
X26583588Y30254894D01*
X26567215Y30233264D01*
X26358447Y30024496D01*
X26303930Y29996719D01*
X26288443Y29995500D01*
X24697636Y29995500D01*
X24591130Y29995500D01*
X24488252Y29967934D01*
X24488249Y29967932D01*
X24488247Y29967932D01*
X24396018Y29914683D01*
X24396017Y29914682D01*
X24396014Y29914680D01*
X23667834Y29186500D01*
X22948938Y28467604D01*
X22894421Y28439827D01*
X22833989Y28449398D01*
X22790724Y28492663D01*
X22781153Y28553095D01*
X22781829Y28556889D01*
X22797000Y28633155D01*
X22797000Y28770845D01*
X22770138Y28905891D01*
X22717446Y29033101D01*
X22640949Y29147586D01*
X22543586Y29244949D01*
X22429101Y29321446D01*
X22301891Y29374138D01*
X22166845Y29401000D01*
X22166837Y29401000D01*
X22162009Y29401476D01*
X22162136Y29402775D01*
X22109412Y29419907D01*
X22073448Y29469407D01*
X22068603Y29500000D01*
X22068603Y38258500D01*
X22087510Y38316691D01*
X22137010Y38352655D01*
X22167603Y38357500D01*
X36471223Y38357500D01*
X36529414Y38338593D01*
X36541227Y38328504D01*
X37362227Y37507503D01*
X37390004Y37452986D01*
X37380433Y37392554D01*
X37337168Y37349289D01*
X37292223Y37338499D01*
X36042934Y37338499D01*
X36042929Y37338498D01*
X35968699Y37323734D01*
X35968697Y37323733D01*
X35968696Y37323732D01*
X35884516Y37267484D01*
X35828266Y37183301D01*
X35814248Y37112826D01*
X35813500Y37109066D01*
X35813500Y35534936D01*
X35813501Y35534929D01*
X35828265Y35460699D01*
X35828266Y35460697D01*
X35884513Y35376519D01*
X35884518Y35376514D01*
X35940638Y35339016D01*
X35968699Y35320266D01*
X36042933Y35305500D01*
X37617063Y35305500D01*
X37617070Y35305501D01*
X37691300Y35320265D01*
X37691302Y35320266D01*
X37775480Y35376513D01*
X37775481Y35376514D01*
X37775484Y35376516D01*
X37831734Y35460699D01*
X37846500Y35534933D01*
X37846499Y36784223D01*
X37865406Y36842414D01*
X37914906Y36878378D01*
X37976092Y36878378D01*
X38015502Y36854227D01*
X38470373Y36399356D01*
X38470376Y36399355D01*
X38582504Y36287227D01*
X38610281Y36232710D01*
X38611500Y36217223D01*
X38611500Y31894043D01*
X38592593Y31835852D01*
X38582504Y31824039D01*
X38573050Y31814585D01*
X38496552Y31700099D01*
X38496552Y31700098D01*
X38443862Y31572892D01*
X38443862Y31572890D01*
X38417000Y31437847D01*
X38417000Y31300152D01*
X38443862Y31165109D01*
X38443862Y31165107D01*
X38496552Y31037901D01*
X38496552Y31037900D01*
X38573050Y30923414D01*
X38670414Y30826050D01*
X38784901Y30749552D01*
X38912108Y30696862D01*
X39047152Y30670000D01*
X39047155Y30670000D01*
X39184847Y30670000D01*
X39274875Y30687908D01*
X39319891Y30696862D01*
X39319892Y30696862D01*
X39447098Y30749552D01*
X39447099Y30749552D01*
X39561585Y30826050D01*
X39658949Y30923414D01*
X39735447Y31037900D01*
X39735447Y31037901D01*
X39788137Y31165107D01*
X39788138Y31165109D01*
X39815000Y31300155D01*
X39815000Y31437845D01*
X39788138Y31572891D01*
X39735446Y31700101D01*
X39658949Y31814586D01*
X39649496Y31824039D01*
X39621719Y31878556D01*
X39620500Y31894043D01*
X39620500Y36533619D01*
X39620500Y36533621D01*
X39586119Y36661932D01*
X39548841Y36726499D01*
X39519701Y36776972D01*
X39183847Y37112826D01*
X37030972Y39265701D01*
X36958039Y39307808D01*
X36915932Y39332119D01*
X36787621Y39366500D01*
X21630522Y39366500D01*
X20969047Y39366500D01*
X11617581Y39366500D01*
X11489270Y39332119D01*
X11374230Y39265701D01*
X8994299Y36885770D01*
X8994297Y36885767D01*
X8994295Y36885765D01*
X8952190Y36812837D01*
X8927883Y36770734D01*
X8927881Y36770730D01*
X8893500Y36642419D01*
X8893500Y36642417D01*
X8893500Y30737979D01*
X8874593Y30679788D01*
X8864504Y30667975D01*
X6265503Y28068974D01*
X6210986Y28041197D01*
X6150554Y28050768D01*
X6107289Y28094033D01*
X6096499Y28138978D01*
X6096499Y28219063D01*
X6096498Y28219067D01*
X6081734Y28293301D01*
X6025484Y28377484D01*
X5941301Y28433734D01*
X5867067Y28448500D01*
X4292934Y28448499D01*
X4292929Y28448498D01*
X4218699Y28433734D01*
X4218697Y28433733D01*
X4218696Y28433732D01*
X4134516Y28377484D01*
X4078266Y28293301D01*
X4069585Y28249656D01*
X4063500Y28219066D01*
X3556499Y28219066D01*
X3541734Y28293301D01*
X3485484Y28377484D01*
X3401301Y28433734D01*
X3327067Y28448500D01*
X1752934Y28448499D01*
X1752929Y28448498D01*
X1678699Y28433734D01*
X1678697Y28433733D01*
X1678696Y28433732D01*
X1594516Y28377484D01*
X1538266Y28293301D01*
X1529585Y28249656D01*
X1523500Y28219066D01*
X304500Y28219066D01*
X304500Y40236500D01*
X323407Y40294691D01*
X372907Y40330655D01*
X403500Y40335500D01*
X50396500Y40335500D01*
X50454691Y40316593D01*
G37*
%TD.AperFunction*%
%TD*%
M02*
