%TF.GenerationSoftware,KiCad,Pcbnew,9.0.1+1*%
%TF.CreationDate,2025-08-19T22:17:54+00:00*%
%TF.ProjectId,HBSTEP01,48425354-4550-4303-912e-6b696361645f,rev?*%
%TF.SameCoordinates,Original*%
%TF.FileFunction,Legend,Top*%
%TF.FilePolarity,Positive*%
%FSLAX46Y46*%
G04 Gerber Fmt 4.6, Leading zero omitted, Abs format (unit mm)*
G04 Created by KiCad (PCBNEW 9.0.1+1) date 2025-08-19 22:17:54*
%MOMM*%
%LPD*%
G01*
G04 APERTURE LIST*
%ADD10C,0.200000*%
%ADD11C,0.300000*%
%ADD12C,0.150000*%
%ADD13R,1.524000X1.524000*%
%ADD14R,3.810000X3.810000*%
%ADD15C,1.480820*%
G04 APERTURE END LIST*
D10*
X26924000Y10160000D02*
X26416000Y10160000D01*
X27940000Y9144000D02*
X26924000Y10160000D01*
D11*
X18051632Y8441671D02*
X18551632Y6941671D01*
X18551632Y6941671D02*
X19051632Y8441671D01*
X20408774Y6941671D02*
X19908774Y7655957D01*
X19551631Y6941671D02*
X19551631Y8441671D01*
X19551631Y8441671D02*
X20123060Y8441671D01*
X20123060Y8441671D02*
X20265917Y8370242D01*
X20265917Y8370242D02*
X20337346Y8298814D01*
X20337346Y8298814D02*
X20408774Y8155957D01*
X20408774Y8155957D02*
X20408774Y7941671D01*
X20408774Y7941671D02*
X20337346Y7798814D01*
X20337346Y7798814D02*
X20265917Y7727385D01*
X20265917Y7727385D02*
X20123060Y7655957D01*
X20123060Y7655957D02*
X19551631Y7655957D01*
X21051631Y7727385D02*
X21551631Y7727385D01*
X21765917Y6941671D02*
X21051631Y6941671D01*
X21051631Y6941671D02*
X21051631Y8441671D01*
X21051631Y8441671D02*
X21765917Y8441671D01*
X23194489Y8370242D02*
X23051632Y8441671D01*
X23051632Y8441671D02*
X22837346Y8441671D01*
X22837346Y8441671D02*
X22623060Y8370242D01*
X22623060Y8370242D02*
X22480203Y8227385D01*
X22480203Y8227385D02*
X22408774Y8084528D01*
X22408774Y8084528D02*
X22337346Y7798814D01*
X22337346Y7798814D02*
X22337346Y7584528D01*
X22337346Y7584528D02*
X22408774Y7298814D01*
X22408774Y7298814D02*
X22480203Y7155957D01*
X22480203Y7155957D02*
X22623060Y7013100D01*
X22623060Y7013100D02*
X22837346Y6941671D01*
X22837346Y6941671D02*
X22980203Y6941671D01*
X22980203Y6941671D02*
X23194489Y7013100D01*
X23194489Y7013100D02*
X23265917Y7084528D01*
X23265917Y7084528D02*
X23265917Y7584528D01*
X23265917Y7584528D02*
X22980203Y7584528D01*
X42135900Y28465632D02*
X42207328Y28679918D01*
X42207328Y28679918D02*
X42207328Y29037060D01*
X42207328Y29037060D02*
X42135900Y29179918D01*
X42135900Y29179918D02*
X42064471Y29251346D01*
X42064471Y29251346D02*
X41921614Y29322775D01*
X41921614Y29322775D02*
X41778757Y29322775D01*
X41778757Y29322775D02*
X41635900Y29251346D01*
X41635900Y29251346D02*
X41564471Y29179918D01*
X41564471Y29179918D02*
X41493042Y29037060D01*
X41493042Y29037060D02*
X41421614Y28751346D01*
X41421614Y28751346D02*
X41350185Y28608489D01*
X41350185Y28608489D02*
X41278757Y28537060D01*
X41278757Y28537060D02*
X41135900Y28465632D01*
X41135900Y28465632D02*
X40993042Y28465632D01*
X40993042Y28465632D02*
X40850185Y28537060D01*
X40850185Y28537060D02*
X40778757Y28608489D01*
X40778757Y28608489D02*
X40707328Y28751346D01*
X40707328Y28751346D02*
X40707328Y29108489D01*
X40707328Y29108489D02*
X40778757Y29322775D01*
X41493042Y30251346D02*
X42207328Y30251346D01*
X40707328Y29751346D02*
X41493042Y30251346D01*
X41493042Y30251346D02*
X40707328Y30751346D01*
X42207328Y31251345D02*
X40707328Y31251345D01*
X40707328Y31251345D02*
X42207328Y32108488D01*
X42207328Y32108488D02*
X40707328Y32108488D01*
X42064471Y33679917D02*
X42135900Y33608489D01*
X42135900Y33608489D02*
X42207328Y33394203D01*
X42207328Y33394203D02*
X42207328Y33251346D01*
X42207328Y33251346D02*
X42135900Y33037060D01*
X42135900Y33037060D02*
X41993042Y32894203D01*
X41993042Y32894203D02*
X41850185Y32822774D01*
X41850185Y32822774D02*
X41564471Y32751346D01*
X41564471Y32751346D02*
X41350185Y32751346D01*
X41350185Y32751346D02*
X41064471Y32822774D01*
X41064471Y32822774D02*
X40921614Y32894203D01*
X40921614Y32894203D02*
X40778757Y33037060D01*
X40778757Y33037060D02*
X40707328Y33251346D01*
X40707328Y33251346D02*
X40707328Y33394203D01*
X40707328Y33394203D02*
X40778757Y33608489D01*
X40778757Y33608489D02*
X40850185Y33679917D01*
X42735905Y11851146D02*
X43059714Y11851146D01*
X43059714Y11851146D02*
X43221619Y11770194D01*
X43221619Y11770194D02*
X43383524Y11608289D01*
X43383524Y11608289D02*
X43464476Y11284479D01*
X43464476Y11284479D02*
X43464476Y10717813D01*
X43464476Y10717813D02*
X43383524Y10394003D01*
X43383524Y10394003D02*
X43221619Y10232099D01*
X43221619Y10232099D02*
X43059714Y10151146D01*
X43059714Y10151146D02*
X42735905Y10151146D01*
X42735905Y10151146D02*
X42574000Y10232099D01*
X42574000Y10232099D02*
X42412095Y10394003D01*
X42412095Y10394003D02*
X42331143Y10717813D01*
X42331143Y10717813D02*
X42331143Y11284479D01*
X42331143Y11284479D02*
X42412095Y11608289D01*
X42412095Y11608289D02*
X42574000Y11770194D01*
X42574000Y11770194D02*
X42735905Y11851146D01*
X44193047Y11851146D02*
X44193047Y10474956D01*
X44193047Y10474956D02*
X44274000Y10313051D01*
X44274000Y10313051D02*
X44354952Y10232099D01*
X44354952Y10232099D02*
X44516857Y10151146D01*
X44516857Y10151146D02*
X44840666Y10151146D01*
X44840666Y10151146D02*
X45002571Y10232099D01*
X45002571Y10232099D02*
X45083524Y10313051D01*
X45083524Y10313051D02*
X45164476Y10474956D01*
X45164476Y10474956D02*
X45164476Y11851146D01*
X45731142Y11851146D02*
X46702571Y11851146D01*
X46216857Y10151146D02*
X46216857Y11851146D01*
X48159714Y10151146D02*
X47188285Y10151146D01*
X47673999Y10151146D02*
X47673999Y11851146D01*
X47673999Y11851146D02*
X47512095Y11608289D01*
X47512095Y11608289D02*
X47350190Y11446384D01*
X47350190Y11446384D02*
X47188285Y11365432D01*
X48807333Y10636860D02*
X49616857Y10636860D01*
X48645428Y10151146D02*
X49212095Y11851146D01*
X49212095Y11851146D02*
X49778762Y10151146D01*
X19408775Y6155671D02*
X19908775Y4655671D01*
X19908775Y4655671D02*
X20408775Y6155671D01*
X20908774Y4655671D02*
X20908774Y6155671D01*
X20908774Y6155671D02*
X21265917Y6155671D01*
X21265917Y6155671D02*
X21480203Y6084242D01*
X21480203Y6084242D02*
X21623060Y5941385D01*
X21623060Y5941385D02*
X21694489Y5798528D01*
X21694489Y5798528D02*
X21765917Y5512814D01*
X21765917Y5512814D02*
X21765917Y5298528D01*
X21765917Y5298528D02*
X21694489Y5012814D01*
X21694489Y5012814D02*
X21623060Y4869957D01*
X21623060Y4869957D02*
X21480203Y4727100D01*
X21480203Y4727100D02*
X21265917Y4655671D01*
X21265917Y4655671D02*
X20908774Y4655671D01*
X22408774Y4655671D02*
X22408774Y6155671D01*
X22408774Y6155671D02*
X22765917Y6155671D01*
X22765917Y6155671D02*
X22980203Y6084242D01*
X22980203Y6084242D02*
X23123060Y5941385D01*
X23123060Y5941385D02*
X23194489Y5798528D01*
X23194489Y5798528D02*
X23265917Y5512814D01*
X23265917Y5512814D02*
X23265917Y5298528D01*
X23265917Y5298528D02*
X23194489Y5012814D01*
X23194489Y5012814D02*
X23123060Y4869957D01*
X23123060Y4869957D02*
X22980203Y4727100D01*
X22980203Y4727100D02*
X22765917Y4655671D01*
X22765917Y4655671D02*
X22408774Y4655671D01*
X28171775Y29023671D02*
X29243203Y29023671D01*
X28600346Y29666528D02*
X28171775Y27737957D01*
X29100346Y28380814D02*
X28028918Y28380814D01*
X28671775Y27737957D02*
X29100346Y29666528D01*
X30600346Y28166528D02*
X30528918Y28095100D01*
X30528918Y28095100D02*
X30314632Y28023671D01*
X30314632Y28023671D02*
X30171775Y28023671D01*
X30171775Y28023671D02*
X29957489Y28095100D01*
X29957489Y28095100D02*
X29814632Y28237957D01*
X29814632Y28237957D02*
X29743203Y28380814D01*
X29743203Y28380814D02*
X29671775Y28666528D01*
X29671775Y28666528D02*
X29671775Y28880814D01*
X29671775Y28880814D02*
X29743203Y29166528D01*
X29743203Y29166528D02*
X29814632Y29309385D01*
X29814632Y29309385D02*
X29957489Y29452242D01*
X29957489Y29452242D02*
X30171775Y29523671D01*
X30171775Y29523671D02*
X30314632Y29523671D01*
X30314632Y29523671D02*
X30528918Y29452242D01*
X30528918Y29452242D02*
X30600346Y29380814D01*
X31171775Y28095100D02*
X31386061Y28023671D01*
X31386061Y28023671D02*
X31743203Y28023671D01*
X31743203Y28023671D02*
X31886061Y28095100D01*
X31886061Y28095100D02*
X31957489Y28166528D01*
X31957489Y28166528D02*
X32028918Y28309385D01*
X32028918Y28309385D02*
X32028918Y28452242D01*
X32028918Y28452242D02*
X31957489Y28595100D01*
X31957489Y28595100D02*
X31886061Y28666528D01*
X31886061Y28666528D02*
X31743203Y28737957D01*
X31743203Y28737957D02*
X31457489Y28809385D01*
X31457489Y28809385D02*
X31314632Y28880814D01*
X31314632Y28880814D02*
X31243203Y28952242D01*
X31243203Y28952242D02*
X31171775Y29095100D01*
X31171775Y29095100D02*
X31171775Y29237957D01*
X31171775Y29237957D02*
X31243203Y29380814D01*
X31243203Y29380814D02*
X31314632Y29452242D01*
X31314632Y29452242D02*
X31457489Y29523671D01*
X31457489Y29523671D02*
X31814632Y29523671D01*
X31814632Y29523671D02*
X32028918Y29452242D01*
X34900082Y7648100D02*
X35114368Y7576671D01*
X35114368Y7576671D02*
X35471510Y7576671D01*
X35471510Y7576671D02*
X35614368Y7648100D01*
X35614368Y7648100D02*
X35685796Y7719528D01*
X35685796Y7719528D02*
X35757225Y7862385D01*
X35757225Y7862385D02*
X35757225Y8005242D01*
X35757225Y8005242D02*
X35685796Y8148100D01*
X35685796Y8148100D02*
X35614368Y8219528D01*
X35614368Y8219528D02*
X35471510Y8290957D01*
X35471510Y8290957D02*
X35185796Y8362385D01*
X35185796Y8362385D02*
X35042939Y8433814D01*
X35042939Y8433814D02*
X34971510Y8505242D01*
X34971510Y8505242D02*
X34900082Y8648100D01*
X34900082Y8648100D02*
X34900082Y8790957D01*
X34900082Y8790957D02*
X34971510Y8933814D01*
X34971510Y8933814D02*
X35042939Y9005242D01*
X35042939Y9005242D02*
X35185796Y9076671D01*
X35185796Y9076671D02*
X35542939Y9076671D01*
X35542939Y9076671D02*
X35757225Y9005242D01*
X36257224Y9076671D02*
X36614367Y7576671D01*
X36614367Y7576671D02*
X36900081Y8648100D01*
X36900081Y8648100D02*
X37185796Y7576671D01*
X37185796Y7576671D02*
X37542939Y9076671D01*
X39687905Y24805146D02*
X40011714Y24805146D01*
X40011714Y24805146D02*
X40173619Y24724194D01*
X40173619Y24724194D02*
X40335524Y24562289D01*
X40335524Y24562289D02*
X40416476Y24238479D01*
X40416476Y24238479D02*
X40416476Y23671813D01*
X40416476Y23671813D02*
X40335524Y23348003D01*
X40335524Y23348003D02*
X40173619Y23186099D01*
X40173619Y23186099D02*
X40011714Y23105146D01*
X40011714Y23105146D02*
X39687905Y23105146D01*
X39687905Y23105146D02*
X39526000Y23186099D01*
X39526000Y23186099D02*
X39364095Y23348003D01*
X39364095Y23348003D02*
X39283143Y23671813D01*
X39283143Y23671813D02*
X39283143Y24238479D01*
X39283143Y24238479D02*
X39364095Y24562289D01*
X39364095Y24562289D02*
X39526000Y24724194D01*
X39526000Y24724194D02*
X39687905Y24805146D01*
X41145047Y24805146D02*
X41145047Y23428956D01*
X41145047Y23428956D02*
X41226000Y23267051D01*
X41226000Y23267051D02*
X41306952Y23186099D01*
X41306952Y23186099D02*
X41468857Y23105146D01*
X41468857Y23105146D02*
X41792666Y23105146D01*
X41792666Y23105146D02*
X41954571Y23186099D01*
X41954571Y23186099D02*
X42035524Y23267051D01*
X42035524Y23267051D02*
X42116476Y23428956D01*
X42116476Y23428956D02*
X42116476Y24805146D01*
X42683142Y24805146D02*
X43654571Y24805146D01*
X43168857Y23105146D02*
X43168857Y24805146D01*
X44140285Y24643241D02*
X44221237Y24724194D01*
X44221237Y24724194D02*
X44383142Y24805146D01*
X44383142Y24805146D02*
X44787904Y24805146D01*
X44787904Y24805146D02*
X44949809Y24724194D01*
X44949809Y24724194D02*
X45030761Y24643241D01*
X45030761Y24643241D02*
X45111714Y24481337D01*
X45111714Y24481337D02*
X45111714Y24319432D01*
X45111714Y24319432D02*
X45030761Y24076575D01*
X45030761Y24076575D02*
X44059333Y23105146D01*
X44059333Y23105146D02*
X45111714Y23105146D01*
X45759333Y23590860D02*
X46568857Y23590860D01*
X45597428Y23105146D02*
X46164095Y24805146D01*
X46164095Y24805146D02*
X46730762Y23105146D01*
X8830328Y2758572D02*
X8830328Y3044286D01*
X8830328Y3044286D02*
X8901757Y3187143D01*
X8901757Y3187143D02*
X9044614Y3330000D01*
X9044614Y3330000D02*
X9330328Y3401429D01*
X9330328Y3401429D02*
X9830328Y3401429D01*
X9830328Y3401429D02*
X10116042Y3330000D01*
X10116042Y3330000D02*
X10258900Y3187143D01*
X10258900Y3187143D02*
X10330328Y3044286D01*
X10330328Y3044286D02*
X10330328Y2758572D01*
X10330328Y2758572D02*
X10258900Y2615715D01*
X10258900Y2615715D02*
X10116042Y2472857D01*
X10116042Y2472857D02*
X9830328Y2401429D01*
X9830328Y2401429D02*
X9330328Y2401429D01*
X9330328Y2401429D02*
X9044614Y2472857D01*
X9044614Y2472857D02*
X8901757Y2615715D01*
X8901757Y2615715D02*
X8830328Y2758572D01*
X10258900Y3972858D02*
X10330328Y4187144D01*
X10330328Y4187144D02*
X10330328Y4544286D01*
X10330328Y4544286D02*
X10258900Y4687144D01*
X10258900Y4687144D02*
X10187471Y4758572D01*
X10187471Y4758572D02*
X10044614Y4830001D01*
X10044614Y4830001D02*
X9901757Y4830001D01*
X9901757Y4830001D02*
X9758900Y4758572D01*
X9758900Y4758572D02*
X9687471Y4687144D01*
X9687471Y4687144D02*
X9616042Y4544286D01*
X9616042Y4544286D02*
X9544614Y4258572D01*
X9544614Y4258572D02*
X9473185Y4115715D01*
X9473185Y4115715D02*
X9401757Y4044286D01*
X9401757Y4044286D02*
X9258900Y3972858D01*
X9258900Y3972858D02*
X9116042Y3972858D01*
X9116042Y3972858D02*
X8973185Y4044286D01*
X8973185Y4044286D02*
X8901757Y4115715D01*
X8901757Y4115715D02*
X8830328Y4258572D01*
X8830328Y4258572D02*
X8830328Y4615715D01*
X8830328Y4615715D02*
X8901757Y4830001D01*
X10187471Y6330000D02*
X10258900Y6258572D01*
X10258900Y6258572D02*
X10330328Y6044286D01*
X10330328Y6044286D02*
X10330328Y5901429D01*
X10330328Y5901429D02*
X10258900Y5687143D01*
X10258900Y5687143D02*
X10116042Y5544286D01*
X10116042Y5544286D02*
X9973185Y5472857D01*
X9973185Y5472857D02*
X9687471Y5401429D01*
X9687471Y5401429D02*
X9473185Y5401429D01*
X9473185Y5401429D02*
X9187471Y5472857D01*
X9187471Y5472857D02*
X9044614Y5544286D01*
X9044614Y5544286D02*
X8901757Y5687143D01*
X8901757Y5687143D02*
X8830328Y5901429D01*
X8830328Y5901429D02*
X8830328Y6044286D01*
X8830328Y6044286D02*
X8901757Y6258572D01*
X8901757Y6258572D02*
X8973185Y6330000D01*
X8830328Y7258572D02*
X8830328Y7401429D01*
X8830328Y7401429D02*
X8901757Y7544286D01*
X8901757Y7544286D02*
X8973185Y7615715D01*
X8973185Y7615715D02*
X9116042Y7687143D01*
X9116042Y7687143D02*
X9401757Y7758572D01*
X9401757Y7758572D02*
X9758900Y7758572D01*
X9758900Y7758572D02*
X10044614Y7687143D01*
X10044614Y7687143D02*
X10187471Y7615715D01*
X10187471Y7615715D02*
X10258900Y7544286D01*
X10258900Y7544286D02*
X10330328Y7401429D01*
X10330328Y7401429D02*
X10330328Y7258572D01*
X10330328Y7258572D02*
X10258900Y7115715D01*
X10258900Y7115715D02*
X10187471Y7044286D01*
X10187471Y7044286D02*
X10044614Y6972857D01*
X10044614Y6972857D02*
X9758900Y6901429D01*
X9758900Y6901429D02*
X9401757Y6901429D01*
X9401757Y6901429D02*
X9116042Y6972857D01*
X9116042Y6972857D02*
X8973185Y7044286D01*
X8973185Y7044286D02*
X8901757Y7115715D01*
X8901757Y7115715D02*
X8830328Y7258572D01*
X3498476Y23027146D02*
X3822285Y23027146D01*
X3822285Y23027146D02*
X3984190Y22946194D01*
X3984190Y22946194D02*
X4146095Y22784289D01*
X4146095Y22784289D02*
X4227047Y22460479D01*
X4227047Y22460479D02*
X4227047Y21893813D01*
X4227047Y21893813D02*
X4146095Y21570003D01*
X4146095Y21570003D02*
X3984190Y21408099D01*
X3984190Y21408099D02*
X3822285Y21327146D01*
X3822285Y21327146D02*
X3498476Y21327146D01*
X3498476Y21327146D02*
X3336571Y21408099D01*
X3336571Y21408099D02*
X3174666Y21570003D01*
X3174666Y21570003D02*
X3093714Y21893813D01*
X3093714Y21893813D02*
X3093714Y22460479D01*
X3093714Y22460479D02*
X3174666Y22784289D01*
X3174666Y22784289D02*
X3336571Y22946194D01*
X3336571Y22946194D02*
X3498476Y23027146D01*
X4955618Y23027146D02*
X4955618Y21650956D01*
X4955618Y21650956D02*
X5036571Y21489051D01*
X5036571Y21489051D02*
X5117523Y21408099D01*
X5117523Y21408099D02*
X5279428Y21327146D01*
X5279428Y21327146D02*
X5603237Y21327146D01*
X5603237Y21327146D02*
X5765142Y21408099D01*
X5765142Y21408099D02*
X5846095Y21489051D01*
X5846095Y21489051D02*
X5927047Y21650956D01*
X5927047Y21650956D02*
X5927047Y23027146D01*
X6493713Y23027146D02*
X7465142Y23027146D01*
X6979428Y21327146D02*
X6979428Y23027146D01*
X7950856Y22865241D02*
X8031808Y22946194D01*
X8031808Y22946194D02*
X8193713Y23027146D01*
X8193713Y23027146D02*
X8598475Y23027146D01*
X8598475Y23027146D02*
X8760380Y22946194D01*
X8760380Y22946194D02*
X8841332Y22865241D01*
X8841332Y22865241D02*
X8922285Y22703337D01*
X8922285Y22703337D02*
X8922285Y22541432D01*
X8922285Y22541432D02*
X8841332Y22298575D01*
X8841332Y22298575D02*
X7869904Y21327146D01*
X7869904Y21327146D02*
X8922285Y21327146D01*
X10217523Y22217622D02*
X10460380Y22136670D01*
X10460380Y22136670D02*
X10541333Y22055718D01*
X10541333Y22055718D02*
X10622285Y21893813D01*
X10622285Y21893813D02*
X10622285Y21650956D01*
X10622285Y21650956D02*
X10541333Y21489051D01*
X10541333Y21489051D02*
X10460380Y21408099D01*
X10460380Y21408099D02*
X10298475Y21327146D01*
X10298475Y21327146D02*
X9650856Y21327146D01*
X9650856Y21327146D02*
X9650856Y23027146D01*
X9650856Y23027146D02*
X10217523Y23027146D01*
X10217523Y23027146D02*
X10379428Y22946194D01*
X10379428Y22946194D02*
X10460380Y22865241D01*
X10460380Y22865241D02*
X10541333Y22703337D01*
X10541333Y22703337D02*
X10541333Y22541432D01*
X10541333Y22541432D02*
X10460380Y22379527D01*
X10460380Y22379527D02*
X10379428Y22298575D01*
X10379428Y22298575D02*
X10217523Y22217622D01*
X10217523Y22217622D02*
X9650856Y22217622D01*
X3752476Y10073146D02*
X4076285Y10073146D01*
X4076285Y10073146D02*
X4238190Y9992194D01*
X4238190Y9992194D02*
X4400095Y9830289D01*
X4400095Y9830289D02*
X4481047Y9506479D01*
X4481047Y9506479D02*
X4481047Y8939813D01*
X4481047Y8939813D02*
X4400095Y8616003D01*
X4400095Y8616003D02*
X4238190Y8454099D01*
X4238190Y8454099D02*
X4076285Y8373146D01*
X4076285Y8373146D02*
X3752476Y8373146D01*
X3752476Y8373146D02*
X3590571Y8454099D01*
X3590571Y8454099D02*
X3428666Y8616003D01*
X3428666Y8616003D02*
X3347714Y8939813D01*
X3347714Y8939813D02*
X3347714Y9506479D01*
X3347714Y9506479D02*
X3428666Y9830289D01*
X3428666Y9830289D02*
X3590571Y9992194D01*
X3590571Y9992194D02*
X3752476Y10073146D01*
X5209618Y10073146D02*
X5209618Y8696956D01*
X5209618Y8696956D02*
X5290571Y8535051D01*
X5290571Y8535051D02*
X5371523Y8454099D01*
X5371523Y8454099D02*
X5533428Y8373146D01*
X5533428Y8373146D02*
X5857237Y8373146D01*
X5857237Y8373146D02*
X6019142Y8454099D01*
X6019142Y8454099D02*
X6100095Y8535051D01*
X6100095Y8535051D02*
X6181047Y8696956D01*
X6181047Y8696956D02*
X6181047Y10073146D01*
X6747713Y10073146D02*
X7719142Y10073146D01*
X7233428Y8373146D02*
X7233428Y10073146D01*
X9176285Y8373146D02*
X8204856Y8373146D01*
X8690570Y8373146D02*
X8690570Y10073146D01*
X8690570Y10073146D02*
X8528666Y9830289D01*
X8528666Y9830289D02*
X8366761Y9668384D01*
X8366761Y9668384D02*
X8204856Y9587432D01*
X10471523Y9263622D02*
X10714380Y9182670D01*
X10714380Y9182670D02*
X10795333Y9101718D01*
X10795333Y9101718D02*
X10876285Y8939813D01*
X10876285Y8939813D02*
X10876285Y8696956D01*
X10876285Y8696956D02*
X10795333Y8535051D01*
X10795333Y8535051D02*
X10714380Y8454099D01*
X10714380Y8454099D02*
X10552475Y8373146D01*
X10552475Y8373146D02*
X9904856Y8373146D01*
X9904856Y8373146D02*
X9904856Y10073146D01*
X9904856Y10073146D02*
X10471523Y10073146D01*
X10471523Y10073146D02*
X10633428Y9992194D01*
X10633428Y9992194D02*
X10714380Y9911241D01*
X10714380Y9911241D02*
X10795333Y9749337D01*
X10795333Y9749337D02*
X10795333Y9587432D01*
X10795333Y9587432D02*
X10714380Y9425527D01*
X10714380Y9425527D02*
X10633428Y9344575D01*
X10633428Y9344575D02*
X10471523Y9263622D01*
X10471523Y9263622D02*
X9904856Y9263622D01*
X10203328Y32095713D02*
X8703328Y32095713D01*
X8703328Y32095713D02*
X8703328Y32667142D01*
X8703328Y32667142D02*
X8774757Y32809999D01*
X8774757Y32809999D02*
X8846185Y32881428D01*
X8846185Y32881428D02*
X8989042Y32952856D01*
X8989042Y32952856D02*
X9203328Y32952856D01*
X9203328Y32952856D02*
X9346185Y32881428D01*
X9346185Y32881428D02*
X9417614Y32809999D01*
X9417614Y32809999D02*
X9489042Y32667142D01*
X9489042Y32667142D02*
X9489042Y32095713D01*
X8703328Y33881428D02*
X8703328Y34167142D01*
X8703328Y34167142D02*
X8774757Y34309999D01*
X8774757Y34309999D02*
X8917614Y34452856D01*
X8917614Y34452856D02*
X9203328Y34524285D01*
X9203328Y34524285D02*
X9703328Y34524285D01*
X9703328Y34524285D02*
X9989042Y34452856D01*
X9989042Y34452856D02*
X10131900Y34309999D01*
X10131900Y34309999D02*
X10203328Y34167142D01*
X10203328Y34167142D02*
X10203328Y33881428D01*
X10203328Y33881428D02*
X10131900Y33738571D01*
X10131900Y33738571D02*
X9989042Y33595713D01*
X9989042Y33595713D02*
X9703328Y33524285D01*
X9703328Y33524285D02*
X9203328Y33524285D01*
X9203328Y33524285D02*
X8917614Y33595713D01*
X8917614Y33595713D02*
X8774757Y33738571D01*
X8774757Y33738571D02*
X8703328Y33881428D01*
X8703328Y35024285D02*
X10203328Y35381428D01*
X10203328Y35381428D02*
X9131900Y35667142D01*
X9131900Y35667142D02*
X10203328Y35952857D01*
X10203328Y35952857D02*
X8703328Y36310000D01*
X9417614Y36881428D02*
X9417614Y37381428D01*
X10203328Y37595714D02*
X10203328Y36881428D01*
X10203328Y36881428D02*
X8703328Y36881428D01*
X8703328Y36881428D02*
X8703328Y37595714D01*
X10203328Y39095714D02*
X9489042Y38595714D01*
X10203328Y38238571D02*
X8703328Y38238571D01*
X8703328Y38238571D02*
X8703328Y38810000D01*
X8703328Y38810000D02*
X8774757Y38952857D01*
X8774757Y38952857D02*
X8846185Y39024286D01*
X8846185Y39024286D02*
X8989042Y39095714D01*
X8989042Y39095714D02*
X9203328Y39095714D01*
X9203328Y39095714D02*
X9346185Y39024286D01*
X9346185Y39024286D02*
X9417614Y38952857D01*
X9417614Y38952857D02*
X9489042Y38810000D01*
X9489042Y38810000D02*
X9489042Y38238571D01*
X28100346Y35715100D02*
X28314632Y35643671D01*
X28314632Y35643671D02*
X28671774Y35643671D01*
X28671774Y35643671D02*
X28814632Y35715100D01*
X28814632Y35715100D02*
X28886060Y35786528D01*
X28886060Y35786528D02*
X28957489Y35929385D01*
X28957489Y35929385D02*
X28957489Y36072242D01*
X28957489Y36072242D02*
X28886060Y36215100D01*
X28886060Y36215100D02*
X28814632Y36286528D01*
X28814632Y36286528D02*
X28671774Y36357957D01*
X28671774Y36357957D02*
X28386060Y36429385D01*
X28386060Y36429385D02*
X28243203Y36500814D01*
X28243203Y36500814D02*
X28171774Y36572242D01*
X28171774Y36572242D02*
X28100346Y36715100D01*
X28100346Y36715100D02*
X28100346Y36857957D01*
X28100346Y36857957D02*
X28171774Y37000814D01*
X28171774Y37000814D02*
X28243203Y37072242D01*
X28243203Y37072242D02*
X28386060Y37143671D01*
X28386060Y37143671D02*
X28743203Y37143671D01*
X28743203Y37143671D02*
X28957489Y37072242D01*
X29600345Y35643671D02*
X29600345Y37143671D01*
X29600345Y37143671D02*
X29957488Y37143671D01*
X29957488Y37143671D02*
X30171774Y37072242D01*
X30171774Y37072242D02*
X30314631Y36929385D01*
X30314631Y36929385D02*
X30386060Y36786528D01*
X30386060Y36786528D02*
X30457488Y36500814D01*
X30457488Y36500814D02*
X30457488Y36286528D01*
X30457488Y36286528D02*
X30386060Y36000814D01*
X30386060Y36000814D02*
X30314631Y35857957D01*
X30314631Y35857957D02*
X30171774Y35715100D01*
X30171774Y35715100D02*
X29957488Y35643671D01*
X29957488Y35643671D02*
X29600345Y35643671D01*
X31386060Y37143671D02*
X31671774Y37143671D01*
X31671774Y37143671D02*
X31814631Y37072242D01*
X31814631Y37072242D02*
X31957488Y36929385D01*
X31957488Y36929385D02*
X32028917Y36643671D01*
X32028917Y36643671D02*
X32028917Y36143671D01*
X32028917Y36143671D02*
X31957488Y35857957D01*
X31957488Y35857957D02*
X31814631Y35715100D01*
X31814631Y35715100D02*
X31671774Y35643671D01*
X31671774Y35643671D02*
X31386060Y35643671D01*
X31386060Y35643671D02*
X31243203Y35715100D01*
X31243203Y35715100D02*
X31100345Y35857957D01*
X31100345Y35857957D02*
X31028917Y36143671D01*
X31028917Y36143671D02*
X31028917Y36643671D01*
X31028917Y36643671D02*
X31100345Y36929385D01*
X31100345Y36929385D02*
X31243203Y37072242D01*
X31243203Y37072242D02*
X31386060Y37143671D01*
X25649757Y10135082D02*
X25649757Y10849368D01*
X26078328Y9992225D02*
X24578328Y10492225D01*
X24578328Y10492225D02*
X26078328Y10992225D01*
X26078328Y11492224D02*
X24578328Y11492224D01*
X24578328Y11492224D02*
X24578328Y11849367D01*
X24578328Y11849367D02*
X24649757Y12063653D01*
X24649757Y12063653D02*
X24792614Y12206510D01*
X24792614Y12206510D02*
X24935471Y12277939D01*
X24935471Y12277939D02*
X25221185Y12349367D01*
X25221185Y12349367D02*
X25435471Y12349367D01*
X25435471Y12349367D02*
X25721185Y12277939D01*
X25721185Y12277939D02*
X25864042Y12206510D01*
X25864042Y12206510D02*
X26006900Y12063653D01*
X26006900Y12063653D02*
X26078328Y11849367D01*
X26078328Y11849367D02*
X26078328Y11492224D01*
X25935471Y13849367D02*
X26006900Y13777939D01*
X26006900Y13777939D02*
X26078328Y13563653D01*
X26078328Y13563653D02*
X26078328Y13420796D01*
X26078328Y13420796D02*
X26006900Y13206510D01*
X26006900Y13206510D02*
X25864042Y13063653D01*
X25864042Y13063653D02*
X25721185Y12992224D01*
X25721185Y12992224D02*
X25435471Y12920796D01*
X25435471Y12920796D02*
X25221185Y12920796D01*
X25221185Y12920796D02*
X24935471Y12992224D01*
X24935471Y12992224D02*
X24792614Y13063653D01*
X24792614Y13063653D02*
X24649757Y13206510D01*
X24649757Y13206510D02*
X24578328Y13420796D01*
X24578328Y13420796D02*
X24578328Y13563653D01*
X24578328Y13563653D02*
X24649757Y13777939D01*
X24649757Y13777939D02*
X24721185Y13849367D01*
X26078328Y14492224D02*
X24578328Y14492224D01*
X26078328Y15206510D02*
X24578328Y15206510D01*
X24578328Y15206510D02*
X26078328Y16063653D01*
X26078328Y16063653D02*
X24578328Y16063653D01*
X20744328Y11767856D02*
X19244328Y11767856D01*
X19244328Y11767856D02*
X20315757Y12267856D01*
X20315757Y12267856D02*
X19244328Y12767856D01*
X19244328Y12767856D02*
X20744328Y12767856D01*
X20744328Y14196428D02*
X20744328Y13482142D01*
X20744328Y13482142D02*
X19244328Y13482142D01*
X20315757Y14625000D02*
X20315757Y15339286D01*
X20744328Y14482143D02*
X19244328Y14982143D01*
X19244328Y14982143D02*
X20744328Y15482143D01*
X19958614Y16482142D02*
X20030042Y16696428D01*
X20030042Y16696428D02*
X20101471Y16767857D01*
X20101471Y16767857D02*
X20244328Y16839285D01*
X20244328Y16839285D02*
X20458614Y16839285D01*
X20458614Y16839285D02*
X20601471Y16767857D01*
X20601471Y16767857D02*
X20672900Y16696428D01*
X20672900Y16696428D02*
X20744328Y16553571D01*
X20744328Y16553571D02*
X20744328Y15982142D01*
X20744328Y15982142D02*
X19244328Y15982142D01*
X19244328Y15982142D02*
X19244328Y16482142D01*
X19244328Y16482142D02*
X19315757Y16625000D01*
X19315757Y16625000D02*
X19387185Y16696428D01*
X19387185Y16696428D02*
X19530042Y16767857D01*
X19530042Y16767857D02*
X19672900Y16767857D01*
X19672900Y16767857D02*
X19815757Y16696428D01*
X19815757Y16696428D02*
X19887185Y16625000D01*
X19887185Y16625000D02*
X19958614Y16482142D01*
X19958614Y16482142D02*
X19958614Y15982142D01*
X20601471Y17482142D02*
X20672900Y17553571D01*
X20672900Y17553571D02*
X20744328Y17482142D01*
X20744328Y17482142D02*
X20672900Y17410714D01*
X20672900Y17410714D02*
X20601471Y17482142D01*
X20601471Y17482142D02*
X20744328Y17482142D01*
X20672900Y18839286D02*
X20744328Y18696428D01*
X20744328Y18696428D02*
X20744328Y18410714D01*
X20744328Y18410714D02*
X20672900Y18267857D01*
X20672900Y18267857D02*
X20601471Y18196428D01*
X20601471Y18196428D02*
X20458614Y18125000D01*
X20458614Y18125000D02*
X20030042Y18125000D01*
X20030042Y18125000D02*
X19887185Y18196428D01*
X19887185Y18196428D02*
X19815757Y18267857D01*
X19815757Y18267857D02*
X19744328Y18410714D01*
X19744328Y18410714D02*
X19744328Y18696428D01*
X19744328Y18696428D02*
X19815757Y18839286D01*
X19744328Y19339285D02*
X19744328Y20125000D01*
X19744328Y20125000D02*
X20744328Y19339285D01*
X20744328Y19339285D02*
X20744328Y20125000D01*
X30324900Y9672143D02*
X30396328Y9886429D01*
X30396328Y9886429D02*
X30396328Y10243571D01*
X30396328Y10243571D02*
X30324900Y10386429D01*
X30324900Y10386429D02*
X30253471Y10457857D01*
X30253471Y10457857D02*
X30110614Y10529286D01*
X30110614Y10529286D02*
X29967757Y10529286D01*
X29967757Y10529286D02*
X29824900Y10457857D01*
X29824900Y10457857D02*
X29753471Y10386429D01*
X29753471Y10386429D02*
X29682042Y10243571D01*
X29682042Y10243571D02*
X29610614Y9957857D01*
X29610614Y9957857D02*
X29539185Y9815000D01*
X29539185Y9815000D02*
X29467757Y9743571D01*
X29467757Y9743571D02*
X29324900Y9672143D01*
X29324900Y9672143D02*
X29182042Y9672143D01*
X29182042Y9672143D02*
X29039185Y9743571D01*
X29039185Y9743571D02*
X28967757Y9815000D01*
X28967757Y9815000D02*
X28896328Y9957857D01*
X28896328Y9957857D02*
X28896328Y10315000D01*
X28896328Y10315000D02*
X28967757Y10529286D01*
X28896328Y10957857D02*
X28896328Y11815000D01*
X30396328Y11386428D02*
X28896328Y11386428D01*
X29610614Y12814999D02*
X29682042Y13029285D01*
X29682042Y13029285D02*
X29753471Y13100714D01*
X29753471Y13100714D02*
X29896328Y13172142D01*
X29896328Y13172142D02*
X30110614Y13172142D01*
X30110614Y13172142D02*
X30253471Y13100714D01*
X30253471Y13100714D02*
X30324900Y13029285D01*
X30324900Y13029285D02*
X30396328Y12886428D01*
X30396328Y12886428D02*
X30396328Y12314999D01*
X30396328Y12314999D02*
X28896328Y12314999D01*
X28896328Y12314999D02*
X28896328Y12814999D01*
X28896328Y12814999D02*
X28967757Y12957857D01*
X28967757Y12957857D02*
X29039185Y13029285D01*
X29039185Y13029285D02*
X29182042Y13100714D01*
X29182042Y13100714D02*
X29324900Y13100714D01*
X29324900Y13100714D02*
X29467757Y13029285D01*
X29467757Y13029285D02*
X29539185Y12957857D01*
X29539185Y12957857D02*
X29610614Y12814999D01*
X29610614Y12814999D02*
X29610614Y12314999D01*
X29682042Y14100714D02*
X30396328Y14100714D01*
X28896328Y13600714D02*
X29682042Y14100714D01*
X29682042Y14100714D02*
X28896328Y14600714D01*
X36379429Y2114385D02*
X36441333Y2176290D01*
X36441333Y2176290D02*
X36565143Y2238195D01*
X36565143Y2238195D02*
X36874667Y2238195D01*
X36874667Y2238195D02*
X36998476Y2176290D01*
X36998476Y2176290D02*
X37060381Y2114385D01*
X37060381Y2114385D02*
X37122286Y1990576D01*
X37122286Y1990576D02*
X37122286Y1866766D01*
X37122286Y1866766D02*
X37060381Y1681052D01*
X37060381Y1681052D02*
X36317524Y938195D01*
X36317524Y938195D02*
X37122286Y938195D01*
X37927047Y2238195D02*
X38050857Y2238195D01*
X38050857Y2238195D02*
X38174666Y2176290D01*
X38174666Y2176290D02*
X38236571Y2114385D01*
X38236571Y2114385D02*
X38298476Y1990576D01*
X38298476Y1990576D02*
X38360381Y1742957D01*
X38360381Y1742957D02*
X38360381Y1433433D01*
X38360381Y1433433D02*
X38298476Y1185814D01*
X38298476Y1185814D02*
X38236571Y1062004D01*
X38236571Y1062004D02*
X38174666Y1000100D01*
X38174666Y1000100D02*
X38050857Y938195D01*
X38050857Y938195D02*
X37927047Y938195D01*
X37927047Y938195D02*
X37803238Y1000100D01*
X37803238Y1000100D02*
X37741333Y1062004D01*
X37741333Y1062004D02*
X37679428Y1185814D01*
X37679428Y1185814D02*
X37617524Y1433433D01*
X37617524Y1433433D02*
X37617524Y1742957D01*
X37617524Y1742957D02*
X37679428Y1990576D01*
X37679428Y1990576D02*
X37741333Y2114385D01*
X37741333Y2114385D02*
X37803238Y2176290D01*
X37803238Y2176290D02*
X37927047Y2238195D01*
X39598476Y938195D02*
X38855619Y938195D01*
X39227047Y938195D02*
X39227047Y2238195D01*
X39227047Y2238195D02*
X39103238Y2052480D01*
X39103238Y2052480D02*
X38979428Y1928671D01*
X38979428Y1928671D02*
X38855619Y1866766D01*
X40712761Y2238195D02*
X40465142Y2238195D01*
X40465142Y2238195D02*
X40341333Y2176290D01*
X40341333Y2176290D02*
X40279428Y2114385D01*
X40279428Y2114385D02*
X40155618Y1928671D01*
X40155618Y1928671D02*
X40093714Y1681052D01*
X40093714Y1681052D02*
X40093714Y1185814D01*
X40093714Y1185814D02*
X40155618Y1062004D01*
X40155618Y1062004D02*
X40217523Y1000100D01*
X40217523Y1000100D02*
X40341333Y938195D01*
X40341333Y938195D02*
X40588952Y938195D01*
X40588952Y938195D02*
X40712761Y1000100D01*
X40712761Y1000100D02*
X40774666Y1062004D01*
X40774666Y1062004D02*
X40836571Y1185814D01*
X40836571Y1185814D02*
X40836571Y1495338D01*
X40836571Y1495338D02*
X40774666Y1619147D01*
X40774666Y1619147D02*
X40712761Y1681052D01*
X40712761Y1681052D02*
X40588952Y1742957D01*
X40588952Y1742957D02*
X40341333Y1742957D01*
X40341333Y1742957D02*
X40217523Y1681052D01*
X40217523Y1681052D02*
X40155618Y1619147D01*
X40155618Y1619147D02*
X40093714Y1495338D01*
X35757225Y6465242D02*
X35614368Y6536671D01*
X35614368Y6536671D02*
X35400082Y6536671D01*
X35400082Y6536671D02*
X35185796Y6465242D01*
X35185796Y6465242D02*
X35042939Y6322385D01*
X35042939Y6322385D02*
X34971510Y6179528D01*
X34971510Y6179528D02*
X34900082Y5893814D01*
X34900082Y5893814D02*
X34900082Y5679528D01*
X34900082Y5679528D02*
X34971510Y5393814D01*
X34971510Y5393814D02*
X35042939Y5250957D01*
X35042939Y5250957D02*
X35185796Y5108100D01*
X35185796Y5108100D02*
X35400082Y5036671D01*
X35400082Y5036671D02*
X35542939Y5036671D01*
X35542939Y5036671D02*
X35757225Y5108100D01*
X35757225Y5108100D02*
X35828653Y5179528D01*
X35828653Y5179528D02*
X35828653Y5679528D01*
X35828653Y5679528D02*
X35542939Y5679528D01*
X36471510Y5036671D02*
X36471510Y6536671D01*
X36471510Y6536671D02*
X37328653Y5036671D01*
X37328653Y5036671D02*
X37328653Y6536671D01*
X38042939Y5036671D02*
X38042939Y6536671D01*
X38042939Y6536671D02*
X38400082Y6536671D01*
X38400082Y6536671D02*
X38614368Y6465242D01*
X38614368Y6465242D02*
X38757225Y6322385D01*
X38757225Y6322385D02*
X38828654Y6179528D01*
X38828654Y6179528D02*
X38900082Y5893814D01*
X38900082Y5893814D02*
X38900082Y5679528D01*
X38900082Y5679528D02*
X38828654Y5393814D01*
X38828654Y5393814D02*
X38757225Y5250957D01*
X38757225Y5250957D02*
X38614368Y5108100D01*
X38614368Y5108100D02*
X38400082Y5036671D01*
X38400082Y5036671D02*
X38042939Y5036671D01*
X22567828Y24734300D02*
X21424971Y24734300D01*
X21996399Y24162871D02*
X21996399Y25305728D01*
X29338489Y30635100D02*
X29552775Y30563671D01*
X29552775Y30563671D02*
X29909917Y30563671D01*
X29909917Y30563671D02*
X30052775Y30635100D01*
X30052775Y30635100D02*
X30124203Y30706528D01*
X30124203Y30706528D02*
X30195632Y30849385D01*
X30195632Y30849385D02*
X30195632Y30992242D01*
X30195632Y30992242D02*
X30124203Y31135100D01*
X30124203Y31135100D02*
X30052775Y31206528D01*
X30052775Y31206528D02*
X29909917Y31277957D01*
X29909917Y31277957D02*
X29624203Y31349385D01*
X29624203Y31349385D02*
X29481346Y31420814D01*
X29481346Y31420814D02*
X29409917Y31492242D01*
X29409917Y31492242D02*
X29338489Y31635100D01*
X29338489Y31635100D02*
X29338489Y31777957D01*
X29338489Y31777957D02*
X29409917Y31920814D01*
X29409917Y31920814D02*
X29481346Y31992242D01*
X29481346Y31992242D02*
X29624203Y32063671D01*
X29624203Y32063671D02*
X29981346Y32063671D01*
X29981346Y32063671D02*
X30195632Y31992242D01*
X30838488Y30563671D02*
X30838488Y32063671D01*
X30838488Y32063671D02*
X31195631Y32063671D01*
X31195631Y32063671D02*
X31409917Y31992242D01*
X31409917Y31992242D02*
X31552774Y31849385D01*
X31552774Y31849385D02*
X31624203Y31706528D01*
X31624203Y31706528D02*
X31695631Y31420814D01*
X31695631Y31420814D02*
X31695631Y31206528D01*
X31695631Y31206528D02*
X31624203Y30920814D01*
X31624203Y30920814D02*
X31552774Y30777957D01*
X31552774Y30777957D02*
X31409917Y30635100D01*
X31409917Y30635100D02*
X31195631Y30563671D01*
X31195631Y30563671D02*
X30838488Y30563671D01*
X32338488Y30563671D02*
X32338488Y32063671D01*
X8106870Y23967713D02*
X6606870Y23967713D01*
X6606870Y23967713D02*
X6606870Y24539142D01*
X6606870Y24539142D02*
X6678299Y24681999D01*
X6678299Y24681999D02*
X6749727Y24753428D01*
X6749727Y24753428D02*
X6892584Y24824856D01*
X6892584Y24824856D02*
X7106870Y24824856D01*
X7106870Y24824856D02*
X7249727Y24753428D01*
X7249727Y24753428D02*
X7321156Y24681999D01*
X7321156Y24681999D02*
X7392584Y24539142D01*
X7392584Y24539142D02*
X7392584Y23967713D01*
X6606870Y25753428D02*
X6606870Y26039142D01*
X6606870Y26039142D02*
X6678299Y26181999D01*
X6678299Y26181999D02*
X6821156Y26324856D01*
X6821156Y26324856D02*
X7106870Y26396285D01*
X7106870Y26396285D02*
X7606870Y26396285D01*
X7606870Y26396285D02*
X7892584Y26324856D01*
X7892584Y26324856D02*
X8035442Y26181999D01*
X8035442Y26181999D02*
X8106870Y26039142D01*
X8106870Y26039142D02*
X8106870Y25753428D01*
X8106870Y25753428D02*
X8035442Y25610571D01*
X8035442Y25610571D02*
X7892584Y25467713D01*
X7892584Y25467713D02*
X7606870Y25396285D01*
X7606870Y25396285D02*
X7106870Y25396285D01*
X7106870Y25396285D02*
X6821156Y25467713D01*
X6821156Y25467713D02*
X6678299Y25610571D01*
X6678299Y25610571D02*
X6606870Y25753428D01*
X6606870Y26896285D02*
X8106870Y27253428D01*
X8106870Y27253428D02*
X7035442Y27539142D01*
X7035442Y27539142D02*
X8106870Y27824857D01*
X8106870Y27824857D02*
X6606870Y28182000D01*
X7321156Y28753428D02*
X7321156Y29253428D01*
X8106870Y29467714D02*
X8106870Y28753428D01*
X8106870Y28753428D02*
X6606870Y28753428D01*
X6606870Y28753428D02*
X6606870Y29467714D01*
X8106870Y30967714D02*
X7392584Y30467714D01*
X8106870Y30110571D02*
X6606870Y30110571D01*
X6606870Y30110571D02*
X6606870Y30682000D01*
X6606870Y30682000D02*
X6678299Y30824857D01*
X6678299Y30824857D02*
X6749727Y30896286D01*
X6749727Y30896286D02*
X6892584Y30967714D01*
X6892584Y30967714D02*
X7106870Y30967714D01*
X7106870Y30967714D02*
X7249727Y30896286D01*
X7249727Y30896286D02*
X7321156Y30824857D01*
X7321156Y30824857D02*
X7392584Y30682000D01*
X7392584Y30682000D02*
X7392584Y30110571D01*
X10521786Y26646285D02*
X9021786Y26646285D01*
X9021786Y27646286D02*
X9021786Y27932000D01*
X9021786Y27932000D02*
X9093215Y28074857D01*
X9093215Y28074857D02*
X9236072Y28217714D01*
X9236072Y28217714D02*
X9521786Y28289143D01*
X9521786Y28289143D02*
X10021786Y28289143D01*
X10021786Y28289143D02*
X10307500Y28217714D01*
X10307500Y28217714D02*
X10450358Y28074857D01*
X10450358Y28074857D02*
X10521786Y27932000D01*
X10521786Y27932000D02*
X10521786Y27646286D01*
X10521786Y27646286D02*
X10450358Y27503429D01*
X10450358Y27503429D02*
X10307500Y27360571D01*
X10307500Y27360571D02*
X10021786Y27289143D01*
X10021786Y27289143D02*
X9521786Y27289143D01*
X9521786Y27289143D02*
X9236072Y27360571D01*
X9236072Y27360571D02*
X9093215Y27503429D01*
X9093215Y27503429D02*
X9021786Y27646286D01*
X25814632Y26229671D02*
X26886060Y26229671D01*
X26243203Y26872528D02*
X25814632Y24943957D01*
X26743203Y25586814D02*
X25671775Y25586814D01*
X26314632Y24943957D02*
X26743203Y26872528D01*
X27886060Y26015385D02*
X27386060Y26015385D01*
X27386060Y25229671D02*
X27386060Y26729671D01*
X27386060Y26729671D02*
X28100346Y26729671D01*
X29386060Y25229671D02*
X28671774Y25229671D01*
X28671774Y25229671D02*
X28671774Y26729671D01*
X29814632Y25658242D02*
X30528918Y25658242D01*
X29671775Y25229671D02*
X30171775Y26729671D01*
X30171775Y26729671D02*
X30671775Y25229671D01*
X31957489Y26658242D02*
X31814632Y26729671D01*
X31814632Y26729671D02*
X31600346Y26729671D01*
X31600346Y26729671D02*
X31386060Y26658242D01*
X31386060Y26658242D02*
X31243203Y26515385D01*
X31243203Y26515385D02*
X31171774Y26372528D01*
X31171774Y26372528D02*
X31100346Y26086814D01*
X31100346Y26086814D02*
X31100346Y25872528D01*
X31100346Y25872528D02*
X31171774Y25586814D01*
X31171774Y25586814D02*
X31243203Y25443957D01*
X31243203Y25443957D02*
X31386060Y25301100D01*
X31386060Y25301100D02*
X31600346Y25229671D01*
X31600346Y25229671D02*
X31743203Y25229671D01*
X31743203Y25229671D02*
X31957489Y25301100D01*
X31957489Y25301100D02*
X32028917Y25372528D01*
X32028917Y25372528D02*
X32028917Y25872528D01*
X32028917Y25872528D02*
X31743203Y25872528D01*
X18331328Y9422571D02*
X16831328Y9422571D01*
X17545614Y9422571D02*
X17545614Y10279714D01*
X18331328Y10279714D02*
X16831328Y10279714D01*
X17545614Y11494000D02*
X17617042Y11708286D01*
X17617042Y11708286D02*
X17688471Y11779715D01*
X17688471Y11779715D02*
X17831328Y11851143D01*
X17831328Y11851143D02*
X18045614Y11851143D01*
X18045614Y11851143D02*
X18188471Y11779715D01*
X18188471Y11779715D02*
X18259900Y11708286D01*
X18259900Y11708286D02*
X18331328Y11565429D01*
X18331328Y11565429D02*
X18331328Y10994000D01*
X18331328Y10994000D02*
X16831328Y10994000D01*
X16831328Y10994000D02*
X16831328Y11494000D01*
X16831328Y11494000D02*
X16902757Y11636858D01*
X16902757Y11636858D02*
X16974185Y11708286D01*
X16974185Y11708286D02*
X17117042Y11779715D01*
X17117042Y11779715D02*
X17259900Y11779715D01*
X17259900Y11779715D02*
X17402757Y11708286D01*
X17402757Y11708286D02*
X17474185Y11636858D01*
X17474185Y11636858D02*
X17545614Y11494000D01*
X17545614Y11494000D02*
X17545614Y10994000D01*
X18259900Y12422572D02*
X18331328Y12636858D01*
X18331328Y12636858D02*
X18331328Y12994000D01*
X18331328Y12994000D02*
X18259900Y13136858D01*
X18259900Y13136858D02*
X18188471Y13208286D01*
X18188471Y13208286D02*
X18045614Y13279715D01*
X18045614Y13279715D02*
X17902757Y13279715D01*
X17902757Y13279715D02*
X17759900Y13208286D01*
X17759900Y13208286D02*
X17688471Y13136858D01*
X17688471Y13136858D02*
X17617042Y12994000D01*
X17617042Y12994000D02*
X17545614Y12708286D01*
X17545614Y12708286D02*
X17474185Y12565429D01*
X17474185Y12565429D02*
X17402757Y12494000D01*
X17402757Y12494000D02*
X17259900Y12422572D01*
X17259900Y12422572D02*
X17117042Y12422572D01*
X17117042Y12422572D02*
X16974185Y12494000D01*
X16974185Y12494000D02*
X16902757Y12565429D01*
X16902757Y12565429D02*
X16831328Y12708286D01*
X16831328Y12708286D02*
X16831328Y13065429D01*
X16831328Y13065429D02*
X16902757Y13279715D01*
X16831328Y13708286D02*
X16831328Y14565429D01*
X18331328Y14136857D02*
X16831328Y14136857D01*
X17545614Y15065428D02*
X17545614Y15565428D01*
X18331328Y15779714D02*
X18331328Y15065428D01*
X18331328Y15065428D02*
X16831328Y15065428D01*
X16831328Y15065428D02*
X16831328Y15779714D01*
X18331328Y16422571D02*
X16831328Y16422571D01*
X16831328Y16422571D02*
X16831328Y16994000D01*
X16831328Y16994000D02*
X16902757Y17136857D01*
X16902757Y17136857D02*
X16974185Y17208286D01*
X16974185Y17208286D02*
X17117042Y17279714D01*
X17117042Y17279714D02*
X17331328Y17279714D01*
X17331328Y17279714D02*
X17474185Y17208286D01*
X17474185Y17208286D02*
X17545614Y17136857D01*
X17545614Y17136857D02*
X17617042Y16994000D01*
X17617042Y16994000D02*
X17617042Y16422571D01*
X16831328Y18208286D02*
X16831328Y18351143D01*
X16831328Y18351143D02*
X16902757Y18494000D01*
X16902757Y18494000D02*
X16974185Y18565429D01*
X16974185Y18565429D02*
X17117042Y18636857D01*
X17117042Y18636857D02*
X17402757Y18708286D01*
X17402757Y18708286D02*
X17759900Y18708286D01*
X17759900Y18708286D02*
X18045614Y18636857D01*
X18045614Y18636857D02*
X18188471Y18565429D01*
X18188471Y18565429D02*
X18259900Y18494000D01*
X18259900Y18494000D02*
X18331328Y18351143D01*
X18331328Y18351143D02*
X18331328Y18208286D01*
X18331328Y18208286D02*
X18259900Y18065429D01*
X18259900Y18065429D02*
X18188471Y17994000D01*
X18188471Y17994000D02*
X18045614Y17922571D01*
X18045614Y17922571D02*
X17759900Y17851143D01*
X17759900Y17851143D02*
X17402757Y17851143D01*
X17402757Y17851143D02*
X17117042Y17922571D01*
X17117042Y17922571D02*
X16974185Y17994000D01*
X16974185Y17994000D02*
X16902757Y18065429D01*
X16902757Y18065429D02*
X16831328Y18208286D01*
X18331328Y20136857D02*
X18331328Y19279714D01*
X18331328Y19708285D02*
X16831328Y19708285D01*
X16831328Y19708285D02*
X17045614Y19565428D01*
X17045614Y19565428D02*
X17188471Y19422571D01*
X17188471Y19422571D02*
X17259900Y19279714D01*
X17545614Y21279713D02*
X17617042Y21493999D01*
X17617042Y21493999D02*
X17688471Y21565428D01*
X17688471Y21565428D02*
X17831328Y21636856D01*
X17831328Y21636856D02*
X18045614Y21636856D01*
X18045614Y21636856D02*
X18188471Y21565428D01*
X18188471Y21565428D02*
X18259900Y21493999D01*
X18259900Y21493999D02*
X18331328Y21351142D01*
X18331328Y21351142D02*
X18331328Y20779713D01*
X18331328Y20779713D02*
X16831328Y20779713D01*
X16831328Y20779713D02*
X16831328Y21279713D01*
X16831328Y21279713D02*
X16902757Y21422571D01*
X16902757Y21422571D02*
X16974185Y21493999D01*
X16974185Y21493999D02*
X17117042Y21565428D01*
X17117042Y21565428D02*
X17259900Y21565428D01*
X17259900Y21565428D02*
X17402757Y21493999D01*
X17402757Y21493999D02*
X17474185Y21422571D01*
X17474185Y21422571D02*
X17545614Y21279713D01*
X17545614Y21279713D02*
X17545614Y20779713D01*
X50136900Y24234918D02*
X50208328Y24449204D01*
X50208328Y24449204D02*
X50208328Y24806346D01*
X50208328Y24806346D02*
X50136900Y24949204D01*
X50136900Y24949204D02*
X50065471Y25020632D01*
X50065471Y25020632D02*
X49922614Y25092061D01*
X49922614Y25092061D02*
X49779757Y25092061D01*
X49779757Y25092061D02*
X49636900Y25020632D01*
X49636900Y25020632D02*
X49565471Y24949204D01*
X49565471Y24949204D02*
X49494042Y24806346D01*
X49494042Y24806346D02*
X49422614Y24520632D01*
X49422614Y24520632D02*
X49351185Y24377775D01*
X49351185Y24377775D02*
X49279757Y24306346D01*
X49279757Y24306346D02*
X49136900Y24234918D01*
X49136900Y24234918D02*
X48994042Y24234918D01*
X48994042Y24234918D02*
X48851185Y24306346D01*
X48851185Y24306346D02*
X48779757Y24377775D01*
X48779757Y24377775D02*
X48708328Y24520632D01*
X48708328Y24520632D02*
X48708328Y24877775D01*
X48708328Y24877775D02*
X48779757Y25092061D01*
X48708328Y25520632D02*
X48708328Y26377775D01*
X50208328Y25949203D02*
X48708328Y25949203D01*
X50065471Y27734917D02*
X50136900Y27663489D01*
X50136900Y27663489D02*
X50208328Y27449203D01*
X50208328Y27449203D02*
X50208328Y27306346D01*
X50208328Y27306346D02*
X50136900Y27092060D01*
X50136900Y27092060D02*
X49994042Y26949203D01*
X49994042Y26949203D02*
X49851185Y26877774D01*
X49851185Y26877774D02*
X49565471Y26806346D01*
X49565471Y26806346D02*
X49351185Y26806346D01*
X49351185Y26806346D02*
X49065471Y26877774D01*
X49065471Y26877774D02*
X48922614Y26949203D01*
X48922614Y26949203D02*
X48779757Y27092060D01*
X48779757Y27092060D02*
X48708328Y27306346D01*
X48708328Y27306346D02*
X48708328Y27449203D01*
X48708328Y27449203D02*
X48779757Y27663489D01*
X48779757Y27663489D02*
X48851185Y27734917D01*
X50208328Y28377774D02*
X48708328Y28377774D01*
X50208328Y29234917D02*
X49351185Y28592060D01*
X48708328Y29234917D02*
X49565471Y28377774D01*
X36224666Y4270195D02*
X36224666Y3341623D01*
X36224666Y3341623D02*
X36162761Y3155909D01*
X36162761Y3155909D02*
X36038952Y3032100D01*
X36038952Y3032100D02*
X35853237Y2970195D01*
X35853237Y2970195D02*
X35729428Y2970195D01*
X36781809Y3341623D02*
X37400856Y3341623D01*
X36657999Y2970195D02*
X37091332Y4270195D01*
X37091332Y4270195D02*
X37524666Y2970195D01*
X38700856Y3094004D02*
X38638952Y3032100D01*
X38638952Y3032100D02*
X38453237Y2970195D01*
X38453237Y2970195D02*
X38329428Y2970195D01*
X38329428Y2970195D02*
X38143714Y3032100D01*
X38143714Y3032100D02*
X38019904Y3155909D01*
X38019904Y3155909D02*
X37957999Y3279719D01*
X37957999Y3279719D02*
X37896095Y3527338D01*
X37896095Y3527338D02*
X37896095Y3713052D01*
X37896095Y3713052D02*
X37957999Y3960671D01*
X37957999Y3960671D02*
X38019904Y4084480D01*
X38019904Y4084480D02*
X38143714Y4208290D01*
X38143714Y4208290D02*
X38329428Y4270195D01*
X38329428Y4270195D02*
X38453237Y4270195D01*
X38453237Y4270195D02*
X38638952Y4208290D01*
X38638952Y4208290D02*
X38700856Y4146385D01*
X39257999Y2970195D02*
X39257999Y4270195D01*
X39257999Y3651147D02*
X40000856Y3651147D01*
X40000856Y2970195D02*
X40000856Y4270195D01*
X40867523Y4270195D02*
X41115142Y4270195D01*
X41115142Y4270195D02*
X41238952Y4208290D01*
X41238952Y4208290D02*
X41362761Y4084480D01*
X41362761Y4084480D02*
X41424666Y3836861D01*
X41424666Y3836861D02*
X41424666Y3403528D01*
X41424666Y3403528D02*
X41362761Y3155909D01*
X41362761Y3155909D02*
X41238952Y3032100D01*
X41238952Y3032100D02*
X41115142Y2970195D01*
X41115142Y2970195D02*
X40867523Y2970195D01*
X40867523Y2970195D02*
X40743714Y3032100D01*
X40743714Y3032100D02*
X40619904Y3155909D01*
X40619904Y3155909D02*
X40558000Y3403528D01*
X40558000Y3403528D02*
X40558000Y3836861D01*
X40558000Y3836861D02*
X40619904Y4084480D01*
X40619904Y4084480D02*
X40743714Y4208290D01*
X40743714Y4208290D02*
X40867523Y4270195D01*
X30528917Y33246528D02*
X30457489Y33175100D01*
X30457489Y33175100D02*
X30243203Y33103671D01*
X30243203Y33103671D02*
X30100346Y33103671D01*
X30100346Y33103671D02*
X29886060Y33175100D01*
X29886060Y33175100D02*
X29743203Y33317957D01*
X29743203Y33317957D02*
X29671774Y33460814D01*
X29671774Y33460814D02*
X29600346Y33746528D01*
X29600346Y33746528D02*
X29600346Y33960814D01*
X29600346Y33960814D02*
X29671774Y34246528D01*
X29671774Y34246528D02*
X29743203Y34389385D01*
X29743203Y34389385D02*
X29886060Y34532242D01*
X29886060Y34532242D02*
X30100346Y34603671D01*
X30100346Y34603671D02*
X30243203Y34603671D01*
X30243203Y34603671D02*
X30457489Y34532242D01*
X30457489Y34532242D02*
X30528917Y34460814D01*
X31171774Y33103671D02*
X31171774Y34603671D01*
X32028917Y33103671D02*
X31386060Y33960814D01*
X32028917Y34603671D02*
X31171774Y33746528D01*
X16196328Y2758572D02*
X16196328Y3044286D01*
X16196328Y3044286D02*
X16267757Y3187143D01*
X16267757Y3187143D02*
X16410614Y3330000D01*
X16410614Y3330000D02*
X16696328Y3401429D01*
X16696328Y3401429D02*
X17196328Y3401429D01*
X17196328Y3401429D02*
X17482042Y3330000D01*
X17482042Y3330000D02*
X17624900Y3187143D01*
X17624900Y3187143D02*
X17696328Y3044286D01*
X17696328Y3044286D02*
X17696328Y2758572D01*
X17696328Y2758572D02*
X17624900Y2615715D01*
X17624900Y2615715D02*
X17482042Y2472857D01*
X17482042Y2472857D02*
X17196328Y2401429D01*
X17196328Y2401429D02*
X16696328Y2401429D01*
X16696328Y2401429D02*
X16410614Y2472857D01*
X16410614Y2472857D02*
X16267757Y2615715D01*
X16267757Y2615715D02*
X16196328Y2758572D01*
X17624900Y3972858D02*
X17696328Y4187144D01*
X17696328Y4187144D02*
X17696328Y4544286D01*
X17696328Y4544286D02*
X17624900Y4687144D01*
X17624900Y4687144D02*
X17553471Y4758572D01*
X17553471Y4758572D02*
X17410614Y4830001D01*
X17410614Y4830001D02*
X17267757Y4830001D01*
X17267757Y4830001D02*
X17124900Y4758572D01*
X17124900Y4758572D02*
X17053471Y4687144D01*
X17053471Y4687144D02*
X16982042Y4544286D01*
X16982042Y4544286D02*
X16910614Y4258572D01*
X16910614Y4258572D02*
X16839185Y4115715D01*
X16839185Y4115715D02*
X16767757Y4044286D01*
X16767757Y4044286D02*
X16624900Y3972858D01*
X16624900Y3972858D02*
X16482042Y3972858D01*
X16482042Y3972858D02*
X16339185Y4044286D01*
X16339185Y4044286D02*
X16267757Y4115715D01*
X16267757Y4115715D02*
X16196328Y4258572D01*
X16196328Y4258572D02*
X16196328Y4615715D01*
X16196328Y4615715D02*
X16267757Y4830001D01*
X17553471Y6330000D02*
X17624900Y6258572D01*
X17624900Y6258572D02*
X17696328Y6044286D01*
X17696328Y6044286D02*
X17696328Y5901429D01*
X17696328Y5901429D02*
X17624900Y5687143D01*
X17624900Y5687143D02*
X17482042Y5544286D01*
X17482042Y5544286D02*
X17339185Y5472857D01*
X17339185Y5472857D02*
X17053471Y5401429D01*
X17053471Y5401429D02*
X16839185Y5401429D01*
X16839185Y5401429D02*
X16553471Y5472857D01*
X16553471Y5472857D02*
X16410614Y5544286D01*
X16410614Y5544286D02*
X16267757Y5687143D01*
X16267757Y5687143D02*
X16196328Y5901429D01*
X16196328Y5901429D02*
X16196328Y6044286D01*
X16196328Y6044286D02*
X16267757Y6258572D01*
X16267757Y6258572D02*
X16339185Y6330000D01*
X17696328Y7758572D02*
X17696328Y6901429D01*
X17696328Y7330000D02*
X16196328Y7330000D01*
X16196328Y7330000D02*
X16410614Y7187143D01*
X16410614Y7187143D02*
X16553471Y7044286D01*
X16553471Y7044286D02*
X16624900Y6901429D01*
X23792328Y32040142D02*
X22292328Y32040142D01*
X22292328Y32040142D02*
X23363757Y32540142D01*
X23363757Y32540142D02*
X22292328Y33040142D01*
X22292328Y33040142D02*
X23792328Y33040142D01*
X22292328Y34040143D02*
X22292328Y34325857D01*
X22292328Y34325857D02*
X22363757Y34468714D01*
X22363757Y34468714D02*
X22506614Y34611571D01*
X22506614Y34611571D02*
X22792328Y34683000D01*
X22792328Y34683000D02*
X23292328Y34683000D01*
X23292328Y34683000D02*
X23578042Y34611571D01*
X23578042Y34611571D02*
X23720900Y34468714D01*
X23720900Y34468714D02*
X23792328Y34325857D01*
X23792328Y34325857D02*
X23792328Y34040143D01*
X23792328Y34040143D02*
X23720900Y33897286D01*
X23720900Y33897286D02*
X23578042Y33754428D01*
X23578042Y33754428D02*
X23292328Y33683000D01*
X23292328Y33683000D02*
X22792328Y33683000D01*
X22792328Y33683000D02*
X22506614Y33754428D01*
X22506614Y33754428D02*
X22363757Y33897286D01*
X22363757Y33897286D02*
X22292328Y34040143D01*
X22292328Y35111572D02*
X22292328Y35968715D01*
X23792328Y35540143D02*
X22292328Y35540143D01*
X22292328Y36754429D02*
X22292328Y37040143D01*
X22292328Y37040143D02*
X22363757Y37183000D01*
X22363757Y37183000D02*
X22506614Y37325857D01*
X22506614Y37325857D02*
X22792328Y37397286D01*
X22792328Y37397286D02*
X23292328Y37397286D01*
X23292328Y37397286D02*
X23578042Y37325857D01*
X23578042Y37325857D02*
X23720900Y37183000D01*
X23720900Y37183000D02*
X23792328Y37040143D01*
X23792328Y37040143D02*
X23792328Y36754429D01*
X23792328Y36754429D02*
X23720900Y36611572D01*
X23720900Y36611572D02*
X23578042Y36468714D01*
X23578042Y36468714D02*
X23292328Y36397286D01*
X23292328Y36397286D02*
X22792328Y36397286D01*
X22792328Y36397286D02*
X22506614Y36468714D01*
X22506614Y36468714D02*
X22363757Y36611572D01*
X22363757Y36611572D02*
X22292328Y36754429D01*
X23792328Y38897286D02*
X23078042Y38397286D01*
X23792328Y38040143D02*
X22292328Y38040143D01*
X22292328Y38040143D02*
X22292328Y38611572D01*
X22292328Y38611572D02*
X22363757Y38754429D01*
X22363757Y38754429D02*
X22435185Y38825858D01*
X22435185Y38825858D02*
X22578042Y38897286D01*
X22578042Y38897286D02*
X22792328Y38897286D01*
X22792328Y38897286D02*
X22935185Y38825858D01*
X22935185Y38825858D02*
X23006614Y38754429D01*
X23006614Y38754429D02*
X23078042Y38611572D01*
X23078042Y38611572D02*
X23078042Y38040143D01*
D12*
X28680580Y31615142D02*
X28728200Y31567523D01*
X28728200Y31567523D02*
X28775819Y31424666D01*
X28775819Y31424666D02*
X28775819Y31329428D01*
X28775819Y31329428D02*
X28728200Y31186571D01*
X28728200Y31186571D02*
X28632961Y31091333D01*
X28632961Y31091333D02*
X28537723Y31043714D01*
X28537723Y31043714D02*
X28347247Y30996095D01*
X28347247Y30996095D02*
X28204390Y30996095D01*
X28204390Y30996095D02*
X28013914Y31043714D01*
X28013914Y31043714D02*
X27918676Y31091333D01*
X27918676Y31091333D02*
X27823438Y31186571D01*
X27823438Y31186571D02*
X27775819Y31329428D01*
X27775819Y31329428D02*
X27775819Y31424666D01*
X27775819Y31424666D02*
X27823438Y31567523D01*
X27823438Y31567523D02*
X27871057Y31615142D01*
X28775819Y32567523D02*
X28775819Y31996095D01*
X28775819Y32281809D02*
X27775819Y32281809D01*
X27775819Y32281809D02*
X27918676Y32186571D01*
X27918676Y32186571D02*
X28013914Y32091333D01*
X28013914Y32091333D02*
X28061533Y31996095D01*
X27775819Y32900857D02*
X27775819Y33519904D01*
X27775819Y33519904D02*
X28156771Y33186571D01*
X28156771Y33186571D02*
X28156771Y33329428D01*
X28156771Y33329428D02*
X28204390Y33424666D01*
X28204390Y33424666D02*
X28252009Y33472285D01*
X28252009Y33472285D02*
X28347247Y33519904D01*
X28347247Y33519904D02*
X28585342Y33519904D01*
X28585342Y33519904D02*
X28680580Y33472285D01*
X28680580Y33472285D02*
X28728200Y33424666D01*
X28728200Y33424666D02*
X28775819Y33329428D01*
X28775819Y33329428D02*
X28775819Y33043714D01*
X28775819Y33043714D02*
X28728200Y32948476D01*
X28728200Y32948476D02*
X28680580Y32900857D01*
%TO.C,J1*%
X1270000Y26162000D02*
X6350000Y26162000D01*
X1270000Y23622000D02*
X1270000Y26162000D01*
X6350000Y26162000D02*
X6350000Y23622000D01*
X6350000Y23622000D02*
X1270000Y23622000D01*
%TO.C,J2*%
X1270000Y28702000D02*
X6350000Y28702000D01*
X1270000Y26162000D02*
X1270000Y28702000D01*
X6350000Y28702000D02*
X6350000Y26162000D01*
X6350000Y26162000D02*
X1270000Y26162000D01*
%TO.C,J3*%
X1270000Y31242000D02*
X6350000Y31242000D01*
X1270000Y28702000D02*
X1270000Y31242000D01*
X6350000Y31242000D02*
X6350000Y28702000D01*
X6350000Y28702000D02*
X1270000Y28702000D01*
%TO.C,J6*%
X33020000Y27432000D02*
X38100000Y27432000D01*
X33020000Y24892000D02*
X33020000Y27432000D01*
X38100000Y27432000D02*
X38100000Y24892000D01*
X38100000Y24892000D02*
X33020000Y24892000D01*
%TO.C,J7*%
X43180000Y30988000D02*
X48260000Y30988000D01*
X43180000Y28448000D02*
X43180000Y30988000D01*
X48260000Y30988000D02*
X48260000Y28448000D01*
X48260000Y28448000D02*
X43180000Y28448000D01*
%TO.C,J8*%
X43180000Y28448000D02*
X48260000Y28448000D01*
X43180000Y25908000D02*
X43180000Y28448000D01*
X48260000Y28448000D02*
X48260000Y25908000D01*
X48260000Y25908000D02*
X43180000Y25908000D01*
%TO.C,J9*%
X28956000Y9144000D02*
X31496000Y9144000D01*
X28956000Y4064000D02*
X28956000Y9144000D01*
X31496000Y9144000D02*
X31496000Y4064000D01*
X31496000Y4064000D02*
X28956000Y4064000D01*
%TO.C,J10*%
X33020000Y29972000D02*
X38100000Y29972000D01*
X33020000Y27432000D02*
X33020000Y29972000D01*
X38100000Y29972000D02*
X38100000Y27432000D01*
X38100000Y27432000D02*
X33020000Y27432000D01*
%TO.C,J11*%
X33020000Y35052000D02*
X38100000Y35052000D01*
X33020000Y32512000D02*
X33020000Y35052000D01*
X38100000Y35052000D02*
X38100000Y32512000D01*
X38100000Y32512000D02*
X33020000Y32512000D01*
%TO.C,J12*%
X33020000Y37592000D02*
X38100000Y37592000D01*
X33020000Y35052000D02*
X33020000Y37592000D01*
X38100000Y37592000D02*
X38100000Y35052000D01*
X38100000Y35052000D02*
X33020000Y35052000D01*
%TO.C,J18*%
X23876000Y6604000D02*
X26416000Y6604000D01*
X23876000Y4064000D02*
X23876000Y6604000D01*
X26416000Y6604000D02*
X26416000Y4064000D01*
X26416000Y4064000D02*
X23876000Y4064000D01*
%TO.C,J19*%
X23876000Y9144000D02*
X26416000Y9144000D01*
X23876000Y6604000D02*
X23876000Y9144000D01*
X26416000Y9144000D02*
X26416000Y6604000D01*
X26416000Y6604000D02*
X23876000Y6604000D01*
%TO.C,J24*%
X26416000Y9144000D02*
X28956000Y9144000D01*
X26416000Y6604000D02*
X26416000Y9144000D01*
X28956000Y9144000D02*
X28956000Y6604000D01*
X28956000Y6604000D02*
X26416000Y6604000D01*
%TO.C,J25*%
X26416000Y6604000D02*
X28956000Y6604000D01*
X26416000Y4064000D02*
X26416000Y6604000D01*
X28956000Y6604000D02*
X28956000Y4064000D01*
X28956000Y4064000D02*
X26416000Y4064000D01*
%TO.C,J15*%
X10668000Y7620000D02*
X13208000Y7620000D01*
X10668000Y2540000D02*
X10668000Y7620000D01*
X13208000Y7620000D02*
X13208000Y2540000D01*
X13208000Y2540000D02*
X10668000Y2540000D01*
%TO.C,J14*%
X13208000Y7620000D02*
X15748000Y7620000D01*
X13208000Y2540000D02*
X13208000Y7620000D01*
X15748000Y7620000D02*
X15748000Y2540000D01*
X15748000Y2540000D02*
X13208000Y2540000D01*
%TO.C,J13*%
X33020000Y32512000D02*
X38100000Y32512000D01*
X33020000Y29972000D02*
X33020000Y32512000D01*
X38100000Y32512000D02*
X38100000Y29972000D01*
X38100000Y29972000D02*
X33020000Y29972000D01*
%TO.C,J5*%
X11215900Y40226000D02*
X16216100Y40226000D01*
X11215900Y31226000D02*
X16216100Y31226000D01*
X11216000Y31226000D02*
X11216000Y40226000D01*
X11216000Y31226000D02*
X11216000Y25226000D01*
X11216000Y25226000D02*
X11716000Y25226000D01*
X11716000Y39726100D02*
X11716000Y31726100D01*
X11716000Y39726100D02*
X15716000Y39726100D01*
X11716000Y26226000D02*
X11716000Y22725900D01*
X12215000Y25725900D02*
X15217000Y25725900D01*
X12215000Y23226000D02*
X15217000Y23226000D01*
X12215900Y29226000D02*
X15216100Y29226000D01*
X12216000Y29226000D02*
X12216000Y26226000D01*
X12216000Y25725900D02*
X12216000Y23226000D01*
X12716000Y31726100D02*
X12716000Y31226000D01*
X14716000Y31726100D02*
X14716000Y31226000D01*
X15216000Y29226000D02*
X15216000Y26226000D01*
X15216000Y25725900D02*
X15216000Y23226000D01*
X15716000Y39726100D02*
X15716000Y31726100D01*
X15716000Y31726100D02*
X11716000Y31726100D01*
X15716000Y26226000D02*
X11716000Y26226000D01*
X15716000Y26226000D02*
X15716000Y22725000D01*
X15716000Y25226000D02*
X16216000Y25226000D01*
X15716000Y22725900D02*
X11716000Y22725900D01*
X16216000Y40226000D02*
X16216000Y31226000D01*
X16216000Y31226000D02*
X16216000Y25226000D01*
%TO.C,J4*%
X16295900Y40226000D02*
X21296100Y40226000D01*
X16295900Y31226000D02*
X21296100Y31226000D01*
X16296000Y31226000D02*
X16296000Y40226000D01*
X16296000Y31226000D02*
X16296000Y25226000D01*
X16296000Y25226000D02*
X16796000Y25226000D01*
X16796000Y39726100D02*
X16796000Y31726100D01*
X16796000Y39726100D02*
X20796000Y39726100D01*
X16796000Y26226000D02*
X16796000Y22725900D01*
X17295000Y25725900D02*
X20297000Y25725900D01*
X17295000Y23226000D02*
X20297000Y23226000D01*
X17295900Y29226000D02*
X20296100Y29226000D01*
X17296000Y29226000D02*
X17296000Y26226000D01*
X17296000Y25725900D02*
X17296000Y23226000D01*
X17796000Y31726100D02*
X17796000Y31226000D01*
X19796000Y31726100D02*
X19796000Y31226000D01*
X20296000Y29226000D02*
X20296000Y26226000D01*
X20296000Y25725900D02*
X20296000Y23226000D01*
X20796000Y39726100D02*
X20796000Y31726100D01*
X20796000Y31726100D02*
X16796000Y31726100D01*
X20796000Y26226000D02*
X16796000Y26226000D01*
X20796000Y26226000D02*
X20796000Y22725000D01*
X20796000Y25226000D02*
X21296000Y25226000D01*
X20796000Y22725900D02*
X16796000Y22725900D01*
X21296000Y40226000D02*
X21296000Y31226000D01*
X21296000Y31226000D02*
X21296000Y25226000D01*
%TO.C,C13*%
X25069800Y31584900D02*
X24770080Y31584900D01*
X25069800Y31584900D02*
X25069800Y31884620D01*
X25069800Y31584900D02*
X25369520Y31584900D01*
X25069800Y31285180D02*
X25069800Y31584900D01*
X29169360Y32385000D02*
G75*
G02*
X24170640Y32385000I-2499360J0D01*
G01*
X24170640Y32385000D02*
G75*
G02*
X29169360Y32385000I2499360J0D01*
G01*
%TO.C,J23*%
X334000Y20788000D02*
X334000Y15788000D01*
X833900Y19789000D02*
X833900Y16787000D01*
X1334000Y16288000D02*
X1334000Y20288000D01*
X4334000Y19788100D02*
X4334000Y16787900D01*
X4334000Y19788000D02*
X1334000Y19788000D01*
X4334000Y16788000D02*
X1334000Y16788000D01*
X6334000Y20788100D02*
X6334000Y15787900D01*
X6334000Y20788000D02*
X334000Y20788000D01*
X6334000Y20788000D02*
X15334000Y20788000D01*
X6334000Y15788000D02*
X334000Y15788000D01*
X6834100Y19288000D02*
X6334000Y19288000D01*
X6834100Y17288000D02*
X6334000Y17288000D01*
X6834100Y16288000D02*
X6834100Y20288000D01*
X14834100Y20288000D02*
X6834100Y20288000D01*
X14834100Y20288000D02*
X14834100Y16288000D01*
X14834100Y16288000D02*
X6834100Y16288000D01*
X15334000Y20788100D02*
X15334000Y15787900D01*
X15334000Y15788000D02*
X6334000Y15788000D01*
%TO.C,J22*%
X334000Y15788000D02*
X334000Y10788000D01*
X833900Y14789000D02*
X833900Y11787000D01*
X1334000Y11288000D02*
X1334000Y15288000D01*
X4334000Y14788100D02*
X4334000Y11787900D01*
X4334000Y14788000D02*
X1334000Y14788000D01*
X4334000Y11788000D02*
X1334000Y11788000D01*
X6334000Y15788100D02*
X6334000Y10787900D01*
X6334000Y15788000D02*
X334000Y15788000D01*
X6334000Y15788000D02*
X15334000Y15788000D01*
X6334000Y10788000D02*
X334000Y10788000D01*
X6834100Y14288000D02*
X6334000Y14288000D01*
X6834100Y12288000D02*
X6334000Y12288000D01*
X6834100Y11288000D02*
X6834100Y15288000D01*
X14834100Y15288000D02*
X6834100Y15288000D01*
X14834100Y15288000D02*
X14834100Y11288000D01*
X14834100Y11288000D02*
X6834100Y11288000D01*
X15334000Y15788100D02*
X15334000Y10787900D01*
X15334000Y10788000D02*
X6334000Y10788000D01*
%TO.C,J21*%
X35466000Y22566000D02*
X44466000Y22566000D01*
X35466000Y17565900D02*
X35466000Y22566100D01*
X35965900Y22066000D02*
X43965900Y22066000D01*
X35965900Y18066000D02*
X35965900Y22066000D01*
X35965900Y18066000D02*
X43965900Y18066000D01*
X43965900Y22066000D02*
X43965900Y18066000D01*
X43965900Y21066000D02*
X44466000Y21066000D01*
X43965900Y19066000D02*
X44466000Y19066000D01*
X44466000Y22566000D02*
X50466000Y22566000D01*
X44466000Y17566000D02*
X35466000Y17566000D01*
X44466000Y17566000D02*
X50466000Y17566000D01*
X44466000Y17565900D02*
X44466000Y22566100D01*
X46466000Y21566000D02*
X49466000Y21566000D01*
X46466000Y18566000D02*
X49466000Y18566000D01*
X46466000Y18565900D02*
X46466000Y21566100D01*
X49466000Y22066000D02*
X49466000Y18066000D01*
X49966100Y18565000D02*
X49966100Y21567000D01*
X50466000Y17566000D02*
X50466000Y22566000D01*
%TO.C,J20*%
X35466000Y17566000D02*
X44466000Y17566000D01*
X35466000Y12565900D02*
X35466000Y17566100D01*
X35965900Y17066000D02*
X43965900Y17066000D01*
X35965900Y13066000D02*
X35965900Y17066000D01*
X35965900Y13066000D02*
X43965900Y13066000D01*
X43965900Y17066000D02*
X43965900Y13066000D01*
X43965900Y16066000D02*
X44466000Y16066000D01*
X43965900Y14066000D02*
X44466000Y14066000D01*
X44466000Y17566000D02*
X50466000Y17566000D01*
X44466000Y12566000D02*
X35466000Y12566000D01*
X44466000Y12566000D02*
X50466000Y12566000D01*
X44466000Y12565900D02*
X44466000Y17566100D01*
X46466000Y16566000D02*
X49466000Y16566000D01*
X46466000Y13566000D02*
X49466000Y13566000D01*
X46466000Y13565900D02*
X46466000Y16566100D01*
X49466000Y17066000D02*
X49466000Y13066000D01*
X49966100Y13565000D02*
X49966100Y16567000D01*
X50466000Y12566000D02*
X50466000Y17566000D01*
%TO.C,J26*%
X31496000Y9144000D02*
X34036000Y9144000D01*
X31496000Y6604000D02*
X31496000Y9144000D01*
X34036000Y9144000D02*
X34036000Y6604000D01*
X34036000Y6604000D02*
X31496000Y6604000D01*
%TO.C,J27*%
X31496000Y6604000D02*
X34036000Y6604000D01*
X31496000Y4064000D02*
X31496000Y6604000D01*
X34036000Y6604000D02*
X34036000Y4064000D01*
X34036000Y4064000D02*
X31496000Y4064000D01*
%TD*%
D13*
%TO.C,J1*%
X2540000Y24892000D03*
X5080000Y24892000D03*
%TD*%
%TO.C,J2*%
X2540000Y27432000D03*
X5080000Y27432000D03*
%TD*%
%TO.C,J3*%
X2540000Y29972000D03*
X5080000Y29972000D03*
%TD*%
%TO.C,J6*%
X34290000Y26162000D03*
X36830000Y26162000D03*
%TD*%
%TO.C,J7*%
X44450000Y29718000D03*
X46990000Y29718000D03*
%TD*%
%TO.C,J8*%
X44450000Y27178000D03*
X46990000Y27178000D03*
%TD*%
%TO.C,J9*%
X30226000Y5334000D03*
X30226000Y7874000D03*
%TD*%
%TO.C,J10*%
X34290000Y28702000D03*
X36830000Y28702000D03*
%TD*%
%TO.C,J11*%
X34290000Y33782000D03*
X36830000Y33782000D03*
%TD*%
%TO.C,J12*%
X34290000Y36322000D03*
X36830000Y36322000D03*
%TD*%
%TO.C,J18*%
X25146000Y5334000D03*
%TD*%
%TO.C,J19*%
X25146000Y7874000D03*
%TD*%
%TO.C,J24*%
X27686000Y7874000D03*
%TD*%
%TO.C,J25*%
X27686000Y5334000D03*
%TD*%
%TO.C,J15*%
X11938000Y3810000D03*
X11938000Y6350000D03*
%TD*%
%TO.C,J14*%
X14478000Y3810000D03*
X14478000Y6350000D03*
%TD*%
%TO.C,J13*%
X34290000Y31242000D03*
X36830000Y31242000D03*
%TD*%
D14*
%TO.C,J5*%
X13716000Y35226000D03*
X13716000Y30226000D03*
%TD*%
%TO.C,J4*%
X18796000Y35226000D03*
X18796000Y30226000D03*
%TD*%
D15*
%TO.C,C13*%
X26670000Y31384240D03*
X26670000Y33385760D03*
%TD*%
D14*
%TO.C,J23*%
X10334000Y18288000D03*
X5334000Y18288000D03*
%TD*%
%TO.C,J22*%
X10334000Y13288000D03*
X5334000Y13288000D03*
%TD*%
%TO.C,J21*%
X40466000Y20066000D03*
X45466000Y20066000D03*
%TD*%
%TO.C,J20*%
X40466000Y15066000D03*
X45466000Y15066000D03*
%TD*%
D13*
%TO.C,J26*%
X32766000Y7874000D03*
%TD*%
%TO.C,J27*%
X32766000Y5334000D03*
%TD*%
M02*
