%TF.GenerationSoftware,KiCad,Pcbnew,9.0.1+1*%
%TF.CreationDate,2025-08-19T22:17:54+00:00*%
%TF.ProjectId,HBSTEP01,48425354-4550-4303-912e-6b696361645f,rev?*%
%TF.SameCoordinates,Original*%
%TF.FileFunction,Copper,L2,Bot*%
%TF.FilePolarity,Positive*%
%FSLAX46Y46*%
G04 Gerber Fmt 4.6, Leading zero omitted, Abs format (unit mm)*
G04 Created by KiCad (PCBNEW 9.0.1+1) date 2025-08-19 22:17:54*
%MOMM*%
%LPD*%
G01*
G04 APERTURE LIST*
%ADD10C,0.300000*%
%TA.AperFunction,NonConductor*%
%ADD11C,0.300000*%
%TD*%
%TA.AperFunction,ComponentPad*%
%ADD12R,1.524000X1.524000*%
%TD*%
%TA.AperFunction,ComponentPad*%
%ADD13C,6.000000*%
%TD*%
%TA.AperFunction,ComponentPad*%
%ADD14R,3.810000X3.810000*%
%TD*%
%TA.AperFunction,ComponentPad*%
%ADD15C,1.480820*%
%TD*%
%TA.AperFunction,SMDPad,CuDef*%
%ADD16R,0.889000X1.397000*%
%TD*%
%TA.AperFunction,SMDPad,CuDef*%
%ADD17R,1.397000X0.889000*%
%TD*%
%TA.AperFunction,SMDPad,CuDef*%
%ADD18R,1.950720X2.499360*%
%TD*%
%TA.AperFunction,SMDPad,CuDef*%
%ADD19R,2.499360X2.550160*%
%TD*%
%TA.AperFunction,SMDPad,CuDef*%
%ADD20R,1.800860X2.499360*%
%TD*%
%TA.AperFunction,SMDPad,CuDef*%
%ADD21R,1.699260X1.300480*%
%TD*%
%TA.AperFunction,SMDPad,CuDef*%
%ADD22R,0.398780X1.399540*%
%TD*%
%TA.AperFunction,SMDPad,CuDef*%
%ADD23R,3.098800X2.898140*%
%TD*%
%TA.AperFunction,SMDPad,CuDef*%
%ADD24R,9.799320X6.197600*%
%TD*%
%TA.AperFunction,SMDPad,CuDef*%
%ADD25R,0.800100X1.000760*%
%TD*%
%TA.AperFunction,ViaPad*%
%ADD26C,0.889000*%
%TD*%
%TA.AperFunction,Conductor*%
%ADD27C,0.254000*%
%TD*%
%TA.AperFunction,Conductor*%
%ADD28C,0.300000*%
%TD*%
%TA.AperFunction,Conductor*%
%ADD29C,0.500000*%
%TD*%
%TA.AperFunction,Conductor*%
%ADD30C,0.400000*%
%TD*%
G04 APERTURE END LIST*
D10*
D11*
X42334328Y37806000D02*
X40834328Y37806000D01*
X40834328Y37806000D02*
X41905757Y37306000D01*
X41905757Y37306000D02*
X40834328Y36806000D01*
X40834328Y36806000D02*
X42334328Y36806000D01*
X42334328Y35377428D02*
X42334328Y36091714D01*
X42334328Y36091714D02*
X40834328Y36091714D01*
X41905757Y34948856D02*
X41905757Y34234571D01*
X42334328Y35091713D02*
X40834328Y34591713D01*
X40834328Y34591713D02*
X42334328Y34091713D01*
X41548614Y33091714D02*
X41620042Y32877428D01*
X41620042Y32877428D02*
X41691471Y32805999D01*
X41691471Y32805999D02*
X41834328Y32734571D01*
X41834328Y32734571D02*
X42048614Y32734571D01*
X42048614Y32734571D02*
X42191471Y32805999D01*
X42191471Y32805999D02*
X42262900Y32877428D01*
X42262900Y32877428D02*
X42334328Y33020285D01*
X42334328Y33020285D02*
X42334328Y33591714D01*
X42334328Y33591714D02*
X40834328Y33591714D01*
X40834328Y33591714D02*
X40834328Y33091714D01*
X40834328Y33091714D02*
X40905757Y32948857D01*
X40905757Y32948857D02*
X40977185Y32877428D01*
X40977185Y32877428D02*
X41120042Y32805999D01*
X41120042Y32805999D02*
X41262900Y32805999D01*
X41262900Y32805999D02*
X41405757Y32877428D01*
X41405757Y32877428D02*
X41477185Y32948857D01*
X41477185Y32948857D02*
X41548614Y33091714D01*
X41548614Y33091714D02*
X41548614Y33591714D01*
D12*
%TO.P,J1,1*%
%TO.N,GND*%
X2540000Y24892000D03*
%TO.P,J1,2*%
X5080000Y24892000D03*
%TD*%
%TO.P,J2,1*%
%TO.N,VDD*%
X2540000Y27432000D03*
%TO.P,J2,2*%
X5080000Y27432000D03*
%TD*%
%TO.P,J3,1*%
%TO.N,GND*%
X2540000Y29972000D03*
%TO.P,J3,2*%
X5080000Y29972000D03*
%TD*%
%TO.P,J6,1*%
%TO.N,/FLAG*%
X34290000Y26162000D03*
%TO.P,J6,2*%
X36830000Y26162000D03*
%TD*%
%TO.P,J7,1*%
%TO.N,/SYNC*%
X44450000Y29718000D03*
%TO.P,J7,2*%
X46990000Y29718000D03*
%TD*%
%TO.P,J8,1*%
%TO.N,/STCK*%
X44450000Y27178000D03*
%TO.P,J8,2*%
X46990000Y27178000D03*
%TD*%
%TO.P,J9,1*%
%TO.N,/STBY*%
X30226000Y5334000D03*
%TO.P,J9,2*%
X30226000Y7874000D03*
%TD*%
%TO.P,J10,1*%
%TO.N,/CS*%
X34290000Y28702000D03*
%TO.P,J10,2*%
X36830000Y28702000D03*
%TD*%
%TO.P,J11,1*%
%TO.N,/CK*%
X34290000Y33782000D03*
%TO.P,J11,2*%
X36830000Y33782000D03*
%TD*%
%TO.P,J12,1*%
%TO.N,/SDO*%
X34290000Y36322000D03*
%TO.P,J12,2*%
X36830000Y36322000D03*
%TD*%
%TO.P,J18,1*%
%TO.N,VDD*%
X25146000Y5334000D03*
%TD*%
%TO.P,J19,1*%
%TO.N,Net-(C15-Pad1)*%
X25146000Y7874000D03*
%TD*%
%TO.P,J24,1*%
%TO.N,/ADCIN*%
X27686000Y7874000D03*
%TD*%
%TO.P,J25,1*%
%TO.N,Net-(J25-Pad1)*%
X27686000Y5334000D03*
%TD*%
D13*
%TO.P,P1,1*%
%TO.N,GND*%
X5080000Y5080000D03*
%TD*%
%TO.P,P2,1*%
%TO.N,GND*%
X5080000Y35560000D03*
%TD*%
%TO.P,P3,1*%
%TO.N,GND*%
X45720000Y5080000D03*
%TD*%
%TO.P,P4,1*%
%TO.N,GND*%
X45720000Y35560000D03*
%TD*%
D12*
%TO.P,J15,1*%
%TO.N,/OSCO*%
X11938000Y3810000D03*
%TO.P,J15,2*%
X11938000Y6350000D03*
%TD*%
%TO.P,J14,1*%
%TO.N,/OSCI*%
X14478000Y3810000D03*
%TO.P,J14,2*%
X14478000Y6350000D03*
%TD*%
%TO.P,J13,1*%
%TO.N,/SDI*%
X34290000Y31242000D03*
%TO.P,J13,2*%
X36830000Y31242000D03*
%TD*%
D14*
%TO.P,J5,1*%
%TO.N,GND*%
X13716000Y35226000D03*
X13716000Y30226000D03*
%TD*%
%TO.P,J4,1*%
%TO.N,VSS*%
X18796000Y35226000D03*
X18796000Y30226000D03*
%TD*%
D15*
%TO.P,C13,1*%
%TO.N,VSS*%
X26670000Y31384240D03*
%TO.P,C13,2*%
%TO.N,GND*%
X26670000Y33385760D03*
%TD*%
D14*
%TO.P,J23,1*%
%TO.N,/2B*%
X10334000Y18288000D03*
X5334000Y18288000D03*
%TD*%
%TO.P,J22,1*%
%TO.N,/1B*%
X10334000Y13288000D03*
X5334000Y13288000D03*
%TD*%
%TO.P,J21,1*%
%TO.N,/2A*%
X40466000Y20066000D03*
X45466000Y20066000D03*
%TD*%
%TO.P,J20,1*%
%TO.N,/1A*%
X40466000Y15066000D03*
X45466000Y15066000D03*
%TD*%
D12*
%TO.P,J26,1*%
%TO.N,Net-(C14-Pad1)*%
X32766000Y7874000D03*
%TD*%
%TO.P,J27,1*%
%TO.N,GND*%
X32766000Y5334000D03*
%TD*%
D16*
%TO.P,C1,1*%
%TO.N,VSS*%
X19050000Y26924000D03*
%TO.P,C1,2*%
%TO.N,GND*%
X17145000Y26924000D03*
%TD*%
%TO.P,C2,1*%
%TO.N,VDD*%
X23431500Y28702000D03*
%TO.P,C2,2*%
%TO.N,GND*%
X25336500Y28702000D03*
%TD*%
D17*
%TO.P,C3,1*%
%TO.N,VSS*%
X32639000Y11874500D03*
%TO.P,C3,2*%
%TO.N,GND*%
X32639000Y9969500D03*
%TD*%
D18*
%TO.P,C4,1*%
%TO.N,VDD*%
X21107400Y2794000D03*
%TO.P,C4,2*%
%TO.N,GND*%
X18008600Y2794000D03*
%TD*%
D16*
%TO.P,C5,1*%
%TO.N,VSS*%
X16700500Y9144000D03*
%TO.P,C5,2*%
%TO.N,GND*%
X14795500Y9144000D03*
%TD*%
D19*
%TO.P,C6,1*%
%TO.N,VSS*%
X28448000Y29733240D03*
%TO.P,C6,2*%
%TO.N,GND*%
X28448000Y34782760D03*
%TD*%
D17*
%TO.P,C9,1*%
%TO.N,/SYNC*%
X41148000Y26606500D03*
%TO.P,C9,2*%
%TO.N,GND*%
X41148000Y24701500D03*
%TD*%
%TO.P,C11,1*%
%TO.N,Net-(C11-Pad1)*%
X20574000Y5397500D03*
%TO.P,C11,2*%
%TO.N,Net-(C11-Pad2)*%
X20574000Y7302500D03*
%TD*%
D20*
%TO.P,D1,1*%
%TO.N,GND*%
X23368000Y35526980D03*
%TO.P,D1,2*%
%TO.N,VSS*%
X23368000Y31529020D03*
%TD*%
%TO.P,D2,1*%
%TO.N,GND*%
X8890000Y29176980D03*
%TO.P,D2,2*%
%TO.N,VDD*%
X8890000Y25179020D03*
%TD*%
D21*
%TO.P,D4,1*%
%TO.N,GND*%
X40132000Y8608060D03*
%TO.P,D4,2*%
%TO.N,/ADCIN*%
X40132000Y5107940D03*
%TD*%
D16*
%TO.P,R1,1*%
%TO.N,VDD*%
X34099500Y2540000D03*
%TO.P,R1,2*%
%TO.N,/STBY*%
X36004500Y2540000D03*
%TD*%
D17*
%TO.P,R2,1*%
%TO.N,VDD*%
X39116000Y30162500D03*
%TO.P,R2,2*%
%TO.N,/FLAG*%
X39116000Y28257500D03*
%TD*%
%TO.P,R3,1*%
%TO.N,VDD*%
X41148000Y30162500D03*
%TO.P,R3,2*%
%TO.N,/SYNC*%
X41148000Y28257500D03*
%TD*%
D22*
%TO.P,U1,1*%
%TO.N,GND*%
X29400500Y11590020D03*
%TO.P,U1,2*%
%TO.N,/1A*%
X28750260Y11590020D03*
%TO.P,U1,3*%
X28100020Y11590020D03*
%TO.P,U1,4*%
%TO.N,VSS*%
X27449780Y11590020D03*
%TO.P,U1,5*%
X26799540Y11590020D03*
%TO.P,U1,6*%
%TO.N,/STBY*%
X26149300Y11590020D03*
%TO.P,U1,7*%
%TO.N,Net-(R6-Pad1)*%
X25499060Y11590020D03*
%TO.P,U1,8*%
%TO.N,/ADCIN*%
X24848820Y11590020D03*
%TO.P,U1,9*%
%TO.N,Net-(C15-Pad1)*%
X24198580Y11590020D03*
%TO.P,U1,10*%
%TO.N,/OSCI*%
X23553420Y11590020D03*
%TO.P,U1,11*%
%TO.N,/OSCO*%
X22903180Y11590020D03*
%TO.P,U1,12*%
%TO.N,GND*%
X22252940Y11590020D03*
%TO.P,U1,13*%
%TO.N,Net-(C11-Pad2)*%
X21602700Y11590020D03*
%TO.P,U1,14*%
%TO.N,Net-(C10-Pad2)*%
X20952460Y11590020D03*
%TO.P,U1,15*%
%TO.N,VSS*%
X20302220Y11590020D03*
%TO.P,U1,16*%
X19651980Y11590020D03*
%TO.P,U1,17*%
%TO.N,/1B*%
X19001740Y11590020D03*
%TO.P,U1,18*%
X18351500Y11590020D03*
%TO.P,U1,19*%
%TO.N,GND*%
X18351500Y24985980D03*
%TO.P,U1,20*%
%TO.N,/2B*%
X19001740Y24985980D03*
%TO.P,U1,21*%
X19651980Y24985980D03*
%TO.P,U1,22*%
%TO.N,VSS*%
X20302220Y24985980D03*
%TO.P,U1,23*%
X20952460Y24985980D03*
%TO.P,U1,24*%
%TO.N,VDD*%
X21602700Y24985980D03*
%TO.P,U1,25*%
%TO.N,/SDO*%
X22252940Y24985980D03*
%TO.P,U1,26*%
%TO.N,/CK*%
X22903180Y24985980D03*
%TO.P,U1,27*%
%TO.N,/SDI*%
X23553420Y24985980D03*
%TO.P,U1,28*%
%TO.N,GND*%
X24198580Y24985980D03*
%TO.P,U1,29*%
%TO.N,/SYNC*%
X24848820Y24985980D03*
%TO.P,U1,30*%
%TO.N,/CS*%
X25499060Y24985980D03*
%TO.P,U1,31*%
%TO.N,/FLAG*%
X26149300Y24985980D03*
%TO.P,U1,32*%
%TO.N,/STCK*%
X26799540Y24985980D03*
%TO.P,U1,33*%
%TO.N,VSS*%
X27449780Y24985980D03*
%TO.P,U1,34*%
X28100020Y24985980D03*
%TO.P,U1,35*%
%TO.N,/2A*%
X28750260Y24985980D03*
%TO.P,U1,36*%
X29400500Y24985980D03*
D23*
%TO.P,U1,50*%
%TO.N,GND*%
X30325060Y18288000D03*
D24*
%TO.P,U1,51*%
X23876000Y18288000D03*
D23*
%TO.P,U1,52*%
X17426940Y18288000D03*
%TD*%
D16*
%TO.P,C10,1*%
%TO.N,VSS*%
X18605500Y9144000D03*
%TO.P,C10,2*%
%TO.N,Net-(C10-Pad2)*%
X20510500Y9144000D03*
%TD*%
%TO.P,R4,1*%
%TO.N,VSS*%
X24193500Y2540000D03*
%TO.P,R4,2*%
%TO.N,Net-(J25-Pad1)*%
X26098500Y2540000D03*
%TD*%
%TO.P,R5,1*%
%TO.N,Net-(J25-Pad1)*%
X28257500Y2540000D03*
%TO.P,R5,2*%
%TO.N,GND*%
X30162500Y2540000D03*
%TD*%
D17*
%TO.P,C8,1*%
%TO.N,/FLAG*%
X39116000Y26098500D03*
%TO.P,C8,2*%
%TO.N,GND*%
X39116000Y24193500D03*
%TD*%
D16*
%TO.P,C7,1*%
%TO.N,/STBY*%
X38163500Y2540000D03*
%TO.P,C7,2*%
%TO.N,GND*%
X40068500Y2540000D03*
%TD*%
D17*
%TO.P,C12,1*%
%TO.N,/ADCIN*%
X37719000Y6794500D03*
%TO.P,C12,2*%
%TO.N,GND*%
X37719000Y8699500D03*
%TD*%
D25*
%TO.P,D3,1*%
%TO.N,VSS*%
X16954500Y7195820D03*
%TO.P,D3,2*%
%TO.N,Net-(C10-Pad2)*%
X18859500Y7195820D03*
%TO.P,D3,3*%
%TO.N,Net-(C11-Pad1)*%
X17907000Y4996180D03*
%TD*%
D16*
%TO.P,C14,1*%
%TO.N,Net-(C14-Pad1)*%
X39941500Y11176000D03*
%TO.P,C14,2*%
%TO.N,GND*%
X41846500Y11176000D03*
%TD*%
%TO.P,R6,1*%
%TO.N,Net-(R6-Pad1)*%
X35877500Y11176000D03*
%TO.P,R6,2*%
%TO.N,Net-(C14-Pad1)*%
X37782500Y11176000D03*
%TD*%
D17*
%TO.P,R7,1*%
%TO.N,Net-(R6-Pad1)*%
X35433000Y7556500D03*
%TO.P,R7,2*%
%TO.N,VDD*%
X35433000Y5651500D03*
%TD*%
%TO.P,C15,1*%
%TO.N,Net-(C15-Pad1)*%
X22733000Y7302500D03*
%TO.P,C15,2*%
%TO.N,GND*%
X22733000Y5397500D03*
%TD*%
D26*
%TO.N,VSS*%
X20066000Y13208000D03*
X26924000Y13208000D03*
X31114996Y12065000D03*
%TO.N,GND*%
X26289000Y19939000D03*
X24765000Y17780000D03*
X19431000Y2032000D03*
X22225000Y16129000D03*
X23876000Y16256000D03*
X22225000Y17780000D03*
X23495000Y20701000D03*
X29083000Y18288000D03*
X32893000Y3937000D03*
X25527000Y34925000D03*
X24892000Y19050000D03*
X19433975Y4068390D03*
X26924000Y16256000D03*
X28067000Y17145000D03*
X22225000Y19431000D03*
X26797000Y37465000D03*
X26162000Y18034000D03*
X23368000Y17780000D03*
X31882487Y3815487D03*
X23495000Y19304000D03*
X13716000Y24511000D03*
X22225000Y20701000D03*
X30325060Y18288000D03*
X25019000Y20447000D03*
X28067000Y19685000D03*
X25527000Y36322000D03*
X13716000Y27432000D03*
%TO.N,VDD*%
X10922000Y23622000D03*
X39116000Y31369000D03*
X22098000Y28702000D03*
X33274000Y2540000D03*
%TO.N,/FLAG*%
X26162000Y23368000D03*
%TO.N,/SYNC*%
X25894365Y26556636D03*
%TO.N,/STCK*%
X27184332Y22856834D03*
%TO.N,/CS*%
X25019000Y23368000D03*
%TO.N,/CK*%
X23523488Y26641515D03*
%TO.N,/SDO*%
X22352000Y26670000D03*
%TO.N,/SDI*%
X22860000Y23368000D03*
%TO.N,/OSCI*%
X23685511Y8890000D03*
%TO.N,/OSCO*%
X22606000Y9906000D03*
%TO.N,Net-(C14-Pad1)*%
X38862000Y11176000D03*
%TO.N,Net-(R6-Pad1)*%
X34544000Y11176000D03*
X28941915Y9129915D03*
%TD*%
D27*
%TO.N,VSS*%
X26799540Y11590020D02*
X27449780Y11590020D01*
D28*
X22064980Y30226000D02*
X23368000Y31529020D01*
X19651980Y9445980D02*
X19350000Y9144000D01*
X18796000Y30226000D02*
X22064980Y30226000D01*
X16954500Y7195820D02*
X16954500Y6395440D01*
X16954500Y7195820D02*
X16954500Y8890000D01*
X19350000Y9144000D02*
X18605500Y9144000D01*
X16954500Y8890000D02*
X16700500Y9144000D01*
D27*
X19651980Y11590020D02*
X20302220Y11590020D01*
X20302220Y12971780D02*
X20066000Y13208000D01*
X20302220Y24985980D02*
X20952460Y24985980D01*
D29*
X31114996Y12065000D02*
X32512000Y12065000D01*
D28*
X19651980Y11590020D02*
X19651980Y9445980D01*
D27*
X27449780Y24985980D02*
X28100020Y24985980D01*
D28*
X22923500Y1016000D02*
X24193500Y2286000D01*
X16383000Y5823940D02*
X16383000Y1467358D01*
D27*
X26799540Y11590020D02*
X26799540Y13083540D01*
X20302220Y11590020D02*
X20302220Y12971780D01*
D28*
X16954500Y6395440D02*
X16383000Y5823940D01*
D27*
X26799540Y13083540D02*
X26924000Y13208000D01*
X19050000Y29972000D02*
X18796000Y30226000D01*
D28*
X16834358Y1016000D02*
X22923500Y1016000D01*
X16700500Y9144000D02*
X18605500Y9144000D01*
X18399760Y8938260D02*
X18605500Y9144000D01*
X16383000Y1467358D02*
X16834358Y1016000D01*
D27*
X19050000Y26924000D02*
X19050000Y29972000D01*
D28*
X24193500Y2286000D02*
X24193500Y2540000D01*
D29*
X32512000Y12065000D02*
X32893000Y11684000D01*
D27*
%TO.N,GND*%
X29083000Y18288000D02*
X30325060Y18288000D01*
X28067000Y17145000D02*
X26924000Y18288000D01*
X26924000Y18288000D02*
X23876000Y18288000D01*
X28067000Y19685000D02*
X26670000Y18288000D01*
X26670000Y18288000D02*
X23876000Y18288000D01*
X26289000Y19939000D02*
X24638000Y18288000D01*
X24638000Y18288000D02*
X23876000Y18288000D01*
X26162000Y18034000D02*
X25908000Y18288000D01*
X25908000Y18288000D02*
X23876000Y18288000D01*
X26924000Y16256000D02*
X24130000Y18288000D01*
X24130000Y18288000D02*
X23876000Y18288000D01*
X23876000Y16256000D02*
X23876000Y16891000D01*
X23876000Y16891000D02*
X23876000Y18288000D01*
X22225000Y16129000D02*
X23876000Y17780000D01*
X23876000Y17780000D02*
X23876000Y18288000D01*
X22225000Y17780000D02*
X22733000Y18288000D01*
X22733000Y18288000D02*
X23876000Y18288000D01*
X22225000Y19431000D02*
X23368000Y18288000D01*
X23368000Y18288000D02*
X23876000Y18288000D01*
X22225000Y20701000D02*
X23876000Y19050000D01*
X23876000Y19050000D02*
X23876000Y18288000D01*
X23495000Y20701000D02*
X23876000Y20320000D01*
X23876000Y20320000D02*
X23876000Y18288000D01*
X23495000Y19304000D02*
X23876000Y18923000D01*
X23876000Y18923000D02*
X23876000Y18288000D01*
X23368000Y17780000D02*
X23876000Y18288000D01*
X24765000Y17780000D02*
X24257000Y18288000D01*
X24257000Y18288000D02*
X23876000Y18288000D01*
X24892000Y19050000D02*
X24130000Y18288000D01*
X24130000Y18288000D02*
X23876000Y18288000D01*
X25019000Y20447000D02*
X23876000Y19304000D01*
X23876000Y19304000D02*
X23876000Y18288000D01*
D28*
X32766000Y4699000D02*
X31882487Y3815487D01*
D27*
X17145000Y25739090D02*
X17145000Y25971500D01*
X17898110Y24985980D02*
X17145000Y25739090D01*
X22603460Y5400040D02*
X22606000Y5397500D01*
D28*
X13716000Y27432000D02*
X13716000Y24511000D01*
D27*
X18351500Y24985980D02*
X14193520Y24985980D01*
D28*
X18159585Y2794000D02*
X19433975Y4068390D01*
D27*
X17145000Y25971500D02*
X17145000Y26924000D01*
X29853890Y11590020D02*
X31664910Y9779000D01*
X13271500Y25908000D02*
X13271500Y26162000D01*
D28*
X21950680Y5504180D02*
X22098000Y5651500D01*
X26670000Y33782000D02*
X25527000Y34925000D01*
X32766000Y5334000D02*
X32766000Y4699000D01*
D27*
X31940500Y9779000D02*
X32893000Y9779000D01*
X18351500Y24985980D02*
X17898110Y24985980D01*
X29400500Y11590020D02*
X29400500Y11089640D01*
X31664910Y9779000D02*
X31940500Y9779000D01*
X14193520Y24985980D02*
X13271500Y25908000D01*
X29400500Y11590020D02*
X29853890Y11590020D01*
D28*
X25654000Y36322000D02*
X26797000Y37465000D01*
X26670000Y33385760D02*
X26670000Y33782000D01*
X25527000Y36322000D02*
X25654000Y36322000D01*
X18008600Y2794000D02*
X18159585Y2794000D01*
D29*
%TO.N,VDD*%
X2540000Y27432000D02*
X5080000Y27432000D01*
X23431500Y28702000D02*
X22098000Y28702000D01*
X10922000Y23622000D02*
X10447020Y23622000D01*
X25122760Y5334000D02*
X25146000Y5334000D01*
D28*
X21503499Y26262719D02*
X21503499Y28107499D01*
X24668760Y5334000D02*
X25146000Y5334000D01*
X21602700Y24985980D02*
X21602700Y26163518D01*
X21602700Y26163518D02*
X21503499Y26262719D01*
X35179000Y5651500D02*
X35433000Y5651500D01*
D29*
X6637020Y27432000D02*
X8890000Y25179020D01*
X22582760Y2794000D02*
X25122760Y5334000D01*
X10447020Y23622000D02*
X8890000Y25179020D01*
X34099500Y2540000D02*
X33274000Y2540000D01*
D28*
X21503499Y28107499D02*
X21653501Y28257501D01*
D30*
X40767002Y30543498D02*
X41148000Y30162500D01*
D28*
X34099500Y2540000D02*
X34099500Y4572000D01*
D29*
X21107400Y2794000D02*
X22582760Y2794000D01*
D28*
X34099500Y4572000D02*
X35179000Y5651500D01*
X21653501Y28257501D02*
X22098000Y28702000D01*
D29*
X41148000Y30162500D02*
X40957500Y30162500D01*
X39116000Y30162500D02*
X39116000Y31369000D01*
X5080000Y27432000D02*
X6637020Y27432000D01*
D30*
X41148000Y30162500D02*
X39116000Y30162500D01*
D28*
%TO.N,Net-(C10-Pad2)*%
X18859500Y7493000D02*
X18859500Y7195820D01*
X20510500Y9144000D02*
X20952460Y9585960D01*
D27*
X20302220Y9316720D02*
X20129500Y9144000D01*
D28*
X20952460Y9585960D02*
X20952460Y11590020D01*
X20510500Y9144000D02*
X18859500Y7493000D01*
%TO.N,Net-(J25-Pad1)*%
X28257500Y4762500D02*
X27686000Y5334000D01*
X28257500Y2540000D02*
X28257500Y4762500D01*
X28257500Y2540000D02*
X26098500Y2540000D01*
%TO.N,/STBY*%
X30226000Y5334000D02*
X30226000Y4272000D01*
X36004500Y1541500D02*
X36004500Y2540000D01*
X26149300Y11590020D02*
X26149300Y10613898D01*
X35900499Y1437499D02*
X36004500Y1541500D01*
X33060501Y1437499D02*
X35900499Y1437499D01*
X38163500Y2540000D02*
X36004500Y2540000D01*
X29591000Y10160000D02*
X30226000Y9525000D01*
X26149300Y10613898D02*
X26603198Y10160000D01*
X30226000Y4272000D02*
X33060501Y1437499D01*
X26603198Y10160000D02*
X29591000Y10160000D01*
X30226000Y9525000D02*
X30226000Y7874000D01*
%TO.N,/FLAG*%
X26149300Y24985980D02*
X26149300Y23380700D01*
X34290000Y26162000D02*
X36830000Y26162000D01*
D27*
X39116000Y28257500D02*
X39116000Y26098500D01*
D28*
X26149300Y23380700D02*
X26162000Y23368000D01*
D27*
X39116000Y26098500D02*
X36893500Y26098500D01*
X36893500Y26098500D02*
X36830000Y26162000D01*
%TO.N,/SYNC*%
X42989500Y28257500D02*
X44450000Y29718000D01*
X25465706Y26556636D02*
X25894365Y26556636D01*
X41148000Y28257500D02*
X42989500Y28257500D01*
X24848820Y25939750D02*
X25465706Y26556636D01*
X41148000Y28257500D02*
X41148000Y26606500D01*
X40894000Y28257500D02*
X41148000Y28257500D01*
X24848820Y24985980D02*
X24848820Y25939750D01*
X44450000Y29718000D02*
X46990000Y29718000D01*
D28*
%TO.N,Net-(C11-Pad2)*%
X21602700Y8077200D02*
X20828000Y7302500D01*
X21602700Y11590020D02*
X21602700Y8077200D01*
X20828000Y7302500D02*
X20574000Y7302500D01*
D27*
%TO.N,/STCK*%
X27184332Y23567410D02*
X27184332Y22856834D01*
X26799540Y24985980D02*
X26799540Y23952202D01*
X26799540Y23952202D02*
X27184332Y23567410D01*
X44450000Y27178000D02*
X46990000Y27178000D01*
%TO.N,/ADCIN*%
X27686000Y7874000D02*
X27686000Y8890000D01*
X24848820Y10636250D02*
X24848820Y11590020D01*
X24848820Y9695180D02*
X24848820Y10636250D01*
D28*
X27790001Y6707999D02*
X36633999Y6707999D01*
X37719000Y6794500D02*
X38717500Y6794500D01*
X36720500Y6794500D02*
X37719000Y6794500D01*
X27686000Y7874000D02*
X27686000Y6812000D01*
X40132000Y5380000D02*
X40132000Y4980940D01*
X27686000Y7874000D02*
X27766800Y7874000D01*
X36633999Y6707999D02*
X36720500Y6794500D01*
X38717500Y6794500D02*
X40132000Y5380000D01*
X27686000Y6812000D02*
X27790001Y6707999D01*
D27*
X25526999Y9017001D02*
X24848820Y9695180D01*
X27558999Y9017001D02*
X25526999Y9017001D01*
X27686000Y8890000D02*
X27558999Y9017001D01*
%TO.N,/CS*%
X34290000Y28702000D02*
X36830000Y28702000D01*
X25499060Y23926802D02*
X25019000Y23446742D01*
X25499060Y24985980D02*
X25499060Y23926802D01*
X25019000Y23446742D02*
X25019000Y23368000D01*
D28*
%TO.N,/CK*%
X22903180Y26021207D02*
X23523488Y26641515D01*
X34290000Y33782000D02*
X36830000Y33782000D01*
X22903180Y24985980D02*
X22903180Y26021207D01*
%TO.N,/SDO*%
X22252940Y24985980D02*
X22252940Y26570940D01*
X22252940Y26570940D02*
X22352000Y26670000D01*
X34290000Y36322000D02*
X36830000Y36322000D01*
%TO.N,/SDI*%
X23553420Y24061420D02*
X22860000Y23368000D01*
X34290000Y31242000D02*
X36830000Y31242000D01*
X23553420Y24985980D02*
X23553420Y24061420D01*
%TO.N,/OSCI*%
X23553420Y9022091D02*
X23685511Y8890000D01*
X14478000Y3810000D02*
X14478000Y6350000D01*
X23553420Y11590020D02*
X23553420Y9022091D01*
%TO.N,/OSCO*%
X22903180Y11590020D02*
X22903180Y10203180D01*
X22903180Y10203180D02*
X22606000Y9906000D01*
X11938000Y3810000D02*
X11938000Y6350000D01*
%TO.N,Net-(C11-Pad1)*%
X17907000Y4996180D02*
X20172680Y4996180D01*
X20172680Y4996180D02*
X20574000Y5397500D01*
%TO.N,Net-(C14-Pad1)*%
X37782500Y11176000D02*
X38862000Y11176000D01*
X39941500Y11176000D02*
X38862000Y11176000D01*
X38862000Y11176000D02*
X39433500Y11176000D01*
%TO.N,Net-(C15-Pad1)*%
X24536400Y8483600D02*
X25146000Y7874000D01*
X24536400Y9256639D02*
X24536400Y8483600D01*
X24574500Y7302500D02*
X25146000Y7874000D01*
X24198580Y9594459D02*
X24536400Y9256639D01*
X24198580Y11590020D02*
X24198580Y9594459D01*
X24198580Y10590250D02*
X24198580Y11590020D01*
X22733000Y7302500D02*
X24574500Y7302500D01*
X24198580Y9594459D02*
X24198580Y10590250D01*
%TO.N,Net-(R6-Pad1)*%
X35877500Y11176000D02*
X35877500Y8001000D01*
X34544000Y11176000D02*
X35877500Y11176000D01*
X25499060Y11590020D02*
X25499060Y10480650D01*
X28465840Y9605990D02*
X28941915Y9129915D01*
X25499060Y10480650D02*
X26373720Y9605990D01*
X35877500Y8001000D02*
X35433000Y7556500D01*
X26373720Y9605990D02*
X28465840Y9605990D01*
%TD*%
%TA.AperFunction,Conductor*%
%TO.N,/2A*%
G36*
X30185191Y25889093D02*
G01*
X30221155Y25839593D01*
X30226000Y25809000D01*
X30226000Y24130000D01*
X36038026Y24130000D01*
X36092940Y24113373D01*
X36121924Y24094051D01*
X38353999Y22606000D01*
X38354000Y22606000D01*
X48161000Y22606000D01*
X48219191Y22587093D01*
X48255155Y22537593D01*
X48260000Y22507000D01*
X48260000Y18133000D01*
X48241093Y18074809D01*
X48191593Y18038845D01*
X48161000Y18034000D01*
X36858828Y18034000D01*
X36805677Y18049478D01*
X28493848Y23338823D01*
X28454907Y23386015D01*
X28448000Y23422345D01*
X28448000Y23932482D01*
X28448150Y23937927D01*
X28448428Y23942976D01*
X28453500Y23975000D01*
X28453500Y24035047D01*
X28453650Y24037770D01*
X28463752Y24063880D01*
X28472407Y24090516D01*
X28475426Y24094051D01*
X28475729Y24094833D01*
X28476542Y24095358D01*
X28482496Y24102329D01*
X28482890Y24102723D01*
X28482894Y24102726D01*
X28539144Y24186909D01*
X28553910Y24261143D01*
X28553909Y25710816D01*
X28539144Y25785051D01*
X28538222Y25789687D01*
X28545414Y25850449D01*
X28586948Y25895378D01*
X28635320Y25908000D01*
X30127000Y25908000D01*
X30185191Y25889093D01*
G37*
%TD.AperFunction*%
%TD*%
%TA.AperFunction,Conductor*%
%TO.N,/1A*%
G36*
X48219191Y16999093D02*
G01*
X48255155Y16949593D01*
X48260000Y16919000D01*
X48260000Y12799000D01*
X48241093Y12740809D01*
X48191593Y12704845D01*
X48161000Y12700000D01*
X31428238Y12700000D01*
X31390353Y12707536D01*
X31382345Y12710852D01*
X31318887Y12737138D01*
X31183841Y12764000D01*
X31046151Y12764000D01*
X30911105Y12737138D01*
X30911103Y12737137D01*
X30839639Y12707536D01*
X30801754Y12700000D01*
X29210000Y12700000D01*
X29210000Y12699999D01*
X29210000Y12632291D01*
X29191093Y12574100D01*
X29141593Y12538136D01*
X29130311Y12535193D01*
X29101809Y12529524D01*
X29101807Y12529523D01*
X29061341Y12502484D01*
X29017626Y12473274D01*
X28961376Y12389091D01*
X28946611Y12314860D01*
X28946610Y12314856D01*
X28946610Y10865186D01*
X28946611Y10865179D01*
X28961375Y10790949D01*
X28961376Y10790947D01*
X29009784Y10718502D01*
X29026393Y10659614D01*
X29005216Y10602210D01*
X28954342Y10568217D01*
X28927469Y10564500D01*
X27922811Y10564500D01*
X27864620Y10583407D01*
X27828656Y10632907D01*
X27828656Y10694093D01*
X27840495Y10718501D01*
X27848455Y10730414D01*
X27888904Y10790949D01*
X27903670Y10865183D01*
X27903669Y12314856D01*
X27888904Y12389091D01*
X27832654Y12473274D01*
X27756840Y12523932D01*
X27740363Y12534942D01*
X27741779Y12537062D01*
X27706090Y12567542D01*
X27691500Y12619272D01*
X27691500Y13144290D01*
X27710407Y13202481D01*
X27752423Y13235675D01*
X36811724Y17010385D01*
X36849801Y17018000D01*
X48161000Y17018000D01*
X48219191Y16999093D01*
G37*
%TD.AperFunction*%
%TD*%
%TA.AperFunction,Conductor*%
%TO.N,/2B*%
G36*
X19825112Y25889093D02*
G01*
X19861076Y25839593D01*
X19864018Y25789685D01*
X19848331Y25710826D01*
X19848330Y25710816D01*
X19848330Y24261146D01*
X19848331Y24261139D01*
X19863095Y24186909D01*
X19863096Y24186907D01*
X19919343Y24102729D01*
X19919348Y24102724D01*
X20003529Y24046475D01*
X20004888Y24045913D01*
X20006743Y24044327D01*
X20011636Y24041059D01*
X20011249Y24040479D01*
X20051412Y24006176D01*
X20066000Y23954450D01*
X20066000Y22451000D01*
X20047093Y22392809D01*
X19997593Y22356845D01*
X19967000Y22352000D01*
X18542000Y22352000D01*
X17018000Y20828000D01*
X16210565Y20020565D01*
X16156048Y19992788D01*
X16140561Y19991569D01*
X15852474Y19991569D01*
X15852469Y19991568D01*
X15778239Y19976804D01*
X15778237Y19976803D01*
X15695185Y19921308D01*
X15694056Y19920554D01*
X15637806Y19836371D01*
X15623040Y19762137D01*
X15623040Y19474048D01*
X15604133Y19415857D01*
X15594044Y19404044D01*
X12474996Y16284996D01*
X12420479Y16257219D01*
X12404992Y16256000D01*
X2639000Y16256000D01*
X2580809Y16274907D01*
X2544845Y16324407D01*
X2540000Y16355000D01*
X2540000Y20729000D01*
X2558907Y20787191D01*
X2608407Y20823155D01*
X2639000Y20828000D01*
X12699998Y20828000D01*
X12700000Y20828000D01*
X16038286Y22860000D01*
X17971015Y24036443D01*
X18030553Y24050548D01*
X18043075Y24047523D01*
X18043246Y24048378D01*
X18127041Y24031710D01*
X18127043Y24031710D01*
X18575953Y24031710D01*
X18575960Y24031711D01*
X18650190Y24046475D01*
X18650192Y24046476D01*
X18734370Y24102723D01*
X18734371Y24102724D01*
X18734374Y24102726D01*
X18790624Y24186909D01*
X18805390Y24261143D01*
X18805389Y25710816D01*
X18790624Y25785051D01*
X18789702Y25789687D01*
X18796894Y25850449D01*
X18838428Y25895378D01*
X18886800Y25908000D01*
X19766921Y25908000D01*
X19825112Y25889093D01*
G37*
%TD.AperFunction*%
%TD*%
%TA.AperFunction,Conductor*%
%TO.N,/1B*%
G36*
X12717157Y15233401D02*
G01*
X19235039Y12726523D01*
X19256856Y12708831D01*
X19279593Y12692313D01*
X19280438Y12689710D01*
X19282564Y12687987D01*
X19298500Y12634122D01*
X19298500Y12543675D01*
X19279593Y12485484D01*
X19269504Y12473671D01*
X19269109Y12473276D01*
X19269106Y12473274D01*
X19212856Y12389091D01*
X19210964Y12379577D01*
X19198090Y12314856D01*
X19198090Y10865186D01*
X19198091Y10865179D01*
X19212855Y10790949D01*
X19212856Y10790947D01*
X19230795Y10764101D01*
X19247480Y10709099D01*
X19247480Y10513000D01*
X19228573Y10454809D01*
X19179073Y10418845D01*
X19148480Y10414000D01*
X17780000Y10414000D01*
X17272000Y10414000D01*
X2639000Y10414000D01*
X2580809Y10432907D01*
X2544845Y10482407D01*
X2540000Y10513000D01*
X2540000Y15141000D01*
X2558907Y15199191D01*
X2608407Y15235155D01*
X2639000Y15240000D01*
X12681618Y15240000D01*
X12717157Y15233401D01*
G37*
%TD.AperFunction*%
%TD*%
%TA.AperFunction,Conductor*%
%TO.N,GND*%
G36*
X34419471Y6295761D02*
G01*
X34444030Y6290876D01*
X34448118Y6286453D01*
X34453847Y6284592D01*
X34468567Y6264330D01*
X34485562Y6245946D01*
X34486269Y6239965D01*
X34489811Y6235092D01*
X34492754Y6185187D01*
X34489652Y6169590D01*
X34480000Y6121069D01*
X34480000Y5565557D01*
X34461093Y5507366D01*
X34451009Y5495559D01*
X33851131Y4895680D01*
X33851130Y4895680D01*
X33775820Y4820369D01*
X33775816Y4820364D01*
X33722567Y4728135D01*
X33722566Y4728131D01*
X33695000Y4625253D01*
X33695000Y4625251D01*
X33695000Y3587189D01*
X33676093Y3528998D01*
X33626593Y3493034D01*
X33615312Y3490091D01*
X33582199Y3483504D01*
X33555699Y3478234D01*
X33555698Y3478233D01*
X33555697Y3478233D01*
X33484969Y3430973D01*
X33471516Y3421984D01*
X33471514Y3421981D01*
X33415266Y3337801D01*
X33415265Y3337797D01*
X33411463Y3318684D01*
X33381566Y3265301D01*
X33326000Y3239686D01*
X33314366Y3239000D01*
X33205155Y3239000D01*
X33070109Y3212138D01*
X33070107Y3212137D01*
X32942901Y3159447D01*
X32942900Y3159447D01*
X32828414Y3082949D01*
X32731050Y2985585D01*
X32654552Y2871099D01*
X32654552Y2871098D01*
X32601862Y2743892D01*
X32601860Y2743884D01*
X32592252Y2695585D01*
X32562355Y2642202D01*
X32506790Y2616587D01*
X32446780Y2628525D01*
X32425154Y2644894D01*
X30921549Y4148498D01*
X30893774Y4203013D01*
X30903345Y4263445D01*
X30946610Y4306710D01*
X30991551Y4317500D01*
X31013062Y4317500D01*
X31013070Y4317501D01*
X31087300Y4332265D01*
X31087302Y4332266D01*
X31171480Y4388513D01*
X31171481Y4388514D01*
X31171484Y4388516D01*
X31227734Y4472699D01*
X31242500Y4546933D01*
X31242499Y6121066D01*
X31233460Y6166514D01*
X31229746Y6185187D01*
X31236938Y6245948D01*
X31278472Y6290877D01*
X31326844Y6303499D01*
X34395656Y6303499D01*
X34419471Y6295761D01*
G37*
%TD.AperFunction*%
%TA.AperFunction,Conductor*%
G36*
X50454691Y40316593D02*
G01*
X50490655Y40267093D01*
X50495500Y40236500D01*
X50495500Y403500D01*
X50476593Y345309D01*
X50427093Y309345D01*
X50396500Y304500D01*
X403500Y304500D01*
X345309Y323407D01*
X309345Y372907D01*
X304500Y403500D01*
X304500Y7137066D01*
X10921500Y7137066D01*
X10921500Y5562936D01*
X10921501Y5562929D01*
X10936265Y5488699D01*
X10936266Y5488697D01*
X10992513Y5404519D01*
X10992518Y5404514D01*
X11048638Y5367016D01*
X11076699Y5348266D01*
X11136166Y5336437D01*
X11150932Y5333500D01*
X11150933Y5333500D01*
X11434500Y5333500D01*
X11492691Y5314593D01*
X11528655Y5265093D01*
X11533500Y5234500D01*
X11533500Y4925499D01*
X11514593Y4867308D01*
X11465093Y4831344D01*
X11434500Y4826499D01*
X11150934Y4826499D01*
X11150929Y4826498D01*
X11076699Y4811734D01*
X11076697Y4811733D01*
X10993645Y4756238D01*
X10992516Y4755484D01*
X10936266Y4671301D01*
X10925912Y4619247D01*
X10921500Y4597066D01*
X10921500Y3022936D01*
X10921501Y3022929D01*
X10936265Y2948699D01*
X10936266Y2948697D01*
X10992513Y2864519D01*
X10992518Y2864514D01*
X11048638Y2827016D01*
X11076699Y2808266D01*
X11150933Y2793500D01*
X12725063Y2793500D01*
X12725070Y2793501D01*
X12799300Y2808265D01*
X12799302Y2808266D01*
X12883480Y2864513D01*
X12883481Y2864514D01*
X12883484Y2864516D01*
X12939734Y2948699D01*
X12954500Y3022933D01*
X12954499Y4597066D01*
X12939734Y4671301D01*
X12883484Y4755484D01*
X12799301Y4811734D01*
X12725067Y4826500D01*
X12441499Y4826499D01*
X12383310Y4845406D01*
X12347346Y4894906D01*
X12342500Y4925499D01*
X12342500Y5234500D01*
X12361407Y5292691D01*
X12410907Y5328655D01*
X12441500Y5333500D01*
X12725063Y5333500D01*
X12725070Y5333501D01*
X12799300Y5348265D01*
X12799302Y5348266D01*
X12883480Y5404513D01*
X12883481Y5404514D01*
X12883484Y5404516D01*
X12939734Y5488699D01*
X12954500Y5562933D01*
X12954499Y7137066D01*
X13461500Y7137066D01*
X13461500Y5562936D01*
X13461501Y5562929D01*
X13476265Y5488699D01*
X13476266Y5488697D01*
X13532513Y5404519D01*
X13532518Y5404514D01*
X13588638Y5367016D01*
X13616699Y5348266D01*
X13676166Y5336437D01*
X13690932Y5333500D01*
X13690933Y5333500D01*
X13974500Y5333500D01*
X14032691Y5314593D01*
X14068655Y5265093D01*
X14073500Y5234500D01*
X14073500Y4925499D01*
X14054593Y4867308D01*
X14005093Y4831344D01*
X13974500Y4826499D01*
X13690934Y4826499D01*
X13690929Y4826498D01*
X13616699Y4811734D01*
X13616697Y4811733D01*
X13533645Y4756238D01*
X13532516Y4755484D01*
X13476266Y4671301D01*
X13465912Y4619247D01*
X13461500Y4597066D01*
X13461500Y3022936D01*
X13461501Y3022929D01*
X13476265Y2948699D01*
X13476266Y2948697D01*
X13532513Y2864519D01*
X13532518Y2864514D01*
X13588638Y2827016D01*
X13616699Y2808266D01*
X13690933Y2793500D01*
X15265063Y2793500D01*
X15265070Y2793501D01*
X15339300Y2808265D01*
X15339302Y2808266D01*
X15423480Y2864513D01*
X15423481Y2864514D01*
X15423484Y2864516D01*
X15479734Y2948699D01*
X15494500Y3022933D01*
X15494499Y4597066D01*
X15479734Y4671301D01*
X15423484Y4755484D01*
X15339301Y4811734D01*
X15265067Y4826500D01*
X14981499Y4826499D01*
X14923310Y4845406D01*
X14887346Y4894906D01*
X14882500Y4925499D01*
X14882500Y5234500D01*
X14901407Y5292691D01*
X14950907Y5328655D01*
X14981500Y5333500D01*
X15265063Y5333500D01*
X15265070Y5333501D01*
X15339300Y5348265D01*
X15339302Y5348266D01*
X15423480Y5404513D01*
X15423481Y5404514D01*
X15423484Y5404516D01*
X15479734Y5488699D01*
X15494500Y5562933D01*
X15494499Y7137066D01*
X15479734Y7211301D01*
X15423484Y7295484D01*
X15339301Y7351734D01*
X15265067Y7366500D01*
X13690934Y7366499D01*
X13690929Y7366498D01*
X13616699Y7351734D01*
X13616697Y7351733D01*
X13596595Y7338301D01*
X13532516Y7295484D01*
X13476266Y7211301D01*
X13463282Y7146025D01*
X13461500Y7137066D01*
X12954499Y7137066D01*
X12939734Y7211301D01*
X12883484Y7295484D01*
X12799301Y7351734D01*
X12725067Y7366500D01*
X11150934Y7366499D01*
X11150929Y7366498D01*
X11076699Y7351734D01*
X11076697Y7351733D01*
X11056595Y7338301D01*
X10992516Y7295484D01*
X10936266Y7211301D01*
X10923282Y7146025D01*
X10921500Y7137066D01*
X304500Y7137066D01*
X304500Y15141003D01*
X2280500Y15141003D01*
X2280500Y10513006D01*
X2283332Y10477000D01*
X2283694Y10472409D01*
X2287566Y10447962D01*
X2288542Y10441798D01*
X2292513Y10421833D01*
X2292516Y10421824D01*
X2334902Y10329880D01*
X2334905Y10329875D01*
X2370865Y10280379D01*
X2370868Y10280376D01*
X2412277Y10235582D01*
X2412278Y10235580D01*
X2500620Y10186107D01*
X2558814Y10167199D01*
X2558811Y10167199D01*
X2638997Y10154500D01*
X15973172Y10154500D01*
X16031363Y10135593D01*
X16067327Y10086093D01*
X16067327Y10024907D01*
X16055488Y10000500D01*
X16016266Y9941801D01*
X16001501Y9867570D01*
X16001500Y9867566D01*
X16001500Y8420436D01*
X16001501Y8420429D01*
X16016265Y8346199D01*
X16016266Y8346197D01*
X16072513Y8262019D01*
X16072518Y8262014D01*
X16115276Y8233444D01*
X16156699Y8205766D01*
X16216166Y8193937D01*
X16230932Y8191000D01*
X16230933Y8191000D01*
X16451000Y8191000D01*
X16465912Y8186155D01*
X16481593Y8186155D01*
X16494278Y8176938D01*
X16509191Y8172093D01*
X16518407Y8159407D01*
X16531093Y8150191D01*
X16535938Y8135278D01*
X16545155Y8122593D01*
X16550000Y8092000D01*
X16550000Y8036048D01*
X16531093Y7977857D01*
X16481593Y7941893D01*
X16470312Y7938950D01*
X16463816Y7937658D01*
X16455149Y7935934D01*
X16455148Y7935933D01*
X16455147Y7935933D01*
X16372095Y7880438D01*
X16370966Y7879684D01*
X16314716Y7795501D01*
X16310055Y7772066D01*
X16299950Y7721266D01*
X16299950Y6670376D01*
X16299951Y6670369D01*
X16314715Y6596139D01*
X16314716Y6596137D01*
X16376383Y6503849D01*
X16373237Y6501747D01*
X16392756Y6463332D01*
X16383117Y6402911D01*
X16364962Y6377951D01*
X16134631Y6147620D01*
X16134630Y6147620D01*
X16059320Y6072309D01*
X16059316Y6072304D01*
X16006067Y5980075D01*
X16006066Y5980071D01*
X15978500Y5877193D01*
X15978500Y5877191D01*
X15978500Y1414106D01*
X16006067Y1311222D01*
X16059316Y1218993D01*
X16059317Y1218992D01*
X16059320Y1218989D01*
X16585989Y692319D01*
X16678227Y639066D01*
X16781105Y611500D01*
X16781107Y611500D01*
X22976751Y611500D01*
X22976753Y611500D01*
X23079631Y639066D01*
X23079635Y639067D01*
X23171864Y692316D01*
X23171865Y692317D01*
X23171867Y692319D01*
X23171869Y692320D01*
X24037553Y1558004D01*
X24092070Y1585781D01*
X24107557Y1587000D01*
X24663063Y1587000D01*
X24663070Y1587001D01*
X24737300Y1601765D01*
X24737302Y1601766D01*
X24821480Y1658013D01*
X24821481Y1658014D01*
X24821484Y1658016D01*
X24877734Y1742199D01*
X24892500Y1816433D01*
X24892499Y3263566D01*
X24877734Y3337801D01*
X24821484Y3421984D01*
X24737301Y3478234D01*
X24663067Y3493000D01*
X24234235Y3492999D01*
X24176046Y3511906D01*
X24140082Y3561406D01*
X24140082Y3622591D01*
X24164233Y3662003D01*
X24790734Y4288504D01*
X24845251Y4316281D01*
X24860738Y4317500D01*
X25933063Y4317500D01*
X25933070Y4317501D01*
X26007300Y4332265D01*
X26007302Y4332266D01*
X26091480Y4388513D01*
X26091481Y4388514D01*
X26091484Y4388516D01*
X26147734Y4472699D01*
X26162500Y4546933D01*
X26162499Y6121066D01*
X26147734Y6195301D01*
X26091484Y6279484D01*
X26007301Y6335734D01*
X25933067Y6350500D01*
X24358934Y6350499D01*
X24358929Y6350498D01*
X24284699Y6335734D01*
X24284697Y6335733D01*
X24224876Y6295761D01*
X24200516Y6279484D01*
X24144266Y6195301D01*
X24129501Y6121072D01*
X24129500Y6121067D01*
X24129500Y5095218D01*
X24110593Y5037027D01*
X24100504Y5025214D01*
X22506261Y3430972D01*
X22451746Y3403196D01*
X22391314Y3412767D01*
X22348049Y3456032D01*
X22337259Y3500977D01*
X22337259Y4068743D01*
X22337258Y4068747D01*
X22322494Y4142981D01*
X22266244Y4227164D01*
X22182061Y4283414D01*
X22107827Y4298180D01*
X20106974Y4298179D01*
X20106969Y4298178D01*
X20032739Y4283414D01*
X20032737Y4283413D01*
X19969713Y4241301D01*
X19948556Y4227164D01*
X19892306Y4142981D01*
X19877541Y4068750D01*
X19877540Y4068747D01*
X19877540Y4068745D01*
X19877541Y1519500D01*
X19858634Y1461309D01*
X19809134Y1425345D01*
X19778541Y1420500D01*
X17042915Y1420500D01*
X16984724Y1439407D01*
X16972912Y1449496D01*
X16816497Y1605910D01*
X16788719Y1660427D01*
X16787500Y1675914D01*
X16787500Y5521626D01*
X17252450Y5521626D01*
X17252450Y4470736D01*
X17252451Y4470729D01*
X17267215Y4396499D01*
X17267216Y4396497D01*
X17323463Y4312319D01*
X17323468Y4312314D01*
X17366720Y4283414D01*
X17407649Y4256066D01*
X17481883Y4241300D01*
X18332113Y4241300D01*
X18332120Y4241301D01*
X18406350Y4256065D01*
X18406352Y4256066D01*
X18490530Y4312313D01*
X18490531Y4312314D01*
X18490534Y4312316D01*
X18546784Y4396499D01*
X18561550Y4470733D01*
X18561550Y4492680D01*
X18580457Y4550871D01*
X18629957Y4586835D01*
X18660550Y4591680D01*
X20225931Y4591680D01*
X20225933Y4591680D01*
X20328811Y4619246D01*
X20328815Y4619247D01*
X20421044Y4672496D01*
X20426195Y4676449D01*
X20427737Y4674438D01*
X20472569Y4697281D01*
X20488056Y4698500D01*
X21297563Y4698500D01*
X21297570Y4698501D01*
X21371800Y4713265D01*
X21371802Y4713266D01*
X21455980Y4769513D01*
X21455984Y4769516D01*
X21512234Y4853699D01*
X21527000Y4927933D01*
X21526999Y5867066D01*
X21512234Y5941301D01*
X21455984Y6025484D01*
X21371801Y6081734D01*
X21297567Y6096500D01*
X19850434Y6096499D01*
X19850429Y6096498D01*
X19776199Y6081734D01*
X19776197Y6081733D01*
X19762086Y6072304D01*
X19692016Y6025484D01*
X19635766Y5941301D01*
X19621001Y5867070D01*
X19621000Y5867067D01*
X19621000Y5499680D01*
X19602093Y5441489D01*
X19552593Y5405525D01*
X19522000Y5400680D01*
X18660549Y5400680D01*
X18602358Y5419587D01*
X18566394Y5469087D01*
X18561549Y5499680D01*
X18561549Y5521623D01*
X18561548Y5521627D01*
X18546784Y5595861D01*
X18490534Y5680044D01*
X18406351Y5736294D01*
X18332117Y5751060D01*
X17481884Y5751059D01*
X17481879Y5751058D01*
X17407649Y5736294D01*
X17407647Y5736293D01*
X17407646Y5736292D01*
X17323466Y5680044D01*
X17267216Y5595861D01*
X17252451Y5521630D01*
X17252450Y5521626D01*
X16787500Y5521626D01*
X16787500Y5615383D01*
X16806407Y5673574D01*
X16816496Y5685386D01*
X17278179Y6147070D01*
X17278183Y6147075D01*
X17331432Y6239304D01*
X17331432Y6239306D01*
X17331434Y6239309D01*
X17359000Y6342187D01*
X17359000Y6355592D01*
X17377907Y6413783D01*
X17427407Y6449747D01*
X17438688Y6452690D01*
X17453849Y6455705D01*
X17453852Y6455706D01*
X17538030Y6511953D01*
X17538031Y6511954D01*
X17538034Y6511956D01*
X17594284Y6596139D01*
X17609050Y6670373D01*
X17609049Y7721266D01*
X17594284Y7795501D01*
X17538034Y7879684D01*
X17453851Y7935934D01*
X17438686Y7938950D01*
X17385304Y7968844D01*
X17359687Y8024408D01*
X17359000Y8036047D01*
X17359000Y8277653D01*
X17375684Y8332653D01*
X17384733Y8346196D01*
X17384734Y8346198D01*
X17399499Y8420430D01*
X17399500Y8420434D01*
X17399500Y8640500D01*
X17418407Y8698691D01*
X17467907Y8734655D01*
X17498500Y8739500D01*
X17807501Y8739500D01*
X17865692Y8720593D01*
X17901656Y8671093D01*
X17906501Y8640500D01*
X17906501Y8420429D01*
X17921265Y8346199D01*
X17921266Y8346197D01*
X17977513Y8262019D01*
X17977518Y8262014D01*
X18020276Y8233444D01*
X18061699Y8205766D01*
X18121166Y8193937D01*
X18135932Y8191000D01*
X18135933Y8191000D01*
X18746443Y8191000D01*
X18768490Y8183836D01*
X18791388Y8180210D01*
X18797036Y8174561D01*
X18804634Y8172093D01*
X18818261Y8153336D01*
X18834653Y8136945D01*
X18835902Y8129055D01*
X18840598Y8122593D01*
X18840598Y8099407D01*
X18844224Y8076513D01*
X18840598Y8069396D01*
X18840598Y8061407D01*
X18816447Y8021996D01*
X18774146Y7979695D01*
X18719629Y7951918D01*
X18704142Y7950699D01*
X18434384Y7950699D01*
X18434379Y7950698D01*
X18360149Y7935934D01*
X18360147Y7935933D01*
X18277095Y7880438D01*
X18275966Y7879684D01*
X18219716Y7795501D01*
X18215055Y7772066D01*
X18204950Y7721266D01*
X18204950Y6670376D01*
X18204951Y6670369D01*
X18219715Y6596139D01*
X18219716Y6596137D01*
X18275963Y6511959D01*
X18275968Y6511954D01*
X18332088Y6474456D01*
X18360149Y6455706D01*
X18434383Y6440940D01*
X19284613Y6440940D01*
X19284620Y6440941D01*
X19358850Y6455705D01*
X19358852Y6455706D01*
X19443030Y6511953D01*
X19443031Y6511954D01*
X19443034Y6511956D01*
X19499284Y6596139D01*
X19508883Y6644396D01*
X19538779Y6697779D01*
X19594344Y6723395D01*
X19654354Y6711458D01*
X19688292Y6680088D01*
X19692012Y6674520D01*
X19692018Y6674514D01*
X19748138Y6637016D01*
X19776199Y6618266D01*
X19850433Y6603500D01*
X21297563Y6603500D01*
X21297570Y6603501D01*
X21371800Y6618265D01*
X21371802Y6618266D01*
X21455980Y6674513D01*
X21455981Y6674514D01*
X21455984Y6674516D01*
X21512234Y6758699D01*
X21527000Y6832933D01*
X21526999Y7388442D01*
X21529467Y7396039D01*
X21528218Y7403929D01*
X21538742Y7424584D01*
X21545906Y7446633D01*
X21555995Y7458446D01*
X21610996Y7513447D01*
X21665513Y7541224D01*
X21725945Y7531653D01*
X21769210Y7488388D01*
X21780000Y7443443D01*
X21780000Y6832936D01*
X21780001Y6832929D01*
X21794765Y6758699D01*
X21794766Y6758697D01*
X21851013Y6674519D01*
X21851018Y6674514D01*
X21907138Y6637016D01*
X21935199Y6618266D01*
X22009433Y6603500D01*
X23456563Y6603500D01*
X23456570Y6603501D01*
X23530800Y6618265D01*
X23530802Y6618266D01*
X23614980Y6674513D01*
X23614981Y6674514D01*
X23614984Y6674516D01*
X23671234Y6758699D01*
X23683092Y6818315D01*
X23712989Y6871699D01*
X23768555Y6897314D01*
X23780190Y6898000D01*
X24216154Y6898000D01*
X24271155Y6881316D01*
X24284697Y6872267D01*
X24284697Y6872266D01*
X24284699Y6872266D01*
X24358933Y6857500D01*
X25933063Y6857500D01*
X25933070Y6857501D01*
X26007300Y6872265D01*
X26007302Y6872266D01*
X26091480Y6928513D01*
X26091481Y6928514D01*
X26091484Y6928516D01*
X26147734Y7012699D01*
X26162500Y7086933D01*
X26162499Y8536501D01*
X26181406Y8594692D01*
X26230906Y8630656D01*
X26261499Y8635501D01*
X26570500Y8635501D01*
X26628691Y8616594D01*
X26664655Y8567094D01*
X26669500Y8536501D01*
X26669500Y7086936D01*
X26669501Y7086929D01*
X26684265Y7012699D01*
X26684266Y7012697D01*
X26740513Y6928519D01*
X26740518Y6928514D01*
X26786186Y6898000D01*
X26824699Y6872266D01*
X26884166Y6860437D01*
X26898932Y6857500D01*
X26898933Y6857500D01*
X27182500Y6857500D01*
X27240691Y6838593D01*
X27276655Y6789093D01*
X27280446Y6765153D01*
X27280653Y6765181D01*
X27281499Y6758749D01*
X27309067Y6655864D01*
X27362316Y6563635D01*
X27362317Y6563634D01*
X27362319Y6563631D01*
X27362320Y6563631D01*
X27406450Y6519500D01*
X27434226Y6464986D01*
X27424655Y6404554D01*
X27381390Y6361289D01*
X27336445Y6350499D01*
X26898934Y6350499D01*
X26898929Y6350498D01*
X26824699Y6335734D01*
X26824697Y6335733D01*
X26764876Y6295761D01*
X26740516Y6279484D01*
X26684266Y6195301D01*
X26669500Y6121067D01*
X26669500Y6121066D01*
X26669500Y4546936D01*
X26669501Y4546929D01*
X26684265Y4472699D01*
X26684266Y4472697D01*
X26740513Y4388519D01*
X26740518Y4388514D01*
X26796638Y4351016D01*
X26824699Y4332266D01*
X26884166Y4320437D01*
X26898932Y4317500D01*
X26898933Y4317500D01*
X27754000Y4317500D01*
X27812191Y4298593D01*
X27848155Y4249093D01*
X27853000Y4218500D01*
X27853000Y3587189D01*
X27834093Y3528998D01*
X27784593Y3493034D01*
X27773312Y3490091D01*
X27740199Y3483504D01*
X27713699Y3478234D01*
X27713698Y3478233D01*
X27713697Y3478233D01*
X27642969Y3430973D01*
X27629516Y3421984D01*
X27573266Y3337801D01*
X27565449Y3298500D01*
X27558500Y3263567D01*
X27558500Y3043500D01*
X27539593Y2985309D01*
X27490093Y2949345D01*
X27459500Y2944500D01*
X26896499Y2944500D01*
X26838308Y2963407D01*
X26802344Y3012907D01*
X26797499Y3043500D01*
X26797499Y3263563D01*
X26797498Y3263567D01*
X26782734Y3337801D01*
X26726484Y3421984D01*
X26642301Y3478234D01*
X26568067Y3493000D01*
X25628934Y3492999D01*
X25628929Y3492998D01*
X25554699Y3478234D01*
X25554697Y3478233D01*
X25483969Y3430973D01*
X25470516Y3421984D01*
X25414266Y3337801D01*
X25406449Y3298500D01*
X25399500Y3263566D01*
X25399500Y1816436D01*
X25399501Y1816429D01*
X25414265Y1742199D01*
X25414266Y1742197D01*
X25470513Y1658019D01*
X25470518Y1658014D01*
X25526638Y1620516D01*
X25554699Y1601766D01*
X25628933Y1587000D01*
X26568063Y1587000D01*
X26568070Y1587001D01*
X26642300Y1601765D01*
X26642302Y1601766D01*
X26726480Y1658013D01*
X26726481Y1658014D01*
X26726484Y1658016D01*
X26782734Y1742199D01*
X26797500Y1816433D01*
X26797500Y2036500D01*
X26816407Y2094691D01*
X26865907Y2130655D01*
X26896500Y2135500D01*
X27459501Y2135500D01*
X27517692Y2116593D01*
X27553656Y2067093D01*
X27558501Y2036500D01*
X27558501Y1816429D01*
X27573265Y1742199D01*
X27573266Y1742197D01*
X27629513Y1658019D01*
X27629518Y1658014D01*
X27685638Y1620516D01*
X27713699Y1601766D01*
X27787933Y1587000D01*
X28727063Y1587000D01*
X28727070Y1587001D01*
X28801300Y1601765D01*
X28801302Y1601766D01*
X28885480Y1658013D01*
X28885481Y1658014D01*
X28885484Y1658016D01*
X28941734Y1742199D01*
X28956500Y1816433D01*
X28956499Y3263566D01*
X28941734Y3337801D01*
X28885484Y3421984D01*
X28801301Y3478234D01*
X28741684Y3490092D01*
X28688302Y3519987D01*
X28662686Y3575552D01*
X28662000Y3587189D01*
X28662000Y4404153D01*
X28678684Y4459153D01*
X28687733Y4472696D01*
X28687734Y4472698D01*
X28702499Y4546930D01*
X28702500Y4546933D01*
X28702499Y6121066D01*
X28693460Y6166514D01*
X28689746Y6185187D01*
X28696938Y6245948D01*
X28738472Y6290877D01*
X28786844Y6303499D01*
X29125156Y6303499D01*
X29183347Y6284592D01*
X29219311Y6235092D01*
X29222254Y6185187D01*
X29219152Y6169590D01*
X29209500Y6121069D01*
X29209500Y4546936D01*
X29209501Y4546929D01*
X29224265Y4472699D01*
X29224266Y4472697D01*
X29280513Y4388519D01*
X29280518Y4388514D01*
X29336638Y4351016D01*
X29364699Y4332266D01*
X29424166Y4320437D01*
X29438932Y4317500D01*
X29438933Y4317500D01*
X29722500Y4317500D01*
X29780691Y4298593D01*
X29816655Y4249093D01*
X29820446Y4225153D01*
X29820653Y4225181D01*
X29821499Y4218749D01*
X29849067Y4115864D01*
X29902316Y4023635D01*
X32812136Y1113815D01*
X32904366Y1060566D01*
X32904364Y1060566D01*
X32959036Y1045917D01*
X33007248Y1032999D01*
X33007250Y1032999D01*
X35953750Y1032999D01*
X35953752Y1032999D01*
X36056630Y1060565D01*
X36056634Y1060566D01*
X36148863Y1113815D01*
X36148868Y1113819D01*
X36328178Y1293128D01*
X36328181Y1293131D01*
X36381434Y1385369D01*
X36409000Y1488247D01*
X36409000Y1492810D01*
X36427907Y1551001D01*
X36477407Y1586965D01*
X36488686Y1589908D01*
X36548300Y1601765D01*
X36548302Y1601766D01*
X36632480Y1658013D01*
X36632481Y1658014D01*
X36632484Y1658016D01*
X36688734Y1742199D01*
X36703500Y1816433D01*
X36703500Y2036500D01*
X36722407Y2094691D01*
X36771907Y2130655D01*
X36802500Y2135500D01*
X37365501Y2135500D01*
X37423692Y2116593D01*
X37459656Y2067093D01*
X37464501Y2036500D01*
X37464501Y1816429D01*
X37479265Y1742199D01*
X37479266Y1742197D01*
X37535513Y1658019D01*
X37535518Y1658014D01*
X37591638Y1620516D01*
X37619699Y1601766D01*
X37693933Y1587000D01*
X38633063Y1587000D01*
X38633070Y1587001D01*
X38707300Y1601765D01*
X38707302Y1601766D01*
X38791480Y1658013D01*
X38791481Y1658014D01*
X38791484Y1658016D01*
X38847734Y1742199D01*
X38862500Y1816433D01*
X38862499Y3263566D01*
X38847734Y3337801D01*
X38791484Y3421984D01*
X38707301Y3478234D01*
X38633067Y3493000D01*
X37693934Y3492999D01*
X37693929Y3492998D01*
X37619699Y3478234D01*
X37619697Y3478233D01*
X37548969Y3430973D01*
X37535516Y3421984D01*
X37479266Y3337801D01*
X37471449Y3298500D01*
X37464500Y3263567D01*
X37464500Y3043500D01*
X37445593Y2985309D01*
X37396093Y2949345D01*
X37365500Y2944500D01*
X36802499Y2944500D01*
X36744308Y2963407D01*
X36708344Y3012907D01*
X36703499Y3043500D01*
X36703499Y3263563D01*
X36703498Y3263567D01*
X36688734Y3337801D01*
X36632484Y3421984D01*
X36548301Y3478234D01*
X36474067Y3493000D01*
X35534934Y3492999D01*
X35534929Y3492998D01*
X35460699Y3478234D01*
X35460697Y3478233D01*
X35389969Y3430973D01*
X35376516Y3421984D01*
X35320266Y3337801D01*
X35312449Y3298500D01*
X35305500Y3263566D01*
X35305501Y1940999D01*
X35286594Y1882808D01*
X35237094Y1846844D01*
X35206501Y1841999D01*
X34897500Y1841999D01*
X34839309Y1860906D01*
X34803345Y1910406D01*
X34798500Y1940999D01*
X34798499Y3263563D01*
X34798498Y3263567D01*
X34783734Y3337801D01*
X34727484Y3421984D01*
X34643301Y3478234D01*
X34583684Y3490092D01*
X34530302Y3519987D01*
X34504686Y3575552D01*
X34504000Y3587189D01*
X34504000Y4363442D01*
X34522907Y4421633D01*
X34532996Y4433445D01*
X35023053Y4923503D01*
X35077570Y4951281D01*
X35093057Y4952500D01*
X36156563Y4952500D01*
X36156570Y4952501D01*
X36230800Y4967265D01*
X36230802Y4967266D01*
X36314980Y5023513D01*
X36314984Y5023516D01*
X36371234Y5107699D01*
X36386000Y5181933D01*
X36385999Y6121066D01*
X36376960Y6166514D01*
X36373246Y6185187D01*
X36380438Y6245948D01*
X36421972Y6290877D01*
X36470344Y6303499D01*
X36692746Y6303499D01*
X36750937Y6284592D01*
X36772664Y6257013D01*
X36775348Y6258807D01*
X36837013Y6166519D01*
X36837018Y6166514D01*
X36893138Y6129016D01*
X36921199Y6110266D01*
X36995433Y6095500D01*
X38442563Y6095500D01*
X38442570Y6095501D01*
X38516800Y6110265D01*
X38516802Y6110266D01*
X38600980Y6166513D01*
X38600981Y6166514D01*
X38600984Y6166516D01*
X38603038Y6169590D01*
X38607851Y6173384D01*
X38607878Y6173411D01*
X38607881Y6173407D01*
X38651088Y6207469D01*
X38712226Y6209871D01*
X38755357Y6184592D01*
X39011827Y5928122D01*
X39039604Y5873605D01*
X39038921Y5838804D01*
X39027870Y5783249D01*
X39027870Y4432636D01*
X39027871Y4432629D01*
X39042635Y4358399D01*
X39042636Y4358397D01*
X39098883Y4274219D01*
X39098888Y4274214D01*
X39148146Y4241301D01*
X39183069Y4217966D01*
X39257303Y4203200D01*
X41006693Y4203200D01*
X41006700Y4203201D01*
X41080930Y4217965D01*
X41080932Y4217966D01*
X41165110Y4274213D01*
X41165111Y4274214D01*
X41165114Y4274216D01*
X41221364Y4358399D01*
X41236130Y4432633D01*
X41236129Y5783246D01*
X41221364Y5857481D01*
X41165114Y5941664D01*
X41080931Y5997914D01*
X41006697Y6012680D01*
X40112375Y6012679D01*
X40054185Y6031586D01*
X40042379Y6041668D01*
X38965869Y7118180D01*
X38873634Y7171432D01*
X38873633Y7171432D01*
X38873631Y7171434D01*
X38770753Y7199000D01*
X38770751Y7199000D01*
X38766189Y7199000D01*
X38707998Y7217907D01*
X38672034Y7267407D01*
X38669091Y7278688D01*
X38657234Y7338299D01*
X38657234Y7338301D01*
X38600984Y7422484D01*
X38516801Y7478734D01*
X38442567Y7493500D01*
X36995434Y7493499D01*
X36995429Y7493498D01*
X36921199Y7478734D01*
X36921197Y7478733D01*
X36921196Y7478732D01*
X36837016Y7422484D01*
X36780766Y7338301D01*
X36768908Y7278685D01*
X36739011Y7225301D01*
X36701199Y7203463D01*
X36686843Y7199000D01*
X36667247Y7199000D01*
X36564369Y7171434D01*
X36524935Y7148667D01*
X36514388Y7145388D01*
X36494302Y7145644D01*
X36474652Y7141467D01*
X36464414Y7146025D01*
X36453208Y7146168D01*
X36437108Y7158182D01*
X36418756Y7166353D01*
X36413152Y7176058D01*
X36404171Y7182761D01*
X36398207Y7201943D01*
X36388163Y7219341D01*
X36385999Y7239916D01*
X36385999Y8026066D01*
X36371234Y8100301D01*
X36314984Y8184484D01*
X36314977Y8184488D01*
X36310996Y8188471D01*
X36283219Y8242988D01*
X36282000Y8258475D01*
X36282000Y10128810D01*
X36300907Y10187001D01*
X36350407Y10222965D01*
X36361686Y10225908D01*
X36421300Y10237765D01*
X36421302Y10237766D01*
X36505480Y10294013D01*
X36505481Y10294014D01*
X36505484Y10294016D01*
X36561734Y10378199D01*
X36576500Y10452433D01*
X36576499Y11899566D01*
X37083500Y11899566D01*
X37083500Y10452436D01*
X37083501Y10452429D01*
X37098265Y10378199D01*
X37098266Y10378197D01*
X37154513Y10294019D01*
X37154518Y10294014D01*
X37210638Y10256516D01*
X37238699Y10237766D01*
X37312933Y10223000D01*
X38252063Y10223000D01*
X38252070Y10223001D01*
X38326300Y10237765D01*
X38326302Y10237766D01*
X38410480Y10294013D01*
X38410481Y10294014D01*
X38410484Y10294016D01*
X38466734Y10378199D01*
X38480860Y10449219D01*
X38510757Y10502602D01*
X38566322Y10528218D01*
X38615842Y10521369D01*
X38658110Y10503861D01*
X38793152Y10477000D01*
X38793155Y10477000D01*
X38930847Y10477000D01*
X39059556Y10502602D01*
X39065891Y10503862D01*
X39065892Y10503862D01*
X39108157Y10521369D01*
X39169153Y10526170D01*
X39221322Y10494200D01*
X39243140Y10449218D01*
X39257265Y10378199D01*
X39257266Y10378197D01*
X39313513Y10294019D01*
X39313518Y10294014D01*
X39369638Y10256516D01*
X39397699Y10237766D01*
X39471933Y10223000D01*
X40411063Y10223000D01*
X40411070Y10223001D01*
X40485300Y10237765D01*
X40485302Y10237766D01*
X40569480Y10294013D01*
X40569481Y10294014D01*
X40569484Y10294016D01*
X40625734Y10378199D01*
X40640500Y10452433D01*
X40640499Y11899566D01*
X40625734Y11973801D01*
X40569484Y12057984D01*
X40485301Y12114234D01*
X40411067Y12129000D01*
X39471934Y12128999D01*
X39471929Y12128998D01*
X39397699Y12114234D01*
X39397697Y12114233D01*
X39397696Y12114232D01*
X39313516Y12057984D01*
X39313514Y12057981D01*
X39257266Y11973801D01*
X39243139Y11902780D01*
X39213241Y11849396D01*
X39157676Y11823781D01*
X39108157Y11830630D01*
X39065891Y11848138D01*
X38930845Y11875000D01*
X38793155Y11875000D01*
X38658109Y11848138D01*
X38615840Y11830629D01*
X38554847Y11825829D01*
X38502677Y11857798D01*
X38480859Y11902782D01*
X38466734Y11973799D01*
X38466734Y11973800D01*
X38466734Y11973801D01*
X38410484Y12057984D01*
X38326301Y12114234D01*
X38252067Y12129000D01*
X37312934Y12128999D01*
X37312929Y12128998D01*
X37238699Y12114234D01*
X37238697Y12114233D01*
X37238696Y12114232D01*
X37154516Y12057984D01*
X37098266Y11973801D01*
X37084140Y11902782D01*
X37083500Y11899566D01*
X36576499Y11899566D01*
X36561734Y11973801D01*
X36505484Y12057984D01*
X36421301Y12114234D01*
X36347067Y12129000D01*
X35407934Y12128999D01*
X35407929Y12128998D01*
X35333699Y12114234D01*
X35333697Y12114233D01*
X35333696Y12114232D01*
X35249516Y12057984D01*
X35193266Y11973801D01*
X35179140Y11902782D01*
X35178500Y11899567D01*
X35178500Y11769043D01*
X35159593Y11710852D01*
X35110093Y11674888D01*
X35048907Y11674888D01*
X35009496Y11699039D01*
X34989586Y11718949D01*
X34875101Y11795446D01*
X34747891Y11848138D01*
X34612845Y11875000D01*
X34475155Y11875000D01*
X34340109Y11848138D01*
X34340107Y11848137D01*
X34212901Y11795447D01*
X34212900Y11795447D01*
X34098414Y11718949D01*
X34001050Y11621585D01*
X33924552Y11507099D01*
X33924552Y11507098D01*
X33871862Y11379892D01*
X33871862Y11379890D01*
X33845000Y11244847D01*
X33845000Y11107152D01*
X33871862Y10972109D01*
X33871862Y10972107D01*
X33924552Y10844901D01*
X33924552Y10844900D01*
X34001050Y10730414D01*
X34098414Y10633050D01*
X34212901Y10556552D01*
X34340108Y10503862D01*
X34475152Y10477000D01*
X34475155Y10477000D01*
X34612847Y10477000D01*
X34741556Y10502602D01*
X34747891Y10503862D01*
X34747892Y10503862D01*
X34875098Y10556552D01*
X34875099Y10556552D01*
X34989585Y10633050D01*
X35009497Y10652962D01*
X35064014Y10680739D01*
X35124446Y10671168D01*
X35167711Y10627903D01*
X35178501Y10582958D01*
X35178501Y10452429D01*
X35193265Y10378199D01*
X35193266Y10378197D01*
X35249513Y10294019D01*
X35249518Y10294014D01*
X35333698Y10237766D01*
X35333702Y10237765D01*
X35393316Y10225906D01*
X35446699Y10196009D01*
X35472314Y10140443D01*
X35473000Y10128809D01*
X35473000Y8354499D01*
X35454093Y8296308D01*
X35404593Y8260344D01*
X35374000Y8255499D01*
X34709434Y8255499D01*
X34709429Y8255498D01*
X34635199Y8240734D01*
X34635197Y8240733D01*
X34600969Y8217862D01*
X34551016Y8184484D01*
X34494766Y8100301D01*
X34480000Y8026067D01*
X34480000Y7575499D01*
X34480001Y7211499D01*
X34461094Y7153308D01*
X34411594Y7117344D01*
X34381001Y7112499D01*
X33881500Y7112499D01*
X33823309Y7131406D01*
X33787345Y7180906D01*
X33782500Y7211499D01*
X33782499Y8661063D01*
X33782498Y8661067D01*
X33767734Y8735301D01*
X33711484Y8819484D01*
X33627301Y8875734D01*
X33553067Y8890500D01*
X31978934Y8890499D01*
X31978929Y8890498D01*
X31904699Y8875734D01*
X31904697Y8875733D01*
X31904696Y8875732D01*
X31820516Y8819484D01*
X31764266Y8735301D01*
X31749500Y8661067D01*
X31749500Y7930480D01*
X31749501Y7211499D01*
X31730594Y7153308D01*
X31681094Y7117344D01*
X31650501Y7112499D01*
X31341500Y7112499D01*
X31283309Y7131406D01*
X31247345Y7180906D01*
X31242500Y7211499D01*
X31242499Y8661063D01*
X31242498Y8661067D01*
X31227734Y8735301D01*
X31171484Y8819484D01*
X31087301Y8875734D01*
X31013067Y8890500D01*
X30729499Y8890499D01*
X30671310Y8909406D01*
X30635346Y8958906D01*
X30630500Y8989499D01*
X30630500Y9578251D01*
X30630500Y9578253D01*
X30602934Y9681131D01*
X30590822Y9702109D01*
X30549681Y9773369D01*
X29839369Y10483680D01*
X29747134Y10536932D01*
X29747133Y10536932D01*
X29747131Y10536934D01*
X29644253Y10564500D01*
X29644251Y10564500D01*
X29380695Y10564500D01*
X29322504Y10583407D01*
X29286540Y10632907D01*
X29282000Y10655730D01*
X29280031Y10680739D01*
X29276149Y10730056D01*
X29259540Y10788944D01*
X29225548Y10862676D01*
X29222796Y10866793D01*
X29206110Y10921798D01*
X29206110Y12223879D01*
X29225017Y12282070D01*
X29246201Y12303445D01*
X29254006Y12309224D01*
X29294124Y12328196D01*
X29343624Y12364160D01*
X29388419Y12405569D01*
X29391454Y12410988D01*
X29405065Y12421066D01*
X29422131Y12426781D01*
X29437097Y12436782D01*
X29462476Y12440292D01*
X29463083Y12440496D01*
X29463346Y12440413D01*
X29463974Y12440500D01*
X30365777Y12440500D01*
X30423968Y12421593D01*
X30459932Y12372093D01*
X30459932Y12310907D01*
X30457241Y12303615D01*
X30442858Y12268892D01*
X30442858Y12268890D01*
X30415996Y12133847D01*
X30415996Y11996152D01*
X30442858Y11861109D01*
X30442858Y11861107D01*
X30495548Y11733901D01*
X30495548Y11733900D01*
X30572046Y11619414D01*
X30669410Y11522050D01*
X30783897Y11445552D01*
X30911104Y11392862D01*
X31046148Y11366000D01*
X31046151Y11366000D01*
X31183843Y11366000D01*
X31273871Y11383908D01*
X31318887Y11392862D01*
X31318888Y11392862D01*
X31446094Y11445552D01*
X31446100Y11445555D01*
X31532000Y11502952D01*
X31590888Y11519561D01*
X31648291Y11498383D01*
X31682284Y11447510D01*
X31686001Y11420637D01*
X31686001Y11404929D01*
X31700765Y11330699D01*
X31700766Y11330697D01*
X31757013Y11246519D01*
X31757018Y11246514D01*
X31813138Y11209016D01*
X31841199Y11190266D01*
X31915433Y11175500D01*
X33362563Y11175500D01*
X33362570Y11175501D01*
X33436800Y11190265D01*
X33436802Y11190266D01*
X33520980Y11246513D01*
X33520981Y11246514D01*
X33520984Y11246516D01*
X33577234Y11330699D01*
X33592000Y11404933D01*
X33591999Y12341500D01*
X33610906Y12399691D01*
X33660406Y12435655D01*
X33690999Y12440500D01*
X48160994Y12440500D01*
X48161000Y12440500D01*
X48183736Y12442289D01*
X48201583Y12443693D01*
X48201591Y12443694D01*
X48232184Y12448539D01*
X48232191Y12448540D01*
X48232201Y12448542D01*
X48252166Y12452513D01*
X48252170Y12452514D01*
X48252173Y12452515D01*
X48261451Y12456792D01*
X48344119Y12494902D01*
X48344124Y12494905D01*
X48393620Y12530865D01*
X48393623Y12530868D01*
X48408142Y12544290D01*
X48438419Y12572278D01*
X48487893Y12660621D01*
X48506800Y12718812D01*
X48509340Y12734849D01*
X48519500Y12798996D01*
X48519500Y16918993D01*
X48519500Y16919000D01*
X48516306Y16959591D01*
X48511461Y16990184D01*
X48507485Y17010173D01*
X48465095Y17102124D01*
X48429131Y17151624D01*
X48387722Y17196419D01*
X48299379Y17245893D01*
X48241188Y17264800D01*
X48161003Y17277500D01*
X48161000Y17277500D01*
X36849801Y17277500D01*
X36798911Y17272461D01*
X36760834Y17264846D01*
X36711916Y17249923D01*
X31842954Y15221188D01*
X27827126Y13547926D01*
X27766139Y13542998D01*
X27713903Y13574858D01*
X27690372Y13631334D01*
X27688306Y13657591D01*
X27683461Y13688184D01*
X27679485Y13708173D01*
X27637095Y13800124D01*
X27601131Y13849624D01*
X27559722Y13894419D01*
X27471379Y13943893D01*
X27413188Y13962800D01*
X27333003Y13975500D01*
X27333000Y13975500D01*
X26515000Y13975500D01*
X26474409Y13972306D01*
X26443816Y13967461D01*
X26423827Y13963485D01*
X26331876Y13921095D01*
X26331875Y13921094D01*
X26282379Y13885134D01*
X26282376Y13885131D01*
X26237581Y13843722D01*
X26237580Y13843721D01*
X26188107Y13755379D01*
X26169199Y13697186D01*
X26156500Y13617003D01*
X26156500Y12643289D01*
X26137593Y12585098D01*
X26088093Y12549134D01*
X26057500Y12544289D01*
X25924844Y12544289D01*
X25850609Y12529524D01*
X25850608Y12529523D01*
X25843491Y12528108D01*
X25804863Y12528109D01*
X25797751Y12529523D01*
X25797751Y12529524D01*
X25723517Y12544290D01*
X25274604Y12544289D01*
X25200369Y12529524D01*
X25200368Y12529523D01*
X25193251Y12528108D01*
X25154623Y12528109D01*
X25147511Y12529523D01*
X25147511Y12529524D01*
X25073277Y12544290D01*
X24624364Y12544289D01*
X24550129Y12529524D01*
X24550128Y12529523D01*
X24543011Y12528108D01*
X24504383Y12528109D01*
X24497271Y12529523D01*
X24497271Y12529524D01*
X24423037Y12544290D01*
X23974124Y12544289D01*
X23899889Y12529524D01*
X23899888Y12529523D01*
X23895311Y12528613D01*
X23856682Y12528614D01*
X23852112Y12529523D01*
X23852111Y12529524D01*
X23777877Y12544290D01*
X23328964Y12544289D01*
X23254729Y12529524D01*
X23254728Y12529523D01*
X23247611Y12528108D01*
X23208983Y12528109D01*
X23201871Y12529523D01*
X23201871Y12529524D01*
X23127637Y12544290D01*
X22678724Y12544289D01*
X22678719Y12544288D01*
X22604489Y12529524D01*
X22604487Y12529523D01*
X22552674Y12494902D01*
X22520306Y12473274D01*
X22464056Y12389091D01*
X22449291Y12314860D01*
X22449290Y12314856D01*
X22449290Y10865186D01*
X22449291Y10865179D01*
X22464055Y10790949D01*
X22464056Y10790947D01*
X22481995Y10764101D01*
X22498680Y10709099D01*
X22498680Y10678594D01*
X22479773Y10620403D01*
X22430273Y10584439D01*
X22418996Y10581496D01*
X22402109Y10578138D01*
X22369184Y10564500D01*
X22276647Y10526170D01*
X22274899Y10525446D01*
X22161200Y10449474D01*
X22147941Y10445734D01*
X22136793Y10437635D01*
X22119223Y10437635D01*
X22102314Y10432866D01*
X22089387Y10437635D01*
X22075607Y10437635D01*
X22061392Y10447962D01*
X22044910Y10454043D01*
X22037255Y10465499D01*
X22026107Y10473599D01*
X22020677Y10490309D01*
X22010917Y10504917D01*
X22007200Y10531790D01*
X22007200Y10709099D01*
X22023885Y10764101D01*
X22041821Y10790945D01*
X22041824Y10790949D01*
X22056590Y10865183D01*
X22056589Y12314856D01*
X22041824Y12389091D01*
X21985574Y12473274D01*
X21901391Y12529524D01*
X21827157Y12544290D01*
X21378244Y12544289D01*
X21304009Y12529524D01*
X21304008Y12529523D01*
X21296891Y12528108D01*
X21258263Y12528109D01*
X21251151Y12529523D01*
X21251151Y12529524D01*
X21176917Y12544290D01*
X20932499Y12544289D01*
X20874310Y12563196D01*
X20838346Y12612696D01*
X20833500Y12643289D01*
X20833500Y13616993D01*
X20833500Y13617000D01*
X20830306Y13657591D01*
X20825461Y13688184D01*
X20821485Y13708173D01*
X20779095Y13800124D01*
X20743131Y13849624D01*
X20701722Y13894419D01*
X20613379Y13943893D01*
X20555188Y13962800D01*
X20475003Y13975500D01*
X20475000Y13975500D01*
X19657000Y13975500D01*
X19616409Y13972306D01*
X19585816Y13967461D01*
X19565827Y13963485D01*
X19473876Y13921095D01*
X19473875Y13921094D01*
X19424379Y13885134D01*
X19424376Y13885131D01*
X19379581Y13843722D01*
X19379580Y13843721D01*
X19330107Y13755379D01*
X19311199Y13697186D01*
X19298500Y13617003D01*
X19298500Y13124292D01*
X19279593Y13066101D01*
X19230093Y13030137D01*
X19168907Y13030137D01*
X19163987Y13031881D01*
X12810312Y15475604D01*
X12764532Y15488540D01*
X12728993Y15495139D01*
X12681618Y15499500D01*
X2639000Y15499500D01*
X2598409Y15496306D01*
X2567816Y15491461D01*
X2547827Y15487485D01*
X2455876Y15445095D01*
X2455875Y15445094D01*
X2406379Y15409134D01*
X2406376Y15409131D01*
X2361581Y15367722D01*
X2361580Y15367721D01*
X2312107Y15279379D01*
X2293199Y15221186D01*
X2280500Y15141003D01*
X304500Y15141003D01*
X304500Y20729003D01*
X2280500Y20729003D01*
X2280500Y20729000D01*
X2280500Y16355000D01*
X2283694Y16314409D01*
X2288539Y16283816D01*
X2288542Y16283798D01*
X2292513Y16263833D01*
X2292516Y16263824D01*
X2334902Y16171880D01*
X2334905Y16171875D01*
X2370865Y16122379D01*
X2370868Y16122376D01*
X2412277Y16077582D01*
X2412278Y16077580D01*
X2500620Y16028107D01*
X2558814Y16009199D01*
X2558811Y16009199D01*
X2638997Y15996500D01*
X2639000Y15996500D01*
X12404982Y15996500D01*
X12404992Y15996500D01*
X12418567Y15997033D01*
X12425360Y15997300D01*
X12440844Y15998519D01*
X12538284Y16026000D01*
X12538290Y16026002D01*
X12592806Y16053779D01*
X12658484Y16101497D01*
X12658486Y16101499D01*
X12658490Y16101502D01*
X15777538Y19220550D01*
X15777553Y19220566D01*
X15791366Y19235508D01*
X15797145Y19242275D01*
X15801460Y19247328D01*
X15850933Y19335669D01*
X15869840Y19393860D01*
X15872380Y19409897D01*
X15882540Y19474044D01*
X15882540Y19633069D01*
X15901447Y19691260D01*
X15950947Y19727224D01*
X15981540Y19732069D01*
X16140551Y19732069D01*
X16140561Y19732069D01*
X16154136Y19732602D01*
X16160929Y19732869D01*
X16176413Y19734088D01*
X16273853Y19761569D01*
X16273859Y19761571D01*
X16328375Y19789348D01*
X16394053Y19837066D01*
X16394055Y19837068D01*
X16394059Y19837071D01*
X18620492Y22063504D01*
X18675009Y22091281D01*
X18690496Y22092500D01*
X19966994Y22092500D01*
X19967000Y22092500D01*
X19989736Y22094289D01*
X20007583Y22095693D01*
X20007591Y22095694D01*
X20038184Y22100539D01*
X20038191Y22100540D01*
X20038201Y22100542D01*
X20058166Y22104513D01*
X20058170Y22104514D01*
X20058173Y22104515D01*
X20067451Y22108792D01*
X20150119Y22146902D01*
X20150124Y22146905D01*
X20199620Y22182865D01*
X20199623Y22182868D01*
X20203285Y22186254D01*
X20244419Y22224278D01*
X20293893Y22312621D01*
X20312800Y22370812D01*
X20319204Y22411248D01*
X20325500Y22450996D01*
X20325500Y23771500D01*
X20344407Y23829691D01*
X20393907Y23865655D01*
X20424500Y23870500D01*
X21054264Y23870500D01*
X21054265Y23870500D01*
X21061894Y23871479D01*
X21119780Y23878906D01*
X21119786Y23878907D01*
X21119788Y23878908D01*
X21136236Y23883200D01*
X21168152Y23891528D01*
X21168171Y23891534D01*
X21211276Y23906957D01*
X21257714Y23940696D01*
X21293192Y23966472D01*
X21324105Y23999913D01*
X21377488Y24029808D01*
X21396801Y24031710D01*
X21827153Y24031710D01*
X21827162Y24031711D01*
X21908507Y24047891D01*
X21947133Y24047891D01*
X22028480Y24031710D01*
X22296167Y24031710D01*
X22354358Y24012803D01*
X22390322Y23963303D01*
X22390322Y23902117D01*
X22366171Y23862706D01*
X22317050Y23813585D01*
X22240552Y23699099D01*
X22240552Y23699098D01*
X22198508Y23597593D01*
X22187862Y23571891D01*
X22184135Y23553155D01*
X22161000Y23436847D01*
X22161000Y23299152D01*
X22187862Y23164109D01*
X22187862Y23164107D01*
X22240552Y23036901D01*
X22240552Y23036900D01*
X22317050Y22922414D01*
X22414414Y22825050D01*
X22528901Y22748552D01*
X22656108Y22695862D01*
X22791152Y22669000D01*
X22791155Y22669000D01*
X22928847Y22669000D01*
X23018875Y22686908D01*
X23063891Y22695862D01*
X23063892Y22695862D01*
X23191098Y22748552D01*
X23191099Y22748552D01*
X23305585Y22825050D01*
X23402949Y22922414D01*
X23479447Y23036900D01*
X23479447Y23036901D01*
X23532137Y23164107D01*
X23532138Y23164109D01*
X23559000Y23299155D01*
X23559000Y23436845D01*
X23558999Y23436849D01*
X23558523Y23441681D01*
X23560700Y23441895D01*
X23566848Y23494115D01*
X23586776Y23522726D01*
X23877099Y23813050D01*
X23877103Y23813055D01*
X23930352Y23905284D01*
X23930352Y23905286D01*
X23930354Y23905289D01*
X23957920Y24008167D01*
X23957920Y24105059D01*
X23974605Y24160061D01*
X23992541Y24186905D01*
X23992544Y24186909D01*
X24007310Y24261143D01*
X24007309Y25710816D01*
X23992544Y25785051D01*
X23936294Y25869234D01*
X23904267Y25890633D01*
X23866388Y25938681D01*
X23863986Y25999819D01*
X23897978Y26050694D01*
X23904267Y26055263D01*
X23969073Y26098565D01*
X24066437Y26195929D01*
X24142935Y26310415D01*
X24142935Y26310416D01*
X24192578Y26430266D01*
X24195626Y26437624D01*
X24222488Y26572670D01*
X24222488Y26710360D01*
X24195626Y26845406D01*
X24142934Y26972616D01*
X24066437Y27087101D01*
X23969074Y27184464D01*
X23854589Y27260961D01*
X23727379Y27313653D01*
X23592333Y27340515D01*
X23454643Y27340515D01*
X23319597Y27313653D01*
X23299909Y27305498D01*
X23192389Y27260962D01*
X23192388Y27260962D01*
X23077902Y27184464D01*
X23021990Y27128552D01*
X22967473Y27100775D01*
X22907041Y27110346D01*
X22881982Y27128553D01*
X22797588Y27212947D01*
X22797586Y27212949D01*
X22683101Y27289446D01*
X22555891Y27342138D01*
X22420845Y27369000D01*
X22283155Y27369000D01*
X22148109Y27342138D01*
X22135920Y27337089D01*
X22044884Y27299381D01*
X21983888Y27294580D01*
X21931719Y27326550D01*
X21908304Y27383078D01*
X21907999Y27390845D01*
X21907999Y27898942D01*
X21910467Y27906539D01*
X21909218Y27914429D01*
X21919742Y27935084D01*
X21926906Y27957133D01*
X21936995Y27968946D01*
X21943271Y27975222D01*
X21997788Y28002999D01*
X22024214Y28002489D01*
X22024312Y28003477D01*
X22029153Y28003000D01*
X22029155Y28003000D01*
X22029157Y28003000D01*
X22166847Y28003000D01*
X22268665Y28023253D01*
X22301891Y28029862D01*
X22301892Y28029862D01*
X22429098Y28082552D01*
X22429099Y28082552D01*
X22543585Y28159050D01*
X22553039Y28168504D01*
X22560156Y28172130D01*
X22564852Y28178593D01*
X22586900Y28185756D01*
X22607556Y28196281D01*
X22623043Y28197500D01*
X22633501Y28197500D01*
X22691692Y28178593D01*
X22727656Y28129093D01*
X22732501Y28098500D01*
X22732501Y27978429D01*
X22747265Y27904199D01*
X22747266Y27904197D01*
X22803513Y27820019D01*
X22803518Y27820014D01*
X22851529Y27787934D01*
X22887699Y27763766D01*
X22961933Y27749000D01*
X23901063Y27749000D01*
X23901070Y27749001D01*
X23975300Y27763765D01*
X23975302Y27763766D01*
X24059480Y27820013D01*
X24059481Y27820014D01*
X24059484Y27820016D01*
X24115734Y27904199D01*
X24130500Y27978433D01*
X24130499Y29425566D01*
X24115734Y29499801D01*
X24092536Y29534519D01*
X24076514Y29558498D01*
X24059905Y29617386D01*
X24081082Y29674790D01*
X24131956Y29708783D01*
X24158829Y29712500D01*
X25803500Y29712500D01*
X25861691Y29693593D01*
X25897655Y29644093D01*
X25902500Y29613500D01*
X25902500Y27352195D01*
X25883593Y27294004D01*
X25834093Y27258040D01*
X25822821Y27255099D01*
X25690474Y27228774D01*
X25690472Y27228773D01*
X25563266Y27176083D01*
X25563265Y27176083D01*
X25448779Y27099585D01*
X25351415Y27002221D01*
X25286945Y26905735D01*
X25269793Y26886207D01*
X25262508Y26879837D01*
X25231459Y26861912D01*
X25160430Y26790883D01*
X25160428Y26790880D01*
X25158093Y26788545D01*
X24614573Y26245026D01*
X24614572Y26245026D01*
X24569983Y26200436D01*
X24543544Y26173997D01*
X24493319Y26087004D01*
X24467320Y25989975D01*
X24467320Y25989973D01*
X24467320Y25901321D01*
X24450635Y25846320D01*
X24409696Y25785051D01*
X24395196Y25712155D01*
X24394930Y25710816D01*
X24394930Y24261146D01*
X24394931Y24261139D01*
X24409695Y24186909D01*
X24409696Y24186907D01*
X24465943Y24102729D01*
X24465949Y24102723D01*
X24545028Y24049884D01*
X24582907Y24001834D01*
X24585309Y23940696D01*
X24560030Y23897565D01*
X24476050Y23813585D01*
X24399552Y23699099D01*
X24399552Y23699098D01*
X24357508Y23597593D01*
X24346862Y23571891D01*
X24343135Y23553155D01*
X24320000Y23436847D01*
X24320000Y23299152D01*
X24346862Y23164109D01*
X24346862Y23164107D01*
X24399552Y23036901D01*
X24399552Y23036900D01*
X24476050Y22922414D01*
X24573414Y22825050D01*
X24687901Y22748552D01*
X24815108Y22695862D01*
X24950152Y22669000D01*
X24950155Y22669000D01*
X25087847Y22669000D01*
X25177875Y22686908D01*
X25222891Y22695862D01*
X25222892Y22695862D01*
X25350098Y22748552D01*
X25350099Y22748552D01*
X25464585Y22825050D01*
X25520496Y22880961D01*
X25575013Y22908738D01*
X25635445Y22899167D01*
X25660504Y22880961D01*
X25716414Y22825050D01*
X25830901Y22748552D01*
X25958108Y22695862D01*
X26093152Y22669000D01*
X26093155Y22669000D01*
X26230847Y22669000D01*
X26365887Y22695861D01*
X26365891Y22695862D01*
X26384133Y22703418D01*
X26445128Y22708217D01*
X26497297Y22676247D01*
X26513480Y22649838D01*
X26564884Y22525735D01*
X26564884Y22525734D01*
X26641382Y22411248D01*
X26738746Y22313884D01*
X26853233Y22237386D01*
X26980440Y22184696D01*
X27115484Y22157834D01*
X27115487Y22157834D01*
X27253179Y22157834D01*
X27343207Y22175742D01*
X27388223Y22184696D01*
X27388224Y22184696D01*
X27515430Y22237386D01*
X27515431Y22237386D01*
X27629917Y22313884D01*
X27727281Y22411248D01*
X27803779Y22525734D01*
X27803779Y22525735D01*
X27856469Y22652941D01*
X27856470Y22652943D01*
X27883332Y22787989D01*
X27883332Y22925679D01*
X27856470Y23060725D01*
X27803778Y23187935D01*
X27727281Y23302420D01*
X27629918Y23399783D01*
X27609829Y23413205D01*
X27598954Y23427000D01*
X27584739Y23437329D01*
X27580480Y23450434D01*
X27571951Y23461255D01*
X27565832Y23495520D01*
X27565832Y23517500D01*
X27584739Y23575691D01*
X27634239Y23611655D01*
X27664832Y23616500D01*
X28089500Y23616500D01*
X28147691Y23597593D01*
X28183655Y23548093D01*
X28188500Y23517500D01*
X28188500Y23422336D01*
X28193065Y23373879D01*
X28199972Y23337549D01*
X28199974Y23337543D01*
X28206782Y23310026D01*
X28206785Y23310018D01*
X28254749Y23220856D01*
X28254752Y23220852D01*
X28293692Y23173661D01*
X28293697Y23173656D01*
X28354521Y23119898D01*
X28354531Y23119891D01*
X36666354Y17830550D01*
X36666356Y17830548D01*
X36666358Y17830548D01*
X36710867Y17810400D01*
X36733124Y17800326D01*
X36786276Y17784847D01*
X36852793Y17775360D01*
X36858828Y17774500D01*
X36858829Y17774500D01*
X48160994Y17774500D01*
X48161000Y17774500D01*
X48183736Y17776289D01*
X48201583Y17777693D01*
X48201591Y17777694D01*
X48232184Y17782539D01*
X48232191Y17782540D01*
X48232201Y17782542D01*
X48252166Y17786513D01*
X48252170Y17786514D01*
X48252173Y17786515D01*
X48261451Y17790792D01*
X48344119Y17828902D01*
X48344124Y17828905D01*
X48393620Y17864865D01*
X48393623Y17864868D01*
X48397285Y17868254D01*
X48438419Y17906278D01*
X48487893Y17994621D01*
X48506800Y18052812D01*
X48509340Y18068849D01*
X48519500Y18132996D01*
X48519500Y22506993D01*
X48519500Y22507000D01*
X48516306Y22547591D01*
X48511461Y22578184D01*
X48507485Y22598173D01*
X48465095Y22690124D01*
X48429131Y22739624D01*
X48387722Y22784419D01*
X48299379Y22833893D01*
X48241188Y22852800D01*
X48161003Y22865500D01*
X48161000Y22865500D01*
X38462545Y22865500D01*
X38407630Y22882127D01*
X37322259Y23605707D01*
X36236885Y24329290D01*
X36168141Y24361738D01*
X36113227Y24378365D01*
X36038026Y24389500D01*
X30584500Y24389500D01*
X30526309Y24408407D01*
X30490345Y24457907D01*
X30485500Y24488500D01*
X30485500Y25808993D01*
X30485500Y25809000D01*
X30482306Y25849591D01*
X30477461Y25880184D01*
X30473485Y25900173D01*
X30431095Y25992124D01*
X30395131Y26041624D01*
X30353722Y26086419D01*
X30265379Y26135893D01*
X30207188Y26154800D01*
X30127003Y26167500D01*
X30127000Y26167500D01*
X29674542Y26167500D01*
X29616351Y26186407D01*
X29580387Y26235907D01*
X29580387Y26297093D01*
X29616351Y26346593D01*
X29637774Y26358419D01*
X29752143Y26404166D01*
X29779001Y26419580D01*
X29815176Y26440341D01*
X29858501Y26474069D01*
X29896419Y26510304D01*
X29906330Y26528001D01*
X29945892Y26598643D01*
X29960077Y26642301D01*
X29964800Y26656838D01*
X29971604Y26699796D01*
X29977500Y26737022D01*
X29977500Y26949066D01*
X33273500Y26949066D01*
X33273500Y25374936D01*
X33273501Y25374929D01*
X33288265Y25300699D01*
X33288266Y25300697D01*
X33344513Y25216519D01*
X33344518Y25216514D01*
X33400638Y25179016D01*
X33428699Y25160266D01*
X33502933Y25145500D01*
X35077063Y25145500D01*
X35077070Y25145501D01*
X35151300Y25160265D01*
X35151302Y25160266D01*
X35235480Y25216513D01*
X35235481Y25216514D01*
X35235484Y25216516D01*
X35291734Y25300699D01*
X35306500Y25374933D01*
X35306500Y25658500D01*
X35325407Y25716691D01*
X35374907Y25752655D01*
X35405500Y25757500D01*
X35714501Y25757500D01*
X35772692Y25738593D01*
X35808656Y25689093D01*
X35813501Y25658500D01*
X35813501Y25374929D01*
X35828265Y25300699D01*
X35828266Y25300697D01*
X35884513Y25216519D01*
X35884518Y25216514D01*
X35940638Y25179016D01*
X35968699Y25160266D01*
X36042933Y25145500D01*
X37617063Y25145500D01*
X37617070Y25145501D01*
X37691300Y25160265D01*
X37691302Y25160266D01*
X37775480Y25216513D01*
X37775481Y25216514D01*
X37775484Y25216516D01*
X37831734Y25300699D01*
X37846500Y25374933D01*
X37846500Y25618000D01*
X37851345Y25632911D01*
X37851345Y25648593D01*
X37860561Y25661278D01*
X37865407Y25676191D01*
X37878092Y25685407D01*
X37887309Y25698093D01*
X37902221Y25702938D01*
X37914907Y25712155D01*
X37945500Y25717000D01*
X38064599Y25717000D01*
X38122790Y25698093D01*
X38158754Y25648593D01*
X38161874Y25633668D01*
X38162052Y25633704D01*
X38177765Y25554699D01*
X38177766Y25554697D01*
X38234013Y25470519D01*
X38234018Y25470514D01*
X38290138Y25433016D01*
X38318199Y25414266D01*
X38392433Y25399500D01*
X39839563Y25399500D01*
X39839570Y25399501D01*
X39913800Y25414265D01*
X39913802Y25414266D01*
X39997980Y25470513D01*
X39997981Y25470514D01*
X39997984Y25470516D01*
X40054234Y25554699D01*
X40069000Y25628933D01*
X40068999Y25947014D01*
X40087906Y26005202D01*
X40137406Y26041167D01*
X40198591Y26041167D01*
X40248092Y26005203D01*
X40250313Y26002016D01*
X40266014Y25978518D01*
X40266018Y25978514D01*
X40313164Y25947012D01*
X40350199Y25922266D01*
X40424433Y25907500D01*
X41871563Y25907500D01*
X41871570Y25907501D01*
X41945800Y25922265D01*
X41945802Y25922266D01*
X42029980Y25978513D01*
X42029981Y25978514D01*
X42029984Y25978516D01*
X42086234Y26062699D01*
X42101000Y26136933D01*
X42100999Y27076066D01*
X42086234Y27150301D01*
X42029984Y27234484D01*
X41945801Y27290734D01*
X41871567Y27305500D01*
X41628499Y27305499D01*
X41613589Y27310344D01*
X41597907Y27310344D01*
X41585220Y27319561D01*
X41570310Y27324406D01*
X41561094Y27337089D01*
X41548407Y27346308D01*
X41543561Y27361222D01*
X41534346Y27373906D01*
X41529500Y27404499D01*
X41529500Y27459500D01*
X41548407Y27517691D01*
X41597907Y27553655D01*
X41628500Y27558500D01*
X41871563Y27558500D01*
X41871570Y27558501D01*
X41945800Y27573265D01*
X41945802Y27573266D01*
X42029980Y27629513D01*
X42029981Y27629514D01*
X42029984Y27629516D01*
X42086234Y27713699D01*
X42101000Y27787933D01*
X42101000Y27787936D01*
X42101949Y27792704D01*
X42103377Y27792419D01*
X42125406Y27842768D01*
X42178196Y27873702D01*
X42199403Y27876000D01*
X43039723Y27876000D01*
X43039725Y27876000D01*
X43136754Y27901999D01*
X43223747Y27952224D01*
X43240469Y27968946D01*
X43264497Y27992973D01*
X43319014Y28020750D01*
X43379446Y28011178D01*
X43422710Y27967913D01*
X43433500Y27922969D01*
X43433500Y26390936D01*
X43433501Y26390929D01*
X43448265Y26316699D01*
X43448266Y26316697D01*
X43504513Y26232519D01*
X43504518Y26232514D01*
X43552529Y26200434D01*
X43588699Y26176266D01*
X43662933Y26161500D01*
X45237063Y26161500D01*
X45237070Y26161501D01*
X45311300Y26176265D01*
X45311302Y26176266D01*
X45395480Y26232513D01*
X45395481Y26232514D01*
X45395484Y26232516D01*
X45451734Y26316699D01*
X45466500Y26390933D01*
X45466500Y26697500D01*
X45485407Y26755691D01*
X45534907Y26791655D01*
X45565500Y26796500D01*
X45874501Y26796500D01*
X45932692Y26777593D01*
X45968656Y26728093D01*
X45973501Y26697500D01*
X45973501Y26390929D01*
X45988265Y26316699D01*
X45988266Y26316697D01*
X46044513Y26232519D01*
X46044518Y26232514D01*
X46092529Y26200434D01*
X46128699Y26176266D01*
X46202933Y26161500D01*
X47777063Y26161500D01*
X47777070Y26161501D01*
X47851300Y26176265D01*
X47851302Y26176266D01*
X47935480Y26232513D01*
X47935481Y26232514D01*
X47935484Y26232516D01*
X47991734Y26316699D01*
X48006500Y26390933D01*
X48006499Y27965066D01*
X47991734Y28039301D01*
X47935484Y28123484D01*
X47851301Y28179734D01*
X47777067Y28194500D01*
X46202934Y28194499D01*
X46202929Y28194498D01*
X46128699Y28179734D01*
X46128697Y28179733D01*
X46052910Y28129093D01*
X46044516Y28123484D01*
X45988266Y28039301D01*
X45978659Y27991002D01*
X45973500Y27965067D01*
X45973500Y27658500D01*
X45954593Y27600309D01*
X45905093Y27564345D01*
X45874500Y27559500D01*
X45565499Y27559500D01*
X45507308Y27578407D01*
X45471344Y27627907D01*
X45466499Y27658500D01*
X45466499Y27965063D01*
X45466498Y27965067D01*
X45451734Y28039301D01*
X45395484Y28123484D01*
X45311301Y28179734D01*
X45237067Y28194500D01*
X43705029Y28194499D01*
X43646839Y28213406D01*
X43610875Y28262906D01*
X43610875Y28324092D01*
X43635026Y28363503D01*
X43944027Y28672504D01*
X43998544Y28700281D01*
X44014031Y28701500D01*
X45237063Y28701500D01*
X45237070Y28701501D01*
X45311300Y28716265D01*
X45311302Y28716266D01*
X45395480Y28772513D01*
X45395481Y28772514D01*
X45395484Y28772516D01*
X45451734Y28856699D01*
X45466500Y28930933D01*
X45466500Y29237500D01*
X45485407Y29295691D01*
X45534907Y29331655D01*
X45565500Y29336500D01*
X45874501Y29336500D01*
X45932692Y29317593D01*
X45968656Y29268093D01*
X45973501Y29237500D01*
X45973501Y28930929D01*
X45988265Y28856699D01*
X45988266Y28856697D01*
X46044513Y28772519D01*
X46044518Y28772514D01*
X46051533Y28767827D01*
X46128699Y28716266D01*
X46202933Y28701500D01*
X47777063Y28701500D01*
X47777070Y28701501D01*
X47851300Y28716265D01*
X47851302Y28716266D01*
X47935480Y28772513D01*
X47935481Y28772514D01*
X47935484Y28772516D01*
X47991734Y28856699D01*
X48006500Y28930933D01*
X48006499Y30505066D01*
X47991734Y30579301D01*
X47935484Y30663484D01*
X47851301Y30719734D01*
X47777067Y30734500D01*
X46202934Y30734499D01*
X46202929Y30734498D01*
X46128699Y30719734D01*
X46128697Y30719733D01*
X46062093Y30675229D01*
X46044516Y30663484D01*
X45988266Y30579301D01*
X45973501Y30505070D01*
X45973500Y30505067D01*
X45973500Y30198500D01*
X45954593Y30140309D01*
X45905093Y30104345D01*
X45874500Y30099500D01*
X45565499Y30099500D01*
X45507308Y30118407D01*
X45471344Y30167907D01*
X45466499Y30198500D01*
X45466499Y30505063D01*
X45466498Y30505067D01*
X45451734Y30579301D01*
X45395484Y30663484D01*
X45311301Y30719734D01*
X45237067Y30734500D01*
X43662934Y30734499D01*
X43662929Y30734498D01*
X43588699Y30719734D01*
X43588697Y30719733D01*
X43522093Y30675229D01*
X43504516Y30663484D01*
X43448266Y30579301D01*
X43433501Y30505070D01*
X43433500Y30505067D01*
X43433500Y29282031D01*
X43414593Y29223840D01*
X43404504Y29212027D01*
X42860473Y28667996D01*
X42805956Y28640219D01*
X42790469Y28639000D01*
X42199401Y28639000D01*
X42141210Y28657907D01*
X42105246Y28707407D01*
X42102125Y28722331D01*
X42101948Y28722296D01*
X42086234Y28801300D01*
X42086233Y28801302D01*
X42085887Y28801820D01*
X42029984Y28885484D01*
X41945801Y28941734D01*
X41871567Y28956500D01*
X40424434Y28956499D01*
X40424429Y28956498D01*
X40350199Y28941734D01*
X40350197Y28941733D01*
X40334028Y28930929D01*
X40266016Y28885484D01*
X40214313Y28808106D01*
X40166266Y28770229D01*
X40105127Y28767827D01*
X40054254Y28801820D01*
X40049693Y28808096D01*
X39997984Y28885484D01*
X39913801Y28941734D01*
X39839567Y28956500D01*
X38392434Y28956499D01*
X38392429Y28956498D01*
X38318199Y28941734D01*
X38318197Y28941733D01*
X38302028Y28930929D01*
X38234016Y28885484D01*
X38177766Y28801301D01*
X38171108Y28767827D01*
X38163000Y28727066D01*
X38163000Y27787936D01*
X38163001Y27787929D01*
X38177765Y27713699D01*
X38177766Y27713697D01*
X38234013Y27629519D01*
X38234018Y27629514D01*
X38277727Y27600309D01*
X38318199Y27573266D01*
X38377666Y27561437D01*
X38392432Y27558500D01*
X38392433Y27558500D01*
X38635500Y27558500D01*
X38693691Y27539593D01*
X38729655Y27490093D01*
X38734500Y27459500D01*
X38734500Y26896499D01*
X38715593Y26838308D01*
X38666093Y26802344D01*
X38635500Y26797499D01*
X38392434Y26797499D01*
X38392429Y26797498D01*
X38318199Y26782734D01*
X38318197Y26782733D01*
X38318196Y26782732D01*
X38234016Y26726484D01*
X38177766Y26642301D01*
X38171775Y26612180D01*
X38162051Y26563296D01*
X38160622Y26563580D01*
X38158752Y26559305D01*
X38158752Y26548407D01*
X38146765Y26531909D01*
X38138594Y26513232D01*
X38129193Y26507723D01*
X38122788Y26498907D01*
X38103394Y26492605D01*
X38085804Y26482298D01*
X38064597Y26480000D01*
X37945499Y26480000D01*
X37887308Y26498907D01*
X37851344Y26548407D01*
X37846499Y26579000D01*
X37846499Y26949063D01*
X37846498Y26949067D01*
X37831734Y27023301D01*
X37775484Y27107484D01*
X37691301Y27163734D01*
X37617067Y27178500D01*
X36042934Y27178499D01*
X36042929Y27178498D01*
X35968699Y27163734D01*
X35968697Y27163733D01*
X35916046Y27128552D01*
X35884516Y27107484D01*
X35828266Y27023301D01*
X35818184Y26972616D01*
X35813500Y26949067D01*
X35813500Y26665500D01*
X35794593Y26607309D01*
X35745093Y26571345D01*
X35714500Y26566500D01*
X35405499Y26566500D01*
X35347308Y26585407D01*
X35311344Y26634907D01*
X35306499Y26665500D01*
X35306499Y26949063D01*
X35306498Y26949067D01*
X35291734Y27023301D01*
X35235484Y27107484D01*
X35151301Y27163734D01*
X35077067Y27178500D01*
X33502934Y27178499D01*
X33502929Y27178498D01*
X33428699Y27163734D01*
X33428697Y27163733D01*
X33376046Y27128552D01*
X33344516Y27107484D01*
X33288266Y27023301D01*
X33278184Y26972614D01*
X33273500Y26949066D01*
X29977500Y26949066D01*
X29977500Y29489066D01*
X33273500Y29489066D01*
X33273500Y27914936D01*
X33273501Y27914929D01*
X33288265Y27840699D01*
X33288266Y27840697D01*
X33344513Y27756519D01*
X33344518Y27756514D01*
X33400638Y27719016D01*
X33428699Y27700266D01*
X33502933Y27685500D01*
X35077063Y27685500D01*
X35077070Y27685501D01*
X35151300Y27700265D01*
X35151302Y27700266D01*
X35235480Y27756513D01*
X35235481Y27756514D01*
X35235484Y27756516D01*
X35291734Y27840699D01*
X35306500Y27914933D01*
X35306500Y28221500D01*
X35325407Y28279691D01*
X35374907Y28315655D01*
X35405500Y28320500D01*
X35714501Y28320500D01*
X35772692Y28301593D01*
X35808656Y28252093D01*
X35813501Y28221500D01*
X35813501Y27914929D01*
X35828265Y27840699D01*
X35828266Y27840697D01*
X35884513Y27756519D01*
X35884518Y27756514D01*
X35940638Y27719016D01*
X35968699Y27700266D01*
X36042933Y27685500D01*
X37617063Y27685500D01*
X37617070Y27685501D01*
X37691300Y27700265D01*
X37691302Y27700266D01*
X37775480Y27756513D01*
X37775481Y27756514D01*
X37775484Y27756516D01*
X37831734Y27840699D01*
X37846500Y27914933D01*
X37846499Y29489066D01*
X37831734Y29563301D01*
X37775484Y29647484D01*
X37691301Y29703734D01*
X37617067Y29718500D01*
X36042934Y29718499D01*
X36042929Y29718498D01*
X35968699Y29703734D01*
X35968697Y29703733D01*
X35952534Y29692933D01*
X35884516Y29647484D01*
X35828266Y29563301D01*
X35822540Y29534513D01*
X35813500Y29489067D01*
X35813500Y29182500D01*
X35794593Y29124309D01*
X35745093Y29088345D01*
X35714500Y29083500D01*
X35405499Y29083500D01*
X35347308Y29102407D01*
X35311344Y29151907D01*
X35306499Y29182500D01*
X35306499Y29489063D01*
X35306498Y29489067D01*
X35291734Y29563301D01*
X35235484Y29647484D01*
X35151301Y29703734D01*
X35077067Y29718500D01*
X33502934Y29718499D01*
X33502929Y29718498D01*
X33428699Y29703734D01*
X33428697Y29703733D01*
X33412534Y29692933D01*
X33344516Y29647484D01*
X33288266Y29563301D01*
X33275635Y29499801D01*
X33273500Y29489066D01*
X29977500Y29489066D01*
X29977500Y31650993D01*
X29977500Y31651000D01*
X29974306Y31691591D01*
X29969461Y31722184D01*
X29965485Y31742173D01*
X29923095Y31834124D01*
X29887131Y31883624D01*
X29845722Y31928419D01*
X29757379Y31977893D01*
X29699188Y31996800D01*
X29619003Y32009500D01*
X29619000Y32009500D01*
X27492762Y32009500D01*
X27434571Y32028407D01*
X27433799Y32029066D01*
X33273500Y32029066D01*
X33273500Y30454936D01*
X33273501Y30454929D01*
X33288265Y30380699D01*
X33288266Y30380697D01*
X33344513Y30296519D01*
X33344518Y30296514D01*
X33400638Y30259016D01*
X33428699Y30240266D01*
X33502933Y30225500D01*
X35077063Y30225500D01*
X35077070Y30225501D01*
X35151300Y30240265D01*
X35151302Y30240266D01*
X35235480Y30296513D01*
X35235481Y30296514D01*
X35235484Y30296516D01*
X35291734Y30380699D01*
X35306500Y30454933D01*
X35306500Y30738500D01*
X35325407Y30796691D01*
X35374907Y30832655D01*
X35405500Y30837500D01*
X35714501Y30837500D01*
X35772692Y30818593D01*
X35808656Y30769093D01*
X35813501Y30738500D01*
X35813501Y30454929D01*
X35828265Y30380699D01*
X35828266Y30380697D01*
X35884513Y30296519D01*
X35884518Y30296514D01*
X35940638Y30259016D01*
X35968699Y30240266D01*
X36042933Y30225500D01*
X37617063Y30225500D01*
X37617070Y30225501D01*
X37691300Y30240265D01*
X37691302Y30240266D01*
X37775480Y30296513D01*
X37775481Y30296514D01*
X37775484Y30296516D01*
X37831734Y30380699D01*
X37846500Y30454933D01*
X37846500Y30632066D01*
X38163000Y30632066D01*
X38163000Y29692936D01*
X38163001Y29692929D01*
X38177765Y29618699D01*
X38177766Y29618697D01*
X38234013Y29534519D01*
X38234018Y29534514D01*
X38290138Y29497016D01*
X38318199Y29478266D01*
X38392433Y29463500D01*
X39839563Y29463500D01*
X39839570Y29463501D01*
X39913800Y29478265D01*
X39913802Y29478266D01*
X39997980Y29534513D01*
X39997981Y29534514D01*
X39997984Y29534516D01*
X40049685Y29611892D01*
X40097733Y29649770D01*
X40158871Y29652172D01*
X40209745Y29618179D01*
X40214314Y29611892D01*
X40266015Y29534517D01*
X40266018Y29534514D01*
X40322138Y29497016D01*
X40350199Y29478266D01*
X40424433Y29463500D01*
X41871563Y29463500D01*
X41871570Y29463501D01*
X41945800Y29478265D01*
X41945802Y29478266D01*
X42029980Y29534513D01*
X42029981Y29534514D01*
X42029984Y29534516D01*
X42086234Y29618699D01*
X42101000Y29692933D01*
X42100999Y30632066D01*
X42086234Y30706301D01*
X42029984Y30790484D01*
X41945801Y30846734D01*
X41871567Y30861500D01*
X41132766Y30861499D01*
X41074576Y30880406D01*
X41062766Y30890493D01*
X41046072Y30907188D01*
X40942432Y30967025D01*
X40826838Y30997999D01*
X40707166Y30997999D01*
X40591572Y30967025D01*
X40591568Y30967023D01*
X40487936Y30907191D01*
X40487930Y30907186D01*
X40467898Y30887155D01*
X40417208Y30860062D01*
X40382156Y30853090D01*
X40350199Y30846734D01*
X40350198Y30846733D01*
X40350197Y30846733D01*
X40275305Y30796691D01*
X40266016Y30790484D01*
X40214313Y30713106D01*
X40166266Y30675229D01*
X40105127Y30672827D01*
X40054254Y30706820D01*
X40049693Y30713096D01*
X39997984Y30790484D01*
X39913801Y30846734D01*
X39839567Y30861500D01*
X39802794Y30861499D01*
X39744606Y30880405D01*
X39708641Y30929904D01*
X39708640Y30991089D01*
X39720480Y31015500D01*
X39735444Y31037895D01*
X39735447Y31037901D01*
X39788137Y31165107D01*
X39788138Y31165109D01*
X39815000Y31300155D01*
X39815000Y31437845D01*
X39788138Y31572891D01*
X39735446Y31700101D01*
X39658949Y31814586D01*
X39561586Y31911949D01*
X39447101Y31988446D01*
X39319891Y32041138D01*
X39184845Y32068000D01*
X39047155Y32068000D01*
X38912109Y32041138D01*
X38881374Y32028407D01*
X38784901Y31988447D01*
X38784900Y31988447D01*
X38670414Y31911949D01*
X38573050Y31814585D01*
X38496552Y31700099D01*
X38496552Y31700098D01*
X38443862Y31572892D01*
X38443862Y31572890D01*
X38417000Y31437847D01*
X38417000Y31300152D01*
X38443862Y31165109D01*
X38443862Y31165107D01*
X38496552Y31037901D01*
X38496555Y31037895D01*
X38511520Y31015500D01*
X38528129Y30956612D01*
X38506951Y30899209D01*
X38456078Y30865216D01*
X38429205Y30861499D01*
X38392434Y30861499D01*
X38392429Y30861498D01*
X38318199Y30846734D01*
X38318197Y30846733D01*
X38243305Y30796691D01*
X38234016Y30790484D01*
X38177766Y30706301D01*
X38163001Y30632070D01*
X38163000Y30632066D01*
X37846500Y30632066D01*
X37846499Y31300152D01*
X37846499Y32029063D01*
X37846498Y32029067D01*
X37831734Y32103301D01*
X37775484Y32187484D01*
X37691301Y32243734D01*
X37617067Y32258500D01*
X36042934Y32258499D01*
X36042929Y32258498D01*
X35968699Y32243734D01*
X35968697Y32243733D01*
X35968696Y32243732D01*
X35884516Y32187484D01*
X35828266Y32103301D01*
X35815901Y32041138D01*
X35813500Y32029067D01*
X35813500Y31745500D01*
X35794593Y31687309D01*
X35745093Y31651345D01*
X35714500Y31646500D01*
X35405499Y31646500D01*
X35347308Y31665407D01*
X35311344Y31714907D01*
X35306499Y31745500D01*
X35306499Y32029063D01*
X35306498Y32029067D01*
X35291734Y32103301D01*
X35235484Y32187484D01*
X35151301Y32243734D01*
X35077067Y32258500D01*
X33502934Y32258499D01*
X33502929Y32258498D01*
X33428699Y32243734D01*
X33428697Y32243733D01*
X33428696Y32243732D01*
X33344516Y32187484D01*
X33288266Y32103301D01*
X33275901Y32041138D01*
X33273500Y32029066D01*
X27433799Y32029066D01*
X27422758Y32038497D01*
X27304220Y32157035D01*
X27304218Y32157037D01*
X27141267Y32265918D01*
X27002623Y32323346D01*
X40423103Y32323346D01*
X40423104Y32323346D01*
X42745552Y32323346D01*
X42745553Y32323346D01*
X42745553Y38216661D01*
X40423103Y38216661D01*
X40423103Y32323346D01*
X27002623Y32323346D01*
X26960205Y32340916D01*
X26767990Y32379150D01*
X26572010Y32379150D01*
X26516727Y32368153D01*
X26455968Y32375345D01*
X26442509Y32382872D01*
X24806885Y33473290D01*
X24738141Y33505738D01*
X24683227Y33522365D01*
X24608026Y33533500D01*
X21440500Y33533500D01*
X21382309Y33552407D01*
X21346345Y33601907D01*
X21341500Y33632500D01*
X21341500Y34569066D01*
X33273500Y34569066D01*
X33273500Y32994936D01*
X33273501Y32994929D01*
X33288265Y32920699D01*
X33288266Y32920697D01*
X33344513Y32836519D01*
X33344518Y32836514D01*
X33400638Y32799016D01*
X33428699Y32780266D01*
X33502933Y32765500D01*
X35077063Y32765500D01*
X35077070Y32765501D01*
X35151300Y32780265D01*
X35151302Y32780266D01*
X35235480Y32836513D01*
X35235481Y32836514D01*
X35235484Y32836516D01*
X35291734Y32920699D01*
X35306500Y32994933D01*
X35306500Y33278500D01*
X35325407Y33336691D01*
X35374907Y33372655D01*
X35405500Y33377500D01*
X35714501Y33377500D01*
X35772692Y33358593D01*
X35808656Y33309093D01*
X35813501Y33278500D01*
X35813501Y32994929D01*
X35828265Y32920699D01*
X35828266Y32920697D01*
X35884513Y32836519D01*
X35884518Y32836514D01*
X35940638Y32799016D01*
X35968699Y32780266D01*
X36042933Y32765500D01*
X37617063Y32765500D01*
X37617070Y32765501D01*
X37691300Y32780265D01*
X37691302Y32780266D01*
X37775480Y32836513D01*
X37775481Y32836514D01*
X37775484Y32836516D01*
X37831734Y32920699D01*
X37846500Y32994933D01*
X37846499Y34569066D01*
X37831734Y34643301D01*
X37775484Y34727484D01*
X37691301Y34783734D01*
X37617067Y34798500D01*
X36042934Y34798499D01*
X36042929Y34798498D01*
X35968699Y34783734D01*
X35968697Y34783733D01*
X35968696Y34783732D01*
X35884516Y34727484D01*
X35828266Y34643301D01*
X35813501Y34569070D01*
X35813500Y34569067D01*
X35813500Y34285500D01*
X35794593Y34227309D01*
X35745093Y34191345D01*
X35714500Y34186500D01*
X35405499Y34186500D01*
X35347308Y34205407D01*
X35311344Y34254907D01*
X35306499Y34285500D01*
X35306499Y34569063D01*
X35306498Y34569067D01*
X35291734Y34643301D01*
X35235484Y34727484D01*
X35151301Y34783734D01*
X35077067Y34798500D01*
X33502934Y34798499D01*
X33502929Y34798498D01*
X33428699Y34783734D01*
X33428697Y34783733D01*
X33428696Y34783732D01*
X33344516Y34727484D01*
X33288266Y34643301D01*
X33273501Y34569070D01*
X33273500Y34569066D01*
X21341500Y34569066D01*
X21341500Y37109066D01*
X33273500Y37109066D01*
X33273500Y35534936D01*
X33273501Y35534929D01*
X33288265Y35460699D01*
X33288266Y35460697D01*
X33344513Y35376519D01*
X33344518Y35376514D01*
X33400638Y35339016D01*
X33428699Y35320266D01*
X33502933Y35305500D01*
X35077063Y35305500D01*
X35077070Y35305501D01*
X35151300Y35320265D01*
X35151302Y35320266D01*
X35235480Y35376513D01*
X35235481Y35376514D01*
X35235484Y35376516D01*
X35291734Y35460699D01*
X35306500Y35534933D01*
X35306500Y35818500D01*
X35325407Y35876691D01*
X35374907Y35912655D01*
X35405500Y35917500D01*
X35714501Y35917500D01*
X35772692Y35898593D01*
X35808656Y35849093D01*
X35813501Y35818500D01*
X35813501Y35534929D01*
X35828265Y35460699D01*
X35828266Y35460697D01*
X35884513Y35376519D01*
X35884518Y35376514D01*
X35940638Y35339016D01*
X35968699Y35320266D01*
X36042933Y35305500D01*
X37617063Y35305500D01*
X37617070Y35305501D01*
X37691300Y35320265D01*
X37691302Y35320266D01*
X37775480Y35376513D01*
X37775481Y35376514D01*
X37775484Y35376516D01*
X37831734Y35460699D01*
X37846500Y35534933D01*
X37846499Y37109066D01*
X37831734Y37183301D01*
X37775484Y37267484D01*
X37691301Y37323734D01*
X37617067Y37338500D01*
X36042934Y37338499D01*
X36042929Y37338498D01*
X35968699Y37323734D01*
X35968697Y37323733D01*
X35968696Y37323732D01*
X35884516Y37267484D01*
X35828266Y37183301D01*
X35813501Y37109070D01*
X35813500Y37109067D01*
X35813500Y36825500D01*
X35794593Y36767309D01*
X35745093Y36731345D01*
X35714500Y36726500D01*
X35405499Y36726500D01*
X35347308Y36745407D01*
X35311344Y36794907D01*
X35306499Y36825500D01*
X35306499Y37109063D01*
X35306498Y37109067D01*
X35291734Y37183301D01*
X35235484Y37267484D01*
X35151301Y37323734D01*
X35077067Y37338500D01*
X33502934Y37338499D01*
X33502929Y37338498D01*
X33428699Y37323734D01*
X33428697Y37323733D01*
X33428696Y37323732D01*
X33344516Y37267484D01*
X33288266Y37183301D01*
X33273501Y37109070D01*
X33273500Y37109066D01*
X21341500Y37109066D01*
X21341500Y37492993D01*
X21341500Y37493000D01*
X21338306Y37533591D01*
X21333461Y37564184D01*
X21329485Y37584173D01*
X21287095Y37676124D01*
X21251131Y37725624D01*
X21209722Y37770419D01*
X21121379Y37819893D01*
X21063188Y37838800D01*
X20983003Y37851500D01*
X20983000Y37851500D01*
X16863000Y37851500D01*
X16822409Y37848306D01*
X16791816Y37843461D01*
X16771827Y37839485D01*
X16679876Y37797095D01*
X16679875Y37797094D01*
X16630379Y37761134D01*
X16630376Y37761131D01*
X16585581Y37719722D01*
X16585580Y37719721D01*
X16536107Y37631379D01*
X16517199Y37573186D01*
X16504500Y37493003D01*
X16504500Y28251440D01*
X16510291Y28196929D01*
X16519027Y28156276D01*
X16519031Y28156259D01*
X16528511Y28123070D01*
X16528512Y28123068D01*
X16580663Y28036292D01*
X16580669Y28036283D01*
X16621805Y27991004D01*
X16685133Y27940187D01*
X17167179Y27664731D01*
X17229318Y27639235D01*
X17278434Y27626192D01*
X17345038Y27617499D01*
X17502200Y27617499D01*
X17560391Y27598592D01*
X17596355Y27549092D01*
X17598603Y27540741D01*
X17598623Y27540746D01*
X17598898Y27539644D01*
X17598986Y27539320D01*
X17599023Y27539144D01*
X17599029Y27539123D01*
X17608508Y27505936D01*
X17608509Y27505931D01*
X17660661Y27419149D01*
X17701805Y27373860D01*
X17765132Y27323044D01*
X18301118Y27016766D01*
X18342261Y26971479D01*
X18351000Y26930810D01*
X18351000Y26200436D01*
X18351001Y26200429D01*
X18365765Y26126199D01*
X18365766Y26126197D01*
X18422013Y26042019D01*
X18422019Y26042013D01*
X18498979Y25990590D01*
X18536858Y25942540D01*
X18539081Y25885950D01*
X18540235Y25885697D01*
X18539193Y25880950D01*
X18532001Y25820191D01*
X18535187Y25739061D01*
X18543987Y25694819D01*
X18545889Y25675507D01*
X18545890Y24390210D01*
X18526983Y24332019D01*
X18477483Y24296055D01*
X18446890Y24291210D01*
X18162353Y24291210D01*
X18143917Y24292942D01*
X18143419Y24293036D01*
X18093871Y24302892D01*
X18091416Y24302892D01*
X18084441Y24304215D01*
X18084314Y24304284D01*
X18083361Y24304426D01*
X18071917Y24306730D01*
X17970731Y24303059D01*
X17911193Y24288954D01*
X17836089Y24258108D01*
X12674443Y21116237D01*
X12650945Y21101934D01*
X12599470Y21087500D01*
X2639000Y21087500D01*
X2598409Y21084306D01*
X2567816Y21079461D01*
X2547827Y21075485D01*
X2455876Y21033095D01*
X2455875Y21033094D01*
X2406379Y20997134D01*
X2406376Y20997131D01*
X2361581Y20955722D01*
X2361580Y20955721D01*
X2312107Y20867379D01*
X2293199Y20809186D01*
X2280500Y20729003D01*
X304500Y20729003D01*
X304500Y28219066D01*
X1523500Y28219066D01*
X1523500Y26644936D01*
X1523501Y26644929D01*
X1538265Y26570699D01*
X1538266Y26570697D01*
X1594513Y26486519D01*
X1594518Y26486514D01*
X1643523Y26453770D01*
X1678699Y26430266D01*
X1752933Y26415500D01*
X3327063Y26415500D01*
X3327070Y26415501D01*
X3401300Y26430265D01*
X3401302Y26430266D01*
X3485480Y26486513D01*
X3485481Y26486514D01*
X3485484Y26486516D01*
X3541734Y26570699D01*
X3556500Y26644933D01*
X3556500Y26828500D01*
X3575407Y26886691D01*
X3624907Y26922655D01*
X3655500Y26927500D01*
X3964501Y26927500D01*
X4022692Y26908593D01*
X4058656Y26859093D01*
X4063501Y26828500D01*
X4063501Y26644929D01*
X4078265Y26570699D01*
X4078266Y26570697D01*
X4134513Y26486519D01*
X4134518Y26486514D01*
X4183523Y26453770D01*
X4218699Y26430266D01*
X4292933Y26415500D01*
X5867063Y26415500D01*
X5867070Y26415501D01*
X5941300Y26430265D01*
X5941302Y26430266D01*
X6025480Y26486513D01*
X6025481Y26486514D01*
X6025484Y26486516D01*
X6081734Y26570699D01*
X6096500Y26644933D01*
X6096500Y26828500D01*
X6101345Y26843411D01*
X6101345Y26859093D01*
X6110561Y26871778D01*
X6115407Y26886691D01*
X6128092Y26895907D01*
X6137309Y26908593D01*
X6152221Y26913438D01*
X6164907Y26922655D01*
X6195500Y26927500D01*
X6387041Y26927500D01*
X6445232Y26908593D01*
X6457045Y26898504D01*
X7706074Y25649473D01*
X7733851Y25594956D01*
X7735070Y25579469D01*
X7735070Y23904276D01*
X7735071Y23904269D01*
X7749835Y23830039D01*
X7749836Y23830037D01*
X7806083Y23745859D01*
X7806088Y23745854D01*
X7862208Y23708356D01*
X7890269Y23689606D01*
X7949736Y23677777D01*
X7964502Y23674840D01*
X7964503Y23674840D01*
X9639701Y23674840D01*
X9697892Y23655933D01*
X9709704Y23645844D01*
X10137247Y23218301D01*
X10137249Y23218299D01*
X10137250Y23218299D01*
X10209798Y23176414D01*
X10209800Y23176413D01*
X10252287Y23151882D01*
X10252289Y23151881D01*
X10252290Y23151881D01*
X10380601Y23117500D01*
X10380602Y23117500D01*
X10396957Y23117500D01*
X10455148Y23098593D01*
X10466961Y23088504D01*
X10476414Y23079050D01*
X10590901Y23002552D01*
X10718108Y22949862D01*
X10853152Y22923000D01*
X10853155Y22923000D01*
X10990847Y22923000D01*
X11080875Y22940908D01*
X11125891Y22949862D01*
X11125892Y22949862D01*
X11253098Y23002552D01*
X11253099Y23002552D01*
X11367585Y23079050D01*
X11464949Y23176414D01*
X11541447Y23290900D01*
X11541447Y23290901D01*
X11567792Y23354504D01*
X11594138Y23418109D01*
X11621000Y23553155D01*
X11621000Y23690845D01*
X11594138Y23825891D01*
X11541446Y23953101D01*
X11464949Y24067586D01*
X11367586Y24164949D01*
X11253101Y24241446D01*
X11125891Y24294138D01*
X10990845Y24321000D01*
X10853155Y24321000D01*
X10718109Y24294138D01*
X10616759Y24252157D01*
X10555764Y24247357D01*
X10508871Y24273619D01*
X10073925Y24708566D01*
X10046148Y24763082D01*
X10044929Y24778569D01*
X10044929Y26453763D01*
X10044928Y26453770D01*
X10040890Y26474070D01*
X10030164Y26528001D01*
X9973914Y26612184D01*
X9889731Y26668434D01*
X9815497Y26683200D01*
X8140297Y26683199D01*
X8082107Y26702106D01*
X8070301Y26712189D01*
X6946790Y27835701D01*
X6869079Y27880567D01*
X6831750Y27902119D01*
X6703439Y27936500D01*
X6703437Y27936500D01*
X6195499Y27936500D01*
X6137308Y27955407D01*
X6101344Y28004907D01*
X6096499Y28035500D01*
X6096499Y28219063D01*
X6096498Y28219067D01*
X6081734Y28293301D01*
X6025484Y28377484D01*
X5941301Y28433734D01*
X5867067Y28448500D01*
X4292934Y28448499D01*
X4292929Y28448498D01*
X4218699Y28433734D01*
X4218697Y28433733D01*
X4218696Y28433732D01*
X4134516Y28377484D01*
X4078266Y28293301D01*
X4063984Y28221500D01*
X4063500Y28219067D01*
X4063500Y28035500D01*
X4044593Y27977309D01*
X3995093Y27941345D01*
X3964500Y27936500D01*
X3655499Y27936500D01*
X3597308Y27955407D01*
X3561344Y28004907D01*
X3556499Y28035500D01*
X3556499Y28219063D01*
X3556498Y28219067D01*
X3541734Y28293301D01*
X3485484Y28377484D01*
X3401301Y28433734D01*
X3327067Y28448500D01*
X1752934Y28448499D01*
X1752929Y28448498D01*
X1678699Y28433734D01*
X1678697Y28433733D01*
X1678696Y28433732D01*
X1594516Y28377484D01*
X1538266Y28293301D01*
X1523984Y28221500D01*
X1523500Y28219066D01*
X304500Y28219066D01*
X304500Y40236500D01*
X323407Y40294691D01*
X372907Y40330655D01*
X403500Y40335500D01*
X50396500Y40335500D01*
X50454691Y40316593D01*
G37*
%TD.AperFunction*%
%TD*%
%TA.AperFunction,Conductor*%
%TO.N,VSS*%
G36*
X20533191Y13697093D02*
G01*
X20569155Y13647593D01*
X20574000Y13617000D01*
X20574000Y12509910D01*
X20557315Y12454910D01*
X20513336Y12389091D01*
X20498570Y12314856D01*
X20498570Y10865186D01*
X20498571Y10865179D01*
X20514258Y10786313D01*
X20507066Y10725551D01*
X20465532Y10680622D01*
X20417160Y10668000D01*
X19657000Y10668000D01*
X19598809Y10686907D01*
X19562845Y10736407D01*
X19558000Y10767000D01*
X19558000Y13617000D01*
X19576907Y13675191D01*
X19626407Y13711155D01*
X19657000Y13716000D01*
X20475000Y13716000D01*
X20533191Y13697093D01*
G37*
%TD.AperFunction*%
%TD*%
%TA.AperFunction,Conductor*%
%TO.N,VSS*%
G36*
X27391191Y13697093D02*
G01*
X27427155Y13647593D01*
X27432000Y13617000D01*
X27432000Y10767000D01*
X27413093Y10708809D01*
X27363593Y10672845D01*
X27333000Y10668000D01*
X26708254Y10668000D01*
X26700658Y10670467D01*
X26692769Y10669218D01*
X26672111Y10679743D01*
X26650063Y10686907D01*
X26638252Y10696995D01*
X26618522Y10716724D01*
X26590743Y10771240D01*
X26591425Y10806040D01*
X26603190Y10865183D01*
X26603189Y12314856D01*
X26588424Y12389091D01*
X26532174Y12473274D01*
X26459997Y12521501D01*
X26422119Y12569551D01*
X26416000Y12603816D01*
X26416000Y13617000D01*
X26434907Y13675191D01*
X26484407Y13711155D01*
X26515000Y13716000D01*
X27333000Y13716000D01*
X27391191Y13697093D01*
G37*
%TD.AperFunction*%
%TD*%
%TA.AperFunction,Conductor*%
%TO.N,VSS*%
G36*
X21041191Y37573093D02*
G01*
X21077155Y37523593D01*
X21082000Y37493000D01*
X21082000Y33274000D01*
X24608026Y33274000D01*
X24662940Y33257373D01*
X25416627Y32754915D01*
X26923999Y31750000D01*
X26924000Y31750000D01*
X29619000Y31750000D01*
X29677191Y31731093D01*
X29713155Y31681593D01*
X29718000Y31651000D01*
X29718000Y26737026D01*
X29699093Y26678835D01*
X29655768Y26645107D01*
X28465702Y26169081D01*
X28428934Y26162000D01*
X28194000Y26162000D01*
X28194000Y26161999D01*
X28194000Y23975000D01*
X28175093Y23916809D01*
X28125593Y23880845D01*
X28095000Y23876000D01*
X27456272Y23876000D01*
X27398081Y23894907D01*
X27386269Y23904996D01*
X27371890Y23919374D01*
X27242316Y24048947D01*
X27214540Y24103461D01*
X27224111Y24163893D01*
X27230006Y24173951D01*
X27238661Y24186905D01*
X27238664Y24186909D01*
X27253430Y24261143D01*
X27253429Y25710816D01*
X27238664Y25785051D01*
X27194684Y25850869D01*
X27178000Y25905871D01*
X27178000Y25907999D01*
X27178000Y25908000D01*
X26622359Y26463640D01*
X26594584Y26518155D01*
X26593365Y26533642D01*
X26593365Y26625479D01*
X26593365Y26625481D01*
X26566503Y26760527D01*
X26513811Y26887737D01*
X26437314Y27002222D01*
X26339951Y27099585D01*
X26283098Y27137572D01*
X26225473Y27176078D01*
X26225469Y27176079D01*
X26225466Y27176082D01*
X26224216Y27176599D01*
X26223118Y27177055D01*
X26222236Y27177808D01*
X26221181Y27178372D01*
X26221304Y27178603D01*
X26176591Y27216790D01*
X26162000Y27268520D01*
X26162000Y29971999D01*
X26162000Y29972000D01*
X26161999Y29972000D01*
X21336001Y29972000D01*
X21336000Y29972000D01*
X21336000Y29971999D01*
X21336000Y28553057D01*
X21317093Y28494866D01*
X21307004Y28483053D01*
X21255130Y28431179D01*
X21255129Y28431179D01*
X21179819Y28355868D01*
X21179815Y28355863D01*
X21126566Y28263634D01*
X21126565Y28263630D01*
X21098999Y28160752D01*
X21098999Y26315972D01*
X21098999Y26209466D01*
X21102626Y26195929D01*
X21126566Y26106583D01*
X21183063Y26008730D01*
X21181598Y26007884D01*
X21188368Y25987047D01*
X21198166Y25959379D01*
X21198200Y25956789D01*
X21198200Y25866900D01*
X21181515Y25811898D01*
X21163576Y25785051D01*
X21148811Y25710820D01*
X21148810Y25710817D01*
X21148810Y24261146D01*
X21148811Y24261141D01*
X21151363Y24248314D01*
X21144171Y24187552D01*
X21102638Y24142623D01*
X21054265Y24130000D01*
X20419000Y24130000D01*
X20360809Y24148907D01*
X20324845Y24198407D01*
X20320000Y24229000D01*
X20320000Y26161999D01*
X20320000Y26162000D01*
X17893879Y27548354D01*
X17852738Y27593640D01*
X17843999Y27634309D01*
X17843999Y27647563D01*
X17843998Y27647567D01*
X17829234Y27721801D01*
X17772984Y27805984D01*
X17688801Y27862234D01*
X17614567Y27877000D01*
X17345037Y27876999D01*
X17295927Y27890041D01*
X16813880Y28165497D01*
X16772739Y28210782D01*
X16764000Y28251451D01*
X16764000Y37493000D01*
X16782907Y37551191D01*
X16832407Y37587155D01*
X16863000Y37592000D01*
X20983000Y37592000D01*
X21041191Y37573093D01*
G37*
%TD.AperFunction*%
%TD*%
M02*
