%TF.GenerationSoftware,KiCad,Pcbnew,9.0.1+1*%
%TF.CreationDate,2025-08-19T22:17:54+00:00*%
%TF.ProjectId,HBSTEP01,48425354-4550-4303-912e-6b696361645f,rev?*%
%TF.SameCoordinates,Original*%
%TF.FileFunction,Paste,Bot*%
%TF.FilePolarity,Positive*%
%FSLAX46Y46*%
G04 Gerber Fmt 4.6, Leading zero omitted, Abs format (unit mm)*
G04 Created by KiCad (PCBNEW 9.0.1+1) date 2025-08-19 22:17:54*
%MOMM*%
%LPD*%
G01*
G04 APERTURE LIST*
%ADD10R,0.889000X1.397000*%
%ADD11R,1.397000X0.889000*%
%ADD12R,1.950720X2.499360*%
%ADD13R,2.499360X2.550160*%
%ADD14R,1.800860X2.499360*%
%ADD15R,1.699260X1.300480*%
%ADD16R,0.398780X1.399540*%
%ADD17R,3.098800X2.898140*%
%ADD18R,9.799320X6.197600*%
%ADD19R,0.800100X1.000760*%
G04 APERTURE END LIST*
D10*
%TO.C,C1*%
X19050000Y26924000D03*
X17145000Y26924000D03*
%TD*%
%TO.C,C2*%
X23431500Y28702000D03*
X25336500Y28702000D03*
%TD*%
D11*
%TO.C,C3*%
X32639000Y11874500D03*
X32639000Y9969500D03*
%TD*%
D12*
%TO.C,C4*%
X21107400Y2794000D03*
X18008600Y2794000D03*
%TD*%
D10*
%TO.C,C5*%
X16700500Y9144000D03*
X14795500Y9144000D03*
%TD*%
D13*
%TO.C,C6*%
X28448000Y29733240D03*
X28448000Y34782760D03*
%TD*%
D11*
%TO.C,C9*%
X41148000Y26606500D03*
X41148000Y24701500D03*
%TD*%
%TO.C,C11*%
X20574000Y5397500D03*
X20574000Y7302500D03*
%TD*%
D14*
%TO.C,D1*%
X23368000Y35526980D03*
X23368000Y31529020D03*
%TD*%
%TO.C,D2*%
X8890000Y29176980D03*
X8890000Y25179020D03*
%TD*%
D15*
%TO.C,D4*%
X40132000Y8608060D03*
X40132000Y5107940D03*
%TD*%
D10*
%TO.C,R1*%
X34099500Y2540000D03*
X36004500Y2540000D03*
%TD*%
D11*
%TO.C,R2*%
X39116000Y30162500D03*
X39116000Y28257500D03*
%TD*%
%TO.C,R3*%
X41148000Y30162500D03*
X41148000Y28257500D03*
%TD*%
D16*
%TO.C,U1*%
X29400500Y11590020D03*
X28750260Y11590020D03*
X28100020Y11590020D03*
X27449780Y11590020D03*
X26799540Y11590020D03*
X26149300Y11590020D03*
X25499060Y11590020D03*
X24848820Y11590020D03*
X24198580Y11590020D03*
X23553420Y11590020D03*
X22903180Y11590020D03*
X22252940Y11590020D03*
X21602700Y11590020D03*
X20952460Y11590020D03*
X20302220Y11590020D03*
X19651980Y11590020D03*
X19001740Y11590020D03*
X18351500Y11590020D03*
X18351500Y24985980D03*
X19001740Y24985980D03*
X19651980Y24985980D03*
X20302220Y24985980D03*
X20952460Y24985980D03*
X21602700Y24985980D03*
X22252940Y24985980D03*
X22903180Y24985980D03*
X23553420Y24985980D03*
X24198580Y24985980D03*
X24848820Y24985980D03*
X25499060Y24985980D03*
X26149300Y24985980D03*
X26799540Y24985980D03*
X27449780Y24985980D03*
X28100020Y24985980D03*
X28750260Y24985980D03*
X29400500Y24985980D03*
D17*
X30325060Y18288000D03*
D18*
X23876000Y18288000D03*
D17*
X17426940Y18288000D03*
%TD*%
D10*
%TO.C,C10*%
X18605500Y9144000D03*
X20510500Y9144000D03*
%TD*%
%TO.C,R4*%
X24193500Y2540000D03*
X26098500Y2540000D03*
%TD*%
%TO.C,R5*%
X28257500Y2540000D03*
X30162500Y2540000D03*
%TD*%
D11*
%TO.C,C8*%
X39116000Y26098500D03*
X39116000Y24193500D03*
%TD*%
D10*
%TO.C,C7*%
X38163500Y2540000D03*
X40068500Y2540000D03*
%TD*%
D11*
%TO.C,C12*%
X37719000Y6794500D03*
X37719000Y8699500D03*
%TD*%
D19*
%TO.C,D3*%
X16954500Y7195820D03*
X18859500Y7195820D03*
X17907000Y4996180D03*
%TD*%
D10*
%TO.C,C14*%
X39941500Y11176000D03*
X41846500Y11176000D03*
%TD*%
%TO.C,R6*%
X35877500Y11176000D03*
X37782500Y11176000D03*
%TD*%
D11*
%TO.C,R7*%
X35433000Y7556500D03*
X35433000Y5651500D03*
%TD*%
%TO.C,C15*%
X22733000Y7302500D03*
X22733000Y5397500D03*
%TD*%
M02*
